<svg xmlns="http://www.w3.org/2000/svg" xmlns:xlink="http://www.w3.org/1999/xlink" width="120" height="120" viewBox="0 0 120 120">
  <defs>
    <clipPath id="clip-_02_finance">
      <rect width="120" height="120"/>
    </clipPath>
  </defs>
  <g id="_02_finance" data-name="02_finance" clip-path="url(#clip-_02_finance)">
    <g id="noun_finance_2322410" transform="translate(8.981 -18)">
      <g id="Group_20219" data-name="Group 20219" transform="translate(2.659 30)">
        <path id="Path_114657" data-name="Path 114657" d="M77.589,75.979h46.1A46.039,46.039,0,0,0,77.589,30ZM72.954,80V33.9c-42.93,0-61.956,53.419-30,80.982,29.271,25.246,76.1,4.878,76.1-34.881Zm10-46.345L81,35.61v.976l2.805-2.805ZM81,34.147l.61-.61H81Zm39.028,37.808-.61.61h.732a33.67,33.67,0,0,0-.732-4.878l-4.878,4.878h.976l4.025-4.025a4.333,4.333,0,0,1,.244,1.22l-2.805,2.805h.976l1.951-1.951C119.909,71.1,120.031,71.467,120.031,71.955Zm-6.952.61,6.1-6.1-.122-.732-6.952,6.83Zm-2.439,0,8.049-8.049h0l-.244-.732-8.781,8.781Zm-2.439,0,9.879-9.879h0l-.244-.732L107.347,72.565Zm-2.439,0L117.47,60.856l-.244-.61L104.908,72.565Zm-2.439,0,13.416-13.416-.244-.61L102.469,72.565Zm-2.439,0,15.123-15.123-.244-.61L100.03,72.565Zm-2.439,0,16.709-16.709-.244-.61L97.59,72.565Zm-2.439,0L114.3,54.27l-.366-.488L95.151,72.565Zm-2.439,0,19.88-19.758-.366-.61L92.712,72.565Zm-2.317,0L112.47,51.343l-.488-.488L90.273,72.565Zm-2.439,0L111.372,50l-.366-.61L87.833,72.565Zm-2.439,0,23.9-23.9-.366-.488L85.394,72.565Zm-2.439,0,25.246-25.246-.488-.488L82.955,72.565Zm-2.439,0L107.957,46.1l-.488-.488L81,72.077v.488ZM81,70.613l25.734-25.734-.488-.488L81,69.637Zm0-2.439L105.518,43.66l-.61-.366L81,67.2Zm0-2.439,23.173-23.173-.61-.366L81,64.759ZM81,63.3l21.709-21.709-.488-.366L81,62.32Zm0-2.439,20.368-20.246-.61-.366L81,59.881Zm0-2.439L99.786,39.635l-.488-.366L81,57.441Zm0-2.439L98.322,38.659l-.61-.244L81,55.124h0Zm0-2.439L96.737,37.927l-.61-.366L81,52.685ZM81,51.1,95.029,37.074l-.61-.244L81,50.246Zm0-2.439L93.322,36.342l-.61-.244L81,47.806Zm0-2.439L91.614,35.732l-.732-.244L81,45.367Zm0-2.439,8.781-8.659-.732-.244L81,42.928Zm0-2.439,6.83-6.708-.732-.244h0l-6.1,6.1Zm0-2.317,4.878-4.878-.854-.122L81,38.049Z" transform="translate(-26.971 -30)" fill="#555" fill-rule="evenodd"/>
      </g>
    </g>
  </g>
</svg>
