<svg xmlns="http://www.w3.org/2000/svg" xmlns:xlink="http://www.w3.org/1999/xlink" width="120" height="120" viewBox="0 0 120 120">
  <defs>
    <clipPath id="clip-_04_fitness">
      <rect width="120" height="120"/>
    </clipPath>
  </defs>
  <g id="_04_fitness" data-name="04_fitness" clip-path="url(#clip-_04_fitness)">
    <g id="noun_Cycling_1208992" transform="translate(15.869 16)">
      <g id="Group_20224" data-name="Group 20224" transform="translate(1.825 2)">
        <g id="Group_20221" data-name="Group 20221" transform="translate(37.523 53.785)">
          <path id="Path_114676" data-name="Path 114676" d="M35.835,58.693H33.209l17-23.174a1.75,1.75,0,0,0-2.822-2.071L28.868,58.693H25.017a1.75,1.75,0,1,0,0,3.5H35.835a1.75,1.75,0,1,0,0-3.5Z" transform="translate(-23.267 -32.734)" fill="#555"/>
        </g>
        <g id="Group_20222" data-name="Group 20222">
          <path id="Path_114677" data-name="Path 114677" d="M18.274,27.467,15.545,28.6a1.726,1.726,0,0,0-.945.945,1.749,1.749,0,0,0,0,1.33l7.71,18.674L35.445,44.42,25.8,26.077a1.746,1.746,0,0,0-2.223-.8l-2.069.857-5.785-14,5.2-1.108a1.75,1.75,0,1,0-.73-3.423L8.548,10.08,5.154,2.994A1.75,1.75,0,1,0,2,4.507l3.99,8.328a1.751,1.751,0,0,0,1.577.994,1.779,1.779,0,0,0,.366-.038l4.312-.918Z" transform="translate(-1.825 -2)" fill="#555"/>
        </g>
        <g id="Group_20223" data-name="Group 20223" transform="translate(10.954 1.577)">
          <path id="Path_114678" data-name="Path 114678" d="M81.392,53.121A19.982,19.982,0,0,0,61.938,36.87V16.528h1.5a4.069,4.069,0,0,0,4.007-3.2L68.67,7.919a4.057,4.057,0,0,0-.8-3.465,4.013,4.013,0,0,0-3.658-1.522L48.3,4.7a4.1,4.1,0,0,0-3.657,4.077v3.64a4.13,4.13,0,0,0,4.112,4.112h9.683V37.156a20.1,20.1,0,0,0-3.925,1.072L15.856,53.313A12.183,12.183,0,0,0,20.1,76.851v4.973H18.3a1.75,1.75,0,1,0,0,3.5h7.089a1.75,1.75,0,1,0,0-3.5H23.6V76.862l15.421-.026L50.107,61.724a11.334,11.334,0,1,1,8.466,6.212l-6.515,8.878,9.248-.016v5.025H59.512a1.75,1.75,0,1,0,0,3.5H66.6a1.75,1.75,0,0,0,0-3.5H64.806V76.542A19.909,19.909,0,0,0,81.392,53.121Z" transform="translate(-8.085 -2.901)" fill="#555"/>
        </g>
      </g>
    </g>
  </g>
</svg>
