<svg xmlns="http://www.w3.org/2000/svg" xmlns:xlink="http://www.w3.org/1999/xlink" width="120" height="120" viewBox="0 0 120 120">
  <defs>
    <clipPath id="clip-_05_social">
      <rect width="120" height="120"/>
    </clipPath>
  </defs>
  <g id="_05_social" data-name="05_social" clip-path="url(#clip-_05_social)">
    <g id="social-media" transform="translate(-17.161 -29.972)">
      <path id="Exclusion_4" data-name="Exclusion 4" d="M-10876.186,8545.245v-11.657h-24.944a12.7,12.7,0,0,1-12.709-12.668v-45.276a12.705,12.705,0,0,1,12.709-12.673h45.416a12.7,12.7,0,0,1,12.7,12.673v34.66h-4.979a9.018,9.018,0,0,0-9.022,8.992v14.292h-4.075l-15.092,11.654Zm-6.552-38.278h5.984l-1.366,8.264a2.46,2.46,0,0,0,.431,1.848,2.464,2.464,0,0,0,1.612,1,2.406,2.406,0,0,0,.405.033,2.47,2.47,0,0,0,2.446-2.076l1.5-9.072h9.956a2.482,2.482,0,0,0,2.479-2.479,2.483,2.483,0,0,0-2.479-2.481h-9.135l1-6.051h8.135a2.483,2.483,0,0,0,2.479-2.481,2.483,2.483,0,0,0-2.479-2.481h-7.312l1.366-8.264a2.485,2.485,0,0,0-2.043-2.851,2.515,2.515,0,0,0-.409-.034,2.474,2.474,0,0,0-2.445,2.077l-1.5,9.071h-5.984l1.366-8.264a2.464,2.464,0,0,0-.432-1.848,2.46,2.46,0,0,0-1.611-1,2.545,2.545,0,0,0-.41-.034,2.467,2.467,0,0,0-2.441,2.077l-1.5,9.071h-9.953a2.484,2.484,0,0,0-2.481,2.481,2.483,2.483,0,0,0,2.481,2.479h9.132l-1,6.053h-8.132a2.483,2.483,0,0,0-2.481,2.479,2.484,2.484,0,0,0,2.481,2.481h7.311l-1.364,8.264a2.46,2.46,0,0,0,.431,1.848,2.464,2.464,0,0,0,1.612,1,2.458,2.458,0,0,0,.408.033,2.469,2.469,0,0,0,2.443-2.076l1.5-9.071Zm6.8-4.96h-5.984l1-6.053h5.982l-1,6.052Z" transform="translate(10937.07 -8425.393)" fill="#555"/>
      <path id="Exclusion_3" data-name="Exclusion 3" d="M-10887.114,8521.353v-8.27h-17.705a9.016,9.016,0,0,1-9.02-8.992v-32.128a9.016,9.016,0,0,1,9.02-8.992h32.228a9.016,9.016,0,0,1,9.02,8.992v32.128a9.016,9.016,0,0,1-9.02,8.992h-3.812l-10.708,8.269Zm-6.909-45a8.673,8.673,0,0,0-2.053.248,9.23,9.23,0,0,0-6.883,9.313,12.178,12.178,0,0,0,3.664,8.719c2.018,2.109,4.925,4.114,9.428,6.5a2.483,2.483,0,0,0,1.161.29,2.472,2.472,0,0,0,1.162-.29c7.858-4.166,13.092-8.35,13.092-15.221a9.167,9.167,0,0,0-7.127-9.263,9.15,9.15,0,0,0-1.974-.22,8.059,8.059,0,0,0-5.183,1.821A8.339,8.339,0,0,0-10894.023,8476.354Z" transform="translate(10995.853 -8375.773)" fill="#555"/>
    </g>
  </g>
</svg>
