<svg xmlns="http://www.w3.org/2000/svg" xmlns:xlink="http://www.w3.org/1999/xlink" width="120" height="120" viewBox="0 0 120 120">
  <defs>
    <clipPath id="clip-_07_logistics">
      <rect width="120" height="120"/>
    </clipPath>
  </defs>
  <g id="_07_logistics" data-name="07_logistics" clip-path="url(#clip-_07_logistics)">
    <g id="surface1" transform="translate(6.578 27.511)">
      <path id="Path_114734" data-name="Path 114734" d="M1.147,38.832,16,44.966l-3.15,1.468a1.882,1.882,0,0,0-.886,2.419l4.28,9.2a1.873,1.873,0,0,0,1.058.975,1.832,1.832,0,0,0,1.438,0L51.3,43.753l.41-4.333.571-5.8A1.39,1.39,0,0,1,53.8,32.359a1.374,1.374,0,0,1,1.141.814,1.284,1.284,0,0,1,.155.713l-3.774,39.99a3.744,3.744,0,0,0,2.924.648c1.438-.38,2.716-2.063,3.774-4.832l15.1-44.948.434-1.278a1.416,1.416,0,0,1,2.716.8,1.053,1.053,0,0,0-.036.1L74.762,28.68,73.1,33.625,98.6,21.678c7.364-3.442,11.151-10.408,8.607-15.84A9.546,9.546,0,0,0,99.833.684,17.541,17.541,0,0,0,89.521,2.271L60.645,15.746l-31-12.1c-3.905-1.468-7-1.432-9.171.137a7.707,7.707,0,0,0-2.811,6.1,1.893,1.893,0,0,0,.808,1.486L39.354,25.672,27.383,31.337,7.317,26.314a1.9,1.9,0,0,0-2.092.9L.243,36.169a1.883,1.883,0,0,0,.719,2.568C1.022,38.772,1.088,38.8,1.147,38.832Zm0,0" transform="translate(0 0)" fill="#555"/>
    </g>
  </g>
</svg>
