<svg xmlns="http://www.w3.org/2000/svg" xmlns:xlink="http://www.w3.org/1999/xlink" width="120" height="120" viewBox="0 0 120 120">
  <defs>
    <clipPath id="clip-_08_retail">
      <rect width="120" height="120"/>
    </clipPath>
  </defs>
  <g id="_08_retail" data-name="08_retail" clip-path="url(#clip-_08_retail)">
    <g id="groceries" transform="translate(16.076 12)">
      <path id="Path_114738" data-name="Path 114738" d="M76.476,42.274a118.924,118.924,0,0,0,5.466-31.8,12.1,12.1,0,0,0-3.163-8.256A7.032,7.032,0,0,0,70.09.945c-5.047,2.6-8.657,10.264-11.556,16.421L58.04,18.41a9.785,9.785,0,0,0-5.355-6.779A8.06,8.06,0,0,0,46.42,5.4a5.226,5.226,0,0,0-.128-.522A5.829,5.829,0,0,0,41.461.756a5.674,5.674,0,0,0-3.592.737A6.143,6.143,0,0,0,34.881.715,6.226,6.226,0,0,0,28.83,5.507a7.613,7.613,0,0,0-5.593,7.251,8.462,8.462,0,0,0-5.762,11.25,6.648,6.648,0,0,0-.928,6.83,8.979,8.979,0,0,0-6.732-3.249,1.69,1.69,0,0,0,.051,3.379c.057,0,.11,0,.164,0a5.868,5.868,0,0,1,4.126,2.264C11.476,34,8.245,35.258,6.738,38.1a8.594,8.594,0,0,0-.416,6.2,2.907,2.907,0,0,0-.416,1.685L8.783,86.862A9.624,9.624,0,0,0,18.4,96H65.832a9.617,9.617,0,0,0,9.615-9.108L78.4,44.571a2.231,2.231,0,0,0-.607-1.646A2.182,2.182,0,0,0,76.476,42.274ZM59.421,23.244c.669-1.249,1.4-2.8,2.171-4.437,2.54-5.394,6.021-12.78,10.047-14.858a3.651,3.651,0,0,1,4.719.632,8.781,8.781,0,0,1,2.205,5.809,115.724,115.724,0,0,1-5.426,31.25c-.11.353-.353,1.066-.7,2.045l-2.879,1.279a1.572,1.572,0,0,0-.182.1,5.28,5.28,0,0,1-5.392,0l-1.2-.723a8.743,8.743,0,0,0-4.491-1.244,9.539,9.539,0,0,0-4.6,1.245l-1.2.723a5.28,5.28,0,0,1-2.158.669c.037-.127.079-.252.117-.379.468-1.6.973-3.168,1.5-4.728.193-.571.394-1.137.6-1.7q.662-1.86,1.379-3.682c.2-.519.4-1.044.612-1.558A110.918,110.918,0,0,1,59.421,23.244ZM39.9,43.236c-.186.032-.37.066-.553.11a8.685,8.685,0,0,0-1.631.522l-.324-1.484c.487.041.972.081,1.426.081a13.067,13.067,0,0,0,8.047-2.817A20.7,20.7,0,0,1,49.2,38.19c-.155.441-.309.88-.46,1.323-.108.318-.225.63-.329.95Q47.671,42.719,47,45.012l-1.124-.673A8.743,8.743,0,0,0,41.39,43.1a8.576,8.576,0,0,0-1.215.1C40.084,43.2,39.991,43.222,39.9,43.236ZM37.213,20.4a.7.7,0,1,1-.3-1.365l9.479-2.056a.7.7,0,0,1,.684.549.689.689,0,0,1-.1.527.7.7,0,0,1-.436.306Zm.666,6.854c.2-.253.39-.5.576-.747a4.168,4.168,0,0,0,.348-.546,3.621,3.621,0,0,0,.321-2.519L46.177,21.9a3.861,3.861,0,0,0,.179.63A3.789,3.789,0,0,0,48.022,24.4c.257.142.526.284.8.431.228.12.456.245.686.37.11.059.221.118.331.179.2.113.4.238.591.362.167.1.333.21.5.323.188.13.367.274.546.419.157.128.308.269.456.412s.319.318.466.493a5.811,5.811,0,0,1,.715,1.021c-.716,1.582-1.391,3.2-2.043,4.823-.1.252-.21.5-.309.749A17.246,17.246,0,0,0,44.908,36.9a9.945,9.945,0,0,1-8.275,2.009l-1.026-4.7C34.911,31.034,36.42,29.111,37.878,27.251Zm-10,42.016a1.69,1.69,0,1,1,0,3.379H16.045a1.69,1.69,0,1,1,0-3.379ZM16.045,76.025H31.253a1.69,1.69,0,1,1,0,3.379H16.045a1.69,1.69,0,1,1,0-3.379Zm4.54-50.375,1.107-.912L20.974,23.5a5.081,5.081,0,0,1,4.194-7.629l2.051-.086-.478-2a4.164,4.164,0,0,1-.122-.977,4.206,4.206,0,0,1,3.87-4.175l1.561-.118V6.837A2.838,2.838,0,0,1,34.884,4.1a2.789,2.789,0,0,1,1.887.74l1.185,1.07,1.136-1.122a2.339,2.339,0,0,1,1.972-.669,2.437,2.437,0,0,1,1.987,1.72,2.2,2.2,0,0,1,.079.9l-.2,1.886h1.9a4.652,4.652,0,0,1,4.627,4.321l.076,1.11,1.049.368a6.441,6.441,0,0,1,4.319,6.223A6.1,6.1,0,0,1,53.8,23.995a17.878,17.878,0,0,0-3.373-2.146c-.265-.14-.522-.275-.781-.419a.37.37,0,0,1-.191-.289.964.964,0,0,1,.235-.75,3.627,3.627,0,0,0,.794-3.121l-.2-.931a3.659,3.659,0,0,0-4.287-2.749l-.451.1c-.005,0-.01,0-.014,0l-4.959,1.085L35.727,15.83a3.6,3.6,0,0,0-2.748,4.289l.1.46v.005s0,0,0,.007l.1.458a3.6,3.6,0,0,0,2.09,2.53,1.024,1.024,0,0,1,.559.546c.044.125.019.189-.079.351-.169.225-.348.455-.532.688s-.382.49-.578.749c-.061.079-.118.162-.179.243-.145.2-.289.4-.434.608-.073.106-.144.216-.216.326-.13.2-.257.407-.38.622-.069.12-.137.238-.2.362-.128.238-.245.49-.358.745-.047.106-.1.208-.142.318a9.738,9.738,0,0,0-.387,1.161c-.015.061-.022.127-.037.189a9.326,9.326,0,0,0-.191,1.083c-.017.149-.02.3-.03.458-.014.2-.039.39-.039.6-.049-.064-.1-.118-.145-.181-.112-.145-.223-.277-.335-.416-.25-.309-.5-.6-.754-.879-.123-.135-.248-.269-.372-.4-.265-.27-.534-.519-.8-.752-.1-.086-.2-.182-.3-.264a10.217,10.217,0,0,0-1.08-.772c-.11-.068-.221-.118-.331-.181a8.215,8.215,0,0,0-.791-.4c-.145-.063-.292-.117-.439-.167a6.819,6.819,0,0,0-.727-.213c-.147-.035-.294-.074-.441-.1a6.577,6.577,0,0,0-.928-.088c-.071,0-.142-.02-.213-.02a8.776,8.776,0,0,0-4.772,1.609,3.217,3.217,0,0,1-.237-1.217A3.275,3.275,0,0,1,20.586,25.651ZM9.729,39.68c.715-1.347,2.45-2.374,5.463-3.236a9.119,9.119,0,0,0,3.778-2.168c.471-.451.918-.841,1.348-1.191a13.686,13.686,0,0,1,1.11-.821l.041-.025a6.759,6.759,0,0,1,1.975-.923l.074-.017a3.824,3.824,0,0,1,.875-.112c2.126,0,4.405,2.121,6.776,6.3a12.823,12.823,0,0,1,1.117,8.249c-.127-.012-.25-.029-.375-.049a5.257,5.257,0,0,1-1.722-.627l-1.2-.723A8.743,8.743,0,0,0,24.494,43.1a9.539,9.539,0,0,0-4.6,1.245l-.586.351a6.473,6.473,0,0,1-6.627,0L10.4,43.327a2.917,2.917,0,0,0-.953-.362A4.85,4.85,0,0,1,9.729,39.68Zm24.9,46.483H16.045a1.69,1.69,0,1,1,0-3.379H34.632a1.69,1.69,0,1,1,0,3.379Z" transform="translate(0 0)" fill="#555"/>
    </g>
  </g>
</svg>
