<svg xmlns="http://www.w3.org/2000/svg" xmlns:xlink="http://www.w3.org/1999/xlink" width="120" height="120" viewBox="0 0 120 120">
  <defs>
    <clipPath id="clip-_09_education">
      <rect width="120" height="120"/>
    </clipPath>
  </defs>
  <g id="_09_education" data-name="09_education" clip-path="url(#clip-_09_education)">
    <g id="open-book" transform="translate(5.025 -19.719)">
      <g id="Group_20226" data-name="Group 20226" transform="translate(0 35.048)">
        <g id="Group_20225" data-name="Group 20225">
          <path id="Path_114679" data-name="Path 114679" d="M38.757,35.049h-.009a3.878,3.878,0,0,0-2.757,1.142,3.918,3.918,0,0,0-1.158,2.792v59a3.948,3.948,0,0,0,3.939,3.933c9.158.022,24.5,1.931,35.086,13.007V53.179a3.77,3.77,0,0,0-.541-1.992C64.63,37.2,47.936,35.07,38.757,35.049Z" transform="translate(-21.938 -35.049)" fill="#555"/>
          <path id="Path_114680" data-name="Path 114680" d="M195.776,97.98v-59a3.918,3.918,0,0,0-1.158-2.792,3.879,3.879,0,0,0-2.756-1.142h-.01c-9.178.022-25.873,2.148-34.561,16.138a3.77,3.77,0,0,0-.54,1.992V114.92c10.585-11.077,25.928-12.986,35.086-13.007A3.948,3.948,0,0,0,195.776,97.98Z" transform="translate(-98.722 -35.048)" fill="#555"/>
          <path id="Path_114681" data-name="Path 114681" d="M214.015,71.8h-2.853v49.326a10.066,10.066,0,0,1-10.033,10.042c-7.768.019-20.576,1.537-29.647,10.123,15.688-3.841,32.227-1.344,41.652.8a3.934,3.934,0,0,0,4.814-3.833V75.735A3.938,3.938,0,0,0,214.015,71.8Z" transform="translate(-107.999 -58.195)" fill="#555"/>
          <path id="Path_114682" data-name="Path 114682" d="M6.787,121.127V71.8H3.934A3.939,3.939,0,0,0,0,75.735v62.526a3.934,3.934,0,0,0,4.814,3.833c9.425-2.148,25.964-4.645,41.652-.8-9.071-8.585-21.879-10.1-29.647-10.122A10.066,10.066,0,0,1,6.787,121.127Z" transform="translate(0 -58.195)" fill="#555"/>
        </g>
      </g>
    </g>
  </g>
</svg>
