<svg xmlns="http://www.w3.org/2000/svg" xmlns:xlink="http://www.w3.org/1999/xlink" width="120" height="120" viewBox="0 0 120 120">
  <defs>
    <clipPath id="clip-_16_foods">
      <rect width="120" height="120"/>
    </clipPath>
  </defs>
  <g id="_16_foods" data-name="16_foods" clip-path="url(#clip-_16_foods)">
    <g id="restaurant-cutlery-circular-symbol-of-a-spoon-and-a-fork-in-a-circle" transform="translate(12 12)">
      <g id="Group_68737" data-name="Group 68737">
        <path id="Path_115301" data-name="Path 115301" d="M70.308,29.813A40.454,40.454,0,0,0,52.884,106.79l1.267-24.483s-2.383-.782-2.905-1.037c-5.055-2.227-8.728-8.783-8.728-17.293,0-9.286,7.2-17.284,14.163-17.35h.026c6.964.066,14.165,8.064,14.165,17.35,0,8.509-3.677,15.063-8.722,17.293-.04.017-2.928,1.066-2.928,1.066l1.415,27.223a39.683,39.683,0,0,0,22.545-.911l1.254-24.261a13.006,13.006,0,0,1-7.89-5.47c-2.188-3.278,1.685-32.292,1.685-32.292h2.52V73.852h2.5V46.628h2.736v27.23h2.49V46.628H91.32v27.23h2.5V46.628h1.934s3.873,29.014,1.682,32.292a13.043,13.043,0,0,1-7.8,5.455l-.111.041,1.09,20.868a40.459,40.459,0,0,0-20.3-75.472Z" transform="translate(-22.305 -22.296)" fill="#555"/>
        <path id="Path_115302" data-name="Path 115302" d="M94.029,143.6a11.635,11.635,0,0,1,.349-1.161.529.529,0,0,0-.295-.59.484.484,0,0,0-.636.138s-.277.441-.678,1.093a11.73,11.73,0,0,0-1.14,2.574,21.284,21.284,0,0,0-.781,3.735,17.818,17.818,0,0,0-.057,2.165,10.248,10.248,0,0,0,.415,2.3c.8,2.26,1.408,4.449,3.618,6.608a12.456,12.456,0,0,0,1.935,1.567l.183.129c.111.073.218.141.324.2a3.712,3.712,0,0,0,.779.322.468.468,0,0,0,.532-.223.475.475,0,0,0-.157-.562,5.063,5.063,0,0,1-.576-.63,11.436,11.436,0,0,1-.741-1.016c-.2-.287-.431-.612-.648-.929-1.077-1.644-1.7-3.937-2.556-6.287a8.364,8.364,0,0,1-.358-1.732,17.674,17.674,0,0,1-.1-1.85,24.445,24.445,0,0,1,.152-3.435A13.408,13.408,0,0,1,94.029,143.6Z" transform="translate(-67.891 -106.032)" fill="#555"/>
        <path id="Path_115303" data-name="Path 115303" d="M48,0A48,48,0,1,0,96,48,48.058,48.058,0,0,0,48,0Zm0,92.42A44.422,44.422,0,1,1,92.426,48,44.473,44.473,0,0,1,48,92.42Z" fill="#555"/>
      </g>
    </g>
  </g>
</svg>
