<svg xmlns="http://www.w3.org/2000/svg" xmlns:xlink="http://www.w3.org/1999/xlink" width="120" height="120" viewBox="0 0 120 120">
  <defs>
    <clipPath id="clip-_16_transportation">
      <rect width="120" height="120"/>
    </clipPath>
  </defs>
  <g id="_16_transportation" data-name="16_transportation" clip-path="url(#clip-_16_transportation)">
    <g id="delivery-truck" transform="translate(6 -64.674)">
      <path id="Path_114683" data-name="Path 114683" d="M3.79,141.512V95.562a4.623,4.623,0,0,1,4.623-4.623H54.339a4.623,4.623,0,0,1,4.623,4.623v45.95a1.541,1.541,0,0,1-1.541,1.541H5.331A1.541,1.541,0,0,1,3.79,141.512Zm37.087,15.742a9.589,9.589,0,1,1-9.589-9.589A9.589,9.589,0,0,1,40.877,157.254Zm-4.795,0a4.795,4.795,0,1,0-4.795,4.795A4.795,4.795,0,0,0,36.082,157.254Zm-13.053-9.589H1.541A1.541,1.541,0,0,0,0,149.206v4.676a1.541,1.541,0,0,0,1.541,1.541H18.764A12.649,12.649,0,0,1,23.029,147.665Zm68.019,9.589a9.589,9.589,0,1,1-9.589-9.589A9.589,9.589,0,0,1,91.048,157.254Zm-4.794,0a4.795,4.795,0,1,0-4.795,4.795A4.795,4.795,0,0,0,86.254,157.254ZM108,149.206v4.676a1.541,1.541,0,0,1-1.541,1.541H93.982a12.654,12.654,0,0,0-25.046,0H43.811a12.65,12.65,0,0,0-4.264-7.758H63.369V103.584a3.082,3.082,0,0,1,3.082-3.082H81a12.328,12.328,0,0,1,10.218,5.43l9.379,13.892a12.329,12.329,0,0,1,2.111,6.9v20.942h3.751A1.541,1.541,0,0,1,108,149.206ZM92.366,120.179l-7.5-10.658a1.541,1.541,0,0,0-1.26-.654h-11.7a1.541,1.541,0,0,0-1.541,1.541v10.658a1.541,1.541,0,0,0,1.541,1.541h19.2A1.541,1.541,0,0,0,92.366,120.179Z" fill="#555"/>
    </g>
  </g>
</svg>
