<svg xmlns="http://www.w3.org/2000/svg" xmlns:xlink="http://www.w3.org/1999/xlink" width="120" height="120" viewBox="0 0 120 120">
  <defs>
    <clipPath id="clip-_17_sports">
      <rect width="120" height="120"/>
    </clipPath>
  </defs>
  <g id="_17_sports" data-name="17_sports" clip-path="url(#clip-_17_sports)">
    <g id="ball-of-basketball" transform="translate(11.877 12)">
      <g id="_x31_4_26_" transform="translate(0.123)">
        <g id="Group_68736" data-name="Group 68736" transform="translate(0)">
          <path id="Path_115292" data-name="Path 115292" d="M179,7.755c1.086-1.439.912-4.492.757-7.184-.006-.116-.012-.23-.019-.345C178.215.08,176.673,0,175.113,0a47.916,47.916,0,0,0-16.977,3.1,111.841,111.841,0,0,1,16.075,9.523A34.55,34.55,0,0,0,179,7.755Z" transform="translate(-127.089)" fill="#555"/>
          <path id="Path_115293" data-name="Path 115293" d="M363.337,178.759a31.822,31.822,0,0,0-6.07,1.2c8.161,14.242,11.343,32.235,12.122,45.271a47.813,47.813,0,0,0,13.705-31.7C377.523,186.69,370.143,177.987,363.337,178.759Z" transform="translate(-287.094 -143.615)" fill="#555"/>
          <path id="Path_115294" data-name="Path 115294" d="M44.844,46.374a42.481,42.481,0,0,0,15.417-7.122,102.075,102.075,0,0,0-17.922-9.98A48.194,48.194,0,0,0,21.274,52c5.626-2.24,11.718-3.38,17.7-4.491C40.913,47.146,42.914,46.775,44.844,46.374Z" transform="translate(-17.118 -23.523)" fill="#555"/>
          <path id="Path_115295" data-name="Path 115295" d="M310.171,89.706q.768.771,1.529,1.57a51.034,51.034,0,0,1,5.125,6.381,33.714,33.714,0,0,1,8.13-1.823c7.527-.851,14.219,5.108,19.963,11.669A47.789,47.789,0,0,0,333.06,81.456a68.215,68.215,0,0,0-11.285,2.3C319.187,84.531,315.067,86.63,310.171,89.706Z" transform="translate(-249.252 -65.459)" fill="#555"/>
          <path id="Path_115296" data-name="Path 115296" d="M106.119,159.266c1.97-6.668,4.251-11.475,8.672-14.6a44.884,44.884,0,0,0-4.3-5.313c-.715-.751-1.439-1.476-2.165-2.189C90.59,149.235,66.3,171.4,64.087,190.6a47.924,47.924,0,0,0,28.826,15.163c4.137-8.231,8.03-24.965,10.344-34.917C104.369,166.068,105.329,161.941,106.119,159.266Z" transform="translate(-51.519 -110.231)" fill="#555"/>
          <path id="Path_115297" data-name="Path 115297" d="M34.615,114.906A171.267,171.267,0,0,1,53.3,100c-1.991-1.761-3.988-3.383-5.949-4.872-4.961,3.727-11.456,7.4-18.527,8.868-1.98.412-4.007.788-5.968,1.152-7.552,1.4-14.8,2.759-20.9,6.159a47.93,47.93,0,0,0,6.777,40.555C12.25,137.958,24.3,124.405,34.615,114.906Z" transform="translate(-0.123 -76.446)" fill="#555"/>
          <path id="Path_115298" data-name="Path 115298" d="M266.223,24.654c5.713-3.641,10.639-6.158,13.835-7.111a70.982,70.982,0,0,1,8.351-1.936,47.852,47.852,0,0,0-22-10.826c.184,3.352.265,7.033-1.753,9.707a37.374,37.374,0,0,1-4.691,4.9C262.029,21,264.129,22.75,266.223,24.654Z" transform="translate(-208.908 -3.842)" fill="#555"/>
          <path id="Path_115299" data-name="Path 115299" d="M249.419,207.894c-.75,2.539-1.7,6.6-2.79,11.309-3.231,13.9-6.323,26.329-9.933,34.258.513.016,1.025.039,1.542.039a47.818,47.818,0,0,0,29.646-10.252c-.322-13.641-3.594-32.936-11.836-47.258C252.852,198.364,251.131,202.1,249.419,207.894Z" transform="translate(-190.214 -157.5)" fill="#555"/>
        </g>
      </g>
    </g>
  </g>
</svg>
