<svg xmlns="http://www.w3.org/2000/svg" xmlns:xlink="http://www.w3.org/1999/xlink" width="120" height="120" viewBox="0 0 120 120">
  <defs>
    <clipPath id="clip-_19_Construction">
      <rect width="120" height="120"/>
    </clipPath>
  </defs>
  <g id="_19_Construction" data-name="19_Construction" clip-path="url(#clip-_19_Construction)">
    <g id="engineering" transform="translate(-15.825 9)">
      <path id="Path_115304" data-name="Path 115304" d="M30.825,228.65v3A3,3,0,0,0,33,234.536c.873.249,21.647,6.114,42.823,6.114s41.95-5.865,42.823-6.114a3,3,0,0,0,2.177-2.886v-3a3,3,0,0,0-3-3h-84a3,3,0,0,0-3,3Z" transform="translate(0 -180.52)" fill="#555"/>
      <path id="Path_115305" data-name="Path 115305" d="M135.825,316.838a3,3,0,0,0,3-3v-7.953c-4.26,1.006-10.672,2.351-18.145,3.391a20.9,20.9,0,0,1-41.709,0c-7.475-1.041-13.886-2.387-18.145-3.392v7.953a3,3,0,0,0,3,3h4.254a32.423,32.423,0,0,0,2.953,7.066l-3.026,3.026a3,3,0,0,0,0,4.242l8.484,8.484a3,3,0,0,0,4.242,0l3.026-3.026a32.429,32.429,0,0,0,7.066,2.953v4.454a3,3,0,0,0,3,3h12a3,3,0,0,0,3-3v-4.454a32.417,32.417,0,0,0,7.066-2.953l3.026,3.026a3,3,0,0,0,4.242,0l8.484-8.484a3,3,0,0,0,0-4.242l-3.026-3.026a32.433,32.433,0,0,0,2.953-7.066Z" transform="translate(-24 -244.708)" fill="#555"/>
      <path id="Path_115306" data-name="Path 115306" d="M97.373,32.864a3,3,0,0,1-3.967-1.5L84.041,10.4A39.336,39.336,0,0,0,63.718,39.13h76.843A39.336,39.336,0,0,0,120.238,10.4l-9.365,20.965a3,3,0,1,1-5.467-2.467L115.772,5.708a3.01,3.01,0,0,0-1.862-4.143,45.037,45.037,0,0,0-23.543,0,3.01,3.01,0,0,0-1.862,4.143L98.873,28.9a3,3,0,0,1-1.5,3.967Z" transform="translate(-26.314 0)" fill="#555"/>
    </g>
  </g>
</svg>
