<svg xmlns="http://www.w3.org/2000/svg" xmlns:xlink="http://www.w3.org/1999/xlink" width="120" height="120" viewBox="0 0 120 120">
  <defs>
    <clipPath id="clip-_20_Entertainment">
      <rect width="120" height="120"/>
    </clipPath>
  </defs>
  <g id="_20_Entertainment" data-name="20_Entertainment" clip-path="url(#clip-_20_Entertainment)">
    <g id="theater" transform="translate(5.999 14)">
      <path id="Path_115307" data-name="Path 115307" d="M235.215,7.322v2.35a24.577,24.577,0,0,1,5.189.073,3.222,3.222,0,0,1,2.4,1.812l4.583,9.767a3.21,3.21,0,0,1,1.519.829,4.311,4.311,0,0,0,1.964,1.144,4.262,4.262,0,0,0,4.033-1.072,3.269,3.269,0,0,1,4.014-.513,3.228,3.228,0,0,1,.59,5.03,10.627,10.627,0,0,1-7.566,3.134q-.276,0-.55-.014l6.161,13.132q.391.831.741,1.672a20.251,20.251,0,0,1,20.341,4.888,3.286,3.286,0,0,1,.218,4.5,3.225,3.225,0,0,1-4.693.141,13.8,13.8,0,0,0-13.831-3.415,42.756,42.756,0,0,1-.177,21.455q1.308.433,2.661.77a6.63,6.63,0,0,0,3.187,0,36.351,36.351,0,0,0,27.6-35.286V7.322a3.613,3.613,0,0,0-2.338-3.385C286.82,2.268,278.239,0,264.408,0s-22.414,2.269-26.855,3.938A3.612,3.612,0,0,0,235.215,7.322Zm35.643,14.86a3.225,3.225,0,0,1,4.56,0,4.25,4.25,0,0,0,6.011,0,3.224,3.224,0,1,1,4.56,4.559,10.7,10.7,0,0,1-15.132,0A3.224,3.224,0,0,1,270.858,22.182Zm0,0" transform="translate(-185.598 0)" fill="#555"/>
      <path id="Path_115308" data-name="Path 115308" d="M66.114,106.028,53.132,78.359a3.385,3.385,0,0,0-3.324-1.935c-4.688.354-13.48,1.909-26.145,7.851C11.142,90.15,4.336,95.85,1.024,99.246a3.613,3.613,0,0,0-.68,4.057l12.913,27.523a36.353,36.353,0,0,0,39.98,20.22,6.6,6.6,0,0,0,2.872-1.348A36.35,36.35,0,0,0,66.114,106.028Zm-26.089-2.062a10.711,10.711,0,0,1,13.7-6.427,3.224,3.224,0,1,1-2.192,6.064,4.257,4.257,0,0,0-5.442,2.554,3.224,3.224,0,1,1-6.064-2.191ZM27.556,114.852a4.251,4.251,0,0,0-5.442,2.553,3.224,3.224,0,0,1-6.065-2.191,10.7,10.7,0,0,1,13.7-6.427,3.224,3.224,0,1,1-2.191,6.064Zm10.826,21.076a20.131,20.131,0,0,1-6.856-1.205,3.224,3.224,0,1,1,2.191-6.064,13.8,13.8,0,0,0,17.651-8.281,3.224,3.224,0,1,1,6.064,2.192A20.272,20.272,0,0,1,38.382,135.928Zm0,0" transform="translate(0 -60.296)" fill="#555"/>
    </g>
  </g>
</svg>
