<svg xmlns="http://www.w3.org/2000/svg" xmlns:xlink="http://www.w3.org/1999/xlink" width="163" height="60" viewBox="0 0 163 60">
  <defs>
    <clipPath id="clip-path">
      <rect id="Rectangle_6242" data-name="Rectangle 6242" width="163" height="60"/>
    </clipPath>
  </defs>
  <g id="_01" data-name="01" clip-path="url(#clip-path)">
    <rect id="Rectangle_6241" data-name="Rectangle 6241" width="220" height="60" fill="#fff"/>
    <g id="Group_20170" data-name="Group 20170" transform="translate(10 4.813)">
      <g id="Group_1" data-name="Group 1" transform="translate(0)">
        <path id="Path_1" data-name="Path 1" d="M3.66,11.264,2.7,14.221a.216.216,0,0,1-.22.16H.165c-.14,0-.18-.081-.16-.2L4,2.654a3.641,3.641,0,0,0,.2-1.218.133.133,0,0,1,.119-.14h3.2c.1,0,.14.02.159.12L12.21,14.2c.04.1.02.18-.1.18h-2.6a.2.2,0,0,1-.219-.14L8.275,11.264Zm3.875-2.5c-.4-1.318-1.2-3.735-1.578-5.153h-.02C5.619,4.951,4.9,7.149,4.379,8.767Z" transform="translate(0 -0.217)" fill="#222"/>
        <path id="Path_2" data-name="Path 2" d="M15.389,9.289c0-2.856,2.138-5.253,5.793-5.253.161,0,.36.02.659.039V.14a.127.127,0,0,1,.14-.14H24.5c.1,0,.119.04.119.12V11.925a11.274,11.274,0,0,0,.081,1.459c0,.1-.02.14-.14.179a10.022,10.022,0,0,1-3.936.8C17.667,14.363,15.389,12.684,15.389,9.289Zm6.452-2.836a2.065,2.065,0,0,0-.738-.1,2.665,2.665,0,0,0-2.857,2.8A2.5,2.5,0,0,0,20.9,11.985a2.813,2.813,0,0,0,.939-.12Z" transform="translate(-2.582)" fill="#222"/>
        <path id="Path_3" data-name="Path 3" d="M38.485,9.962c0,3.136-2.037,5.214-4.914,5.214-3.416,0-4.934-2.577-4.934-5.154a4.888,4.888,0,0,1,4.974-5.173C36.827,4.849,38.485,7.266,38.485,9.962Zm-7.031.02c0,1.758.82,2.876,2.157,2.876,1.159,0,2.037-1,2.037-2.836,0-1.558-.638-2.856-2.157-2.856C32.333,7.166,31.454,8.2,31.454,9.982Z" transform="translate(-4.804 -0.813)" fill="#222"/>
        <path id="Path_4" data-name="Path 4" d="M45.206,0c.161,0,.2.02.2.16V4.254a6.424,6.424,0,0,1,1.678-.219,4.572,4.572,0,0,1,4.794,4.754c0,3.735-2.956,5.574-5.992,5.574a10.491,10.491,0,0,1-3.137-.459.234.234,0,0,1-.119-.2V.14c0-.1.039-.14.14-.14Zm1.379,6.393a4.064,4.064,0,0,0-1.178.16v5.413a3.1,3.1,0,0,0,.738.08,2.75,2.75,0,0,0,2.9-3A2.347,2.347,0,0,0,46.585,6.393Z" transform="translate(-7.151)" fill="#222"/>
        <path id="Path_5" data-name="Path 5" d="M58.185,10.741c.1,1.139.9,2.077,2.856,2.077A6.2,6.2,0,0,0,63.5,12.36c.061-.041.121-.021.121.1v1.9c0,.14-.04.2-.14.241a6.708,6.708,0,0,1-3.057.579c-3.755,0-5.074-2.577-5.074-5.054,0-2.756,1.7-5.273,4.835-5.273A4.072,4.072,0,0,1,64.4,9.163a6.343,6.343,0,0,1-.1,1.338.17.17,0,0,1-.159.16,18.578,18.578,0,0,1-2.058.08Zm2.6-1.937a6.52,6.52,0,0,0,1-.04v-.14a1.625,1.625,0,0,0-1.7-1.578A1.892,1.892,0,0,0,58.165,8.8Z" transform="translate(-9.285 -0.813)" fill="#222"/>
        <path id="Path_6" data-name="Path 6" d="M.95,37.841a.33.33,0,0,1-.14-.32V35.145c0-.1.08-.161.159-.1a6.884,6.884,0,0,0,3.616,1.039c1.518,0,2.117-.519,2.117-1.219,0-.639-.459-1.1-1.818-1.678l-1-.419C1.429,31.728.75,30.49.75,28.932c0-2.157,1.637-3.876,4.814-3.876a7.5,7.5,0,0,1,3.117.519.258.258,0,0,1,.12.26v2.238c0,.079-.061.179-.18.1a6.316,6.316,0,0,0-3.077-.66c-1.538,0-2.077.519-2.077,1.179,0,.619.419,1.039,1.918,1.638l.74.3c2.656,1.1,3.4,2.357,3.4,3.975,0,2.418-1.958,3.936-5.034,3.936A7.818,7.818,0,0,1,.95,37.841Z" transform="translate(-0.126 -4.203)" fill="#222"/>
        <path id="Path_7" data-name="Path 7" d="M22.741,33.962c0,3.137-2.037,5.214-4.914,5.214-3.416,0-4.934-2.577-4.934-5.154a4.888,4.888,0,0,1,4.974-5.173C21.083,28.849,22.741,31.266,22.741,33.962Zm-7.031.02c0,1.758.819,2.877,2.157,2.877,1.158,0,2.037-1,2.037-2.837,0-1.558-.638-2.856-2.157-2.856C16.589,31.166,15.71,32.2,15.71,33.982Z" transform="translate(-2.163 -4.839)" fill="#222"/>
        <path id="Path_8" data-name="Path 8" d="M26.885,24.16c0-.1.04-.16.2-.16h2.377c.14,0,.2.06.2.16V35.346c0,.56.18.759.659.759a2.3,2.3,0,0,0,.36-.02c.08,0,.1.04.1.14v1.719c0,.159-.019.2-.14.24a3.291,3.291,0,0,1-1.238.18c-1.439,0-2.518-.54-2.518-2.757Z" transform="translate(-4.51 -4.026)" fill="#222"/>
        <path id="Path_9" data-name="Path 9" d="M41.967,36.8a18.121,18.121,0,0,0,.119,2.056c.021.121-.04.161-.18.161H39.789c-.16,0-.2-.04-.24-.14-.039-.18-.1-.44-.119-.62a4.064,4.064,0,0,1-2.737.96c-2,0-3.376-1.1-3.376-3.856V29.248c0-.14.04-.159.18-.159h2.437c.12,0,.14.04.14.159v5.793c0,1.079.459,1.778,1.559,1.778a2.21,2.21,0,0,0,1.558-.578V29.248c0-.119.059-.159.2-.159h2.417c.14,0,.161.04.161.159Z" transform="translate(-5.589 -4.88)" fill="#222"/>
        <path id="Path_10" data-name="Path 10" d="M51.565,38.091c0,.121-.019.221-.14.26a4.978,4.978,0,0,1-1.778.28c-1.738,0-2.756-.859-2.756-2.857V30.82h-1.2c-.119-.02-.159-.06-.159-.18V28.683c0-.14.04-.18.18-.18h1.2a22.107,22.107,0,0,1,.2-2.418.214.214,0,0,1,.181-.18l2.337-.3c.1-.02.16-.02.16.12-.06.619-.1,1.8-.1,2.777h1.838c.121,0,.161.04.161.159V30.68c0,.1-.04.12-.14.14H49.668v4.274c0,.879.26,1.278,1.079,1.278a3.926,3.926,0,0,0,.678-.08c.081,0,.14.021.14.14Z" transform="translate(-7.638 -4.294)" fill="#222"/>
        <path id="Path_11" data-name="Path 11" d="M54.676,25.634A1.5,1.5,0,0,1,56.235,24.1a1.446,1.446,0,0,1,1.537,1.538,1.468,1.468,0,0,1-1.558,1.558A1.452,1.452,0,0,1,54.676,25.634Zm.14,2.776c0-.1.04-.159.16-.159h2.457c.121,0,.16.04.16.159V38c0,.119-.02.18-.179.18h-2.4c-.14,0-.2-.061-.2-.18Z" transform="translate(-9.172 -4.042)" fill="#222"/>
        <path id="Path_12" data-name="Path 12" d="M70.188,33.962c0,3.137-2.038,5.214-4.914,5.214-3.416,0-4.934-2.577-4.934-5.154a4.888,4.888,0,0,1,4.974-5.173C68.529,28.849,70.188,31.266,70.188,33.962Zm-7.032.02c0,1.758.82,2.877,2.157,2.877,1.159,0,2.037-1,2.037-2.837,0-1.558-.638-2.856-2.156-2.856C64.035,31.166,63.156,32.2,63.156,33.982Z" transform="translate(-10.122 -4.839)" fill="#222"/>
        <path id="Path_13" data-name="Path 13" d="M74.315,31.366c0-.679-.04-1.718-.081-2.158-.019-.1.02-.159.14-.159h2.1a.235.235,0,0,1,.26.159,2.42,2.42,0,0,1,.159.659,4.385,4.385,0,0,1,2.837-1.018c1.538,0,3.356.8,3.356,4.015V38.8c0,.119-.04.18-.18.18h-2.4c-.14,0-.2-.061-.2-.18V33.1c0-1.2-.519-1.838-1.558-1.838a2.416,2.416,0,0,0-1.658.619v6.931c0,.1-.061.161-.18.161H74.495c-.14,0-.18-.061-.18-.18Z" transform="translate(-12.452 -4.839)" fill="#222"/>
        <path id="Path_14" data-name="Path 14" d="M93.484,25.468c0-.12.02-.16.12-.16.819-.02,2.4-.06,3.915-.06,4.035,0,5.434,2.238,5.434,4.415,0,3.236-2.5,4.614-5.574,4.614H96.24v3.935c0,.1-.04.161-.16.161H93.624c-.1,0-.14-.061-.14-.161ZM96.24,31.82c.34.02.559.02,1.119.02,1.578,0,2.837-.479,2.837-2.117,0-1.259-.86-2.058-2.6-2.058-.639,0-1.178.02-1.358.041Z" transform="translate(-15.682 -4.235)" fill="#222"/>
        <path id="Path_15" data-name="Path 15" d="M114.137,36.76c0,.519,0,.938.04,1.418,0,.039,0,.079-.04.1a11.04,11.04,0,0,1-4.355.9c-2.217,0-4.035-1.02-4.035-3.336,0-2.117,1.858-3.236,4.515-3.236a8.451,8.451,0,0,1,1.178.04V32.5c0-.38-.24-1.258-1.918-1.258a6.4,6.4,0,0,0-2.637.539.118.118,0,0,1-.18-.1V29.668a.175.175,0,0,1,.14-.2,7.515,7.515,0,0,1,3.137-.619c2.876,0,4.155,1.777,4.155,4.055Zm-2.7-2.058a7.468,7.468,0,0,0-1-.059c-1.418,0-2,.459-2,1.178,0,.659.5,1.2,1.758,1.2a4.012,4.012,0,0,0,1.239-.18Z" transform="translate(-17.739 -4.839)" fill="#222"/>
        <path id="Path_16" data-name="Path 16" d="M120.86,29.049a.221.221,0,0,1,.24.18,3.828,3.828,0,0,1,.221,1.118,4.169,4.169,0,0,1,3.175-1.5c.121,0,.161.039.161.16v2.457c0,.1-.04.14-.18.14a4.107,4.107,0,0,0-3.016.859l-.021,6.352c0,.121-.04.161-.18.161h-2.4c-.16,0-.2-.061-.2-.18V31.905c0-.86-.02-2.017-.1-2.716,0-.1.02-.14.12-.14Z" transform="translate(-19.889 -4.839)" fill="#222"/>
        <path id="Path_17" data-name="Path 17" d="M133.21,38.091c0,.121-.019.221-.139.26a4.978,4.978,0,0,1-1.778.28c-1.738,0-2.757-.859-2.757-2.857V30.82h-1.2c-.12-.02-.16-.06-.16-.18V28.683c0-.14.04-.18.18-.18h1.2a21.9,21.9,0,0,1,.2-2.418.213.213,0,0,1,.181-.18l2.336-.3c.1-.02.161-.02.161.12-.061.619-.1,1.8-.1,2.777h1.838c.12,0,.16.04.16.159V30.68c0,.1-.04.12-.14.14h-1.878v4.274c0,.879.26,1.278,1.079,1.278a3.945,3.945,0,0,0,.679-.08c.08,0,.139.021.139.14Z" transform="translate(-21.334 -4.294)" fill="#222"/>
        <path id="Path_18" data-name="Path 18" d="M136.425,31.366c0-.679-.04-1.718-.081-2.158-.019-.1.021-.159.14-.159h2.1a.234.234,0,0,1,.26.159,2.447,2.447,0,0,1,.16.659,4.384,4.384,0,0,1,2.836-1.018c1.539,0,3.356.8,3.356,4.015V38.8c0,.119-.04.18-.18.18h-2.4c-.14,0-.2-.061-.2-.18V33.1c0-1.2-.519-1.838-1.558-1.838a2.418,2.418,0,0,0-1.658.619v6.931c0,.1-.06.161-.18.161H136.6c-.14,0-.18-.061-.18-.18Z" transform="translate(-22.871 -4.839)" fill="#222"/>
        <path id="Path_19" data-name="Path 19" d="M151.974,34.741c.1,1.139.9,2.078,2.856,2.078a6.173,6.173,0,0,0,2.457-.46c.061-.04.121-.019.121.1v1.9c0,.14-.04.2-.14.241a6.708,6.708,0,0,1-3.057.579c-3.755,0-5.074-2.577-5.074-5.053,0-2.757,1.7-5.274,4.835-5.274a4.072,4.072,0,0,1,4.215,4.314,6.343,6.343,0,0,1-.1,1.338.17.17,0,0,1-.159.16,18.576,18.576,0,0,1-2.058.08Zm2.6-1.937a6.52,6.52,0,0,0,1-.04v-.14a1.626,1.626,0,0,0-1.7-1.579,1.893,1.893,0,0,0-1.917,1.759Z" transform="translate(-25.018 -4.839)" fill="#222"/>
        <path id="Path_20" data-name="Path 20" d="M164.323,29.049a.221.221,0,0,1,.24.18,3.828,3.828,0,0,1,.221,1.118,4.169,4.169,0,0,1,3.175-1.5c.121,0,.16.039.16.16v2.457c0,.1-.039.14-.179.14a4.106,4.106,0,0,0-3.016.859l-.021,6.352c0,.121-.04.161-.18.161h-2.4c-.159,0-.2-.061-.2-.18V31.905c0-.86-.02-2.017-.1-2.716,0-.1.02-.14.12-.14Z" transform="translate(-27.18 -4.839)" fill="#222"/>
      </g>
      <g id="Group_2" data-name="Group 2" transform="translate(0.744 42.376)">
        <path id="Path_21" data-name="Path 21" d="M.894,51.163c0-.065.011-.1.064-.108.379-.011,1.44-.032,2.208-.032,2.3,0,2.683,1.179,2.683,1.893a1.662,1.662,0,0,1-.66,1.374A1.776,1.776,0,0,1,6.2,55.956c0,1.321-1.147,2.2-3.008,2.2-1.05,0-1.818-.01-2.218-.022a.086.086,0,0,1-.076-.1Zm1.471,2.651H3.1a9.127,9.127,0,0,1,.963.054.9.9,0,0,0,.324-.736c0-.552-.41-.844-1.233-.844-.335,0-.552.011-.79.022Zm0,3.063c.227.01.464.022.79.022.93.01,1.482-.293,1.482-.92a.767.767,0,0,0-.66-.812A2.966,2.966,0,0,0,3.3,55.1h-.93Z" transform="translate(-0.894 -50.935)" fill="#222"/>
        <path id="Path_22" data-name="Path 22" d="M9.389,58.13c-.065,0-.087-.021-.087-.1v-6.87c0-.054.012-.108.077-.108.974-.022,1.385-.032,2.261-.032,1.8,0,2.8.768,2.8,2.164a2.035,2.035,0,0,1-1.352,1.9c.357.487,1.58,2.327,1.915,2.91.032.065.043.13-.032.13H13.4c-.1,0-.13-.021-.151-.065-.314-.475-1-1.634-1.44-2.369-.076-.13-.13-.184-.249-.184h-.79v2.532a.08.08,0,0,1-.087.087Zm2.218-3.895c.811,0,1.332-.325,1.332-.963,0-.66-.542-.941-1.342-.941-.357,0-.66.011-.822.022v1.883Z" transform="translate(-2.304 -50.935)" fill="#222"/>
        <path id="Path_23" data-name="Path 23" d="M23.9,54.532a3.361,3.361,0,0,1-3.4,3.689c-2.121,0-3.375-1.558-3.375-3.657a3.418,3.418,0,0,1,3.4-3.646A3.341,3.341,0,0,1,23.9,54.532ZM20.562,56.89c1.125,0,1.8-.92,1.8-2.314-.011-1.44-.682-2.327-1.851-2.327-1.082,0-1.828.844-1.828,2.327C18.679,55.884,19.35,56.89,20.562,56.89Z" transform="translate(-3.618 -50.918)" fill="#222"/>
        <path id="Path_24" data-name="Path 24" d="M27.415,58.135c-.065,0-.1-.011-.1-.1v-6.9c0-.054.021-.087.076-.087h1.752c.087,0,.1.022.141.087.725,1.331,2.186,4.165,2.533,4.966h.011c-.011-.314-.032-.637-.032-1.7V51.145a.086.086,0,0,1,.1-.1h1.212c.076,0,.1.032.1.108v6.871c0,.087-.022.107-.119.107H31.527c-.1,0-.119-.021-.151-.087-.606-1.19-2.24-4.219-2.694-5.388H28.67c.043.628.054,1.06.054,2.077v3.3c0,.065-.022.1-.087.1Z" transform="translate(-5.327 -50.94)" fill="#222"/>
        <path id="Path_25" data-name="Path 25" d="M36.372,58.135c-.054,0-.1-.011-.1-.1V57.2a.247.247,0,0,1,.032-.141l3.57-4.674H36.426c-.065,0-.1-.011-.087-.087l.173-1.168c.011-.065.043-.087.108-.087h5.085c.054,0,.066.022.066.076v.9a.274.274,0,0,1-.055.173l-3.495,4.587h3.7c.055,0,.076.043.055.108l-.2,1.158c-.01.054-.032.087-.108.087Z" transform="translate(-6.829 -50.94)" fill="#222"/>
        <path id="Path_26" data-name="Path 26" d="M49.513,58.037c-.011.087-.032.1-.108.1H45c-.065,0-.086-.032-.086-.1V51.145c0-.065.021-.1.086-.1h4.274c.087,0,.109.011.12.087l.118,1.168c.012.054,0,.1-.076.1H46.419v1.45h2.76c.053,0,.086.022.086.087v1.189c0,.065-.042.077-.086.077h-2.76v1.579h3.192c.087,0,.1.033.087.1Z" transform="translate(-8.279 -50.94)" fill="#222"/>
      </g>
    </g>
  </g>
</svg>
