<svg xmlns="http://www.w3.org/2000/svg" xmlns:xlink="http://www.w3.org/1999/xlink" width="150" height="150" viewBox="0 0 150 150">
  <defs>
    <clipPath id="clip-path">
      <circle id="Ellipse_1" data-name="Ellipse 1" cx="75" cy="75" r="75" fill="none"/>
    </clipPath>
    <clipPath id="clip-alamofire">
      <rect width="150" height="150"/>
    </clipPath>
  </defs>
  <g id="alamofire" clip-path="url(#clip-alamofire)">
    <g id="Mask_Group_1" data-name="Mask Group 1" clip-path="url(#clip-path)">
      <g id="Rectangle_7809" data-name="Rectangle 7809" transform="translate(-15 -11)" fill="#fff" stroke="#707070" stroke-width="1">
        <rect width="181" height="173" stroke="none"/>
        <rect x="0.5" y="0.5" width="180" height="172" fill="none"/>
      </g>
      <g id="Layer_x0020_1" transform="translate(40 22.922)">
        <g id="_2268432867040" transform="translate(0 -0.5)">
          <path id="Path_115461" data-name="Path 115461" d="M41.242,26.778h.847c-.038,1.783.154,1.039-.449,2.194.552.808.462-1.052.449.975l-.834.449H42.1V46.238c-3.258.269-7.9.924-11.763.244-1.206.167-2.527.59-3.027-.244-4.143,1.693-2.848-2.091-2.848-11.763,0-6.44-.859-10.711,1.36-14.034,3.1,0,14.085-.59,15.483.808a3.612,3.612,0,0,1,.346,4.1c.552.808.462-1.052.449.975l-.834.449Zm-.064,44.731.924-.218v1.193l-.026,2.258-.9.385.924-.205L41.9,76.1l.192,17.613c2.72,2.206,18.434.231,19.447.936l.449-30.787c.128-2.373.475-1.719.936-3.6.423-3.015,1.437-1.8,3.079-3.617-.68-2.142.359.013-1.475-1.167s-2.5-3.13-2.553-5.593c-.18-8.684.706-27.721-.09-33.853C61,9.114,57.969,5.317,52.928,2.354,46.6-1.379,40.2-.378,33.032-.378c-8.518,0-14.252-.436-19.819,2.809A17.112,17.112,0,0,0,4.5,16.349c-.577,9.621-.475,23.193-.41,33.532.013,2.245.077,3.143-1.013,4.426C1.3,56.411.577,54.936,0,57.1c.68,2.54,1.834.334,3.476,3.31,1.155,2.091.59,17.638.59,20.679,0,16.586-2.72,14.444,13.572,14.483,8.7.026,6.8,2.4,6.786-21.269-.013-9.069-2.322-6.529,14.059-6.812,3.977-.064,3.592-.18,3.592,3.643l-.911.372Z" transform="translate(0 0.5)" fill="#d84327" fill-rule="evenodd"/>
          <path id="Path_115462" data-name="Path 115462" d="M3955.08,7681.751c-2.271,0-2.027-.41-4.08-.449v1.36c9.583,1.411,6.953-1.36,10.865-1.36,4.3,0,1.706,1.809,9.955,1.809v-1.36c-6.812,0-5.5-1.373-9.185-1.6-2.694-.167-4.785,1.6-7.568,1.6Z" transform="translate(-3900.317 -7581.61)" fill="#f1bc6a" fill-rule="evenodd"/>
          <path id="Path_115463" data-name="Path 115463" d="M1023,7682.419c1.616-.373,2.719-1.36,4.528-1.36,3.81,0,4.823,3.541,11.7.846,2.078-.821,1.5-.846,4.592-.846v-.911c-4.118-.962-4.708,1.36-9.057,1.36-2.578,0-3.8-1.219-6.581-1.565a8.576,8.576,0,0,0-3.207.359c-1.655.41-1.822.282-1.975,2.1Z" transform="translate(-1009.877 -7581.38)" fill="#f1bc6a" fill-rule="evenodd"/>
          <path id="Path_115464" data-name="Path 115464" d="M3955.977,7982.617c-3.284,0-3-.411-4.977-.449.6,2.271,2.142,1.809,5.426,1.809,1.95,0-.09.116,1.283-.526a11.228,11.228,0,0,1,1.257-.563c6.055-2.284,5.067,1.09,11.494,1.09,1.732,0,.167.141,1.36-.449-1.591-2.168-.68-.1-4.592-1.282-8.069-2.45-8.082.384-11.25.384Z" transform="translate(-3900.317 -7878.858)" fill="#f0ba68" fill-rule="evenodd"/>
          <path id="Path_115465" data-name="Path 115465" d="M1023,7977.049c2.117-.179,2.232-.91,4.528-.91,4.528,0,1.488,1.809,9.057,1.809,1.95,0,1.231-1.809,7.235-1.809v-.911c-7.594,0-3.72,1.36-9.954,1.36-.693,0-6.234-2.361-9.621-1.027-1.257.5-.911.257-1.244,1.475Z" transform="translate(-1009.877 -7872.841)" fill="#f0ba68" fill-rule="evenodd"/>
          <path id="Path_115466" data-name="Path 115466" d="M2094.56,2157.968l.834-.449c.013-2.027.1-.167-.449-.975-6.184.334-5.131-1.129-7.774-1.668a6.486,6.486,0,0,0-4.31.513c-3.015,1.4-2.437.552-2.861,2.13,4.054-.334,4.323-2.976,10.468-.064,1.667.782,1.822.513,4.066.513Z" transform="translate(-2053.318 -2127.071)" fill="#f1bc6a" fill-rule="evenodd"/>
          <path id="Path_115467" data-name="Path 115467" d="M2095.547,1890.764l.834-.449c.013-2.027.1-.167-.449-.975-6.824.372-7.376-3.476-13.675-.488-1.3.616-.9.09-1.257,1.463,2.963-.064,3.836-1.976,7.158-1.283,2.4.5,1.283,1.745,7.389,1.745Z" transform="translate(-2054.305 -1863.486)" fill="#f1bc6a" fill-rule="evenodd"/>
          <path id="Path_115468" data-name="Path 115468" d="M2098.394,5478.578v-1.193l-.923.218c-6.606.424-4.5-3.181-11.6-1.116-2.168.628-2.643-.025-2.874,2.1,2.668-.616,4.092-2.143,7.876-1.091,3.643,1.014,3.117,2.091,7.53,1.091Z" transform="translate(-2056.279 -5405.593)" fill="#f0ba68" fill-rule="evenodd"/>
          <path id="Path_115469" data-name="Path 115469" d="M2096.2,5753.059l.205-1.18-.924.205c-4.387.244-4.682-1.295-6.863-1.667-4.028-.692-5.105.693-7.62,1.283v.911c5.683,0,2.386-2.745,8.864-.269,2.707,1.026,3.515.718,6.324.718Z" transform="translate(-2054.305 -5676.457)" fill="#f1bc6a" fill-rule="evenodd"/>
          <path id="Path_115470" data-name="Path 115470" d="M3299.447,7345.937c-1.014-.706-16.728,1.257-19.447-.937.693,2.693,2.36,1.847,8.595,1.847H3299l.437-.911Z" transform="translate(-3237.925 -7250.773)" fill="#efb465" fill-rule="evenodd"/>
          <path id="Path_115471" data-name="Path 115471" d="M5014.978,5233.707c2.193,0,3.284-.8,5.183-1.6,1.565-.68.667.18,1.6-1.1-3.194,0-4.066,1.36-6.337,1.36-2.488,0-3.579-.923-5.426-1.36.565,2.129,2.707,2.72,4.978,2.72Z" transform="translate(-4945.732 -5163.891)" fill="#f1bc6a" fill-rule="evenodd"/>
          <path id="Path_115472" data-name="Path 115472" d="M5017.235,2763.271v-1.36c-7.851,0-3.951-.629-7.235-.911.488,1.847,1.026,1.783,2.81,2.168,2.912.641,1.9.3,4.438.09Z" transform="translate(-4945.732 -2725.576)" fill="#f0ba68" fill-rule="evenodd"/>
          <path id="Path_115473" data-name="Path 115473" d="M5014.516,5515.72a25.251,25.251,0,0,0,3.168-.449c-1.411-2.669-.18-.911-2.258-.911-2.155,0-3.515-.912-5.426-1.36.206,1.873-.372,1.09,1.732,1.9a6.23,6.23,0,0,0,2.8.822Z" transform="translate(-4945.732 -5442.273)" fill="#f0b867" fill-rule="evenodd"/>
          <path id="Path_115474" data-name="Path 115474" d="M5045,4985.36c2.155.18,4.413,1.552,6.9.565,1.27-.5.924-.257,1.245-1.476-4.208.975-4.619.372-8.146-.449Z" transform="translate(-4980.283 -4920.06)" fill="#efb465" fill-rule="evenodd"/>
          <path id="Path_115475" data-name="Path 115475" d="M2081,6573.72c2.989-.244,3.682-1.359,7.235-1.359V6571C2085.811,6571,2081.629,6571.333,2081,6573.72Z" transform="translate(-2054.305 -6486.701)" fill="#f0ba68" fill-rule="evenodd"/>
          <path id="Path_115476" data-name="Path 115476" d="M2080.013,7418.452a16.473,16.473,0,0,1,7.235-1.36v-1.359c-3.695,0-2.681-.27-5.516.821-2.1.808-1.526.026-1.732,1.9Z" transform="translate(-2053.318 -7320.569)" fill="#f0ba68" fill-rule="evenodd"/>
          <path id="Path_115477" data-name="Path 115477" d="M2080.013,2445.72c3.117-.257,2.155-1.36,7.235-1.36V2443a13.552,13.552,0,0,0-4.452.526c-2.655.8-2.488,1.064-2.8,2.181Z" transform="translate(-2053.318 -2411.655)" fill="#f1bc6a" fill-rule="evenodd"/>
          <path id="Path_115478" data-name="Path 115478" d="M5014.516,3856.719h2.719v-1.36c-6.311,0-3.771-.552-7.235-1.36.206,1.873-.372,1.09,1.732,1.9a6.242,6.242,0,0,0,2.8.821Z" transform="translate(-4945.732 -3804.555)" fill="#f0ba68" fill-rule="evenodd"/>
          <path id="Path_115479" data-name="Path 115479" d="M5014.625,3574.72c1.719,0,1.475-.1,1.809-1.36-6.491,0-3.771-.552-7.234-1.36.051.488-.437,1.373,1.885,2.181a9.609,9.609,0,0,0,3.541.526Z" transform="translate(-4944.932 -3526.173)" fill="#f1bc6a" fill-rule="evenodd"/>
          <path id="Path_115480" data-name="Path 115480" d="M5013.617,2198.72h3.618v-1.36c-3.078,0-4.361.026-7.235-1.36.218,1.976-.59.9,2.027,2.04C5013.695,2198.771,5011.809,2198.72,5013.617,2198.72Z" transform="translate(-4945.732 -2167.823)" fill="#f1bc6a" fill-rule="evenodd"/>
          <path id="Path_115481" data-name="Path 115481" d="M2081,2973.664c1.514-.346,2.36-.962,4.079-1.385,2.719-.667,2.63.667,3.168-1.334-2.347-.628-1.206-.834-4.849.59C2081.385,2972.317,2081.218,2971.663,2081,2973.664Z" transform="translate(-2054.305 -2932.352)" fill="#f0ba68" fill-rule="evenodd"/>
          <path id="Path_115482" data-name="Path 115482" d="M5015.426,1951.271h1.809v-1.36c-5.362,0-4.387-.667-7.235-.911.77,2.129,3.387,2.258,5.426,2.258Z" transform="translate(-4945.732 -1923.992)" fill="#f1bc6a" fill-rule="evenodd"/>
          <path id="Path_115483" data-name="Path 115483" d="M5014.978,7173.72a6.655,6.655,0,0,0,2.257-.449v-1.359c-1.8.154-1.09.449-2.257.449-1.45,0-3.463-1-4.978-1.36C5010.475,7172.784,5012.886,7173.72,5014.978,7173.72Z" transform="translate(-4945.732 -7079.005)" fill="#f0ba68" fill-rule="evenodd"/>
          <path id="Path_115484" data-name="Path 115484" d="M2080.013,6286.35c2.5-.59,2.579-1.809,7.235-1.809-.449-1.873-.68-1.771-4.592-.513-2.155.693-2.463.064-2.656,2.322Z" transform="translate(-2053.318 -6202.5)" fill="#efb465" fill-rule="evenodd"/>
          <path id="Path_115485" data-name="Path 115485" d="M5014.067,6326.72h3.168v-1.36c-3.54,0-4.182.256-7.235-1.36.218,2.027-.616.821,1.322,1.847a5.282,5.282,0,0,0,2.758.873Z" transform="translate(-4945.732 -6242.87)" fill="#f1bc6a" fill-rule="evenodd"/>
          <path id="Path_115486" data-name="Path 115486" d="M5014.864,6608.72c1.257,0,1.091-.346,1.36-1.359-8.287,0-3.438-1.04-7.235-1.36.063.629-.5,1.27,1.988,2.091a10.924,10.924,0,0,0,3.9.629Z" transform="translate(-4944.721 -6521.252)" fill="#f0b867" fill-rule="evenodd"/>
          <path id="Path_115487" data-name="Path 115487" d="M5014.516,3292.72h2.719v-1.36c-2.681.064-2.5.924-7.235-1.36.141,1.655-.038,1.488,1.5,2.116a6.836,6.836,0,0,0,3.028.6Z" transform="translate(-4945.732 -3247.79)" fill="#f0ba68" fill-rule="evenodd"/>
          <path id="Path_115488" data-name="Path 115488" d="M5016.588,6890.271v-.911c-6.325,0-3.117-.4-7.235-1.36.1.885-.667,1.5,2.732,2.245a7.635,7.635,0,0,0,4.516.013Z" transform="translate(-4945.085 -6799.635)" fill="#f0ba68" fill-rule="evenodd"/>
          <path id="Path_115489" data-name="Path 115489" d="M2081,2728.21c.667-.154,1.206-.244,1.822-.436,1.488-.475,2.309-1.3,5.413-1.373v-.911c-2.373,0-2.617-.1-4.477.5C2080.564,2727.017,2081.167,2726.684,2081,2728.21Z" transform="translate(-2054.305 -2690.516)" fill="#f0ba68" fill-rule="evenodd"/>
          <path id="Path_115490" data-name="Path 115490" d="M2081,3252.927v.91c4.067-.09,1.681-1.359,7.235-1.359-.564-2.1-.86-1.36-3.13-.885C2081.475,3252.363,2082.757,3252.453,2081,3252.927Z" transform="translate(-2054.305 -3209.357)" fill="#f0ba68" fill-rule="evenodd"/>
          <path id="Path_115491" data-name="Path 115491" d="M2081,6044.72c2.822-.654,3.31-1.809,7.235-1.809V6042C2084.335,6042,2081.218,6042.064,2081,6044.72Z" transform="translate(-2054.305 -5964.487)" fill="#f0b867" fill-rule="evenodd"/>
          <path id="Path_115492" data-name="Path 115492" d="M5017.235,2480.271v-.91c-6.491,0-3.771-.552-7.235-1.36.193,1.783-.384.719.706,1.552,1.835,1.424,5.644.783,6.529.706Z" transform="translate(-4945.732 -2446.206)" fill="#f0ba68" fill-rule="evenodd"/>
          <path id="Path_115493" data-name="Path 115493" d="M2081,7138.707c1.411-.333,2.848-1.116,3.707-1.27,2.566-.475,2.9.923,3.541-1.437a9.667,9.667,0,0,0-4.361.616c-2.168.629-2.643-.026-2.874,2.1Z" transform="translate(-2054.305 -7044.454)" fill="#f0ba68" fill-rule="evenodd"/>
          <path id="Path_115494" data-name="Path 115494" d="M5009,4138.36c1.437.333,1.95.629,3.592.962,2.565.526,1.231.154,3.656-.051v-.911c-7.581,0-3.848-1.078-7.235-1.36v1.36Z" transform="translate(-4944.745 -4083.925)" fill="#f0ba68" fill-rule="evenodd"/>
          <path id="Path_115495" data-name="Path 115495" d="M2080.013,6855.72c3.592-.295,1.142-1.36,7.235-1.36V6853l-4.708.718c-1.873.629-2.091.309-2.54,1.989Z" transform="translate(-2053.318 -6765.084)" fill="#f0ba68" fill-rule="evenodd"/>
          <path id="Path_115496" data-name="Path 115496" d="M5014.516,7455.271h2.719v-1.36c-4.349,1.155-3.72-.616-7.235-.911.488,1.809,2.207,2.258,4.529,2.258Z" transform="translate(-4945.732 -7357.387)" fill="#f0ba68" fill-rule="evenodd"/>
          <path id="Path_115497" data-name="Path 115497" d="M5013.528,6079.271h2.72v-1.36c-1.86.154-1.014.449-2.72.449-.988,0-2.476-1.193-4.528-1.36.488,1.809,2.207,2.258,4.528,2.258Z" transform="translate(-4944.745 -5999.039)" fill="#f1be6b" fill-rule="evenodd"/>
          <path id="Path_115498" data-name="Path 115498" d="M4905,4457.63c.064-.077.167-.32.193-.244.128.308.744-1.976,2.873-1.911,1.129.039,3.464.346,5.516.346v-.911c-5.272,0-2.5-.257-5.5-.911-1.655,1.822-2.655.616-3.079,3.618Z" transform="translate(-4842.079 -4396.858)" fill="#f0ba68" fill-rule="evenodd"/>
          <path id="Path_115499" data-name="Path 115499" d="M5014.978,3045.271h2.257v-1.36c-5.708.474-1.1.526-7.235-.911.462,1.719.244,1.1,1.963,1.667A7.065,7.065,0,0,0,5014.978,3045.271Z" transform="translate(-4945.732 -3003.958)" fill="#f0ba68" fill-rule="evenodd"/>
          <path id="Path_115500" data-name="Path 115500" d="M5009,5796.36c3.3.269.128.911,7.235.911-.655-2.437-.142-.564-3.066-.975-1.578-.218-2.258-1.129-4.169-1.3Z" transform="translate(-4944.745 -5720.656)" fill="#f0ba68" fill-rule="evenodd"/>
          <path id="Path_115501" data-name="Path 115501" d="M5015.337,1669.271v-.911c-3.566,0-3.374-1.3-6.337-1.36.6,2.258,3.053,2.258,6.337,2.258Z" transform="translate(-4944.745 -1645.61)" fill="#f1bc6a" fill-rule="evenodd"/>
          <path id="Path_115502" data-name="Path 115502" d="M2127,3554.705c.513.847,1.822.41,3.028.244l3.617-.282v-.872C2130.81,3553.14,2129.643,3553.974,2127,3554.705Z" transform="translate(-2099.715 -3507.967)" fill="#efb465" fill-rule="evenodd"/>
          <path id="Path_115503" data-name="Path 115503" d="M4979.439,1353.168c-.218-1.963-.051-1.3-2.168-1.911-1.334-.385-1.719-.9-3.271-1.257.3,2.643,2.31,1.667,5.426,3.168Z" transform="translate(-4910.194 -1332.676)" fill="#f0ba68" fill-rule="evenodd"/>
          <path id="Path_115504" data-name="Path 115504" d="M5151,4764.935c1.6,1.116,1.963.911,4.528.911,1.27,0,.834-.193,1.359-.911C5155.413,4764.1,5152.591,4764.319,5151,4764.935Z" transform="translate(-5084.924 -4703.265)" fill="#f0ba68" fill-rule="evenodd"/>
          <path id="Path_115505" data-name="Path 115505" d="M4904,1069.36c1.77.154,1.36.629,2.72,0-.86-1.167-1.014-.962-2.72-1.36Z" transform="translate(-4841.092 -1054.293)" fill="#eca85e" fill-rule="evenodd"/>
        </g>
      </g>
    </g>
  </g>
</svg>
