<svg xmlns="http://www.w3.org/2000/svg" width="280" height="280" viewBox="0 0 280 280">
    <g data-name="Group 69001">
        <g data-name="Group 68957">
            <path data-name="Rectangle 7200" style="fill:none;opacity:.2" d="M0 0h280v280H0z"/>
        </g>
        <g data-name="Group 69000" transform="translate(-1515 -6669)">
            <path data-name="Path 5" d="M104.3 375.026c1.952 0 2.6.677 2.6 2.432v33.351h9.2v-36.336a2.95 2.95 0 0 0-2.95-2.95h-8.85z" transform="translate(1503.329 6417.738)" style="fill-rule:evenodd;fill:#fff"/>
            <path data-name="Path 6" d="M139.921 375.026c1.952 0 2.6.677 2.6 2.432v33.351h9.195v-36.336a2.95 2.95 0 0 0-2.95-2.95h-8.849z" transform="translate(1483.155 6417.738)" style="fill-rule:evenodd;fill:#fff"/>
            <path data-name="Path 7" d="M175.8 398.026c1.952 0 2.6.677 2.6 2.432v23.375h9.2v-26.36a2.95 2.95 0 0 0-2.95-2.95h-8.85z" transform="translate(1462.841 6404.714)" style="fill-rule:evenodd;fill:#fff"/>
            <ellipse data-name="Ellipse 1" cx="5.364" cy="4.452" rx="5.364" ry="4.452" transform="translate(1640.026 6788.479)" style="fill:#fff"/>
            <path data-name="Path 10" d="M40.446 380.4c.861 3.5 2.248 9.161 3.669 14.718h-7.73zm5.315 21.16 2.362 9.252h10.062l-9.811-36.336a4.138 4.138 0 0 0-3.747-2.95h-14.59v3.644s4.34-.662 3.171 3.006c-10.008 31.36-10.444 32.632-10.444 32.632h9.365l2.509-9.251z" transform="translate(1549.498 6417.738)" style="fill-rule:evenodd;fill:#fff"/>
            <path data-name="Path 8" d="M289.6 396.8v-.253a2.95 2.95 0 0 0-2.95-2.95h-8.85v3.5c1.952 0 2.6.677 2.6 2.432V422.9h9.2v-19.684c3.783-4.578 7.161-3 7.161.02V422.9h9.195v-21.946c0-7.857-5.85-8.073-7.468-8.073-3.46 0-6.944 2.344-8.888 3.919z" transform="translate(1405.082 6405.644)" style="fill-rule:evenodd;fill:#fff"/>
            <path data-name="Path 9" d="m364.053 400.317-12.344 17.4v6.118h22.8v-6.118H361.84l12.139-17.4v-5.794h-19.126a2.95 2.95 0 0 0-2.95 2.95v5.449h3.5c0-1.952.677-2.6 2.432-2.6z" transform="translate(1363.227 6404.714)" style="fill-rule:evenodd;fill:#fff"/>
            <path data-name="Path 11" d="M221.084 414.242v-.732c0-3.2 4.367-4.632 7.075-4.632v5.713s-2.158 2.535-4.639 2.535c-1.74 0-2.436-1.031-2.436-2.884zm-5.064-12.289-2.128-5.695a29.153 29.153 0 0 1 13.746-3.373c8.089 0 9.346 5.3 9.346 10.023v14.461c0 2.792 2.358 2.549 2.358 2.549v2.982h-8.475c-1.693 0-2.708-.967-2.708-2.938a11.157 11.157 0 0 1-8.394 3.438c-5.584 0-7.265-3.47-7.265-8.133 0-5.964 2.657-7.807 5.151-9.054s10.508-2.494 10.508-2.494v-.468c0-.268 0-3.866-3.27-3.866-4.365.005-8.869 2.568-8.869 2.568z" transform="translate(1442.057 6405.642)" style="fill-rule:evenodd;fill:#fff"/>
        </g>
    </g>
</svg>
