<svg xmlns="http://www.w3.org/2000/svg" width="280" height="240" viewBox="0 0 280 240">
  <g id="Group_69147" data-name="Group 69147" transform="translate(-1540 -8638)">
    <rect id="Rectangle_7491" data-name="Rectangle 7491" width="280" height="240" transform="translate(1540 8638)" fill="none"/>
    <g id="Group_69132" data-name="Group 69132" transform="translate(25 1953.521)">
      <g id="Group_69000" data-name="Group 69000">
        <path id="Path_5" data-name="Path 5" d="M104.3,375.026c1.952,0,2.6.677,2.6,2.432v33.351H116.1V374.473a2.95,2.95,0,0,0-2.95-2.95H104.3Z" transform="translate(1503.329 6417.738)" fill="#003781" fill-rule="evenodd"/>
        <path id="Path_6" data-name="Path 6" d="M139.921,375.026c1.952,0,2.6.677,2.6,2.432v33.351h9.195V374.473a2.95,2.95,0,0,0-2.95-2.95h-8.849Z" transform="translate(1483.155 6417.738)" fill="#003781" fill-rule="evenodd"/>
        <path id="Path_7" data-name="Path 7" d="M175.8,398.026c1.952,0,2.6.677,2.6,2.432v23.375H187.6v-26.36a2.95,2.95,0,0,0-2.95-2.95H175.8Z" transform="translate(1462.841 6404.714)" fill="#003781" fill-rule="evenodd"/>
        <ellipse id="Ellipse_1" data-name="Ellipse 1" cx="5.364" cy="4.452" rx="5.364" ry="4.452" transform="translate(1640.026 6788.479)" fill="#003781"/>
        <path id="Path_10" data-name="Path 10" d="M40.446,380.4c.861,3.5,2.248,9.161,3.669,14.718h-7.73Zm5.315,21.16,2.362,9.252H58.185l-9.811-36.336a4.138,4.138,0,0,0-3.747-2.95H30.037v3.644s4.34-.662,3.171,3.006C23.2,409.536,22.764,410.808,22.764,410.808h9.365l2.509-9.251Z" transform="translate(1549.498 6417.738)" fill="#003781" fill-rule="evenodd"/>
        <path id="Path_8" data-name="Path 8" d="M289.6,396.8v-.253a2.95,2.95,0,0,0-2.95-2.95H277.8v3.5c1.952,0,2.6.677,2.6,2.432V422.9H289.6V403.216c3.783-4.578,7.161-3,7.161.02V422.9h9.195V400.954c0-7.857-5.85-8.073-7.468-8.073C295.028,392.881,291.544,395.225,289.6,396.8Z" transform="translate(1405.082 6405.644)" fill="#003781" fill-rule="evenodd"/>
        <path id="Path_9" data-name="Path 9" d="M364.053,400.317l-12.344,17.4v6.118h22.8v-6.118H361.84l12.139-17.4v-5.794H354.853a2.95,2.95,0,0,0-2.95,2.95v5.449h3.5c0-1.952.677-2.6,2.432-2.6Z" transform="translate(1363.227 6404.714)" fill="#003781" fill-rule="evenodd"/>
        <path id="Path_11" data-name="Path 11" d="M221.084,414.242v-.732c0-3.2,4.367-4.632,7.075-4.632v5.713s-2.158,2.535-4.639,2.535C221.78,417.126,221.084,416.095,221.084,414.242Zm-5.064-12.289-2.128-5.695a29.153,29.153,0,0,1,13.746-3.373c8.089,0,9.346,5.3,9.346,10.023v14.461c0,2.792,2.358,2.549,2.358,2.549V422.9h-8.475c-1.693,0-2.708-.967-2.708-2.938a11.157,11.157,0,0,1-8.394,3.438c-5.584,0-7.265-3.47-7.265-8.133,0-5.964,2.657-7.807,5.151-9.054s10.508-2.494,10.508-2.494v-.468c0-.268,0-3.866-3.27-3.866C220.524,399.39,216.02,401.953,216.02,401.953Z" transform="translate(1442.057 6405.642)" fill="#003781" fill-rule="evenodd"/>
      </g>
    </g>
  </g>
</svg>
