<svg xmlns="http://www.w3.org/2000/svg" xmlns:xlink="http://www.w3.org/1999/xlink" width="220" height="60" viewBox="0 0 220 60">
  <defs>
    <clipPath id="clip-_09">
      <rect width="220" height="60"/>
    </clipPath>
  </defs>
  <g id="_09" data-name="09" clip-path="url(#clip-_09)">
    <rect width="220" height="60" fill="#fff"/>
    <g id="Group_69145" data-name="Group 69145" transform="translate(-948 -8726.989)">
      <g id="american-express" transform="translate(1024 8726.989)">
        <path id="Path_35" data-name="Path 35" d="M245.592,187.822a4.45,4.45,0,0,0-1.826-.228H239.2v3.652h4.565a4.45,4.45,0,0,0,1.826-.228,1.778,1.778,0,0,0,.685-1.6A1.269,1.269,0,0,0,245.592,187.822Z" transform="translate(-170.947 -180.967)" fill="#016fd0"/>
        <path id="Path_36" data-name="Path 36" d="M123.494,164.4v2.74l-1.366-2.74H111.4v2.74l-1.366-2.74H95.418a13.9,13.9,0,0,0-6.392,1.366V164.4H78.753v1.366a6.581,6.581,0,0,0-4.337-1.366H37.665L35.154,170.1,32.645,164.4H21v2.74l-1.366-2.74H9.816L5.249,175.126,0,187H11.641l1.366-3.652h3.2L17.574,187H30.816v-2.739L31.957,187h6.62l1.141-2.739V187h31.73v-5.935h.457c.457,0,.457,0,.457.685v5.022H88.8V185.4a13.675,13.675,0,0,0,6.163,1.366h6.848l1.366-3.652h3.2l1.366,3.652h13.24v-3.424l2.054,3.424h10.729V164.4ZM46.34,183.572H42.457V171.017l-5.478,12.555H33.556l-5.478-12.555v12.555H20.316l-1.6-3.428H10.957L9.591,183.8H5.249L12.1,167.589H17.8L24.2,182.883V167.589h6.163l5.022,10.957,4.565-10.957h6.392Zm15.522-12.555h-8.9v2.968h8.674v3.2H52.959v3.2h8.9V183.8H49.078V167.593H61.861Zm17.121,6.62a5.711,5.711,0,0,1,.685,2.968v3.2H75.784v-2.054a5.437,5.437,0,0,0-.685-3.2c-.685-.685-1.366-.685-2.74-.685H68.253V183.8H64.37V167.593h8.675c2.054,0,3.424,0,4.565.685a3.89,3.89,0,0,1,1.826,3.652,4.161,4.161,0,0,1-2.721,4.092,4.473,4.473,0,0,1,2.266,1.615Zm6.848,5.935H81.948V167.365h3.883Zm44.969,0h-5.478l-7.3-12.1v12.1h-7.763l-1.366-3.424H100.9L99.53,183.8H95.192a7.97,7.97,0,0,1-5.478-1.826c-1.37-1.37-2.054-3.2-2.054-6.163a9.358,9.358,0,0,1,2.054-6.392c1.141-1.366,3.2-1.826,5.707-1.826h3.652v3.424H95.418a4.209,4.209,0,0,0-2.968.913,5.36,5.36,0,0,0-1.141,3.652c0,1.826.228,2.968,1.141,3.883a3.638,3.638,0,0,0,2.74.913h1.594l5.249-12.555h5.706l6.392,15.294V167.823h5.707l6.62,11.186V167.821h3.883v15.747Z" transform="translate(0 -164.39)" fill="#016fd0"/>
        <g id="Group_5" data-name="Group 5" transform="translate(57.524 5.943)">
          <path id="Path_37" data-name="Path 37" d="M358.4,191.592h5.249L361.14,185.2Z" transform="translate(-313.659 -185.2)" fill="#016fd0"/>
          <path id="Path_38" data-name="Path 38" d="M207.535,290.215V277.2l-5.935,6.392Z" transform="translate(-201.6 -250.949)" fill="#016fd0"/>
        </g>
        <path id="Path_39" data-name="Path 39" d="M136.8,282.8v2.968h8.446v3.2H136.8v3.424h9.359l4.337-4.794-4.109-4.794Z" transform="translate(-97.766 -249.008)" fill="#016fd0"/>
        <path id="SVGCleanerId_0" d="M240.794,282.8H236V286.9h5.022c1.366,0,2.283-.685,2.283-2.054a2.3,2.3,0,0,0-2.511-2.054Z" transform="translate(-168.66 -249.004)" fill="#016fd0"/>
        <path id="Path_40" data-name="Path 40" d="M222.139,270.667V260.394h-9.588a7.49,7.49,0,0,0-4.794,1.366v-1.366h-10.5c-1.6,0-3.652.457-4.565,1.366v-1.366H174.2v1.366c-1.366-1.141-3.883-1.366-5.022-1.366H156.854v1.366c-1.141-1.141-3.883-1.366-5.249-1.366h-13.7l-3.2,3.424-2.968-3.424H111.2v22.37h20.087l3.2-3.424,2.968,3.424h12.327v-5.249h1.6a13.884,13.884,0,0,0,5.249-.685v6.163H166.9v-5.935h.457c.685,0,.685,0,.685.685v5.249h31.045a8.97,8.97,0,0,0,5.249-1.366v1.366h9.816a10.252,10.252,0,0,0,5.478-1.141h0A7.771,7.771,0,0,0,223.279,275,8.742,8.742,0,0,0,222.139,270.667Zm-70.764,3.652H146.81V279.8h-7.3l-4.6-5.249-4.76,5.249H115.083V263.59h15.294l4.565,5.249,4.794-5.249h12.1c2.968,0,6.392.913,6.392,5.249C158,273.409,154.8,274.319,151.376,274.319Zm22.827-.913a5.178,5.178,0,0,1,.685,2.968v3.2H171v-2.054c0-.913,0-2.511-.685-3.2-.457-.685-1.366-.685-2.74-.685h-4.105v5.935h-3.883V263.363h8.675c1.826,0,3.424,0,4.565.685a4.038,4.038,0,0,1,2.054,3.652,4.544,4.544,0,0,1-2.74,4.337,3.891,3.891,0,0,1,2.056,1.373Zm15.747-6.62h-8.9v2.968h8.675v3.2h-8.675v3.192h8.9v3.424H177.17V263.358h12.783Zm9.587,12.783h-7.3v-3.428h7.3a1.926,1.926,0,0,0,1.6-.457,1.654,1.654,0,0,0,0-2.282,1.93,1.93,0,0,0-1.366-.457c-3.652-.229-7.989,0-7.989-5.022,0-2.283,1.366-4.794,5.478-4.794H204.8v3.883h-7.076a3.386,3.386,0,0,0-1.6.228c-.457.228-.457.685-.457,1.141,0,.685.457.913.913,1.141a2.9,2.9,0,0,0,1.366.228H200c2.054,0,3.424.457,4.337,1.366a4.726,4.726,0,0,1,1.141,3.424c0,3.43-2.056,5.028-5.936,5.028Zm19.63-1.6a6.657,6.657,0,0,1-4.794,1.6h-7.3v-3.428h7.3a1.926,1.926,0,0,0,1.6-.457,1.654,1.654,0,0,0,0-2.282,1.93,1.93,0,0,0-1.366-.457c-3.652-.229-7.989,0-7.989-5.022,0-2.283,1.366-4.794,5.478-4.794h7.533v3.883H212.78a3.385,3.385,0,0,0-1.6.228c-.457.228-.457.685-.457,1.141,0,.685.228.913.913,1.141a2.9,2.9,0,0,0,1.366.228h2.054c2.054,0,3.424.457,4.337,1.366a1.2,1.2,0,0,1,.3.394,6.415,6.415,0,0,1,.836,3.03,4.646,4.646,0,0,1-1.366,3.43Z" transform="translate(-79.47 -232.995)" fill="#016fd0"/>
        <path id="SVGCleanerId_1" d="M301.592,283.823a4.449,4.449,0,0,0-1.826-.229H295.2v3.652h4.565a4.449,4.449,0,0,0,1.826-.229,1.777,1.777,0,0,0,.685-1.6,1.269,1.269,0,0,0-.685-1.6Z" transform="translate(-210.968 -249.574)" fill="#016fd0"/>
        <g id="Group_7" data-name="Group 7" transform="translate(67.34 33.78)">
          <path id="SVGCleanerId_0_1_" d="M240.794,282.8H236V286.9h5.022c1.366,0,2.283-.685,2.283-2.054a2.3,2.3,0,0,0-2.511-2.054Z" transform="translate(-236 -282.785)" fill="#016fd0"/>
        </g>
        <g id="Group_8" data-name="Group 8" transform="translate(84.232 34.004)">
          <path id="SVGCleanerId_1_1_" d="M301.592,283.823a4.449,4.449,0,0,0-1.826-.229H295.2v3.652h4.565a4.449,4.449,0,0,0,1.826-.229,1.777,1.777,0,0,0,.685-1.6,1.269,1.269,0,0,0-.685-1.6Z" transform="translate(-295.2 -283.578)" fill="#016fd0"/>
        </g>
        <g id="Group_9" data-name="Group 9" transform="translate(0 0.007)">
          <path id="Path_44" data-name="Path 44" d="M150.084,275.393l-3.423-3.492v3.883h-7.533l-4.565-5.249-5.022,5.249H114.475V259.8H129.77l5.019,5.232,2.058-2.721-5.715-6.406H111.024l.027,23.07H131.14l3.424-3.424,2.968,3.424,12.587.017Z" transform="translate(-79.322 -229.214)" fill="#016fd0"/>
          <path id="Path_45" data-name="Path 45" d="M46.8,186.77l-2.968-3.2H42.461v-1.366l-3.427-3.428-2.283,4.794h-3.2L28.077,171.02v12.555H20.316l-1.6-3.428H10.957l-1.6,3.424H5.249L12.1,167.593H17.8L24.2,182.887V167.593H27.62l-3.2-3.193H21v2.74l-1.141-2.74H9.816L5.249,175.129,0,186.77H11.87l1.366-3.424h3.2l1.6,3.424H30.816v-2.74l1.141,2.74h6.62l1.141-2.74v2.74Z" transform="translate(0 -164.4)" fill="#016fd0"/>
          <path id="Path_46" data-name="Path 46" d="M118.052,196.852,114.4,193.2l2.74,5.935Z" transform="translate(-81.757 -184.982)" fill="#016fd0"/>
        </g>
        <g id="Group_10" data-name="Group 10" transform="translate(22.599 0.23)">
          <path id="Path_47" data-name="Path 47" d="M265.335,279.914a8.35,8.35,0,0,0,3.652-6.163l-3.2-3.2a6.754,6.754,0,0,1,.457,2.283,4.646,4.646,0,0,1-1.366,3.424,6.657,6.657,0,0,1-4.794,1.6h-7.308v-3.424h7.3a1.926,1.926,0,0,0,1.6-.457,1.654,1.654,0,0,0,0-2.283,1.929,1.929,0,0,0-1.366-.457c-3.652-.229-7.989,0-7.989-5.022,0-2.283,1.366-4.337,4.794-4.794l-2.229-2.17a5.9,5.9,0,0,1-1.2.611V258H243.2c-1.6,0-3.652.457-4.565,1.366V258H219.908v1.366c-1.366-1.141-3.883-1.366-5.022-1.366H202.56v1.366c-1.141-1.141-3.883-1.366-5.249-1.366h-13.7l-3.2,3.424L177.942,258h-2.9l6.749,6.848,3.424-3.652h12.1c2.968,0,6.392.913,6.392,5.249,0,4.565-3.2,5.478-6.62,5.478h-4.565v3.424l3.424,3.424v-3.424h1.141a13.884,13.884,0,0,0,5.249-.685v6.163H212.6v-5.935h.457c.685,0,.685,0,.685.685v5.249H244.79a8.97,8.97,0,0,0,5.249-1.366v1.366h9.82a9.06,9.06,0,0,0,5.478-.913ZM219.908,271.7a5.177,5.177,0,0,1,.685,2.968v3.2h-3.877v-2.054c0-.913,0-2.511-.685-3.2-.457-.685-1.366-.685-2.739-.685h-4.109v5.935H205.3V261.653h8.674c1.826,0,3.424,0,4.565.685a4.037,4.037,0,0,1,2.054,3.652,4.544,4.544,0,0,1-2.74,4.337A3.928,3.928,0,0,1,219.908,271.7Zm15.747-6.62h-8.9v2.968h8.674v3.2h-8.674v3.2h8.9v3.424H222.876V261.652h12.783Zm9.587,12.783h-7.3v-3.424h7.3a1.926,1.926,0,0,0,1.6-.457,1.654,1.654,0,0,0,0-2.283,1.929,1.929,0,0,0-1.366-.457c-3.652-.229-7.989,0-7.989-5.022,0-2.283,1.366-4.794,5.478-4.794h7.53v3.883h-7.076a3.386,3.386,0,0,0-1.6.228c-.457.229-.457.685-.457,1.141,0,.685.457.913.913,1.141a2.9,2.9,0,0,0,1.366.228H245.7c2.054,0,3.424.457,4.337,1.366a4.726,4.726,0,0,1,1.141,3.424c0,3.428-2.051,5.024-5.932,5.024Z" transform="translate(-147.775 -231.516)" fill="#016fd0"/>
          <path id="Path_48" data-name="Path 48" d="M459.2,284.958c0,.685.229.913.913,1.141a2.9,2.9,0,0,0,1.366.228h2.054a7.6,7.6,0,0,1,3.4.544l-3.628-3.283h-2.054a3.384,3.384,0,0,0-1.6.229A1.743,1.743,0,0,0,459.2,284.958Z" transform="translate(-350.771 -249.803)" fill="#016fd0"/>
          <path id="Path_49" data-name="Path 49" d="M431.2,240.4l.457.685h.229Z" transform="translate(-330.762 -218.938)" fill="#016fd0"/>
          <path id="Path_50" data-name="Path 50" d="M387.2,196.4l3.663,9.5v-5.655Z" transform="translate(-299.316 -187.492)" fill="#016fd0"/>
          <path id="Path_51" data-name="Path 51" d="M128.049,181.633h.457c.457,0,.457,0,.457.685v5.022H145.4v-1.366a13.675,13.675,0,0,0,6.163,1.366h6.848l1.366-3.652h3.2l1.366,3.652h13.24v-2.283l-2.984-3.111v2.426h-7.966l-1.141-3.652H157.5l-1.366,3.652h-4.337a7.97,7.97,0,0,1-5.478-1.826c-1.37-1.37-2.054-3.2-2.054-6.163a9.358,9.358,0,0,1,2.054-6.392c1.141-1.366,3.2-1.826,5.707-1.826h3.652v3.424h-3.656a4.209,4.209,0,0,0-2.968.913,5.361,5.361,0,0,0-1.141,3.652c0,1.826.228,2.968,1.141,3.883a3.638,3.638,0,0,0,2.74.913h1.6l5.249-12.555h2.283l-3.2-3.2H151.79a13.9,13.9,0,0,0-6.392,1.366V165.2h-10.04v1.366a6.581,6.581,0,0,0-4.337-1.366H94.266l-2.511,5.707L89.244,165.2H79.2l3.372,2.964h4.394l3.877,8.678,1.11,2.309,4.368-10.983h6.392v16.207H98.83l.223-12.765-4.106,9.338,6.62,6.62h26.251Zm10.5-13.468h3.883v16.207h-3.883ZM118.46,171.59h-8.9v2.968h8.675v3.2H109.56v3.193h8.9v3.424H105.679V168.162H118.46Zm6.392,12.555h-3.883V167.938h8.674c2.054,0,3.424,0,4.565.685a3.89,3.89,0,0,1,1.826,3.652,4.544,4.544,0,0,1-2.74,4.337,2.988,2.988,0,0,1,1.826,1.366,5.711,5.711,0,0,1,.685,2.968v3.2h-3.883v-2.054a5.437,5.437,0,0,0-.685-3.2c-.228-.457-.913-.457-2.283-.457h-4.109v5.707Z" transform="translate(-79.2 -165.193)" fill="#016fd0"/>
        </g>
        <path id="Path_20482" data-name="Path 20482" d="M43.2,191.592h5.022L45.711,185.2Z" transform="translate(-30.873 -179.413)" fill="#016fd0"/>
      </g>
    </g>
  </g>
</svg>
