<svg xmlns="http://www.w3.org/2000/svg" width="280" height="240" viewBox="0 0 280 240">
  <g id="Group_69145" data-name="Group 69145" transform="translate(-984 -8638)">
    <rect id="Rectangle_7492" data-name="Rectangle 7492" width="280" height="240" transform="translate(984 8638)" fill="none"/>
    <g id="american-express" transform="translate(1024 8727)">
      <path id="Path_35" data-name="Path 35" d="M248.089,187.917a6.189,6.189,0,0,0-2.54-.317H239.2v5.079h6.349a6.19,6.19,0,0,0,2.54-.317,2.472,2.472,0,0,0,.952-2.222A1.765,1.765,0,0,0,248.089,187.917Z" transform="translate(-144.279 -178.394)" fill="#016fd0"/>
      <path id="Path_36" data-name="Path 36" d="M171.746,164.4v3.81l-1.9-3.81H154.921v3.81l-1.9-3.81H132.7a19.328,19.328,0,0,0-8.889,1.9v-1.9H109.524v1.9a9.153,9.153,0,0,0-6.032-1.9H52.381l-3.492,7.936L45.4,164.4H29.206v3.81l-1.9-3.81H13.651L7.3,179.321,0,195.829H16.19l1.9-5.079H22.54l1.9,5.079H42.857v-3.809l1.587,3.809h9.206l1.587-3.809v3.809H99.365v-8.254H100c.635,0,.635,0,.635.952v6.984h22.857v-1.9a19.018,19.018,0,0,0,8.571,1.9h9.524l1.9-5.079h4.444l1.9,5.079h18.413v-4.762l2.857,4.762h14.921V164.4Zm-107.3,26.667h-5.4v-17.46l-7.619,17.46H46.667l-7.619-17.46v17.46H28.254L26.032,186.3H15.238l-1.9,5.079H7.3l9.524-22.54h7.937l8.889,21.27v-21.27h8.571l6.984,15.238,6.349-15.238h8.889Zm21.587-17.46H73.651v4.127H85.714v4.444H73.651v4.444H86.032v4.762H68.254v-22.54H86.032Zm23.81,9.206a7.942,7.942,0,0,1,.952,4.127v4.444h-5.4v-2.857c0-1.27,0-3.175-.952-4.444-.952-.952-1.9-.952-3.81-.952H94.921v8.254h-5.4v-22.54h12.064c2.857,0,4.762,0,6.349.952s2.54,2.54,2.54,5.079a5.787,5.787,0,0,1-3.784,5.691A6.221,6.221,0,0,1,109.841,182.813Zm9.524,8.254h-5.4v-22.54h5.4Zm62.54,0h-7.619l-10.159-16.825v16.825H153.333l-1.9-4.762H140.318l-1.9,5.079h-6.032c-2.54,0-5.714-.635-7.619-2.54s-2.857-4.444-2.857-8.571c0-3.175.635-6.349,2.857-8.889,1.587-1.9,4.444-2.54,7.937-2.54h5.079v4.762H132.7a5.854,5.854,0,0,0-4.127,1.27,7.454,7.454,0,0,0-1.587,5.079c0,2.54.317,4.127,1.587,5.4a5.06,5.06,0,0,0,3.81,1.27H134.6l7.3-17.46h7.936l8.889,21.27v-21.27h7.937l9.206,15.556V169.162h5.4v21.9Z" transform="translate(0 -164.4)" fill="#016fd0"/>
      <g id="Group_5" data-name="Group 5" transform="translate(80 8.254)">
        <path id="Path_37" data-name="Path 37" d="M358.4,194.089h7.3L362.21,185.2Z" transform="translate(-296.178 -185.2)" fill="#016fd0"/>
        <path id="Path_38" data-name="Path 38" d="M209.854,295.3V277.2l-8.254,8.889Z" transform="translate(-201.6 -240.692)" fill="#016fd0"/>
      </g>
      <path id="Path_39" data-name="Path 39" d="M136.8,282.8v4.127h11.746v4.444H136.8v4.762h13.016l6.032-6.667-5.714-6.667Z" transform="translate(-82.514 -235.816)" fill="#016fd0"/>
      <path id="SVGCleanerId_0" d="M242.667,282.8H236v5.714h6.984c1.9,0,3.175-.952,3.175-2.857A3.2,3.2,0,0,0,242.667,282.8Z" transform="translate(-142.349 -235.816)" fill="#016fd0"/>
      <path id="Path_40" data-name="Path 40" d="M265.486,274.686V260.4H252.152a10.416,10.416,0,0,0-6.667,1.9v-1.9h-14.6c-2.222,0-5.079.635-6.349,1.9v-1.9H198.819v1.9c-1.9-1.587-5.4-1.9-6.984-1.9H174.692v1.9c-1.587-1.587-5.4-1.9-7.3-1.9H148.343l-4.444,4.762-4.127-4.762H111.2v31.111h27.936l4.444-4.762,4.127,4.762h17.143v-7.3h2.222c2.222,0,5.079,0,7.3-.952v8.571H188.66v-8.254h.635c.952,0,.952,0,.952.952v7.3h43.175c2.857,0,5.714-.635,7.3-1.9v1.9h13.651c2.857,0,5.714-.317,7.619-1.587h0a10.807,10.807,0,0,0,5.079-9.524A12.158,12.158,0,0,0,265.486,274.686Zm-98.413,5.079h-6.349v7.619H150.565l-6.4-7.3-6.62,7.3H116.6v-22.54h21.27l6.349,7.3,6.667-7.3h16.825c4.127,0,8.889,1.27,8.889,7.3C176.279,278.5,171.835,279.765,167.073,279.765Zm31.746-1.27a7.2,7.2,0,0,1,.952,4.127v4.444h-5.4V284.21c0-1.27,0-3.492-.952-4.444-.635-.952-1.9-.952-3.81-.952H183.9v8.254h-5.4v-22.54h12.064c2.54,0,4.762,0,6.349.952a5.616,5.616,0,0,1,2.857,5.079,6.32,6.32,0,0,1-3.81,6.032Q198.343,277.543,198.819,278.5Zm21.9-9.206H208.343v4.127h12.064v4.445H208.343V282.3h12.381v4.762H202.946v-22.54h17.778Zm13.333,17.778H223.9V282.3h10.159a2.678,2.678,0,0,0,2.222-.635,2.3,2.3,0,0,0,0-3.174,2.684,2.684,0,0,0-1.9-.635c-5.079-.318-11.111,0-11.111-6.984,0-3.175,1.9-6.667,7.619-6.667h10.476v5.4h-9.841a4.708,4.708,0,0,0-2.222.317c-.635.317-.635.952-.635,1.587,0,.952.635,1.27,1.27,1.587a4.027,4.027,0,0,0,1.9.317h2.857c2.857,0,4.762.635,6.032,1.9a6.572,6.572,0,0,1,1.587,4.762C242.311,284.845,239.454,287.067,234.057,287.067Zm27.3-2.222c-1.27,1.27-3.492,2.222-6.667,2.222H244.533V282.3h10.159a2.678,2.678,0,0,0,2.222-.635,2.3,2.3,0,0,0,0-3.174,2.684,2.684,0,0,0-1.9-.635c-5.079-.318-11.111,0-11.111-6.984,0-3.175,1.9-6.667,7.619-6.667h10.476v5.4H252.47a4.708,4.708,0,0,0-2.222.317c-.635.317-.635.952-.635,1.587,0,.952.317,1.27,1.27,1.587a4.027,4.027,0,0,0,1.9.317h2.857c2.857,0,4.762.635,6.032,1.9a1.663,1.663,0,0,1,.424.548,8.921,8.921,0,0,1,1.163,4.214A6.461,6.461,0,0,1,261.359,284.845Z" transform="translate(-67.073 -222.305)" fill="#016fd0"/>
      <path id="SVGCleanerId_1" d="M304.089,283.918a6.188,6.188,0,0,0-2.54-.318H295.2v5.079h6.349a6.187,6.187,0,0,0,2.54-.318,2.471,2.471,0,0,0,.952-2.222A1.765,1.765,0,0,0,304.089,283.918Z" transform="translate(-178.057 -236.298)" fill="#016fd0"/>
      <g id="Group_7" data-name="Group 7" transform="translate(93.651 46.984)">
        <path id="SVGCleanerId_0_1_" d="M242.667,282.8H236v5.714h6.984c1.9,0,3.175-.952,3.175-2.857A3.2,3.2,0,0,0,242.667,282.8Z" transform="translate(-236 -282.8)" fill="#016fd0"/>
      </g>
      <g id="Group_8" data-name="Group 8" transform="translate(117.143 47.302)">
        <path id="SVGCleanerId_1_1_" d="M304.089,283.918a6.188,6.188,0,0,0-2.54-.318H295.2v5.079h6.349a6.187,6.187,0,0,0,2.54-.318,2.471,2.471,0,0,0,.952-2.222A1.765,1.765,0,0,0,304.089,283.918Z" transform="translate(-295.2 -283.6)" fill="#016fd0"/>
      </g>
      <g id="Group_9" data-name="Group 9" transform="translate(0 0)">
        <path id="Path_44" data-name="Path 44" d="M165.346,283.006l-4.76-4.856v5.4H150.11l-6.349-7.3-6.984,7.3H115.824V261.324h21.27l6.98,7.276,2.862-3.784-7.948-8.909H111.024l.038,32.084H139l4.762-4.762,4.127,4.762,17.505.023Z" transform="translate(-66.935 -218.784)" fill="#016fd0"/>
        <path id="Path_45" data-name="Path 45" d="M65.079,195.511l-4.127-4.444h-1.9v-1.9L54.286,184.4l-3.175,6.667H46.667l-7.619-17.46v17.46H28.254L26.032,186.3H15.238l-2.222,4.762H7.3l9.524-22.222h7.937l8.889,21.27v-21.27h4.762L33.968,164.4H29.206v3.81l-1.587-3.81H13.651L7.3,179.321,0,195.511H16.508l1.9-4.762h4.444l2.222,4.762H42.857V191.7l1.587,3.81h9.206l1.587-3.81v3.81Z" transform="translate(0 -164.4)" fill="#016fd0"/>
        <path id="Path_46" data-name="Path 46" d="M119.479,198.279,114.4,193.2l3.81,8.254Z" transform="translate(-69.003 -181.771)" fill="#016fd0"/>
      </g>
      <g id="Group_10" data-name="Group 10" transform="translate(31.429 0.317)">
        <path id="Path_47" data-name="Path 47" d="M300.615,288.476a11.613,11.613,0,0,0,5.079-8.571l-4.444-4.444a9.393,9.393,0,0,1,.635,3.175,6.461,6.461,0,0,1-1.9,4.762c-1.27,1.27-3.492,2.222-6.667,2.222H283.154v-4.762h10.159a2.678,2.678,0,0,0,2.222-.635,2.3,2.3,0,0,0,0-3.175,2.683,2.683,0,0,0-1.9-.635c-5.079-.318-11.111,0-11.111-6.984,0-3.175,1.9-6.032,6.667-6.667l-3.1-3.018a8.2,8.2,0,0,1-1.663.85V258h-14.6c-2.222,0-5.079.635-6.349,1.9V258H237.44v1.9c-1.9-1.587-5.4-1.9-6.984-1.9H213.313v1.9c-1.587-1.587-5.4-1.9-7.3-1.9H186.964l-4.444,4.762L179.076,258h-4.037l9.386,9.524,4.762-5.079h16.825c4.127,0,8.889,1.27,8.889,7.3,0,6.349-4.444,7.619-9.206,7.619h-6.349v4.762l4.762,4.762v-4.762h1.587c2.222,0,5.079,0,7.3-.952v8.571h14.286v-8.254h.635c.952,0,.952,0,.952.952v7.3h43.175c2.857,0,5.714-.635,7.3-1.9v1.9H293a12.6,12.6,0,0,0,7.619-1.27ZM237.44,277.048a7.2,7.2,0,0,1,.952,4.127v4.444H233v-2.857c0-1.27,0-3.492-.952-4.444-.635-.952-1.9-.952-3.809-.952h-5.714v8.254h-5.4v-22.54h12.063c2.54,0,4.762,0,6.349.952a5.615,5.615,0,0,1,2.857,5.079,6.32,6.32,0,0,1-3.81,6.032Q236.964,276.1,237.44,277.048Zm21.9-9.206H246.964v4.127h12.063v4.444H246.964v4.444h12.381v4.762H241.567v-22.54h17.778Zm13.333,17.778H262.519v-4.762h10.159a2.679,2.679,0,0,0,2.222-.635,2.3,2.3,0,0,0,0-3.175,2.683,2.683,0,0,0-1.9-.635c-5.079-.318-11.111,0-11.111-6.984,0-3.175,1.9-6.667,7.619-6.667H279.98v5.4h-9.841a4.709,4.709,0,0,0-2.222.317c-.635.318-.635.952-.635,1.587,0,.952.635,1.27,1.27,1.587a4.027,4.027,0,0,0,1.9.317h2.857c2.857,0,4.762.635,6.032,1.9a6.572,6.572,0,0,1,1.587,4.762C280.932,283.4,278.075,285.619,272.678,285.619Z" transform="translate(-137.123 -221.175)" fill="#016fd0"/>
        <path id="Path_48" data-name="Path 48" d="M459.2,285.5c0,.952.318,1.27,1.27,1.587a4.027,4.027,0,0,0,1.9.317h2.857a10.574,10.574,0,0,1,4.728.756l-5.045-4.566h-2.857a4.707,4.707,0,0,0-2.222.318A2.424,2.424,0,0,0,459.2,285.5Z" transform="translate(-308.406 -236.616)" fill="#016fd0"/>
        <path id="Path_49" data-name="Path 49" d="M431.2,240.4l.635.952h.318Z" transform="translate(-291.518 -210.559)" fill="#016fd0"/>
        <path id="Path_50" data-name="Path 50" d="M387.2,196.4l5.094,13.217v-7.865Z" transform="translate(-264.978 -184.019)" fill="#016fd0"/>
        <path id="Path_51" data-name="Path 51" d="M147.136,188.057h.635c.635,0,.635,0,.635.952v6.984h22.857v-1.9a19.018,19.018,0,0,0,8.571,1.9h9.524l1.9-5.079h4.444l1.9,5.079h18.413v-3.175l-4.15-4.326v3.374H200.787l-1.587-5.079H188.089l-1.9,5.079h-6.032c-2.54,0-5.714-.635-7.619-2.54s-2.857-4.444-2.857-8.571c0-3.175.635-6.349,2.857-8.889,1.587-1.9,4.444-2.54,7.937-2.54h5.079v4.762H180.47a5.854,5.854,0,0,0-4.127,1.27,7.455,7.455,0,0,0-1.587,5.079c0,2.54.317,4.127,1.587,5.4a5.06,5.06,0,0,0,3.81,1.27h2.222l7.3-17.46h3.175l-4.444-4.444h-8.254a19.327,19.327,0,0,0-8.889,1.9v-1.9H157.3v1.9a9.153,9.153,0,0,0-6.032-1.9H100.152l-3.492,7.937L93.168,165.2H79.2l4.689,4.122H90l5.392,12.069,1.544,3.211,6.075-15.275H111.9v22.54h-5.4l.31-17.753L101.1,187.1l9.206,9.206h36.508Zm14.6-18.73h5.4v22.54h-5.4ZM133.8,174.089H121.422v4.127h12.064v4.444H121.422V187.1H133.8v4.762H116.025v-22.54H133.8Zm8.889,17.46h-5.4V169.01h12.063c2.857,0,4.762,0,6.349.952s2.54,2.54,2.54,5.079a6.32,6.32,0,0,1-3.81,6.032,4.156,4.156,0,0,1,2.54,1.9,7.942,7.942,0,0,1,.952,4.127v4.444h-5.4v-2.857c0-1.27,0-3.175-.952-4.444-.317-.635-1.27-.635-3.175-.635h-5.714v7.937Z" transform="translate(-79.2 -165.2)" fill="#016fd0"/>
      </g>
      <path id="Path_20482" data-name="Path 20482" d="M43.2,194.089h6.984L46.692,185.2Z" transform="translate(-26.057 -177.162)" fill="#016fd0"/>
    </g>
  </g>
</svg>
