<svg xmlns="http://www.w3.org/2000/svg" width="280" height="280" viewBox="0 0 280 280">
    <g data-name="Group 68950">
        <path data-name="Rectangle 7198" style="fill:none;opacity:.2" d="M0 0h280v280H0z"/>
        <path data-name="Path 35" d="M248.089 187.917a6.189 6.189 0 0 0-2.54-.317H239.2v5.079h6.349a6.19 6.19 0 0 0 2.54-.317 2.472 2.472 0 0 0 .952-2.222 1.765 1.765 0 0 0-.952-2.223z" transform="translate(-104.279 -73.394)" style="fill:#fff"/>
        <path data-name="Path 36" d="M171.746 164.4v3.81l-1.9-3.81h-14.925v3.81l-1.9-3.81H132.7a19.328 19.328 0 0 0-8.889 1.9v-1.9h-14.287v1.9a9.153 9.153 0 0 0-6.032-1.9H52.381l-3.492 7.936L45.4 164.4H29.206v3.81l-1.9-3.81H13.651L7.3 179.321 0 195.829h16.19l1.9-5.079h4.45l1.9 5.079h18.417v-3.809l1.587 3.809h9.206l1.587-3.809v3.809h44.128v-8.254H100c.635 0 .635 0 .635.952v6.984h22.857v-1.9a19.018 19.018 0 0 0 8.571 1.9h9.524l1.9-5.079h4.444l1.9 5.079h18.413v-4.762l2.857 4.762h14.921V164.4zm-107.3 26.667h-5.4v-17.46l-7.619 17.46h-4.76l-7.619-17.46v17.46H28.254l-2.222-4.767H15.238l-1.9 5.079H7.3l9.524-22.54h7.937l8.889 21.27v-21.27h8.571l6.984 15.238 6.349-15.238h8.889zm21.587-17.46H73.651v4.127h12.063v4.444H73.651v4.444h12.381v4.762H68.254v-22.54h17.778zm23.81 9.206a7.942 7.942 0 0 1 .952 4.127v4.444h-5.4v-2.857c0-1.27 0-3.175-.952-4.444-.952-.952-1.9-.952-3.81-.952h-5.712v8.254h-5.4v-22.54h12.064c2.857 0 4.762 0 6.349.952s2.54 2.54 2.54 5.079a5.787 5.787 0 0 1-3.784 5.691 6.221 6.221 0 0 1 3.151 2.246zm9.524 8.254h-5.4v-22.54h5.4zm62.54 0h-7.619l-10.159-16.825v16.825h-10.796l-1.9-4.762h-11.115l-1.9 5.079h-6.032c-2.54 0-5.714-.635-7.619-2.54s-2.857-4.444-2.857-8.571c0-3.175.635-6.349 2.857-8.889 1.587-1.9 4.444-2.54 7.937-2.54h5.079v4.762H132.7a5.854 5.854 0 0 0-4.127 1.27 7.454 7.454 0 0 0-1.587 5.079c0 2.54.317 4.127 1.587 5.4a5.06 5.06 0 0 0 3.81 1.27h2.217l7.3-17.46h7.936l8.889 21.27v-21.27h7.937l9.206 15.556v-15.559h5.4v21.9z" transform="translate(40 -59.4)" style="fill:#fff"/>
        <g data-name="Group 5">
            <path data-name="Path 37" d="M358.4 194.089h7.3l-3.49-8.889z" transform="translate(-176.178 -71.946)" style="fill:#fff"/>
            <path data-name="Path 38" d="M209.854 295.3v-18.1l-8.254 8.889z" transform="translate(-81.6 -127.438)" style="fill:#fff"/>
        </g>
        <path data-name="Path 39" d="M136.8 282.8v4.127h11.746v4.444H136.8v4.762h13.016l6.032-6.667-5.714-6.667z" transform="translate(-42.514 -130.816)" style="fill:#fff"/>
        <path d="M242.667 282.8H236v5.714h6.984c1.9 0 3.175-.952 3.175-2.857a3.2 3.2 0 0 0-3.492-2.857z" transform="translate(-102.349 -130.816)" style="fill:#fff"/>
        <path data-name="Path 40" d="M265.486 274.686V260.4h-13.334a10.416 10.416 0 0 0-6.667 1.9v-1.9h-14.6c-2.222 0-5.079.635-6.349 1.9v-1.9h-25.717v1.9c-1.9-1.587-5.4-1.9-6.984-1.9h-17.143v1.9c-1.587-1.587-5.4-1.9-7.3-1.9h-19.049l-4.444 4.762-4.127-4.762H111.2v31.111h27.936l4.444-4.762 4.127 4.762h17.143v-7.3h2.222c2.222 0 5.079 0 7.3-.952v8.571h14.288v-8.254h.635c.952 0 .952 0 .952.952v7.3h43.175c2.857 0 5.714-.635 7.3-1.9v1.9h13.651c2.857 0 5.714-.317 7.619-1.587a10.807 10.807 0 0 0 5.079-9.524 12.158 12.158 0 0 0-1.585-6.031zm-98.413 5.079h-6.349v7.619h-10.159l-6.4-7.3-6.62 7.3H116.6v-22.54h21.27l6.349 7.3 6.667-7.3h16.825c4.127 0 8.889 1.27 8.889 7.3-.321 6.356-4.765 7.621-9.527 7.621zm31.746-1.27a7.2 7.2 0 0 1 .952 4.127v4.444h-5.4v-2.856c0-1.27 0-3.492-.952-4.444-.635-.952-1.9-.952-3.81-.952H183.9v8.254h-5.4v-22.54h12.064c2.54 0 4.762 0 6.349.952a5.616 5.616 0 0 1 2.857 5.079 6.32 6.32 0 0 1-3.81 6.032q2.383.952 2.859 1.909zm21.9-9.206h-12.376v4.127h12.064v4.445h-12.064v4.439h12.381v4.762h-17.778v-22.54h17.778zm13.333 17.778H223.9V282.3h10.159a2.678 2.678 0 0 0 2.222-.635 2.3 2.3 0 0 0 0-3.174 2.684 2.684 0 0 0-1.9-.635c-5.079-.318-11.111 0-11.111-6.984 0-3.175 1.9-6.667 7.619-6.667h10.476v5.4h-9.841a4.708 4.708 0 0 0-2.222.317c-.635.317-.635.952-.635 1.587 0 .952.635 1.27 1.27 1.587a4.027 4.027 0 0 0 1.9.317h2.857c2.857 0 4.762.635 6.032 1.9a6.572 6.572 0 0 1 1.587 4.762c-.002 4.77-2.859 6.992-8.256 6.992zm27.3-2.222c-1.27 1.27-3.492 2.222-6.667 2.222h-10.152V282.3h10.159a2.678 2.678 0 0 0 2.222-.635 2.3 2.3 0 0 0 0-3.174 2.684 2.684 0 0 0-1.9-.635c-5.079-.318-11.111 0-11.111-6.984 0-3.175 1.9-6.667 7.619-6.667h10.476v5.4h-9.528a4.708 4.708 0 0 0-2.222.317c-.635.317-.635.952-.635 1.587 0 .952.317 1.27 1.27 1.587a4.027 4.027 0 0 0 1.9.317h2.857c2.857 0 4.762.635 6.032 1.9a1.663 1.663 0 0 1 .424.548 8.921 8.921 0 0 1 1.163 4.214 6.461 6.461 0 0 1-1.9 4.77z" transform="translate(-27.073 -117.305)" style="fill:#fff"/>
        <path d="M304.089 283.918a6.188 6.188 0 0 0-2.54-.318H295.2v5.079h6.349a6.187 6.187 0 0 0 2.54-.318 2.471 2.471 0 0 0 .952-2.222 1.765 1.765 0 0 0-.952-2.221z" transform="translate(-138.057 -131.298)" style="fill:#fff"/>
        <path d="M242.667 282.8H236v5.714h6.984c1.9 0 3.175-.952 3.175-2.857a3.2 3.2 0 0 0-3.492-2.857z" transform="translate(-102.349 -130.816)" style="fill:#fff" data-name="Group 7"/>
        <path d="M304.089 283.918a6.188 6.188 0 0 0-2.54-.318H295.2v5.079h6.349a6.187 6.187 0 0 0 2.54-.318 2.471 2.471 0 0 0 .952-2.222 1.765 1.765 0 0 0-.952-2.221z" transform="translate(-138.057 -131.298)" style="fill:#fff" data-name="Group 8"/>
        <g data-name="Group 9">
            <path data-name="Path 44" d="m165.346 283.006-4.76-4.856v5.4H150.11l-6.349-7.3-6.984 7.3h-20.953v-22.226h21.27l6.98 7.276 2.862-3.784-7.948-8.909h-27.964l.038 32.084H139l4.762-4.762 4.127 4.762 17.505.023z" transform="translate(-26.935 -113.784)" style="fill:#fff"/>
            <path data-name="Path 45" d="m65.079 195.511-4.127-4.444h-1.9v-1.9l-4.766-4.767-3.175 6.667h-4.444l-7.619-17.46v17.46H28.254l-2.222-4.767H15.238l-2.222 4.762H7.3l9.524-22.222h7.937l8.889 21.27v-21.27h4.762l-4.444-4.44h-4.762v3.81l-1.587-3.81H13.651L7.3 179.321 0 195.511h16.508l1.9-4.762h4.444l2.222 4.762h17.783V191.7l1.587 3.81h9.206l1.587-3.81v3.81z" transform="translate(40 -59.4)" style="fill:#fff"/>
            <path data-name="Path 46" d="M119.479 198.279 114.4 193.2l3.81 8.254z" transform="translate(-29.003 -76.771)" style="fill:#fff"/>
        </g>
        <g data-name="Group 10">
            <path data-name="Path 47" d="M300.615 288.476a11.613 11.613 0 0 0 5.079-8.571l-4.444-4.444a9.393 9.393 0 0 1 .635 3.175 6.461 6.461 0 0 1-1.9 4.762c-1.27 1.27-3.492 2.222-6.667 2.222h-10.164v-4.762h10.159a2.678 2.678 0 0 0 2.222-.635 2.3 2.3 0 0 0 0-3.175 2.683 2.683 0 0 0-1.9-.635c-5.079-.318-11.111 0-11.111-6.984 0-3.175 1.9-6.032 6.667-6.667l-3.1-3.018a8.2 8.2 0 0 1-1.663.85V258h-14.6c-2.222 0-5.079.635-6.349 1.9V258H237.44v1.9c-1.9-1.587-5.4-1.9-6.984-1.9h-17.143v1.9c-1.587-1.587-5.4-1.9-7.3-1.9h-19.049l-4.444 4.762-3.444-4.762h-4.037l9.386 9.524 4.762-5.079h16.825c4.127 0 8.889 1.27 8.889 7.3 0 6.349-4.444 7.619-9.206 7.619h-6.349v4.762l4.762 4.762v-4.762h1.587c2.222 0 5.079 0 7.3-.952v8.571h14.286v-8.254h.635c.952 0 .952 0 .952.952v7.3h43.175c2.857 0 5.714-.635 7.3-1.9v1.9H293a12.6 12.6 0 0 0 7.619-1.27zm-63.175-11.428a7.2 7.2 0 0 1 .952 4.127v4.444H233v-2.857c0-1.27 0-3.492-.952-4.444-.635-.952-1.9-.952-3.809-.952h-5.714v8.254h-5.4v-22.54h12.063c2.54 0 4.762 0 6.349.952a5.615 5.615 0 0 1 2.857 5.079 6.32 6.32 0 0 1-3.81 6.032q2.38.957 2.856 1.905zm21.9-9.206h-12.376v4.127h12.063v4.444h-12.063v4.444h12.381v4.762h-17.778v-22.54h17.778zm13.333 17.778h-10.154v-4.762h10.159a2.679 2.679 0 0 0 2.222-.635 2.3 2.3 0 0 0 0-3.175 2.683 2.683 0 0 0-1.9-.635c-5.079-.318-11.111 0-11.111-6.984 0-3.175 1.9-6.667 7.619-6.667h10.472v5.4h-9.841a4.709 4.709 0 0 0-2.222.317c-.635.318-.635.952-.635 1.587 0 .952.635 1.27 1.27 1.587a4.027 4.027 0 0 0 1.9.317h2.857c2.857 0 4.762.635 6.032 1.9a6.572 6.572 0 0 1 1.587 4.762c.004 4.768-2.853 6.987-8.25 6.987z" transform="translate(-65.694 -115.858)" style="fill:#fff"/>
            <path data-name="Path 48" d="M459.2 285.5c0 .952.318 1.27 1.27 1.587a4.027 4.027 0 0 0 1.9.317h2.857a10.574 10.574 0 0 1 4.728.756l-5.045-4.566h-2.857a4.707 4.707 0 0 0-2.222.318 2.424 2.424 0 0 0-.631 1.588z" transform="translate(-236.977 -131.299)" style="fill:#fff"/>
            <path data-name="Path 49" d="m431.2 240.4.635.952h.318z" transform="translate(-220.089 -105.242)" style="fill:#fff"/>
            <path data-name="Path 50" d="m387.2 196.4 5.094 13.217v-7.865z" transform="translate(-193.549 -78.702)" style="fill:#fff"/>
            <path data-name="Path 51" d="M147.136 188.057h.635c.635 0 .635 0 .635.952v6.984h22.857v-1.9a19.018 19.018 0 0 0 8.571 1.9h9.524l1.9-5.079h4.444l1.9 5.079h18.413v-3.175l-4.15-4.326v3.374h-11.078l-1.587-5.079h-11.111l-1.9 5.079h-6.032c-2.54 0-5.714-.635-7.619-2.54s-2.857-4.444-2.857-8.571c0-3.175.635-6.349 2.857-8.889 1.587-1.9 4.444-2.54 7.937-2.54h5.079v4.762h-5.084a5.854 5.854 0 0 0-4.127 1.27 7.455 7.455 0 0 0-1.587 5.079c0 2.54.317 4.127 1.587 5.4a5.06 5.06 0 0 0 3.81 1.27h2.222l7.3-17.46h3.175l-4.444-4.444h-8.254a19.327 19.327 0 0 0-8.889 1.9v-1.9H157.3v1.9a9.153 9.153 0 0 0-6.032-1.9h-51.116l-3.492 7.937-3.492-7.94H79.2l4.689 4.122H90l5.392 12.069 1.544 3.211 6.075-15.275h8.889v22.54h-5.4l.31-17.753-5.71 12.986 9.206 9.206h36.508zm14.6-18.73h5.4v22.54h-5.4zm-27.936 4.762h-12.378v4.127h12.064v4.444h-12.064v4.44H133.8v4.762h-17.775v-22.54H133.8zm8.889 17.46h-5.4V169.01h12.063c2.857 0 4.762 0 6.349.952s2.54 2.54 2.54 5.079a6.32 6.32 0 0 1-3.81 6.032 4.156 4.156 0 0 1 2.54 1.9 7.942 7.942 0 0 1 .952 4.127v4.444h-5.4v-2.857c0-1.27 0-3.175-.952-4.444-.317-.635-1.27-.635-3.175-.635h-5.714v7.937z" transform="translate(-7.771 -59.883)" style="fill:#fff"/>
        </g>
        <path data-name="Path 20482" d="M43.2 194.089h6.984l-3.492-8.889z" transform="translate(13.943 -72.162)" style="fill:#fff"/>
    </g>
</svg>
