<svg xmlns="http://www.w3.org/2000/svg" width="280" height="240" viewBox="0 0 280 240">
  <g id="Group_69154" data-name="Group 69154" transform="translate(-984 -8876)">
    <rect id="Rectangle_7497" data-name="Rectangle 7497" width="280" height="240" transform="translate(984 8876)" fill="none"/>
    <g id="Layer_x0020_1" transform="translate(1014.995 8932.072)">
      <g id="_2946209773872" transform="translate(0.005 42.927)">
        <g id="Group_19986" data-name="Group 19986" transform="translate(0 0)">
          <path id="Path_111195" data-name="Path 111195" d="M16132.533,6476.956v-12.792c0-1.756-.209-4.533.42-5.965a4.329,4.329,0,0,1,4.141-2.271c5.25.131,4.369,4.976,4.369,8.367v12.662h6.725v-14.486c0-2.658-.184-4.353,1.625-5.648a5.224,5.224,0,0,1,5.592-.163,3.248,3.248,0,0,1,1.66,1.987c.477,1.363.262,8.864.262,10.6,0,1.979-.424,5.192.709,6.548,1.322,1.583,3.541,1.165,6.021,1.17v-12.012c0-3.646.193-7.654-1.645-10.345-3.086-4.521-12.271-5.313-16.643-2.344a4.306,4.306,0,0,1-.861.552,13.008,13.008,0,0,0-6.637-2.332,15.857,15.857,0,0,0-7.822,1.178c-1.779-1.133-2.025-.811-4.85-.811v26.107Z" transform="translate(-15944.063 -6443.384)" fill-rule="evenodd"/>
          <path id="Path_111196" data-name="Path 111196" d="M2114.527,6463.855c4.294-.786,6.181,2.712,6.417,6.548.262,4.166-.7,8.137-4.431,8.8-4.339.77-6.362-2.727-6.574-6.591C2109.711,6468.355,2110.811,6464.53,2114.527,6463.855Zm-11.262,7.973c0,12.882,10.439,15.357,15.648,11.607a9.354,9.354,0,0,0,2.006-2.167,75.414,75.414,0,0,1,.063,8.145c0,1.441-.1,2.452.774,3.394,1.5,1.616,2.91,1.221,5.869,1.222v-35.645h-4.168a3.375,3.375,0,0,0-2.475.817,14.913,14.913,0,0,0-5.211-1.179c-4.046,0-7.585,1.163-9.579,3.446-2.357,2.693-2.927,6.147-2.927,10.361Z" transform="translate(-2079.595 -6450.916)" fill-rule="evenodd"/>
          <path id="Path_111197" data-name="Path 111197" d="M10071.118,5862.148v-13.054c-.009-9.219,7.517-8.872,9.734-5.326a8.738,8.738,0,0,1,1.23,5.328c-.013,4.333-.013,8.67,0,13.046h6.525v-12.012c0-3.866.214-7.379-1.811-10.1a10.229,10.229,0,0,0-7.617-4.391,9.742,9.742,0,0,0-5.018,1.007c-1.792.917-2.046,1.767-3.032,2.8-.032-1.694.2-7.4-.2-8.567-.966-2.844-4.016-2.244-6.481-2.247v33.506Z" transform="translate(-9951.146 -5828.576)" fill-rule="evenodd"/>
          <path id="Path_111198" data-name="Path 111198" d="M12359.581,6462.878c-.263-5.284,5.978-6.679,8.6-3.78a5.74,5.74,0,0,1,1.205,3.8Zm16.841,4.364a17.235,17.235,0,0,0-1.986-10.234,10.4,10.4,0,0,0-7.419-4.82c-8.139-1.371-13.127,3-14.177,9.964-1.179,7.813,1.536,14.492,7.719,16.29,6.405,1.864,14.316-1.083,15.516-7.966-1.525,0-4.964-.279-6.055.374-1.474.885-1.328,2-3.9,2.356-4.34.6-6.748-1.952-6.535-5.932Z" transform="translate(-12213.51 -6444.905)" fill-rule="evenodd"/>
          <path id="Path_111199" data-name="Path 111199" d="M9.873,6471.931a3.372,3.372,0,0,1-3.489-1.9,3.261,3.261,0,0,1,1.2-3.821c2.018-1.354,5.792-1.177,7.977-2.479l.042,2.552a5.218,5.218,0,0,1-5.6,5.645Zm-2.565-14.478a2.71,2.71,0,0,1,2.315-1.7c5.384-1.189,7.988,2.457,3.95,4.076-4.553,1.825-9.232.479-12.048,4.107-2.4,3.094-1.976,9.614,1.434,11.876a11.13,11.13,0,0,0,6.656,1.4,14.805,14.805,0,0,0,6.643-1.293c.422.2.485.439,1.059.655a18.491,18.491,0,0,0,4.631.119c-.01-4.6,0-9.193,0-13.787,0-5.069.691-8.38-2.809-10.824-3.85-2.689-17.278-3.76-18.408,5.378H7.307Z" transform="translate(-0.005 -6443.162)" fill-rule="evenodd"/>
          <path id="Path_111200" data-name="Path 111200" d="M6691.214,6463.56c.324,2.643-.182,5.83-1.748,6.983-3.5,2.574-8.966.928-7.393-3.092C6683.2,6464.57,6687.236,6465.386,6691.214,6463.56Zm-8.536-6.285c.46-.159.241-.1.55-.524,1.44-1.947,7.58-2.065,7.9.645.48,4.083-10.67,2-13.96,6.322-2.168,2.847-2.227,9.4,1.375,11.865,3.274,2.247,9.953,1.68,13.388.151a3.181,3.181,0,0,0,2.474.822h3.184c-.009-4.567,0-9.137,0-13.7,0-4.877.645-8.681-2.8-10.934-4.568-2.984-17.433-3.383-18.411,5.357Z" transform="translate(-6600.508 -6442.979)" fill-rule="evenodd"/>
          <path id="Path_111201" data-name="Path 111201" d="M4482.121,6502.188c0,6.68,2.939,10.477,9.69,10.477,4.749,0,5.557-1.381,6.657-.854,1.447.692,4.261.435,6.24.435v-26.106c-2.72,0-4.556-.409-5.929,1.131a3.556,3.556,0,0,0-.8,2.8c0,2.288.192,13.014-.213,14.423-1.063,3.7-7.047,3.7-8.357.5-.585-1.432-.374-4.346-.373-6.059v-12.755l-6.918-.037Z" transform="translate(-4431.664 -6478.673)" fill-rule="evenodd"/>
          <path id="Path_111202" data-name="Path 111202" d="M8898.015,5862.449l3.736-.083v-5.044c-1.877-.247-4,.574-4-1.866v-14.2a3.537,3.537,0,0,0,3.37-1.318,5.292,5.292,0,0,0,.625-3.329l-4-.042c0-3.274.595-6.253-1.964-7.415a14.253,14.253,0,0,0-4.762-.23V5849.2C8891.022,5860.026,8889.566,5862.457,8898.015,5862.449Z" transform="translate(-8790.835 -5828.82)" fill-rule="evenodd"/>
          <path id="Path_111203" data-name="Path 111203" d="M14628.265,6506.7v-6.8c0-4.6-.859-8.945,2.406-11.144,1.725-1.162,3.246-.994,5.367-1.274v-6.84a16.714,16.714,0,0,0-8.791,1.429,9.756,9.756,0,0,0-4.783,5.389c-1.154,2.841-1.131,5.783-1.131,9.054V6506.7Z" transform="translate(-14456.728 -6473.13)" fill-rule="evenodd"/>
        </g>
      </g>
    </g>
  </g>
</svg>
