<svg xmlns="http://www.w3.org/2000/svg" width="280" height="240" viewBox="0 0 280 240">
  <g id="Group_69155" data-name="Group 69155" transform="translate(-706 -8876)">
    <rect id="Rectangle_7502" data-name="Rectangle 7502" width="280" height="240" transform="translate(706 8876)" fill="none"/>
    <g id="Layer_x0020_1" transform="translate(745.148 8835.656)">
      <g id="_1674709897024" transform="translate(14.85 143.344)">
        <g id="Group_68956" data-name="Group 68956">
          <path id="Path_115433" data-name="Path 115433" d="M4013.193,10713.025c3.189-.446,9.792-.112,13.317-.079,4.29.047,8.182.335,8.149,4.944-.031,4.545-4.29,4.784-8.42,4.816-2.7.016-10.988.335-13.11-.144l.08-9.553Zm-7.193,30.732,7.081.128.048-15.071c2.488-.288,6.316-.062,8.884-.079,2.424-.017,2.09.637,4.609,4.242,1.212,1.737,2.5,3.589,3.668,5.326a63.867,63.867,0,0,1,3.748,5.518l7.687.032-10.223-15.2c2.057-1.212,8.006-1.1,9.776-7.257,1.451-5.071-.4-10.3-3.62-12.408-3.811-2.488-9.744-2.089-14.816-2.089-4.752,0-12.424-.462-16.842.1v36.76Z" transform="translate(-3957.724 -10706.191)" fill="#222469" fill-rule="evenodd"/>
          <path id="Path_115434" data-name="Path 115434" d="M9682.338,10699.688c-3.159,16.506-29.809,12.773-26.65-4.913,1.181-6.586,7.352-11.45,15.789-10.191C9678.334,10685.605,9683.9,10691.521,9682.338,10699.688Zm-17.4-21.132c-25.581,3.747-21.26,42.071,8.371,37.605C9698.237,10712.4,9694.744,10674.187,9664.938,10678.557Z" transform="translate(-9509.89 -10678.134)" fill="#222469" fill-rule="evenodd"/>
          <path id="Path_115435" data-name="Path 115435" d="M6697.072,10706.956l.032-14.115-17.655-.031-.032,4.944,11.913.128.064,5.069c-10.924,5.775-27.447,2.475-26.49-11.29.686-9.855,10.366-13.349,19.792-11.227,3.7.829,5.119,2.185,7.846,3.141a20.9,20.9,0,0,0,2.249-5.709c-7.512-4.321-16.586-5.757-24.992-2.758-17.08,6.108-16.283,31.179,1.8,35.852a33.986,33.986,0,0,0,14.29.19c4.9-.94,7.464-2.5,11.18-4.212Z" transform="translate(-6566.934 -10673.521)" fill="#222469" fill-rule="evenodd"/>
          <path id="Path_115436" data-name="Path 115436" d="M992.349,10742.471c.175-1.131,5.773-11.944,6.491-12.935a2.09,2.09,0,0,1,.622.8,8.092,8.092,0,0,1,.367.749l2.44,4.881c.718,1.4,2.871,5.214,3.078,6.506ZM979,10756.938h6.443l4.625-9.426,17.543-.032,4.609,9.44,7.5.033L1002.3,10720h-6.268c-.957,1.355-16.746,35.548-17.033,36.952Z" transform="translate(-979 -10719.259)" fill="#222469" fill-rule="evenodd"/>
        </g>
      </g>
    </g>
  </g>
</svg>
