<svg xmlns="http://www.w3.org/2000/svg" xmlns:xlink="http://www.w3.org/1999/xlink" width="220" height="60" viewBox="0 0 220 60">
  <defs>
    <clipPath id="clip-_06">
      <rect width="220" height="60"/>
    </clipPath>
  </defs>
  <g id="_06" data-name="06" clip-path="url(#clip-_06)">
    <rect width="220" height="60" fill="#fff"/>
    <g id="Layer_x0020_1" transform="translate(65.151 -143.2)">
      <g id="_1674709897024" transform="translate(14.85 143.344)">
        <g id="Group_68956" data-name="Group 68956">
          <path id="Path_115433" data-name="Path 115433" d="M4011.595,10711.625c2.48-.348,7.616-.086,10.357-.061,3.337.036,6.363.26,6.339,3.846-.025,3.535-3.337,3.721-6.549,3.746-2.1.012-8.547.26-10.2-.113l.062-7.429Zm-5.594,23.9,5.508.1.037-11.721c1.935-.227,4.913-.051,6.91-.064,1.885-.012,1.625.5,3.584,3.3.942,1.349,1.947,2.789,2.854,4.14a49.975,49.975,0,0,1,2.914,4.293l5.979.025-7.952-11.821c1.6-.94,6.228-.854,7.6-5.644,1.129-3.945-.311-8.012-2.815-9.65-2.965-1.936-7.58-1.625-11.524-1.625-3.7,0-9.662-.359-13.1.075v28.591Z" transform="translate(-3968.453 -10706.312)" fill="#3b5598" fill-rule="evenodd"/>
          <path id="Path_115434" data-name="Path 115434" d="M9674.741,10694.915c-2.457,12.838-23.185,9.935-20.729-3.82.919-5.122,5.719-8.906,12.281-7.927C9671.627,10683.963,9675.956,10688.563,9674.741,10694.915Zm-13.533-16.435c-19.9,2.913-16.534,32.722,6.511,29.247C9687.107,10704.8,9684.392,10675.081,9661.208,10678.48Z" transform="translate(-9540.616 -10678.152)" fill="#3b5598" fill-rule="evenodd"/>
          <path id="Path_115435" data-name="Path 115435" d="M6688.277,10699.528l.025-10.979-13.732-.025-.024,3.845,9.266.1.049,3.943c-8.5,4.49-21.348,1.925-20.6-8.781.533-7.666,8.063-10.384,15.394-8.732,2.878.645,3.982,1.7,6.1,2.443a16.276,16.276,0,0,0,1.749-4.44,23.294,23.294,0,0,0-19.437-2.146c-13.285,4.75-12.664,24.251,1.4,27.885a26.411,26.411,0,0,0,11.114.146c3.808-.729,5.8-1.946,8.7-3.273Z" transform="translate(-6587.06 -10673.521)" fill="#3b5598" fill-rule="evenodd"/>
          <path id="Path_115436" data-name="Path 115436" d="M989.382,10737.479a99.368,99.368,0,0,1,5.049-10.061,1.633,1.633,0,0,1,.484.621c.124.211.186.373.285.582l1.9,3.8c.558,1.092,2.233,4.057,2.394,5.061ZM979,10748.73h5.011l3.6-7.33,13.645-.025,3.585,7.343,5.83.025L997.122,10720h-4.875c-.744,1.055-13.024,27.647-13.248,28.74Z" transform="translate(-979 -10719.427)" fill="#3b5598" fill-rule="evenodd"/>
        </g>
      </g>
    </g>
  </g>
</svg>
