<svg xmlns="http://www.w3.org/2000/svg" width="280" height="280" viewBox="0 0 280 280">
    <g data-name="Group 68957">
        <path data-name="Rectangle 7202" style="fill:none;opacity:.2" d="M0 0h280v280H0z"/>
        <g data-name="Group 68956">
            <path data-name="Path 115433" d="M4013.992 10713.726c3.544-.5 10.88-.124 14.8-.088 4.767.053 9.091.372 9.055 5.494-.035 5.05-4.767 5.315-9.356 5.352-2.995.017-12.209.372-14.566-.16l.089-10.614zm-7.992 34.147 7.868.142.053-16.745c2.764-.32 7.017-.07 9.87-.089 2.693-.018 2.322.708 5.121 4.714 1.347 1.931 2.782 3.987 4.075 5.918a70.978 70.978 0 0 1 4.164 6.131l8.541.035-11.359-16.887c2.286-1.346 8.9-1.222 10.862-8.062 1.613-5.635-.442-11.446-4.022-13.787-4.235-2.765-10.827-2.32-16.462-2.32-5.281 0-13.8-.514-18.713.106v40.845z" transform="translate(-3910.363 -10585.133)" style="fill:#fff;fill-rule:evenodd"/>
            <path data-name="Path 115434" d="M9686.137 10702.074c-3.509 18.34-33.119 14.193-29.611-5.458 1.313-7.318 8.17-12.723 17.544-11.324 7.619 1.135 13.803 7.708 12.067 16.782zm-19.332-23.479c-28.424 4.164-23.622 46.746 9.3 41.783 27.695-4.178 23.817-46.639-9.305-41.783z" transform="translate(-9452.531 -10557.126)" style="fill:#fff;fill-rule:evenodd"/>
            <path data-name="Path 115435" d="m6701.469 10710.672.036-15.684-19.616-.035-.036 5.493 13.237.142.071 5.634c-12.138 6.416-30.5 2.749-29.433-12.544.762-10.951 11.518-14.833 21.991-12.475 4.111.921 5.688 2.427 8.718 3.49a23.247 23.247 0 0 0 2.5-6.344c-8.347-4.8-18.429-6.4-27.768-3.064-18.978 6.786-18.092 34.643 2 39.834a37.732 37.732 0 0 0 15.877.212c5.44-1.044 8.293-2.782 12.422-4.679z" transform="translate(-6514.875 -10552.521)" style="fill:#fff;fill-rule:evenodd"/>
            <path data-name="Path 115436" d="M993.832 10744.968c.195-1.257 6.415-13.271 7.212-14.371a2.323 2.323 0 0 1 .691.887 8.885 8.885 0 0 1 .408.833l2.711 5.422c.8 1.56 3.19 5.794 3.42 7.229zM979 10761.041h7.159l5.139-10.473 19.492-.035 5.121 10.489 8.328.036-19.35-41.058h-6.964c-1.063 1.506-18.606 39.5-18.925 41.058z" transform="translate(-937.002 -10598.177)" style="fill:#fff;fill-rule:evenodd"/>
        </g>
    </g>
</svg>
