<svg xmlns="http://www.w3.org/2000/svg" width="280" height="240" viewBox="0 0 280 240">
  <g id="Group_69143" data-name="Group 69143" transform="translate(-428 -8638)">
    <rect id="Rectangle_7489" data-name="Rectangle 7489" width="280" height="240" transform="translate(428 8638)" fill="none"/>
    <path id="Path_116320" data-name="Path 116320" d="M153.529,42.023a30.584,30.584,0,0,0-19.051,6.619,30.725,30.725,0,0,0-38.1,0,30.723,30.723,0,0,0-38.1,0,30.724,30.724,0,1,0,0,48.21,30.723,30.723,0,0,0,38.1,0,30.725,30.725,0,0,0,38.1,0,30.724,30.724,0,1,0,19.051-54.829ZM53.25,91.833a23.687,23.687,0,1,1,0-38.171,30.727,30.727,0,0,0,0,38.171Zm5.028-5.013a23.682,23.682,0,0,1,0-28.146,23.682,23.682,0,0,1,0,28.146Zm33.073,5.013a23.709,23.709,0,0,1-28.047,0,30.726,30.726,0,0,0,0-38.17,23.7,23.7,0,0,1,28.047,0,30.726,30.726,0,0,0,0,38.17Zm5.026-5.013a23.682,23.682,0,0,1,0-28.146,23.678,23.678,0,0,1,0,28.146Zm33.074,5.013a23.709,23.709,0,0,1-28.047,0,30.726,30.726,0,0,0,0-38.17,23.7,23.7,0,0,1,28.047,0,30.726,30.726,0,0,0,0,38.17Zm5.028-5.013a23.682,23.682,0,0,1,0-28.146,23.682,23.682,0,0,1,0,28.146Zm19.05,9.612a23.843,23.843,0,0,1-14.023-4.6,30.726,30.726,0,0,0,0-38.17,23.684,23.684,0,1,1,14.023,42.769Z" transform="translate(471.623 8689.238)" fill-rule="evenodd"/>
  </g>
</svg>
