<svg xmlns="http://www.w3.org/2000/svg" width="280" height="280" viewBox="0 0 280 280">
    <g data-name="Group 68952">
        <path data-name="Rectangle 7196" style="fill:none;opacity:.2" d="M0 0h280v280H0z"/>
        <g data-name="Group 68875">
            <path data-name="Path 1" d="M215.6 208.062v-29h-12.052v29z" transform="translate(4.396 -48.118)" style="fill:#fff"/>
            <path data-name="Path 2" d="M165.379 195.931v-16.865h-11.687v12.945a23.905 23.905 0 0 1-.371 5.7c-.813 2.663-3.624 3.847-6.51 3.847-3.994 0-5.844-1.554-6.583-4a14.251 14.251 0 0 1-.369-2.588c-.074-.961 0-2 0-3.108v-12.8h-11.837v16.94a11.111 11.111 0 0 0 3.329 8.506c3.55 3.478 9.542 4.512 15.09 4.512 6.73 0 11.912-.961 15.608-4.585 1.923-1.851 3.329-4.29 3.329-8.507z" transform="translate(-9.214 -48.118)" style="fill:#fff"/>
            <path data-name="Path 3" d="M116.373 195.357h-16.094l8.021-13.234 8.073 13.234zm22.7 14.377-26.629-39.944H97.5l4.128 4.883-23.434 35.061h13.464l4.017-6.582h25.391l4.1 6.582z" transform="translate(-18.194 -49.79)" style="fill:#fff"/>
            <path data-name="Path 4" d="M207.737 194.718c0-3.255-1.332-7.027-5.473-12.279l-9.988-12.649h-13.907l7.916 8.876a27.621 27.621 0 0 0 3.032 2.808 13.2 13.2 0 0 0-6.287-1.552 27.56 27.56 0 0 0-13.387 3.256c-4.44 2.44-7.4 6.508-7.4 11.911a13.756 13.756 0 0 0 4.216 9.762c5.327 5.329 15.018 5.844 18.568 5.844 5.253 0 13.464-1.185 18.122-5.4a13.864 13.864 0 0 0 4.588-10.576zm-11.539.371a7.477 7.477 0 0 1-4.514 6.582 14.211 14.211 0 0 1-6.656 1.406 15.589 15.589 0 0 1-6.731-1.48c-2.515-1.256-4.438-3.7-4.438-6.361 0-3.181 2.438-5.7 5.325-6.954a14.1 14.1 0 0 1 5.621-1.109 16.936 16.936 0 0 1 5.843.962c3.329 1.406 5.549 4.068 5.549 6.955z" transform="translate(-3.047 -49.79)" style="fill:#fff"/>
        </g>
    </g>
</svg>
