<svg xmlns="http://www.w3.org/2000/svg" width="72" height="43.056" viewBox="0 0 72 43.056">
    <path data-name="Path 115418" d="M31.413 16.737a7.245 7.245 0 0 0 .263 2.131 12.817 12.817 0 0 0 .766 1.724 1.042 1.042 0 0 1 .168.551.948.948 0 0 1-.455.718l-1.509 1.006a1.148 1.148 0 0 1-.623.216 1.1 1.1 0 0 1-.718-.335 7.408 7.408 0 0 1-.862-1.125 18.508 18.508 0 0 1-.742-1.413 8.846 8.846 0 0 1-7.04 3.3 6.561 6.561 0 0 1-4.789-1.724 6.152 6.152 0 0 1-1.772-4.6 6.164 6.164 0 0 1 2.179-4.933 8.711 8.711 0 0 1 5.867-1.868 18.96 18.96 0 0 1 2.538.192c.886.12 1.8.311 2.754.527V9.362a5.306 5.306 0 0 0-1.125-3.832c-.766-.742-2.059-1.1-3.9-1.1a10.9 10.9 0 0 0-2.586.311 19.08 19.08 0 0 0-2.586.814 6.871 6.871 0 0 1-.838.311 1.469 1.469 0 0 1-.383.072c-.335 0-.5-.239-.5-.742V4.021a1.515 1.515 0 0 1 .168-.838 1.793 1.793 0 0 1 .67-.5 13.786 13.786 0 0 1 3.01-1.083 14.518 14.518 0 0 1 3.732-.452c2.85 0 4.933.647 6.274 1.94 1.317 1.293 1.988 3.257 1.988 5.891v7.759zm-9.722 3.64a7.761 7.761 0 0 0 2.466-.431 5.336 5.336 0 0 0 2.275-1.533 3.8 3.8 0 0 0 .814-1.533 8.6 8.6 0 0 0 .239-2.083v-1.005a20 20 0 0 0-2.2-.407 18.044 18.044 0 0 0-2.251-.144 5.521 5.521 0 0 0-3.568.958 3.338 3.338 0 0 0-1.173 2.754 3.09 3.09 0 0 0 3.4 3.424zm19.229 2.586a1.337 1.337 0 0 1-.91-.239 1.952 1.952 0 0 1-.5-.934L33.88 3.279a4.2 4.2 0 0 1-.216-.958.525.525 0 0 1 .575-.6h2.347a1.327 1.327 0 0 1 .934.239 1.959 1.959 0 0 1 .48.94l4.023 15.853L45.757 2.9a1.68 1.68 0 0 1 .455-.934 1.647 1.647 0 0 1 .958-.239h1.916a1.441 1.441 0 0 1 .958.239 1.614 1.614 0 0 1 .456.934l3.782 16.04L58.425 2.9a2.053 2.053 0 0 1 .479-.934 1.562 1.562 0 0 1 .934-.239h2.227a.532.532 0 0 1 .6.6 2.388 2.388 0 0 1-.048.383 3.407 3.407 0 0 1-.168.6l-5.772 18.504a1.836 1.836 0 0 1-.5.934 1.532 1.532 0 0 1-.91.239H53.2a1.441 1.441 0 0 1-.958-.239 1.7 1.7 0 0 1-.455-.958L48.08 6.344l-3.688 15.422a1.869 1.869 0 0 1-.455.958 1.484 1.484 0 0 1-.958.239zm30.771.647A15.846 15.846 0 0 1 68 23.179a10.894 10.894 0 0 1-2.754-.958 1.725 1.725 0 0 1-.742-.671 1.69 1.69 0 0 1-.144-.671v-1.221c0-.5.192-.742.551-.742a1.356 1.356 0 0 1 .431.072c.144.048.359.144.6.239a13.025 13.025 0 0 0 2.634.838 14.38 14.38 0 0 0 2.85.287 6.461 6.461 0 0 0 3.5-.79 2.579 2.579 0 0 0 1.245-2.275 2.332 2.332 0 0 0-.647-1.676 6.008 6.008 0 0 0-2.424-1.245l-3.472-1.078a7.3 7.3 0 0 1-3.828-2.442 5.705 5.705 0 0 1-1.2-3.472 5.329 5.329 0 0 1 .647-2.658 6.157 6.157 0 0 1 1.724-1.964 7.6 7.6 0 0 1 2.49-1.245 10.437 10.437 0 0 1 3.02-.407 12.022 12.022 0 0 1 1.6.1c.551.072 1.054.168 1.557.263.479.12.934.239 1.365.383a5.226 5.226 0 0 1 1.006.431 2.071 2.071 0 0 1 .718.6 1.29 1.29 0 0 1 .215.79v1.121c0 .5-.192.766-.551.766a2.491 2.491 0 0 1-.91-.287 10.955 10.955 0 0 0-4.6-.934A6.181 6.181 0 0 0 69.7 5a2.312 2.312 0 0 0-1.125 2.131 2.261 2.261 0 0 0 .718 1.7 7.153 7.153 0 0 0 2.634 1.317l3.4 1.078a7.283 7.283 0 0 1 3.712 2.3 5.419 5.419 0 0 1 1.1 3.353 6.156 6.156 0 0 1-.623 2.778 6.44 6.44 0 0 1-1.748 2.107 7.719 7.719 0 0 1-2.658 1.341 11.387 11.387 0 0 1-3.424.5z" transform="translate(-11.123 -1.1)" style="fill:#252f3e"/>
    <g data-name="Group 69202">
        <path data-name="Path 115419" d="M66.762 125.024c-7.878 5.819-19.325 8.908-29.167 8.908a52.766 52.766 0 0 1-35.608-13.578c-.742-.671-.072-1.58.814-1.054a71.812 71.812 0 0 0 35.632 9.459 71.105 71.105 0 0 0 27.18-5.559c1.317-.6 2.442.866 1.149 1.824z" transform="translate(-1.668 -90.876)" style="fill:#f90;fill-rule:evenodd"/>
        <path data-name="Path 115420" d="M255.856 116.762c-1.006-1.293-6.657-.623-9.219-.311-.766.1-.886-.575-.192-1.078 4.5-3.161 11.9-2.251 12.763-1.2.862 1.078-.239 8.477-4.454 12.021-.647.551-1.269.263-.982-.455.958-2.368 3.09-7.708 2.084-8.977z" transform="translate(-187.481 -86.35)" style="fill:#f90;fill-rule:evenodd"/>
    </g>
</svg>
