<svg xmlns="http://www.w3.org/2000/svg" xmlns:xlink="http://www.w3.org/1999/xlink" width="220" height="60" viewBox="0 0 220 60">
  <defs>
    <clipPath id="clip-_01">
      <rect width="220" height="60"/>
    </clipPath>
  </defs>
  <g id="_01" data-name="01" clip-path="url(#clip-_01)">
    <rect width="220" height="60" fill="#fff"/>
    <g id="axa-768" transform="translate(128.969 -60.007)">
      <path id="Path_127552" data-name="Path 127552" d="M80.8,93.228,77.375,82.3H62.162l-2.731,3.6,2.455,7.4a37.515,37.515,0,0,0,1.9,4.736H55.143L53.726,93.3l-3.458,4.736h-6.95l-1.487-4.7-3.665,4.7h-6.95a5.271,5.271,0,0,0,.449-.414A26.808,26.808,0,0,0,35.5,93.366l4.426-5.809L38.2,82.3H23.022L11.162,98.033H3.8a25.676,25.676,0,0,0,4.564-4.564l22.475-29.7a10.1,10.1,0,0,0,.83-1.279,7.94,7.94,0,0,0,1-2.455h7.3a12.14,12.14,0,0,0,.588,3.769l5.117,16.043L48.3,76.39,44.113,63.631a22.193,22.193,0,0,0-1.452-3.6h8.851a29.316,29.316,0,0,0,.864,3.8L54,68.852,57.8,63.8a20.079,20.079,0,0,0,2.559-3.769h7.745a19.664,19.664,0,0,0-3.423,3.7L56.11,75.111l1.486,4.7L69.872,63.77c.311-.484.657-.9,1-1.348a7.6,7.6,0,0,0,1.073-2.386h7.225a17.118,17.118,0,0,0,.622,3.561l9.3,29.666a19.939,19.939,0,0,0,1.935,4.771H81.9S81.248,94.576,80.8,93.228Z" transform="translate(0 -0.028)" fill="#3b5598" fill-rule="evenodd"/>
      <path id="Path_127553" data-name="Path 127553" d="M43.754,130.316H54.127l-3.146-9.578Zm21.091,8.091,1.66,5.256,2.663-3.492-1.833-5.152Zm18.291-8.091H93.163l-3.146-9.578-6.881,9.578Z" transform="translate(-17.275 -52.745)" fill="#fff" fill-rule="evenodd"/>
    </g>
  </g>
</svg>
