<svg xmlns="http://www.w3.org/2000/svg" width="280" height="240" viewBox="0 0 280 240">
  <g id="Group_69141" data-name="Group 69141" transform="translate(-1540 -8400)">
    <g id="axa" transform="translate(1620 8493)">
      <path id="Path_39" data-name="Path 39" d="M-744.259,1295.976l8.869-11.942s.836,3.825,1.447,6.248c.56,2.232,1.536,5.694,1.536,5.694Zm-29.924,29.838,6.448.024,17.347-22.667h20.213l3.184,8.569-11.431,14.071h10.106l4.1-6.31a19.263,19.263,0,0,1,1.439,2.8,19.5,19.5,0,0,1,.733,3.806h10.947l4.158-5.615a19.384,19.384,0,0,1,1.369,3.084c.452,1.444.722,2.532.722,2.532h13.3l-1.807-3.075-4.982-14.123,4.35-5.783h19.264l6.608,19.635a3.6,3.6,0,0,1,.181,1.809,8.659,8.659,0,0,0-.181,1.537h13.933a22.181,22.181,0,0,1-1.447-2.984c-.928-2.383-14.834-48.5-14.834-48.5l-.181-2.44h-11.4s-.463,1.288-.819,2.089c-2.716,6.056-18.182,25.331-18.182,25.331l-1.539-5.8,17.287-21.533h-11.139l-.092,1.266-9.581,12.935-3.9-12.394v-1.807h-12.937l8.147,23.976-3.535,4.62-8.136-26.337v-2.258h-11.49a10.524,10.524,0,0,1-1.084,3.165c-1.488,3.43-27.812,37.257-35.137,46.64v3.735Zm58.38-17.176,3.7-4.625,2.44,7.065-4.039,4.963-2.1-7.4Zm27.146-12.662,8.872-11.942s.836,3.825,1.445,6.248c.56,2.232,1.536,5.694,1.536,5.694Z" transform="translate(774.183 -1272.184)" fill="#000e8b" fill-rule="evenodd"/>
    </g>
    <rect id="Rectangle_7499" data-name="Rectangle 7499" width="280" height="240" transform="translate(1540 8400)" fill="none"/>
  </g>
</svg>
