<svg xmlns="http://www.w3.org/2000/svg" xmlns:xlink="http://www.w3.org/1999/xlink" width="48" height="48" viewBox="0 0 48 48">
  <defs>
    <clipPath id="clip-bootstrap">
      <rect width="48" height="48"/>
    </clipPath>
  </defs>
  <g id="bootstrap" clip-path="url(#clip-bootstrap)">
    <g id="Group_20152" data-name="Group 20152" transform="translate(1286.944 -548.104)">
      <path id="bg" d="M232.286,293.9a7.394,7.394,0,0,1-7.372,7.372H195.428a7.393,7.393,0,0,1-7.372-7.372V264.411a7.393,7.393,0,0,1,7.372-7.372h29.487a7.394,7.394,0,0,1,7.372,7.372Z" transform="translate(-1473 293.065)" fill="#563d7c"/>
      <path id="Path_1" data-name="Path 1" d="M250.243,306.773h12.539a8.957,8.957,0,0,1,5.565,1.59,5.655,5.655,0,0,1,2.1,4.806,5.749,5.749,0,0,1-.954,3.339,6.145,6.145,0,0,1-2.732,2.154v.072a5.657,5.657,0,0,1,3.614,2.255,7.489,7.489,0,0,1,1.229,4.394,7.356,7.356,0,0,1-.542,2.833,5.726,5.726,0,0,1-1.7,2.277,8.658,8.658,0,0,1-2.963,1.518,14.535,14.535,0,0,1-4.3.564H250.243v-25.8Zm4.517,10.8h7.372a4.005,4.005,0,0,0,2.71-.925,3.31,3.31,0,0,0,1.084-2.66,3.36,3.36,0,0,0-.976-2.746,4.379,4.379,0,0,0-2.819-.8H254.76v7.126Zm0,11.31h7.986a4.457,4.457,0,0,0,3.194-1.07,3.939,3.939,0,0,0,1.142-3.021,3.76,3.76,0,0,0-1.142-2.949,4.565,4.565,0,0,0-3.194-1.026H254.76Z" transform="translate(-1523.168 252.943)" fill="#fff"/>
    </g>
  </g>
</svg>
