<svg xmlns="http://www.w3.org/2000/svg" width="280" height="280" viewBox="0 0 280 280">
    <g data-name="Group 68954">
        <path data-name="Rectangle 7203" style="fill:none;opacity:.2" d="M0 0h280v280H0z"/>
        <g data-name="Group 68666">
            <path d="m14.244 12.563 7.573 2.572-1.217 6.072-10.5-3.572 2.572-4.5a1.224 1.224 0 0 1 1.572-.572z" transform="translate(27.008 111.367)" style="fill-rule:evenodd;fill:#fff"/>
            <path d="M.686 37.287 7.33 31.5l5.144 4.5-9.216 8L.4 39.073a1.259 1.259 0 0 1 .286-1.786z" transform="translate(29.849 105.932)" style="fill-rule:evenodd;fill:#fff"/>
            <path d="m16.729 62.631-1.929-9.5 7.144-2.431 2.643 13.216H18.3a1.484 1.484 0 0 1-1.571-1.285z" transform="translate(25.665 100.449)" style="fill-rule:evenodd;fill:#fff"/>
            <path d="M47.645 62.273 37.5 58.844l1.643-8.144 14 4.787-3.429 6a1.57 1.57 0 0 1-2.069.786z" transform="translate(19.182 100.449)" style="fill-rule:evenodd;fill:#fff"/>
            <path d="m63.017 31.7-8.859 7.716-6.858-6L59.516 22.7l3.784 6.573a1.651 1.651 0 0 1-.283 2.427z" transform="translate(16.383 108.446)" style="fill-rule:evenodd;fill:#fff"/>
            <path d="m45.4 1.815 2.5 12.645-9.5 3.215L34.9.1h8.359A1.947 1.947 0 0 1 45.4 1.815z" transform="translate(19.925 114.9)" style="fill-rule:evenodd;fill:#fff"/>
            <g data-name="Group 68665">
                <path data-name="Path 115226" d="M106.2 41.561a15.126 15.126 0 0 1-7.287 1.857C91.2 43.419 86.7 38.132 86.7 30.774c0-7.287 5.072-13.074 12.716-13.074a13.7 13.7 0 0 1 6.287 1.357V22.2a12.9 12.9 0 0 0-6.215-1.572c-5.787 0-9.216 4.429-9.216 10 0 5.787 3.429 9.859 9 9.859a12.286 12.286 0 0 0 6-1.643z" transform="translate(5.131 109.874)" style="fill:#fff"/>
                <path data-name="Path 115227" d="M122 18.1h12.645l-1 2.786h-8.287v8.073h8.142v2.786h-8.144v8.644h9.43v2.786H122z" transform="translate(-4.951 109.76)" style="fill:#fff"/>
                <path data-name="Path 115228" d="M147.7 18.1h3.286l11.359 14.717c1.5 1.929 2.572 3.429 3.358 4.644h.071c-.071-1.357-.071-2.572-.071-4.358v-15h3.358v25.073h-3l-11.717-15.289c-1.429-1.857-2.429-3.286-3.286-4.5h-.071c.071 1.143.143 2.429.143 4.215v15.645h-3.358V18.1z" transform="translate(-12.29 109.76)" style="fill:#fff"/>
                <path data-name="Path 115229" d="m196.216 32.874-1-2.786h10.43v11.43a19.914 19.914 0 0 1-8.5 1.929c-7.716 0-12.645-5.215-12.645-12.5 0-7.644 5.287-13.145 13.216-13.145a18.82 18.82 0 0 1 6.93 1.357v3.072a14.871 14.871 0 0 0-6.787-1.572c-6.287 0-9.859 4.072-9.859 9.93 0 6.072 3.643 9.93 9.359 9.93a10.94 10.94 0 0 0 4.787-.929V32.8h-5.93z" transform="translate(-22.8 109.845)" style="fill:#fff"/>
                <path data-name="Path 115230" d="M228.944 18h2.429l9.716 25.147h-3.643l-2.5-6.573h-9.716l-2.43 6.573h-3.5zm5 15.717-2.358-6.573c-.714-2.143-1.072-3.286-1.429-4.215h-.071c-.286.929-.714 2.072-1.429 4.215l-2.358 6.5h7.644z" transform="translate(-32.739 109.788)" style="fill:#fff"/>
                <path data-name="Path 115231" d="m263.816 32.874-1-2.786h10.43v11.43a19.915 19.915 0 0 1-8.5 1.929c-7.716 0-12.645-5.215-12.645-12.5 0-7.644 5.287-13.145 13.216-13.145a18.82 18.82 0 0 1 6.93 1.357v3.072a14.872 14.872 0 0 0-6.787-1.572c-6.287 0-9.859 4.072-9.859 9.93 0 6.072 3.643 9.93 9.359 9.93a10.94 10.94 0 0 0 4.787-.929V32.8h-5.93z" transform="translate(-42.107 109.845)" style="fill:#fff"/>
                <path data-name="Path 115232" d="M290.2 18.1h12.645l-1 2.786h-8.287v8.073h8.142v2.786h-8.144v8.644h9.43v2.786H290.2V18.1z" transform="translate(-52.988 109.76)" style="fill:#fff"/>
            </g>
        </g>
    </g>
</svg>
