<svg xmlns="http://www.w3.org/2000/svg" width="240" height="91.606" viewBox="0 0 240 91.606">
    <g data-name="Group 69388">
        <g>
            <path data-name="Path 20895" d="M177 235.9h11.04v68.16H177z" transform="translate(-114.6 -235.9)" style="fill:#222"/>
            <path data-name="Path 20896" d="M255.262 315.58a10.705 10.705 0 0 1-11.52 11.52c-6.72 0-7.68-6.24-7.68-9.6v-26.4h-11.04v25.92a20.27 20.27 0 0 0 5.76 15.36 17.375 17.375 0 0 0 12.96 4.8 16.76 16.76 0 0 0 11.52-3.84v3.84H266.3V291.1h-11.04z" transform="translate(-143.422 -269.02)" style="fill:#222"/>
            <path data-name="Path 20897" d="M353.4 249.1h-11.04v16.8h-8.16v10.571h8.16v35.52h11.04V276.46h8.16v-10.572h-8.16z" transform="translate(-208.92 -243.82)" style="fill:#222"/>
            <path data-name="Path 20898" d="M440.047 321.812a15.141 15.141 0 0 1-9.12 3.36 12.737 12.737 0 0 1-12.96-13.428 12.346 12.346 0 0 1 12.96-12.96 12.671 12.671 0 0 1 9.12 3.36l1.429 1.429 7.68-7.2-1.92-1.429a24.612 24.612 0 0 0-16.32-6.24 23.52 23.52 0 0 0 0 47.04 24.611 24.611 0 0 0 16.32-6.24l1.92-1.429-7.68-7.68z" transform="translate(-252.847 -267.572)" style="fill:#222"/>
            <path data-name="Path 20899" d="M558.6 261.82a15.235 15.235 0 0 0-12-4.8 14.436 14.436 0 0 0-10.571 3.84V235.9H525v68.16h11.04v-25.429c0-10.571 7.2-11.52 10.08-11.52 6.72 0 6.24 6.24 6.24 9.6v26.88h11.04v-26.4c0-6.251-1.44-12.011-4.8-15.371z" transform="translate(-323.4 -235.9)" style="fill:#222"/>
            <circle data-name="Ellipse 3972" cx="7.68" cy="7.68" transform="translate(169.92 36.96)" style="fill:#ef4335" r="7.68"/>
            <path data-name="Path 20900" d="M68.04 290.857A22.509 22.509 0 0 1 52.2 297.1c-12 0-20.64-9.6-20.64-22.571s8.64-22.571 21.12-22.571a22.586 22.586 0 0 1 15.84 6.72l1.429 1.429 7.2-7.2-1.429-1.428a32.326 32.326 0 0 0-23.04-9.6C34.429 241.417 21 255.817 21 274.54s13.429 33.12 31.2 33.12a31.526 31.526 0 0 0 23.04-9.6l1.429-1.429-7.2-7.2z" transform="translate(-21 -239.497)" style="fill:#222"/>
        </g>
        <path data-name="Path 20902" d="M44.809 86.047h-5.114v5.382h-1.606V79.241h7.551v1.331h-5.942v4.169h5.114zm4.477 5.383H47.68V79.241h1.609zm7.409-4.932h-2.857v4.931h-1.614V79.241h4.034a4.774 4.774 0 0 1 3.169.937 3.374 3.374 0 0 1 1.108 2.729 3.28 3.28 0 0 1-.614 1.983 3.671 3.671 0 0 1-1.715 1.262l2.857 5.174v.1h-1.714zm-2.857-1.314h2.469a2.789 2.789 0 0 0 1.906-.62 2.091 2.091 0 0 0 .707-1.657 2.2 2.2 0 0 0-.674-1.731 2.857 2.857 0 0 0-1.96-.6h-2.46zm11.02-5.943 3.988 9.943 3.986-9.943h2.083v12.188h-1.606v-4.745l.149-5.123-4.006 9.868H68.22l-4-9.843.16 5.1v4.743h-1.605V79.241zm16.48 6.757a7.557 7.557 0 0 1-3.009-1.46 2.791 2.791 0 0 1-.943-2.14 2.949 2.949 0 0 1 1.143-2.38 4.572 4.572 0 0 1 2.991-.943 4.994 4.994 0 0 1 2.238.489 3.683 3.683 0 0 1 1.523 1.34 3.429 3.429 0 0 1 .54 1.866h-1.612a2.217 2.217 0 0 0-.7-1.737 2.857 2.857 0 0 0-1.986-.635 2.931 2.931 0 0 0-1.854.523 1.743 1.743 0 0 0-.666 1.451 1.569 1.569 0 0 0 .631 1.26 6.2 6.2 0 0 0 2.151.943 9.963 9.963 0 0 1 2.377.943 3.609 3.609 0 0 1 1.271 1.2 3.066 3.066 0 0 1 .414 1.614 2.857 2.857 0 0 1-1.143 2.374 4.926 4.926 0 0 1-3.086.892 5.729 5.729 0 0 1-2.343-.48 3.946 3.946 0 0 1-1.677-1.314 3.217 3.217 0 0 1-.591-1.9h1.614a2.1 2.1 0 0 0 .817 1.746 3.429 3.429 0 0 0 2.18.64 3.16 3.16 0 0 0 1.951-.52 1.686 1.686 0 0 0 .677-1.429 1.654 1.654 0 0 0-.629-1.386 7.237 7.237 0 0 0-2.279-.957zm18.908-5.426h-3.917v10.857h-1.6V80.572H90.82v-1.323h9.429zm11.183 10.857h-1.614v-5.631h-6.143v5.631h-1.606V79.241h1.609v5.24h6.143v-5.24h1.611zm9.714-3.18h-5.094l-1.146 3.18h-1.657l4.655-12.188h1.406l4.662 12.188h-1.648zm-4.62-1.323h4.155l-2.078-5.714zm16.426-6.354h-3.917v10.857h-1.6V80.572h-3.909v-1.323h9.429zm5.714 10.857V79.241h3.429a5.537 5.537 0 0 1 2.811.7 4.754 4.754 0 0 1 1.889 2 6.511 6.511 0 0 1 .674 2.98v.791a6.534 6.534 0 0 1-.651 3.011 4.68 4.68 0 0 1-1.9 2 5.891 5.891 0 0 1-2.874.7zm1.623-10.857v9.543h1.692a3.68 3.68 0 0 0 2.88-1.154 4.769 4.769 0 0 0 1.034-3.289v-.711a4.857 4.857 0 0 0-.977-3.229 3.471 3.471 0 0 0-2.766-1.16zm16.523 5.232h-5.294v4.311h6.134v1.314h-7.743V79.241h7.66v1.331h-6.051v3.917h5.283zm4.457 4.311h5.774v1.314h-7.388V79.241h1.614zm9.334 1.314h-1.606V79.241h1.609zm6.972-2.131 3.486-10.057h1.757l-4.529 12.188h-1.428l-4.5-12.188h1.749zm13.76-3.5h-5.28v4.32h6.134v1.311h-7.743V79.241h7.66v1.331h-6.051v3.917h5.283zm7.323.7h-2.857v4.931h-1.614V79.241h4.034a4.774 4.774 0 0 1 3.169.937 3.374 3.374 0 0 1 1.109 2.729 3.28 3.28 0 0 1-.614 1.983 3.672 3.672 0 0 1-1.714 1.263l2.857 5.174v.1h-1.714zm-2.857-1.314h2.469a2.789 2.789 0 0 0 1.906-.62 2.091 2.091 0 0 0 .709-1.657 2.2 2.2 0 0 0-.674-1.731 2.857 2.857 0 0 0-1.949-.6h-2.46z"/>
    </g>
</svg>
