<svg xmlns="http://www.w3.org/2000/svg" xmlns:xlink="http://www.w3.org/1999/xlink" width="150" height="150" viewBox="0 0 150 150">
  <defs>
    <clipPath id="clip-path">
      <circle id="Ellipse_1" data-name="Ellipse 1" cx="75" cy="75" r="75" fill="none"/>
    </clipPath>
    <clipPath id="clip-cocoa_controls">
      <rect width="150" height="150"/>
    </clipPath>
  </defs>
  <g id="cocoa_controls" data-name="cocoa controls" clip-path="url(#clip-cocoa_controls)">
    <g id="Mask_Group_1" data-name="Mask Group 1" clip-path="url(#clip-path)">
      <g id="Rectangle_7809" data-name="Rectangle 7809" transform="translate(-15 -11)" fill="#fff" stroke="#707070" stroke-width="1">
        <rect width="181" height="173" stroke="none"/>
        <rect x="0.5" y="0.5" width="180" height="172" fill="none"/>
      </g>
      <g id="Group_69281" data-name="Group 69281" transform="translate(32.459 26.829)">
        <path id="Path_115521" data-name="Path 115521" d="M14.17,31.85C12.781,22.129,18.336,14.838,25.8,13.1,48.367,7.547,72.149,50.945,72.149,74.379c0,3.472.174,4.34-2.951,4.513-6.423.347-23.087-9.027-27.6-11.978C32.05,60.666,16.427,47.126,14.17,32.024ZM2.019,4.249a18.572,18.572,0,0,1,6.77,5.9C7.574,11.887,5.144,13.1,3.408,15.185c-8.853,9.895,3.819,30.2,8.506,37.322C24.933,71.6,61.213,94.342,81.87,94.342c7.464,0,1.042-26.733-.174-31.246a142.817,142.817,0,0,0-11.11-28.469C60.866,15.88,28.925-14.325,16.08,4.77,12.955,2.687,10.525-.958,6.359-2,4.623-.785,2.887,1.993,1.845,3.9Z" transform="translate(-0.342 2)" fill="#acacac" fill-rule="evenodd"/>
        <path id="Path_115525" data-name="Path 115525" d="M130.324,140.177c-1.736,1.562-3.819-.174-4.687-1.215-1.389-1.736-1.389-3.819-1.562-6.249,3.3.521,9.895,3.819,6.076,7.464Zm-13.193-.868c-2.083-4.166.521-7.812,4.166-8.679C122.512,134.97,123.033,140.351,117.131,139.309Zm5.728-10.242c1.736-2.777,5.034-4.513,8.853-2.6l.174,3.645C128.935,131.5,125.29,132.019,122.86,129.068Zm-5.381-2.951c-.174,4.861-3.819,13.714-8.506,9.374C104.633,131.324,112.1,125.769,117.478,126.117Zm-5.034-6.249c-.521,5.555-7.464,14.234-12.151,9.374-2.777-2.777-.347-6.249,1.736-7.464,2.777-1.736,6.6-2.083,10.415-1.736Zm6.77,5.208c-.347-5.034,6.944-11.11,10.415-7.291C134.143,122.992,124.075,125.422,119.214,125.075ZM91.44,115.354c4.34-3.125,9.2-5.208,14.929-1.91C105.5,120.735,89.7,128.373,91.44,115.354ZM113.659,119c.521-6.249,5.381-15.97,10.763-10.936C130.324,113.271,120.429,118.826,113.659,119ZM100.64,105.807c-1.909,6.6-14.408,9.547-15.97,3.819-1.215-4.513,2.257-6.423,6.076-6.6C94.738,102.856,97.863,104.591,100.64,105.807Zm7.291,3.125c-.521-7.812,4.34-13.193,10.589-9.895,2.257,7.812-5.555,13.366-10.589,12.846l-.174-2.951ZM94.564,99.21a6.028,6.028,0,0,1-3.3,2.083c-4.34,1.389-10.763.174-9.027-4.687C83.975,91.572,93,95.391,94.564,99.21Zm8.159,5.728c-1.736-2.43-2.43-6.77-1.736-10.415.694-3.3,3.3-6.6,7.464-4.861C115.048,92.267,108.1,103.2,102.723,104.939Zm-5.9-7.464c-3.645-2.777-5.728-12.325,0-12.672,3.819-.174,4.34,3.125,3.645,6.77A8.952,8.952,0,0,1,96.821,97.474Zm-16.838,3.993c2.257,15.276,17.88,28.642,27.427,34.892,4.513,2.951,21.178,12.325,27.6,11.978,3.125-.174,2.951-1.042,2.951-4.513-.174-23.608-23.782-67.006-46.348-61.277-7.464,1.909-13.019,9.027-11.631,18.748Z" transform="translate(-65.981 -67.443)" fill="#fff" fill-rule="evenodd"/>
        <path id="Path_115528" data-name="Path 115528" d="M123.8,204.72c-2.777-1.215-5.9-2.951-9.895-2.777-3.819.174-7.291,2.083-6.076,6.6C109.388,214.441,121.886,211.316,123.8,204.72Z" transform="translate(-88.964 -166.53)" fill="#201f1f" fill-rule="evenodd"/>
        <path id="Path_115529" data-name="Path 115529" d="M202.115,139c5.381-1.736,12.325-12.672,5.728-15.276-4.166-1.736-6.6,1.562-7.464,4.861A13.758,13.758,0,0,0,202.115,139Z" transform="translate(-165.373 -101.501)" fill="#201f1f" fill-rule="evenodd"/>
        <path id="Path_115530" data-name="Path 115530" d="M147.366,255.948c-1.736,13.019,14.061,5.381,14.929-1.909C156.566,250.74,151.706,252.823,147.366,255.948Z" transform="translate(-121.734 -208.211)" fill="#201f1f" fill-rule="evenodd"/>
        <path id="Path_115531" data-name="Path 115531" d="M242,184.191l.174,2.951c5.034.347,12.672-5.034,10.589-12.846-6.423-3.3-11.11,2.083-10.589,9.895Z" transform="translate(-200.051 -142.877)" fill="#201f1f" fill-rule="evenodd"/>
        <path id="Path_115533" data-name="Path 115533" d="M276,235.669c6.77-.174,16.665-5.728,10.763-10.936C281.381,219.873,276.521,229.594,276,235.669Z" transform="translate(-228.149 -184.287)" fill="#201f1f" fill-rule="evenodd"/>
        <path id="Path_115534" data-name="Path 115534" d="M204.207,298.174c-3.819-.174-7.638,0-10.415,1.736-2.083,1.215-4.513,4.687-1.736,7.464,4.687,4.861,11.457-3.819,12.151-9.374Z" transform="translate(-157.744 -245.923)" fill="#201f1f" fill-rule="evenodd"/>
        <path id="Path_115538" data-name="Path 115538" d="M161.063,110.641a8.952,8.952,0,0,0,3.645-5.9c.694-3.645.174-6.944-3.645-6.77C155.335,98.316,157.418,107.863,161.063,110.641Z" transform="translate(-130.224 -80.61)" fill="#201f1f" fill-rule="evenodd"/>
        <path id="Path_115539" data-name="Path 115539" d="M104.941,156.118c-1.562-3.819-10.589-7.638-12.325-2.6-1.736,4.861,4.687,6.076,9.027,4.687A6.028,6.028,0,0,0,104.941,156.118Z" transform="translate(-76.358 -124.524)" fill="#201f1f" fill-rule="evenodd"/>
        <path id="Path_115540" data-name="Path 115540" d="M306.943,289.147c4.687.521,14.929-1.909,10.415-7.291C313.887,277.864,306.6,283.94,306.943,289.147Z" transform="translate(-253.71 -231.515)" fill="#201f1f" fill-rule="evenodd"/>
        <path id="Path_115541" data-name="Path 115541" d="M250.312,335.926c-5.381-.347-12.846,5.208-8.506,9.374C246.32,349.64,250.139,340.96,250.312,335.926Z" transform="translate(-198.816 -277.253)" fill="#201f1f" fill-rule="evenodd"/>
        <path id="Path_115546" data-name="Path 115546" d="M336,374c0,2.257.174,4.513,1.562,6.249.694,1.042,2.951,2.951,4.687,1.215,3.819-3.645-2.951-6.944-6.076-7.464Z" transform="translate(-277.733 -308.73)" fill="#201f1f" fill-rule="evenodd"/>
        <path id="Path_115547" data-name="Path 115547" d="M328,336.134c2.6,2.951,6.076,2.43,9.027,1.042l-.174-3.645C332.861,331.794,329.562,333.356,328,336.134Z" transform="translate(-271.122 -274.683)" fill="#201f1f" fill-rule="evenodd"/>
        <path id="Path_115548" data-name="Path 115548" d="M291.474,369.679c5.9,1.042,5.381-4.166,4.166-8.679C291.995,361.868,289.391,365.34,291.474,369.679Z" transform="translate(-240.324 -297.987)" fill="#201f1f" fill-rule="evenodd"/>
      </g>
    </g>
  </g>
</svg>
