<svg xmlns="http://www.w3.org/2000/svg" xmlns:xlink="http://www.w3.org/1999/xlink" width="150" height="150" viewBox="0 0 150 150">
  <defs>
    <clipPath id="clip-path">
      <circle id="Ellipse_1" data-name="Ellipse 1" cx="75" cy="75" r="75" fill="none"/>
    </clipPath>
    <clipPath id="clip-coredata">
      <rect width="150" height="150"/>
    </clipPath>
  </defs>
  <g id="coredata" clip-path="url(#clip-coredata)">
    <g id="Mask_Group_1" data-name="Mask Group 1" clip-path="url(#clip-path)">
      <g id="Rectangle_7809" data-name="Rectangle 7809" transform="translate(-15 -11)" fill="#fff" stroke="#707070" stroke-width="1">
        <rect width="181" height="173" stroke="none"/>
        <rect x="0.5" y="0.5" width="180" height="172" fill="none"/>
      </g>
      <g id="Layer_x0020_1" transform="translate(39.06 32.671)">
        <g id="_2268427823424" transform="translate(0.633 -1.147)">
          <path id="Path_115516" data-name="Path 115516" d="M142.024,166.331c.4,1.785,7.259,5.807,9.234,7.354l15.85,11.185c2.427,1.475,4.831,4.926,9.543,2.856a5.557,5.557,0,0,0,1.095-.595l24.56-17.468c1.333-.952,3.237-2,3.522-3.332-1-1.38-5.521-3.332-7.33-4.236l-19.491-10.043a10.737,10.737,0,0,0-10.019-.1l-11.162,5.807c-3.546,1.928-11.138,5.45-14.16,7.282-1.357.809-.881.214-1.666,1.285Z" transform="translate(-138.636 -147.146)" fill="#c5c6c6" fill-rule="evenodd"/>
          <path id="Path_115517" data-name="Path 115517" d="M6.965,18.038c.785-1.071.309-.476,1.666-1.285,3.022-1.832,10.614-5.355,14.16-7.282L33.953,3.664a10.737,10.737,0,0,1,10.019.1L63.463,13.8c1.809.928,6.307,2.856,7.33,4.236-.286,1.333-2.189,2.38-3.522,3.332L42.711,38.838a5.559,5.559,0,0,1-1.095.595c-4.712,2.07-7.14-1.357-9.543-2.856L16.223,25.392c-2-1.547-8.829-5.593-9.234-7.354ZM34.738-.62C34-.239,33.215.07,32.5.475l-1.571.9a1.413,1.413,0,0,1-.19.1l-9.9,4.95a1.413,1.413,0,0,1-.19.1,1.413,1.413,0,0,1-.19.1c-.881.476-1.428.881-2.237,1.285L6.87,13.85c-1.642,1.095-3.356,1.333-3.213,4.736.143,3.546,4.236,4.879,7.068,7.235L31.764,40.695c.547.381,1.618,1.238,2.094,1.523a9.291,9.291,0,0,0,10.8-.595c1.832-1.452,3.356-2.142,4.807-3.237l1.5-1.285c.643-.476,1.428-.881,2.189-1.452l18.872-13.4a4.906,4.906,0,0,0,1.928-5.331c-.524-2.38-8.187-6.021-10.709-7.14a10.907,10.907,0,0,1-1.166-.547C58.7,7.519,43.972-.667,41.64-.953c-1.714-.19-5.569-.428-6.949.309Z" transform="translate(-3.577 1.147)" fill="#5b5b5b" fill-rule="evenodd"/>
          <path id="Path_115518" data-name="Path 115518" d="M67.563,2418.284c-.738,1.5-13.065,9.662-15.255,11.352l-5.259,3.689c-4.284,2.856-9.424,8.306-13.851,5.759a74.938,74.938,0,0,1-8.353-5.831l-4.189-2.808c-.5-.333-.643-.5-1.095-.833l-5-3.594a17.828,17.828,0,0,1-1.951-1.4,21.92,21.92,0,0,0-2.118-1.452c-11.185-7.282-3.07-4.093-6.64-8.663-.381-.5-.071-.143-.476-.5-2.023.524-3.451,3.046-2.38,5.807.809,2.142,3.879,3.379,5.64,4.95l17.087,12.137c7.973,5.4,11.328,10.186,20.3,2.784a2.729,2.729,0,0,1,.452-.357l.5-.333c5.378-3.26,13.256-9.353,19.229-13.375l.476-.333a.754.754,0,0,0,.143-.119l1.666-1.356c1.238-.833,3.736-2.213,4.4-3.975a4.382,4.382,0,0,0-2.094-5.759c-.785-.048-1.023.5-1.547,1.547C66.445,2417.332,67.3,2416.427,67.563,2418.284Z" transform="translate(-0.633 -2356.523)" fill="#5b5b5b" fill-rule="evenodd"/>
          <path id="Path_115519" data-name="Path 115519" d="M67.917,1223.9c.571,1.19.381-.167.619,1.166.262,1.595-.571,1.285-2.5,2.808l-10.8,7.806c-3.641,2.213-10.138,7.425-14.422,10.162-1.714,1.095-3.522,1.833-5.831.976a23.229,23.229,0,0,1-4.26-2.713L10.8,1230.043a7.639,7.639,0,0,0-1.142-.809,7.492,7.492,0,0,1-.928-.714c-.167-.143-.428-.381-.452-.4l-.309-.262c-.809-.643-2.07-1.19-2.38-1.88-.9-2.023.9-.857.262-2.666L4.732,1221c-1.785,1.095-3.617,2.285-2.808,5.64.428,1.761,1.9,2.713,2.975,3.451l26.559,18.825a9.534,9.534,0,0,0,11.9-.666,10.493,10.493,0,0,1,2.142-1.428c7.211-4.712,16.8-12.28,24.156-17.087,5-3.26,1.5-9.805-.571-8.068a5.383,5.383,0,0,0-.452.666,14.678,14.678,0,0,0-.69,1.547Z" transform="translate(-1.701 -1191.915)" fill="#5b5b5b" fill-rule="evenodd"/>
          <path id="Path_115520" data-name="Path 115520" d="M4.584,1829.808a5.109,5.109,0,0,0,.714-.881c.5-.928-.476-2.308-1.38-2.927-2.9.619-3.736,5.069-1.19,7.52l.452.4c.524.4-.071-.024.5.333,2.618,1.618,4.736,3.427,7.282,5.212l22.18,15.35a9.935,9.935,0,0,0,3.617.5c4-.048,4.141-.928,5.474-1.928l5.45-3.76c4.474-3.451,10.043-7.021,14.636-10.4l4.617-3.451c1.69-1.214,3.927-2.094,4.546-4.093.666-2.142-.071-5.617-2.713-5.593-2.856,4.093.595,2.547-1.142,4.807a1.777,1.777,0,0,1-.4.428c-1.452,1.38-17.087,11.875-18.515,13.184l-3.9,2.761c-3.046,2.166-5.735,4.76-8.853,4.5-1.88-.143-3.165-1.238-4.5-2.166l-19.491-13.9c-2.023-1.38-6.568-3.974-7.354-5.9Z" transform="translate(-1.196 -1782.516)" fill="#5b5b5b" fill-rule="evenodd"/>
        </g>
      </g>
    </g>
  </g>
</svg>
