<svg xmlns="http://www.w3.org/2000/svg" width="125.418" height="144" viewBox="0 0 125.418 144">
    <g>
        <path d="M105.588 53.406a9.127 9.127 0 0 0-5.93 8.524 9.025 9.025 0 0 0 1.047 4.157 7.275 7.275 0 0 0 0 13.609 9.025 9.025 0 0 0-1.047 4.156 9.125 9.125 0 0 0 5.93 8.524 7.206 7.206 0 0 0-.45 2.437 7.258 7.258 0 0 0 9.883 6.816 7.289 7.289 0 0 0 13.865-3.162V47.315a7.289 7.289 0 0 0-13.865-3.162 7.24 7.24 0 0 0-9.434 9.253zm6.858-6.091a3.657 3.657 0 0 1 3.654 3.654h3.654a7.237 7.237 0 0 0-1.684-4.609 3.645 3.645 0 0 1 7.165.955v51.151a3.645 3.645 0 0 1-7.165.955 7.235 7.235 0 0 0 1.684-4.609H116.1a3.654 3.654 0 1 1-3.654-3.654v-3.653a7.238 7.238 0 0 0-4.658 1.725 5.476 5.476 0 1 1 6.485-5.379h3.654a9.144 9.144 0 0 0-9.134-9.134 9.037 9.037 0 0 0-5.48 1.875v-.048a3.654 3.654 0 0 1 0-7.307v-.047a9.036 9.036 0 0 0 5.48 1.874 9.144 9.144 0 0 0 9.134-9.134h-3.654a5.48 5.48 0 1 1-6.485-5.378 7.237 7.237 0 0 0 4.658 1.724v-3.654a3.654 3.654 0 0 1 0-7.307zm0 0" transform="translate(-0.004 -0.001) translate(-58.711 -19.469)"/>
        <path d="M272.445 43.661a7.267 7.267 0 0 0-2.575.491A7.29 7.29 0 0 0 256 47.315v51.151a7.29 7.29 0 0 0 13.866 3.162 7.257 7.257 0 0 0 9.882-6.816 7.184 7.184 0 0 0-.45-2.437 9.125 9.125 0 0 0 5.93-8.524 9.023 9.023 0 0 0-1.046-4.156 7.276 7.276 0 0 0 0-13.609 9.024 9.024 0 0 0 1.046-4.157 9.127 9.127 0 0 0-5.93-8.524 7.18 7.18 0 0 0 .45-2.437 7.315 7.315 0 0 0-7.303-7.307zm9.134 18.268a5.48 5.48 0 1 1-10.961 0h-3.654a9.144 9.144 0 0 0 9.134 9.134 9.036 9.036 0 0 0 5.48-1.874v.047a3.654 3.654 0 0 1 0 7.307v.048a9.037 9.037 0 0 0-5.48-1.875 9.145 9.145 0 0 0-9.134 9.134h3.654a5.48 5.48 0 1 1 6.482 5.38 7.242 7.242 0 0 0-4.659-1.725v3.654a3.654 3.654 0 1 1-3.654 3.654h-3.654a7.235 7.235 0 0 0 1.684 4.609 3.645 3.645 0 0 1-7.165-.955V47.315a3.645 3.645 0 0 1 7.165-.955 7.237 7.237 0 0 0-1.684 4.609h3.654a3.654 3.654 0 1 1 3.654 3.654v3.654a7.241 7.241 0 0 0 4.659-1.724 5.481 5.481 0 0 1 4.479 5.377zm0 0" transform="translate(-0.004 -0.001) translate(-182.175 -19.469)"/>
        <path d="M154 14.487A52.975 52.975 0 0 0 114.016.111l.288 4.635a48.769 48.769 0 0 1 30.039 89.34 28.712 28.712 0 0 0-10.495 12.755h-32.939a29.184 29.184 0 0 0-10.546-12.853 48.555 48.555 0 0 1-21.684-42.122l-4.643-.144a53.167 53.167 0 0 0 23.747 46.126 24.472 24.472 0 0 1 8.034 8.992h-6.26v4.645h8.113a26.8 26.8 0 0 1 .993 4.645H94.2v4.645h4.645v6.968a2.322 2.322 0 0 0 2.323 2.323h2.323a13.935 13.935 0 1 0 27.871 0h2.323a2.321 2.321 0 0 0 2.323-2.323v-6.968h4.645v-4.645h-4.483a25.891 25.891 0 0 1 .933-4.645h8.197v-4.645h-6.361a23.949 23.949 0 0 1 7.974-8.881A53.41 53.41 0 0 0 154 14.487zm-36.573 124.869a9.3 9.3 0 0 1-9.29-9.29h18.58a9.3 9.3 0 0 1-9.29 9.29zm13.935-13.935h-27.871v-4.645h27.871zm.166-9.29h-28.222a31.629 31.629 0 0 0-.787-4.645h29.731a30.857 30.857 0 0 0-.722 4.644zm0 0" transform="translate(-0.004 -0.001) translate(-45.424)"/>
        <path d="M50.326 16.266a9.3 9.3 0 0 1 9.29 9.29 2.323 2.323 0 0 0 4.645 0 9.3 9.3 0 0 1 9.29-9.29 2.323 2.323 0 0 0 0-4.645 9.3 9.3 0 0 1-9.29-9.29 2.323 2.323 0 0 0-4.645 0 9.3 9.3 0 0 1-9.29 9.29 2.323 2.323 0 1 0 0 4.645zm11.613-6.241a14.056 14.056 0 0 0 3.918 3.918 14.071 14.071 0 0 0-3.918 3.918 14.056 14.056 0 0 0-3.918-3.918 14.041 14.041 0 0 0 3.918-3.918zm0 0" transform="translate(-0.004 -0.001) translate(-34.065 -0.005)"/>
        <path d="M25.552 96.266a2.323 2.323 0 1 0 0-4.645 9.3 9.3 0 0 1-9.29-9.29 2.323 2.323 0 0 0-4.645 0 9.3 9.3 0 0 1-9.29 9.29 2.323 2.323 0 1 0 0 4.645 9.3 9.3 0 0 1 9.29 9.29 2.323 2.323 0 1 0 4.645 0 9.3 9.3 0 0 1 9.29-9.29zm-11.613 1.6a14.056 14.056 0 0 0-3.918-3.918 14.071 14.071 0 0 0 3.918-3.918 14.086 14.086 0 0 0 3.918 3.918 14.071 14.071 0 0 0-3.918 3.913zm0 0" transform="translate(-0.004 -0.001) translate(0 -56.779)"/>
    </g>
</svg>
