<svg xmlns="http://www.w3.org/2000/svg" width="168" height="168" viewBox="0 0 168 168">
    <g>
        <g>
            <path d="M55.333 77.667h-28A23.333 23.333 0 0 1 4 54.333v-28A23.333 23.333 0 0 1 27.333 3h28a23.333 23.333 0 0 1 23.334 23.333v28a23.333 23.333 0 0 1-23.334 23.334zm-28-65.333a14 14 0 0 0-14 14v28a14 14 0 0 0 14 14h28a14 14 0 0 0 14-14v-28a14 14 0 0 0-14-14z" transform="translate(-4 -3) translate(4 3) translate(-4 -3)"/>
            <path d="M55.333 87.667h-28A23.333 23.333 0 0 1 4 64.333v-28A23.333 23.333 0 0 1 27.333 13h28a23.333 23.333 0 0 1 23.334 23.333v28a23.333 23.333 0 0 1-23.334 23.334zm-28-65.333a14 14 0 0 0-14 14v28a14 14 0 0 0 14 14h28a14 14 0 0 0 14-14v-28a14 14 0 0 0-14-14z" transform="translate(-4 -3) translate(4 3) translate(-4 80.333)"/>
            <path d="M65.333 87.667h-28A23.333 23.333 0 0 1 14 64.333v-28A23.333 23.333 0 0 1 37.333 13h28a23.333 23.333 0 0 1 23.334 23.333v28a23.333 23.333 0 0 1-23.334 23.334zm-28-65.333a14 14 0 0 0-14 14v28a14 14 0 0 0 14 14h28a14 14 0 0 0 14-14v-28a14 14 0 0 0-14-14z" transform="translate(-4 -3) translate(4 3) translate(79.333 80.333)"/>
            <path d="M44.669 63.5a22.96 22.96 0 0 1-16.52-6.907l-6.533-6.533a23.427 23.427 0 0 1 0-33.04l6.533-6.533a23.8 23.8 0 0 1 33.04 0l6.533 6.533a23.427 23.427 0 0 1 0 33.04l-6.533 6.53a22.96 22.96 0 0 1-16.52 6.91zm0-50.587a14 14 0 0 0-9.893 4.107l-6.627 6.627a14.187 14.187 0 0 0 0 19.787l6.627 6.627a14.467 14.467 0 0 0 19.787 0l6.627-6.627a14.187 14.187 0 0 0 0-19.787l-6.627-6.627a14 14 0 0 0-9.893-4.107z" transform="translate(-4 -3) translate(4 3) translate(85.997 3.797)"/>
        </g>
    </g>
</svg>
