<svg xmlns="http://www.w3.org/2000/svg" width="280" height="240" viewBox="0 0 280 240">
  <g id="Group_69156" data-name="Group 69156" transform="translate(-428 -8876)">
    <rect id="Rectangle_7495" data-name="Rectangle 7495" width="280" height="240" transform="translate(428 8876)" fill="none"/>
    <g id="disney" transform="translate(468 8955)">
      <path id="Path_111137" data-name="Path 111137" d="M103.445,66.708a6.066,6.066,0,0,1,3.689,1.475,5.041,5.041,0,0,1,1.106,5.313c-2.58,5.312-8.717,8.86-12.911,10.033a14.571,14.571,0,0,1-7.968-.3c-1.107.664-2.042,2.809-3.394,1.918-1.957-1.529-.263-3.921-1.393-5.619-.233-.35-.82-.375-1.115-.947-1.55-3.394.369-6.64,2.508-9.222,3.566-3.979,13.8-8.412,19.478-2.656ZM91.567,69.364a9.792,9.792,0,0,0-5.459,2.656c-1.218,1.42-1.991,2.8-1.254,4.279,2.583-1.918,3.837-4.574,6.714-6.2C91.567,69.806,92.01,69.585,91.567,69.364Zm12.027.739c-5.092-.444-8.928,3.394-12.543,7.082-.221.59-1.549,1.254-.516,1.918a16.742,16.742,0,0,0,13.06-4.205c1.034-.959,1.769-2.213,1.255-3.542A2.608,2.608,0,0,0,103.594,70.1Zm44.118,21.986c2.361,5.755,4.353,14.829,0,20.363-1.18,1.328-3.245,2.552-4.573,1.549-4.87-3.909-6.934-9.517-9.96-14.535-.443-.221-.443.37-.664.591-1.106,5.09.959,11.731-2.508,15.714a2.656,2.656,0,0,1-3.025-1.77c-1.7-5.238.072-10.7.514-15.936,1.034-2.656,1.476-5.754,3.764-7.747,3.689,1.475,5.459,5.608,7.6,8.633,1.551,2.287,2.8,4.869,4.574,6.934,1.549-.664.787-2.688.739-3.91A96.178,96.178,0,0,0,141,88.178c-.072-1.18-.735-3.173.516-3.91C144.836,85.744,146.235,89.21,147.712,92.088Zm-22.281-1.771a3.065,3.065,0,0,1-1.625,2.656c-7.082,1.106-14.976.443-21.616,2.655-.221.811.738.959,1.254,1.18,5.679.885,11.657,1.106,17.191,2.509,2.926.743,3.985,4.206,4.206,7.083a7.536,7.536,0,0,1-2.951,6.567c-5.458,3.468-13.8,3.319-19.33.149-2.115-1.187-4.132-3.1-4.279-5.459a4.411,4.411,0,0,1,2.14-4.058c5.313-2.14,11.878-.958,16.454,1.77.293,1.476-1.3,1.4-2.068,1.919-5.092,2.951-8.927-3.318-13.649-1.034-.664.443-1.144,1.677-.369,2.066,5.828,2.583,12.321.738,18.075-.885.664-.221,1.476-.885,1.549-1.549-.221-2.361-2.877-2.877-4.574-3.54-5.017-1.254-10.55-1.254-15.936-1.77a3.893,3.893,0,0,1-2.655-1.77c-.59-1.77-.59-4.205.738-5.681,6.861-6.05,17.263-5.533,25.969-3.91.591.217,1.255.438,1.477,1.1Zm-32.24,2.8a180.1,180.1,0,0,1,.885,21.1c-.148.958-1.254,1.18-1.991,1.549-1.18.221-2.706-.03-3.173-.664-1.7-2.731-1.106-6.418-1.254-9.738.221-5.237.148-10.918,1.624-15.789.282-.708,1.106-1.328,1.77-.886C92.822,89.579,93.117,91.35,93.191,93.12Zm81.969-1.033c.355.6.726,1.518,0,1.918-3.32,1.475-7.82.811-11.657,1.254a3.867,3.867,0,0,0-1.477,3.689c.371.221.7.558,1.109.515,2.359.149,5.9-1.106,7.453,1.106.378.658-.051,3.117-1.106,3.173-2.879.371-7.612-.361-9,.371-1.77,1.18-1.624,3.467-2.288,5.313,1.255.811,2.569-.019,4.057-.222,2.732-.443,5.757-1.254,8.485-.664.516.959,1.255,1.993.738,3.173-4.651,3.689-10.65,7.47-17.042,4.8-2.4-1.075-3.468-4.722-2.655-7.818.515-2.214,2.8-4.353,1.4-6.714a1.756,1.756,0,0,1,1.255-2.139c2.434,0,1.917-3.025,3.172-4.428-1.4-1.549-4.942-1.475-4.573-4.574,1.7-.885,3.764-.59,5.679-.885a44.681,44.681,0,0,1,13.652-.886C173.241,89.241,174.422,90.981,175.16,92.088ZM69.8,75.267c6.808,5.565,15.641,15.051,14.535,25.97-1.329,8.633-10.477,15.125-18.224,17.191-7.526,2.213-16.969,1.992-24.643.221-.516,1.4-1.033,3.1-2.655,3.689a3.463,3.463,0,0,1-3.173-.516c-2.287-2.14-.443-6.272-3.763-7.6-6.493-2.73-13.5-8.117-16.821-14.756a3.964,3.964,0,0,1,.885-3.688c5.092-4.058,11.51-5.681,17.929-6.936.369.148.221-.369.516-.516.369-4.427.516-8.928,1.918-12.912a1.152,1.152,0,0,1,1.624-.369c4.058,3.1,2.139,8.928,3.91,13.132,7.747.369,15.494.738,21.617,5.092a6.717,6.717,0,0,1,1.918,6.788,5.643,5.643,0,0,1-4.8,3.318c-1.329,0-3.837.129-3.689-.884s4.513-2.675,3.173-4.059c-1.927-1.989-11.571-3.173-17.547-3.91-.738-.148-1.414.074-1.414.885-.148,5.607-.59,11.8.369,17.191a1.322,1.322,0,0,0,.886.884c10.55,1.7,21.69.738,29.954-5.312,3.837-3.1,5.092-7.453,4.427-12.247-3.32-13.354-17.264-21.4-28.7-26.561A80.7,80.7,0,0,0,11.37,62.651c-2.1.154-5.435.88-5.459,1.624s3.775.51,3.319,1.918-4.315.572-5.459.221-1.033-1.993-.738-3.025c2.878-5.09,10.908-5.5,14.535-5.681C37.634,57.19,57.039,64.832,69.8,75.267ZM33.651,95.039c-5.092.074-10.477.59-15.2,2.36-.959.369-2.14,1.4-1.4,2.656a24.429,24.429,0,0,0,7.231,6.2c2.57,1.493,5.977,3.394,9.076,3.838a85.629,85.629,0,0,0,.664-14.461C33.724,95.482,34.019,95.187,33.651,95.039Zm152.5-6.714c-.221,6.418-6.2,10.4-6.2,16.821.221.221.371.516.664.371,4.8-5.239,9.518-12.691,16.527-14.9,1.847-.148,3.516,1.457,4.206,2.656a16.119,16.119,0,0,1-1.548,16.157c-3.5,4.345-9.593,8.706-16.525,7.967a94.626,94.626,0,0,0-5.979,22.282c-.59,1.549-1.99.148-2.876-.148-5.976-4.722-1.069-17.221-.664-18.816s2-5.343,3.174-8.484c-2.8-5.016-1.034-11.067,1.253-15.715a31.337,31.337,0,0,1,7.084-8.558.994.994,0,0,1,.882.37Zm11.881,7.968c-.885-.148-1.255,1.034-1.992,1.255-3.393,3.837-6.788,7.673-8.485,12.247,2.289.3,4.205-1.18,6.2-1.992a10.791,10.791,0,0,0,5.312-9.738c-.149-.666-.739-1.182-1.034-1.772Z" transform="translate(-2.835 -57.683)" fill="#222"/>
    </g>
  </g>
</svg>
