<svg xmlns="http://www.w3.org/2000/svg" xmlns:xlink="http://www.w3.org/1999/xlink" width="48" height="48" viewBox="0 0 48 48">
  <defs>
    <clipPath id="clip-django">
      <rect width="48" height="48"/>
    </clipPath>
  </defs>
  <g id="django" clip-path="url(#clip-django)">
    <g id="Group_20146" data-name="Group 20146" transform="translate(-300.419 -564.074)">
      <path id="Path_1" data-name="Path 1" d="M323.729,571.074h5.521v26.133c-5.292.865-10.361,1.414-13.987-.614-4.669-2.61-5.044-10.905-1.35-14.6,1.873-1.873,5.644-3.192,9.692-2.331v-8.22C323.6,571.268,323.586,571.094,323.729,571.074ZM317.1,588.741c-.018,3.426,2.494,5.468,6.5,4.539V584.2C319.547,582.966,317.121,585.467,317.1,588.741Z" fill-rule="evenodd"/>
      <path id="Path_2" data-name="Path 2" d="M479.782,571.074v5.766h-5.521v-5.766Z" transform="translate(-141.576)" fill-rule="evenodd"/>
      <path id="Path_7" data-name="Path 7" d="M443.027,637.588c-.006,4.065-.005,6.987-.006,11.926-.235,4.854-.18,8.719-1.957,11.041a10.313,10.313,0,0,1-1.718,1.6,5.944,5.944,0,0,1-2.086,1.227,9.918,9.918,0,0,1-2.7-1.1,19.761,19.761,0,0,0-2.576-1.227c2.1-1.3,4.094-2.277,4.907-4.908.708-2.288.613-5.6.613-8.834,0-3.19.014-6.9.014-9.716Z" transform="translate(-104.821 -57.828)" fill-rule="evenodd"/>
    </g>
  </g>
</svg>
