<svg xmlns="http://www.w3.org/2000/svg" xmlns:xlink="http://www.w3.org/1999/xlink" width="220" height="60" viewBox="0 0 220 60">
  <defs>
    <clipPath id="clip-_07">
      <rect width="220" height="60"/>
    </clipPath>
  </defs>
  <g id="_07" data-name="07" clip-path="url(#clip-_07)">
    <rect width="220" height="60" fill="#fff"/>
    <g id="Group_69391" data-name="Group 69391" transform="translate(-67.999 -12.61)">
      <g id="Layer_x0020_1" transform="translate(167.998 12.61)">
        <g id="_2514892076368" transform="translate(0)">
          <g id="Group_68524" transform="translate(0)">
            <path id="Path_114518" d="M4226.713,1758.28c0,2.36-.289,4.444,2.142,5.927,1.471.9,2.907.719,5.165.719h11.769l-.478,3.509h-19.459a17.219,17.219,0,0,1-.243,2.032l-.535,4.215c-.034.255-.078.68-.132,1.013-.064.4-.25.81.151.81h21.737a7.907,7.907,0,0,0,7.5-4.555c.6-1.365.926-5.208,1.115-6.946a11.824,11.824,0,0,0,.167-3.646c-.45-2.249-2.482-3.359-4.8-3.359h-23.824c-.214,0-.287.065-.287.287Z" transform="translate(-4197.241 -1746.513)" fill="#ef2c30" fill-rule="evenodd"/>
            <path id="Path_114519" d="M1.085,1775.512H26.616c.416,0,.36-1.013.457-1.823l.778-6.246H11.717l.416-2.712c.059-.417-.046-.8.34-.8H28.327l.758-6.279c.059-.432.15-.654-.19-.654H2.986c0,1-1.437,12.082-1.621,14.036L.941,1774.6c-.065.416-.25.908.15.908Z" transform="translate(-0.841 -1745.519)" fill="#ef2c30" fill-rule="evenodd"/>
            <path id="Path_114520" d="M8942,1775.512h9.4c.377,0,.318-.516.387-1.222.037-.431.131-1.013.17-1.444l.488-4.443c.131-1.366.465-3.13.465-4.47h14.139c2.986,0,4.492-1.791,4.992-4.312.186-.921.318-1.758.52-2.62H8944.08l-1.867,16.068a18.53,18.53,0,0,0-.217,2.438Z" transform="translate(-8883.571 -1745.519)" fill="#ef2c30" fill-rule="evenodd"/>
            <path id="Path_114521" d="M13836,8.449h29.232a22.067,22.067,0,0,0,.287-3.228c0-2.613-1.883-5.221-4.271-5.221h-24.205C13837.043,1.143,13836,7.5,13836,8.449Z" transform="translate(-13745.594 0)" fill="#ef2b30" fill-rule="evenodd"/>
            <path id="Path_114522" d="M386,8.449h26.007c0-1.222,1.045-7.018,1.045-8.449h-26.1c0,.909-.948,8.449-.948,8.449Z" transform="translate(-383.482)" fill="#ef2b30" fill-rule="evenodd"/>
            <path id="Path_114523" d="M13460.386,1776.505h9.111c.428,0,.357-.5.41-.921l2.082-17.2c.02-.255.117-.385-.217-.385h-9.586c0,.9-.92,7.979-1.043,9.4-.223,2.555-.7,5.58-.945,8.168-.059.615-.229.948.188.948Z" transform="translate(-13372.166 -1746.513)" fill="#ef2c30" fill-rule="evenodd"/>
            <path id="Path_114524" d="M16436,1776.505h9.4c.41,0,.4-1.327.49-2.071s.182-1.562.287-2.372l1.693-14.062h-9.775l-1.613,13.768C16436.346,1772.958,16436,1775.518,16436,1776.505Z" transform="translate(-16328.604 -1746.513)" fill="#ef2c30" fill-rule="evenodd"/>
            <path id="Path_114525" d="M4578.007,8.462c.262-5.182,2.209-8.462,7.417-8.462h47.008c3.463,0,5.248,3.836,4.535,8.338L4578,8.462Z" transform="translate(-4548.09)" fill="#ef2c30" fill-rule="evenodd"/>
          </g>
        </g>
      </g>
    </g>
  </g>
</svg>
