<svg xmlns="http://www.w3.org/2000/svg" width="280" height="240" viewBox="0 0 280 240">
  <g id="Group_69142" data-name="Group 69142" transform="translate(-150 -8638)">
    <g id="Layer_x0020_1" transform="translate(209.157 8745)">
      <g id="_2514892076368" transform="translate(0.843 0)">
        <g id="Group_68524" data-name="Group 68524" transform="translate(0)">
          <path id="Path_114518" data-name="Path 114518" d="M4227.338,1758.375c0,3.147-.384,5.928,2.859,7.907,1.962,1.2,3.879.958,6.887.958h15.7l-.636,4.682h-25.96a23.079,23.079,0,0,1-.324,2.711l-.714,5.622c-.043.34-.1.907-.175,1.352-.087.531-.33,1.081.2,1.081h28.994c4.359,0,8.274-2.135,10.009-6.076.8-1.822,1.237-6.948,1.491-9.267a15.836,15.836,0,0,0,.225-4.864c-.6-3-3.311-4.481-6.407-4.481h-31.783c-.289,0-.384.087-.384.384Z" transform="translate(-4188.019 -1742.674)" fill="#e30613" fill-rule="evenodd"/>
          <path id="Path_114519" data-name="Path 114519" d="M1.166,1781.7h34.06c.558,0,.479-1.352.61-2.432l1.037-8.334H15.35l.558-3.618c.078-.558-.061-1.064.453-1.064H37.511l1.011-8.377c.078-.576.2-.872-.253-.872H3.7c0,1.334-1.918,16.119-2.162,18.725l-.567,4.751c-.087.558-.331,1.212.2,1.212Z" transform="translate(-0.843 -1741.683)" fill="#e30613" fill-rule="evenodd"/>
          <path id="Path_114520" data-name="Path 114520" d="M8942,1781.7h12.537c.5,0,.426-.689.512-1.63.053-.576.177-1.351.229-1.927l.65-5.928c.177-1.822.621-4.176.621-5.963h18.866c3.981,0,5.986-2.389,6.659-5.753.244-1.229.418-2.345.69-3.5h-37.983l-2.493,21.437a24.951,24.951,0,0,0-.289,3.252Z" transform="translate(-8864.056 -1741.683)" fill="#e30613" fill-rule="evenodd"/>
          <path id="Path_114521" data-name="Path 114521" d="M13836,11.272h39a28.3,28.3,0,0,0,.388-4.307c0-3.487-2.513-6.965-5.707-6.965H13837.4C13837.4,1.526,13836,10,13836,11.272Z" transform="translate(-13715.39)" fill="#e30613" fill-rule="evenodd"/>
          <path id="Path_114522" data-name="Path 114522" d="M386,11.272h34.7c0-1.63,1.395-9.363,1.395-11.272H387.273c0,1.212-1.264,11.272-1.264,11.272Z" transform="translate(-382.642)" fill="#e30613" fill-rule="evenodd"/>
          <path id="Path_114523" data-name="Path 114523" d="M13460.479,1782.688h12.149c.569,0,.481-.671.552-1.229l2.781-22.945c.028-.34.158-.515-.284-.515h-12.789c0,1.194-1.231,10.644-1.4,12.536-.3,3.409-.934,7.445-1.261,10.9-.081.819-.309,1.264.25,1.264Z" transform="translate(-13342.779 -1742.674)" fill="#e30613" fill-rule="evenodd"/>
          <path id="Path_114524" data-name="Path 114524" d="M16436,1782.688h12.537c.551,0,.535-1.769.656-2.763s.244-2.083.387-3.164l2.252-18.76h-13.043l-2.15,18.369C16436.461,1777.954,16436,1781.372,16436,1782.688Z" transform="translate(-16292.725 -1742.674)" fill="#e30613" fill-rule="evenodd"/>
          <path id="Path_114525" data-name="Path 114525" d="M4578.01,11.289C4578.358,4.376,4580.955,0,4587.9,0h62.716c4.62,0,7,5.117,6.049,11.124L4578,11.289Z" transform="translate(-4538.098)" fill="#e30613" fill-rule="evenodd"/>
        </g>
      </g>
    </g>
    <rect id="Rectangle_7500" data-name="Rectangle 7500" width="280" height="240" transform="translate(150 8638)" fill="none"/>
  </g>
</svg>
