<svg xmlns="http://www.w3.org/2000/svg" width="280" height="280" viewBox="0 0 280 280">
    <g data-name="Group 68948">
        <path data-name="Rectangle 7194" style="fill:none;opacity:.2" d="M0 0h280v280H0z"/>
        <g data-name="Group 68524">
            <path data-name="Path 114518" d="M4227.119 1758.342c0 2.871-.351 5.409 2.608 7.214 1.79 1.1 3.539.874 6.283.874h14.324l-.58 4.271h-23.684a21.114 21.114 0 0 1-.3 2.474l-.652 5.129c-.04.311-.095.828-.16 1.233-.08.485-.3.986.184.986h26.458a9.623 9.623 0 0 0 9.132-5.543c.731-1.662 1.129-6.339 1.36-8.455a14.452 14.452 0 0 0 .205-4.438c-.548-2.736-3.021-4.088-5.846-4.088h-29c-.263 0-.351.08-.351.35z" transform="translate(-4151.248 -1622.018)" style="fill:#fff;fill-rule:evenodd"/>
            <path data-name="Path 114519" d="M1.138 1779.532h31.074c.509 0 .437-1.233.557-2.219l.946-7.6H14.078l.509-3.3c.072-.509-.056-.97.414-.97H34.3l.923-7.642c.072-.525.183-.8-.231-.8H3.453c0 1.217-1.75 14.706-1.972 17.084l-.517 4.335c-.08.509-.3 1.106.183 1.106z" transform="translate(39.156 -1621.026)" style="fill:#fff;fill-rule:evenodd"/>
            <path data-name="Path 114520" d="M8942 1779.532h11.438c.46 0 .388-.629.467-1.487.048-.525.161-1.233.209-1.758l.594-5.408c.161-1.663.566-3.81.566-5.441h17.212c3.633 0 5.462-2.179 6.076-5.249.223-1.121.381-2.14.63-3.189h-34.654l-2.274 19.557a22.811 22.811 0 0 0-.264 2.967z" transform="translate(-8830.889 -1621.026)" style="fill:#fff;fill-rule:evenodd"/>
            <path data-name="Path 114521" d="M13836 10.284h35.582a25.862 25.862 0 0 0 .354-3.929c0-3.181-2.292-6.355-5.206-6.355h-29.457c-.001 1.392-1.273 9.123-1.273 10.284z" transform="translate(-13685.963 122)" style="fill:#fff;fill-rule:evenodd"/>
            <path data-name="Path 114522" d="M386 10.284h31.655c0-1.487 1.273-8.542 1.273-10.284h-31.767c0 1.106-1.153 10.284-1.153 10.284z" transform="translate(-342.938 122)" style="fill:#fff;fill-rule:evenodd"/>
            <path data-name="Path 114523" d="M13460.446 1780.524h11.084c.52 0 .439-.612.5-1.121l2.537-20.933c.025-.31.145-.469-.26-.469h-11.668c0 1.089-1.123 9.711-1.275 11.437-.271 3.11-.852 6.792-1.15 9.942-.074.748-.281 1.153.229 1.153z" transform="translate(-13313.066 -1622.018)" style="fill:#fff;fill-rule:evenodd"/>
            <path data-name="Path 114524" d="M16436 1780.524h11.438c.5 0 .488-1.614.6-2.521s.223-1.9.352-2.887l2.055-17.116h-11.9l-1.963 16.758c-.162 1.442-.582 4.565-.582 5.766z" transform="translate(-16265.286 -1622.018)" style="fill:#fff;fill-rule:evenodd"/>
            <path data-name="Path 114525" d="M4578.009 10.3c.317-6.307 2.687-10.3 9.026-10.3h57.218c4.214 0 6.387 4.669 5.519 10.149L4578 10.3z" transform="translate(-4501.597 122)" style="fill:#fff;fill-rule:evenodd"/>
        </g>
        <g data-name="Group 68525">
            <path data-name="Path 114526" d="M173 5343h25.72v6.509H180.7v8.418h15.8v6.509h-15.8v15.078H173V5343z" transform="translate(21.292 -5221)" style="fill:#fff;fill-rule:evenodd"/>
            <path data-name="Path 114527" d="m11830.367 5652.382-9.289-.078-.079-5.16c6.258.092 10.082-2.259 10.736-7.089 0-.017.215-.037.217-.055l1.833.055h3.352v35.705h-6.754v-23.378h-.016z" transform="translate(-11597.138 -5517.245)" style="fill:#fff;fill-rule:evenodd"/>
        </g>
    </g>
</svg>
