<svg xmlns="http://www.w3.org/2000/svg" width="180.06" height="180" viewBox="0 0 180.06 180">
  <g id="analysis" transform="translate(0 -0.08)">
    <g id="Group_20181" data-name="Group 20181" transform="translate(12.068 12.089)">
      <g id="Group_20180" data-name="Group 20180">
        <path id="Path_114378" data-name="Path 114378" d="M95.179,32.106a63,63,0,1,0,63,63A63,63,0,0,0,95.179,32.106Zm0,6a56.937,56.937,0,0,1,46.546,24.209l-7.5,7.5a11.839,11.839,0,0,0-6.048-1.71,12,12,0,0,0-12,12,11.839,11.839,0,0,0,1.7,6.057L98.236,105.8a11.634,11.634,0,0,0-12.113,0L72.479,92.16a11.839,11.839,0,0,0,1.7-6.057,11.975,11.975,0,0,0-23.573-3H39.478A57.078,57.078,0,0,1,95.179,38.106Zm39,42a6,6,0,1,1-6-6A6,6,0,0,1,134.177,80.1Zm-36,36a6,6,0,1,1-6-6A6,6,0,0,1,98.179,116.1Zm-30-30a6,6,0,1,1-6-6A6,6,0,0,1,68.18,86.1Zm54.693,58.837A56.986,56.986,0,0,1,38.5,89.1h12.1a12,12,0,0,0,11.573,9,11.839,11.839,0,0,0,6.057-1.7l13.643,13.643a11.839,11.839,0,0,0-1.7,6.057,12,12,0,1,0,24,0,11.839,11.839,0,0,0-1.7-6.057L122.121,90.4a11.839,11.839,0,0,0,6.057,1.7,12,12,0,0,0,12-12,11.839,11.839,0,0,0-1.7-6.057l6.54-6.537A56.946,56.946,0,0,1,122.873,144.941Z" transform="translate(-32.182 -32.106)"/>
      </g>
    </g>
    <g id="Group_20183" data-name="Group 20183" transform="translate(0 0.08)">
      <g id="Group_20182" data-name="Group 20182" transform="translate(0 0)">
        <path id="Path_114379" data-name="Path 114379" d="M150.062,30.089a12,12,0,0,0,11.573-9H180.06v-6H161.635a11.974,11.974,0,0,0-23.573,3,11.839,11.839,0,0,0,1.7,6.057l-5.271,5.271A75,75,0,1,0,115.767,138.03l9.054,9.054,4.242,4.242,24.149,24.149a15.727,15.727,0,0,0,22.241-22.241L151.3,129.084l-4.242-4.242-9.054-9.054a74.748,74.748,0,0,0,0-81.4l6-6A11.842,11.842,0,0,0,150.062,30.089Zm0-18a6,6,0,1,1-6,6A6,6,0,0,1,150.062,12.089Zm21.149,145.385a9.729,9.729,0,0,1-13.6,13.914c-.053-.051-.1-.1-.156-.156L133.3,147.083l13.757-13.757ZM142.82,129.084l-13.757,13.757-8.3-8.3c.423-.324.819-.681,1.236-1.014s.9-.732,1.347-1.107c.657-.552,1.3-1.11,1.941-1.683.327-.3.639-.6.96-.9q1.845-1.728,3.573-3.573c.3-.321.6-.633.9-.96.573-.636,1.131-1.284,1.683-1.941q.564-.666,1.107-1.347c.33-.414.687-.81,1.011-1.233ZM131.186,115.15c-.945,1.32-1.92,2.613-2.949,3.858-.3.363-.621.714-.93,1.071q-1.377,1.6-2.844,3.108-.639.66-1.3,1.3-1.5,1.467-3.108,2.844c-.357.3-.708.627-1.071.93-1.245,1.029-2.538,2-3.858,2.949a69.1,69.1,0,1,1,16.058-16.058Z" transform="translate(0 -0.08)"/>
      </g>
    </g>
  </g>
</svg>
