<?xml version="1.0" encoding="UTF-8"?>
<svg width="280px" height="240px" viewBox="0 0 280 240" version="1.1" xmlns="http://www.w3.org/2000/svg" xmlns:xlink="http://www.w3.org/1999/xlink">
    <title>Group 11</title>
    <g id="Page-1" stroke="none" stroke-width="1" fill="none" fill-rule="evenodd">
        <g id="Group-11">
            <g id="jll-copy">
                <polygon id="Path_116318" points="0 0 280 0 280 240 0 240"></polygon>
            </g>
            <g id="gate_b_2022-04-14-133653_ggmi" transform="translate(31.000000, 67.000000)" fill="#000000" fill-rule="nonzero">
                <path d="M121.748454,79.5789474 C117.683797,82.2993898 113.108063,84 108.534325,84 C99.3868496,84 96.3363601,77.539283 96.3363601,63.9344012 C96.3363601,52.3718535 96.3363601,39.786804 96.5899021,25.842868 L91,25.842868 L91,20.4046529 C96.3363601,14.6220442 101.16364,7.4805492 105.230294,0 L110.820196,0 L110.820196,17.6842105 L120.983836,17.6842105 L120.983836,25.8455378 L110.564657,25.8455378 C110.311115,37.0690313 110.311115,46.9309687 110.311115,55.4340198 C110.311115,67.3382914 110.820196,74.1380625 118.188885,74.1380625 C119.458591,74.1380625 120.730294,73.7990084 122,73.4572845 L121.748454,79.5789474 Z" id="Path"></path>
                <path d="M148.549603,42.3403393 C148.549603,29.4685996 146.02381,22.6937199 140.720238,22.6937199 C135.416667,22.6937199 132.890873,29.4685996 132.890873,42.3403393 L148.549603,42.3403393 Z M158.902778,82.9842998 C154.609127,82.9842998 150.569444,84 141.47619,84 C127.081349,84 119,72.1439605 119,51.4842998 C119,30.8246391 128.09127,16.2591795 141.47619,16.2591795 C154.103175,16.2591795 162.184524,28.7905799 162.184524,49.4528995 L132.890873,49.4528995 C133.64881,64.0183591 138.952381,71.1309192 146.527778,74.5183591 C150.315476,76.212079 154.609127,77.2277792 158.650794,76.8900988 C165.470238,76.5524183 167.742063,73.5026589 167.742063,64.3586984 L167.742063,17.9528995 C167.742063,8.80893897 166.22619,6.09685996 158.902778,6.09685996 L158.902778,0 L186.178571,0 C195.017857,0 201.079365,0.337680425 205.119048,2.37173968 C211.434524,5.75917954 214.71627,11.5157002 214.71627,18.9685996 C214.71627,29.1309192 208.90873,35.5654596 197.291667,37.2591795 C211.180556,39.9685996 218,47.0811598 218,59.9528995 C218,67.7434794 214.970238,74.8560395 210.170635,78.9214991 C205.876984,82.308939 196.027778,83.3246391 189.714286,83.3246391 C179.613095,83.3246391 162.944444,82.9842998 158.902778,82.9842998 Z M181.126984,50.4685996 C181.126984,64.3560395 181.632937,72.1466194 182.136905,73.8403393 C182.640873,75.5340593 184.662698,76.212079 187.69246,76.212079 C197.035714,76.212079 202.087302,69.7775386 202.087302,58.2591795 C202.087302,46.7408205 196.531746,41.6623196 185.166667,41.6623196 C184.40873,41.6623196 183.146825,41.6623196 181.125,41.6623196 L181.125,50.4685996 L181.126984,50.4685996 Z M184.15873,35.5654596 C194.007937,35.5654596 199.059524,30.4842998 199.059524,21 C199.059524,11.5157002 194.007937,6.09685996 184.916667,6.09685996 C184.15873,6.09685996 182.896825,6.09685996 181.380952,6.43454039 C181.380952,16.59686 181.128968,22.6937199 181.128968,24.7251203 L181.128968,35.5628007 C182.327381,35.5654596 183.14881,35.5654596 184.15873,35.5654596 L184.15873,35.5654596 Z" id="Shape"></path>
                <path d="M52.0927766,83.5679005 C48.5352796,81.5013965 48.5352796,83.5679005 48.5352796,84.9473731 C47.7726736,98.0415429 37.353719,107 21.8540517,107 C7.36853064,107 0,100.108047 0,89.7701173 C0,84.9446682 1.77874852,82.188428 5.58978212,79.7784083 C2.79489106,77.022168 1.01614254,72.5429395 1.26967908,68.0637109 C1.26967908,62.2050098 3.81103359,57.3822656 9.40081571,54.2825096 C4.57363958,51.1827537 1.77675217,44.2908006 2.03228507,37.0526269 C2.03228507,24.3046776 9.90988516,15 21.5985188,15 C27.4438339,15 30.745798,17.4127245 33.5406891,17.4127245 L47.0080713,17.4127245 L47.0080713,26.0276659 L39.6395406,26.0276659 C41.9273586,29.4736424 43.1970377,34.2963867 42.9435011,38.7756152 C42.9435011,52.2133008 36.0820436,59.1052539 22.8681979,59.1052539 C20.3268434,59.1052539 17.5319523,58.7617382 14.9905978,57.7257813 C12.1957068,59.4487696 10.6704948,61.5152736 10.6704948,63.5844824 C10.6704948,67.0304589 13.2118493,67.7201952 19.055168,67.7201952 C21.3429859,67.7201952 24.6449501,67.3766795 29.2185897,67.3766795 C36.3335838,67.3766795 41.9233659,69.0996678 45.2273264,72.5456443 C44.9737898,70.4791403 44.7182569,68.7561521 44.7182569,66.6869432 C44.7182569,53.2492576 53.358463,50.1467968 64.7935602,44.9805369 C74.1963722,40.844824 74.9569819,40.844824 74.9569819,33.9555758 C74.9569819,26.0303707 73.1782333,22.2408785 69.3671997,22.2408785 C65.8097027,22.2408785 63.0148116,26.0303707 63.0148116,30.5095993 L63.0148116,31.1993355 C63.0148116,32.9223238 63.2683482,34.2990915 63.5238811,36.0220798 C61.7451326,38.7783201 59.4573146,40.1577926 56.6624235,40.1577926 C52.8513899,40.5013083 49.5474294,36.7118161 49.2938929,31.5428513 C49.2938929,31.1993355 49.2938929,31.1993355 49.2938929,30.853115 C49.2938929,22.5843942 56.408887,15.3489254 67.8439841,15.3489254 C82.5830418,15.3489254 88.4263604,22.9306148 88.4263604,40.1577926 C88.4263604,49.4597654 87.6637544,59.4541793 87.6637544,70.1356246 C87.6637544,74.9583689 88.9334335,76.6813571 93,76.6813571 L93,82.1938377 C89.6960395,83.2270896 86.1385424,83.9168259 82.8365783,83.9168259 C78.2629387,83.9168259 75.9751207,82.1938377 74.9589782,76.6813571 C70.6388752,81.5068062 64.1227863,84.6065622 59.4133949,84.8905713 C57.251347,85.00147 54.3785983,84.9473731 52.0927766,83.5679005 L52.0927766,83.5679005 Z M59.7148438,64.2715138 C59.2057744,69.4404786 62.0026618,73.9197072 65.8136954,74.6094434 L66.5763014,74.6094434 C71.912547,74.6094434 74.4539015,69.7839944 74.4539015,60.1385059 L74.4539015,48.4238085 C64.5440163,52.5568165 59.7148438,56.002793 59.7148438,64.2715138 Z M29.2225824,37.3961427 C29.2225824,27.058213 27.4438339,21.8919531 22.6166577,21.8919531 C17.7894816,21.8919531 16.0107331,27.0609179 16.0107331,37.3961427 C16.0107331,47.7340723 17.535945,52.9030371 22.8721906,52.9030371 C28.2084362,52.9030371 29.2225824,47.3878517 29.2225824,37.3961427 L29.2225824,37.3961427 Z M9.90988516,86.6703613 C9.90988516,94.2493458 15.2461307,101.141299 24.9024793,101.141299 C33.033616,101.141299 37.353719,95.9723341 37.353719,90.1163379 C37.353719,85.6371093 35.3214339,83.9141211 31.2548674,83.9141211 C27.9509069,83.9141211 25.6650853,83.9141211 24.6489428,83.9141211 C19.8217667,83.9141211 15.2461307,83.5706054 10.4189546,82.8808691 C9.90988516,84.2576368 9.90988516,85.2908888 9.90988516,86.6703613 Z" id="Shape"></path>
            </g>
        </g>
    </g>
</svg>