<svg xmlns="http://www.w3.org/2000/svg" width="280" height="240" viewBox="0 0 280 240">
  <g id="Group_69144" data-name="Group 69144" transform="translate(-706 -8638)">
    <rect id="Rectangle_7501" data-name="Rectangle 7501" width="280" height="240" transform="translate(706 8638)" fill="none"/>
    <g id="great-american-insurance-group" transform="translate(746 8715.986)">
      <path id="Path_115233" data-name="Path 115233" d="M136.3,49.221c.882,1.347,20.37-9.078,29.616-3.48,0,0,5.646-6.5,2.622-9.583-3.665-3.745-10.337-1.4-12.166-4.082-8.148-12.005-50.122-1.315-52.039-3.785-2.213-2.855,12.278-15.63,4.748-22.479C99.5-2.915,72.05-.172,48.833,3.573,23.339,7.679-.238,15.538.066,16.613c.682,2.446,27.058-7.186,56.305-9.784C133.3,0,97.737,20.406,99.4,31.481c.954,6.368,9.7-1.139,39.368-.569,14.491.281,10.04,2.51,14.588,4.956,2.967,1.6,15.189-.281,11.316,5.309a35.441,35.441,0,0,0-11.636.233c-8.421,1.636-17.451,6.712-16.729,7.811" transform="translate(-0.058 0)" fill="#c00"/>
      <g id="Group_68667" data-name="Group 68667" transform="translate(0 48.667)">
        <path id="Path_115234" data-name="Path 115234" d="M192.317,648.979h1.756v-4.555h1.548a2.98,2.98,0,0,0,3.224-3.256c0-1.885-.922-3.208-3.039-3.208h-3.488Zm1.756-9.688H195.2c1.4,0,1.885.722,1.885,1.917a1.664,1.664,0,0,1-1.756,1.9h-1.259v-3.817Zm-11.067-1.323v7.763c0,2.55,1.267,3.473,3.376,3.473s3.36-.922,3.36-3.473v-7.763h-1.756v7.9c0,1.387-.553,2-1.6,2-1.067,0-1.62-.617-1.62-2v-7.9Zm-5.918,9.9c-1.051,0-1.885-.65-1.885-4.443,0-3.705.834-4.355,1.885-4.355s1.885.65,1.885,4.355c0,3.793-.834,4.443-1.885,4.443m0,1.323c2.526,0,3.641-1.788,3.641-5.726s-1.107-5.718-3.641-5.718-3.641,1.788-3.641,5.718,1.115,5.726,3.641,5.726m-10.69-6.327v-3.585h1.5c1.155,0,1.668.618,1.668,1.788a1.62,1.62,0,0,1-1.756,1.788H166.4Zm-1.756,6.111H166.4v-4.788h1.435c1.2,0,1.572.521,1.6,1.732.032.8.016,1.419.08,2.085a1.88,1.88,0,0,0,.289.97H171.8a1.116,1.116,0,0,1-.521-.954c-.032-.666-.048-1.532-.064-2.237-.064-1.54-.634-2.141-1.724-2.253V643.5c1.2-.184,1.836-1.283,1.836-2.7a2.544,2.544,0,0,0-2.791-2.839h-3.889Zm-3.769,0H162.2v-5.8h-3.521V644.5h1.853c0,2.406-.5,3.384-1.836,3.368-1.187,0-1.772-.89-1.772-4.443,0-3.521.666-4.355,1.917-4.355,1.2,0,1.548.97,1.548,1.788v.265h1.66v-.2a3,3,0,0,0-3.224-3.176c-2.55,0-3.657,1.788-3.657,5.726s.866,5.718,3.272,5.718a2.31,2.31,0,0,0,2.406-1.492h.032Zm-17.8,0h6.079V647.5h-4.323v-3.521h3.954v-1.476h-3.954v-3.063h4.194v-1.476h-5.951v11.011Zm-3.914-3.946v.185c0,1.018-.168,2.654-1.636,2.654-1.3,0-1.885-.89-1.885-4.443s.585-4.355,1.885-4.355c1.267-.048,1.572,1.123,1.572,2.149v.184h1.756v-.2c0-1.139-.184-3.456-3.32-3.456-2.791,0-3.657,1.788-3.657,5.718s.866,5.726,3.641,5.726c2.59,0,3.392-1.941,3.392-3.93v-.232h-1.748Zm-14.716,3.946h1.668v-8.429h.032l3.2,8.429h2.141V637.968h-1.66v8.2h-.032l-3.2-8.2h-2.141l-.008,11.011Zm-10.121,0h1.836l.706-2.7h3.224l.682,2.7H122.6l-2.9-11.011h-2.254Zm2.871-4.1,1.307-5.429h.032l1.267,5.429Zm-9.752-2.013v-3.585h1.5c1.155,0,1.668.618,1.668,1.788a1.62,1.62,0,0,1-1.756,1.788h-1.411Zm-1.756,6.111h1.756v-4.788h1.435c1.2,0,1.572.521,1.6,1.732.032.8.016,1.419.08,2.085a1.88,1.88,0,0,0,.289.97h1.989a1.116,1.116,0,0,1-.521-.954c-.032-.666-.048-1.532-.064-2.237-.064-1.54-.634-2.141-1.724-2.253V643.5c1.2-.184,1.836-1.283,1.836-2.7a2.544,2.544,0,0,0-2.791-2.839h-3.889v11.019Zm-9.3-11.011v7.763c0,2.55,1.267,3.473,3.376,3.473s3.36-.922,3.36-3.473v-7.763h-1.756v7.9c0,1.387-.553,2-1.6,2-1.067,0-1.62-.617-1.62-2v-7.9Zm-9.094,7.6v.265a3.021,3.021,0,0,0,3.344,3.36c2.221,0,3.641-.97,3.641-3.32a2.822,2.822,0,0,0-2.237-2.919l-1.187-.433c-1.171-.449-1.652-.922-1.652-1.869a1.405,1.405,0,0,1,1.484-1.588,1.381,1.381,0,0,1,1.548,1.588v.233h1.756v-.249c0-1.139-.289-2.9-3.112-2.9-2.069,0-3.424,1.107-3.424,3.112,0,1.572.69,2.406,2.294,3.023l1.2.417a1.852,1.852,0,0,1,1.572,1.957,1.561,1.561,0,0,1-1.668,1.6c-1.219,0-1.8-.682-1.8-2.021v-.281l-1.756.016ZM78,648.979h1.66v-8.429h.032l3.2,8.429h2.141V637.968H83.363v8.2h-.032l-3.192-8.2H78v11.011Zm-4.347,0h1.756V637.968H73.652ZM18.862,624.9a20.393,20.393,0,0,1-7.843,1.339C3.561,626.244,0,621.376,0,616.612c0-5.686,4.555-9.912,11.019-9.912,3.144,0,4.555,1.115,5.9,1.115a1.992,1.992,0,0,0,1.484-.642h.634v5.213H18.4a7.7,7.7,0,0,0-7.1-4.635c-4.242,0-6.576,3.432-6.576,9.182,0,5.943,2.831,8.26,6.64,8.26,1.877,0,3.328-.441,3.328-1.973v-2.767c0-1.211-.529-2-2.117-2.286v-.537h8.3v.537c-1.516.385-2.013,1.083-2.013,2.791V624.9ZM58.679,614.19l-2.294,5.766h4.7Zm2.839,6.785H55.9l-.786,1.893c-.569,1.339-.457,2.069,1.267,2.478v.409h-5v-.409c1.54-.241,2.189-1.572,2.863-3.232l4.539-10.939h2.27l4.812,11.38c.866,2.013,1.572,2.7,2.943,2.791v.409H60.949v-.409c1.973-.337,2.053-.826,1.484-2.189Zm8.276,4.788v-.409c1.676-.289,2-.778,2-2.141V612.346H70.2c-1.893,0-2.967.706-3.513,2.334h-.457l.16-3.432h.489a2.711,2.711,0,0,0,.73.216,5.408,5.408,0,0,0,.834.072H78.728a3.586,3.586,0,0,0,1.564-.289h.489l.16,3.432h-.465c-.537-1.628-1.62-2.334-3.5-2.334H75.384v10.891c0,1.388.457,1.869,1.941,2.117v.409Zm-42.568-7.586v-5.83h1.083c2.165,0,3.3.994,3.3,2.823,0,2.358-1.379,3.208-4.379,3.007m23.1,7.586.3-3.448H50.17c-.513,1.363-1.379,2.646-3.328,2.646H45.92c-1.572,0-2.165-.465-2.165-1.756v-4.178h2.783a1.941,1.941,0,0,1,2.189,1.82h.513v-4.4h-.513a1.949,1.949,0,0,1-2.189,1.772H43.755V612.33H46.81c1.756,0,2.35.529,2.863,2.358h.457v-3.16H38.165v.409c1.676.3,2,.73,2,1.973v9.142c0,2.109-1.885,2.783-3.08,1.676-1.411-1.307-3.136-5.838-4.892-6.2v-.048c2.27-.585,3.192-1.925,3.192-3.384,0-2-1.756-3.577-6.135-3.577H21.621v.409c1.7.3,2,.754,2,1.949V623.5c0,1.147-.706,1.724-2,1.828v.409h7.627v-.409c-1.46-.193-2.029-.73-2.029-1.989v-4.379c1.4,0,1.949.024,2.646.658,1.219,1.1,2.358,4.282,4.082,6.127l16.384.016Zm147.287,5.349h.473c.241,0,.5.048.5.353,0,.361-.289.377-.6.377h-.369Zm-.353,2.013h.353v-.986H198l.626.986h.385l-.65-1.019a.592.592,0,0,0,.6-.625c0-.441-.257-.658-.8-.658h-.882v2.3Zm-1.227-1.163a1.981,1.981,0,0,0,3.962.024v-.024a1.981,1.981,0,0,0-3.962,0m.361,0a1.621,1.621,0,1,1,1.628,1.692,1.623,1.623,0,0,1-1.628-1.692m-72.288-13.649c1.612,0,2.045.545,2.125,2.406h.417l.682-3.224H116.324l-.088.425c1.476.3,1.684.746,1.411,2.013l-1.973,9.327c-.321,1.492-.642,1.989-2.334,2.334l-.088.425H124.44l1.019-3.521h-.425c-.762,1.387-1.836,2.7-3.625,2.7h-.842c-1.444,0-1.885-.473-1.612-1.788l.906-4.274h2.558c1.195,0,1.716.6,1.62,1.869h.473l.946-4.491h-.473c-.577,1.315-1.227,1.812-2.4,1.812h-2.558l1.267-6.007Zm28.429-.826h-6.985l-.088.425c1.436.369,1.676.746,1.4,2.037l-1.957,9.279c-.3,1.419-.457,1.909-2.342,2.358l-.088.425h6.993l.088-.425c-1.436-.369-1.676-.746-1.4-2.037l1.973-9.311c.289-1.387.505-1.933,2.326-2.334Zm12.294,11.171c-1.853,1.612-3.392,2.31-5.157,2.31-2.759,0-4.852-1.836-3.817-6.728.81-3.841,3.047-6.3,5.75-6.3,2.454,0,3.914,1.692,3.97,4.619h.393l1.123-5.309h-.4c-.361.513-.682.746-1.051.746-.722,0-1.756-.866-3.914-.866a10.083,10.083,0,0,0-9.615,7.843c-.93,4.395,1.6,7.418,6.047,7.418a8.52,8.52,0,0,0,6.512-2.951Z" transform="translate(0 -606.7)" fill="#036"/>
        <path id="Path_115235" data-name="Path 115235" d="M915.8,696.36l4.29-7.522,1.235,7.522ZM938.289,699l-1.772-9.583h-5.349l-.088.425a2.509,2.509,0,0,1,1.9.995l-3.448,9.479c-.569,1.54-1.195,2.919-1.981,2.879-.8.016-1.419-1.387-1.78-3.448l-2.51-14.844h-2.213L912.7,699.183c-1.251,2.157-2.51,3.905-4.387,4.218l-.112.537h6l.112-.537c-1.917-.537-1.844-1.492-.81-3.232l1.444-2.478h6.6l.473,2.855c.289,1.78.064,2.414-2.35,2.855l-.12.537h11.893l.088-.425c-1.612-.12-1.692-1.267-1.091-2.951l3.071-8.533h.048l2.149,11.909h.634l7.234-11.909h-.064l-.441,8.292c-.128,1.885-.706,2.807-2.374,3.2l-.088.425h7.4l.088-.425a1.865,1.865,0,0,1-1.732-2.254l.593-9.062a2.214,2.214,0,0,1,2.133-2.358l.1-.425h-5.141Zm30.306-2.807,1.259-5.958h.994c1.989,0,2.815,1.018,2.422,2.879-.505,2.414-1.957,3.28-4.675,3.079m7.763,6.7c-1.035-1.315-1.62-5.958-3.152-6.327l-.1-.048a4.8,4.8,0,0,0,3.769-3.448c.433-2.037-.954-3.649-4.972-3.649h-7.017l-.088.425c1.5.3,1.676.77,1.419,1.981l-2.077,9.832a2.234,2.234,0,0,1-2.229,1.86l-.088.425h7.017l.088-.425c-1.3-.2-1.708-.746-1.436-2.037l.946-4.467c1.291,0,1.78.024,2.294.666.882,1.115,1.235,4.371,2.43,6.255h4.3l.088-.425a1.622,1.622,0,0,1-1.187-.617m29.231-4.9,3.352-5.886.97,5.886Zm24.1-8.581-.088.425c1.468.345,1.628,1.018,1.251,2.783l-1.379,6.528-6.44-9.728h-4.483l-.088.425c.569.12.754.3,1.636,1.435l-2.053,9.736c-.385,1.756-3.392,4.539-4.282-.353l-1.965-11.62H1009.7l-6.536,11.171c-.978,1.684-1.957,3.055-3.424,3.3l-.088.425h4.7l.088-.425c-1.5-.417-1.444-1.163-.626-2.526l1.131-1.933h5.157l.377,2.229c.225,1.387.048,1.885-1.836,2.229l-.088.425h12l.088-.425c-1.612-.273-1.989-.714-1.652-2.3l1.885-8.886,7.963,11.789h.578l2.518-11.885a2.613,2.613,0,0,1,2.614-2.382l.088-.425-4.948-.008Z" transform="translate(-835.366 -678.629)" fill="#036"/>
      </g>
    </g>
  </g>
</svg>
