<svg xmlns="http://www.w3.org/2000/svg" width="180" height="220" viewBox="0 0 180 220">
  <g id="Group_69456" data-name="Group 69456" transform="translate(-320 -6423)">
    <g id="analytics" transform="translate(340 6465)">
      <path id="Path_126895" data-name="Path 126895" d="M243.982,185.9a2.167,2.167,0,0,1-1.19-.355L207.957,162.76a2.177,2.177,0,1,1,2.384-3.644L245.177,181.9a2.178,2.178,0,0,1-1.194,4Zm0,0" transform="translate(-148.761 -114.109)" fill="#87e5e8"/>
      <path id="Path_126896" data-name="Path 126896" d="M83.718,138.043a47.684,47.684,0,0,1-7.206-94.82.893.893,0,0,1,1.031.881V55.528a.9.9,0,0,1-.723.876,34.649,34.649,0,1,0,26.112,62.79.9.9,0,0,1,1.132.105l8.076,8.074a.894.894,0,0,1-.105,1.351A47.472,47.472,0,0,1,83.718,138.043Zm0,0" transform="translate(-25.9 -31.059)" fill="#ff4547"/>
      <path id="Path_126897" data-name="Path 126897" d="M269.383,90.352a47.485,47.485,0,0,1-9.47,28.523,1.1,1.1,0,0,1-1.662.121l-7.77-7.768a1.094,1.094,0,0,1-.133-1.39,34.649,34.649,0,0,0-22.267-53.544,1.093,1.093,0,0,1-.89-1.078V44.237a1.1,1.1,0,0,1,1.259-1.09A47.691,47.691,0,0,1,269.383,90.352Zm0,0" transform="translate(-163.294 -31.004)" fill="#f3c957"/>
      <path id="Path_126898" data-name="Path 126898" d="M269.383,90.352a47.485,47.485,0,0,1-9.47,28.523,1.1,1.1,0,0,1-1.662.121l-7.77-7.768a1.094,1.094,0,0,1-.133-1.39,34.649,34.649,0,0,0-22.267-53.544,1.093,1.093,0,0,1-.89-1.078V44.237a1.1,1.1,0,0,1,1.259-1.09A47.691,47.691,0,0,1,269.383,90.352Zm0,0" transform="translate(-163.294 -31.004)" fill="#ffb64c"/>
      <path id="Path_126899" data-name="Path 126899" d="M37.255,214.54a2.178,2.178,0,0,1-1.656-3.59L81.62,156.959a2.177,2.177,0,0,1,3.315,2.825L38.914,213.776A2.172,2.172,0,0,1,37.255,214.54Zm0,0" transform="translate(-25.213 -112.264)" fill="#87e5e8"/>
      <path id="Path_126900" data-name="Path 126900" d="M90.657,291.316l-8.552,10.033q1.5,1.589,3.132,3.038l8.483-9.951A34.927,34.927,0,0,1,90.657,291.316Zm0,0" transform="translate(-59.013 -209.384)" fill="#e24333"/>
      <g id="Group_69374" data-name="Group 69374" transform="translate(10.758 2.904)">
        <path id="Path_126901" data-name="Path 126901" d="M364.2,264.539a2.165,2.165,0,0,1-1.19-.356l-12.238-8.006a2.177,2.177,0,0,1,2.383-3.644l12.239,8.006a2.178,2.178,0,0,1-1.194,4Zm0,0" transform="translate(-262.164 -184.156)" fill="#87e5e8"/>
        <path id="Path_126902" data-name="Path 126902" d="M406.127,181.047a2.178,2.178,0,0,1-1.919-3.2l21.163-39.739a2.178,2.178,0,1,1,3.844,2.047l-21.164,39.74A2.176,2.176,0,0,1,406.127,181.047Zm0,0" transform="translate(-301.098 -101.338)" fill="#87e5e8"/>
        <path id="Path_126903" data-name="Path 126903" d="M416.72,14.678H404.243a2.177,2.177,0,0,1,0-4.354H416.72a2.177,2.177,0,1,1,0,4.354Zm0,0" transform="translate(-299.743 -10.324)" fill="#87e5e8"/>
        <path id="Path_126904" data-name="Path 126904" d="M368.548,14.678h-3.5a2.177,2.177,0,1,1,0-4.354h3.5a2.177,2.177,0,1,1,0,4.354Zm0,0" transform="translate(-271.569 -10.324)" fill="#87e5e8"/>
        <path id="Path_126905" data-name="Path 126905" d="M419.039,74.549h-8.932a2.177,2.177,0,1,1,0-4.354h8.932a2.177,2.177,0,1,1,0,4.354Zm0,0" transform="translate(-303.957 -53.357)" fill="#87e5e8"/>
        <path id="Path_126906" data-name="Path 126906" d="M384.557,74.549h-2.508a2.177,2.177,0,1,1,0-4.354h2.508a2.177,2.177,0,1,1,0,4.354Zm0,0" transform="translate(-283.79 -53.357)" fill="#87e5e8"/>
        <path id="Path_126907" data-name="Path 126907" d="M49.358,469.9H40.427a2.177,2.177,0,0,1,0-4.355h8.931a2.177,2.177,0,0,1,0,4.355Zm0,0" transform="translate(-38.25 -337.516)" fill="#87e5e8"/>
        <path id="Path_126908" data-name="Path 126908" d="M111.623,469.9H96.486a2.177,2.177,0,0,1,0-4.355h15.137a2.177,2.177,0,0,1,0,4.355Zm0,0" transform="translate(-78.542 -337.516)" fill="#87e5e8"/>
      </g>
      <path id="Path_126909" data-name="Path 126909" d="M464.325,2.027V8.135a2.024,2.024,0,0,1-2.024,2.026H456.19a2.026,2.026,0,0,1-2.026-2.026V2.027A2.026,2.026,0,0,1,456.19,0H462.3a2.024,2.024,0,0,1,2.024,2.027Zm0,0" transform="translate(-326.43)" fill="#75dbad"/>
      <path id="Path_126910" data-name="Path 126910" d="M454.705,67.027v3.222a2.026,2.026,0,0,1-2.026,2.027h-3.222a2.026,2.026,0,0,1-2.024-2.027V67.027A2.026,2.026,0,0,1,449.457,65h3.222A2.026,2.026,0,0,1,454.705,67.027Zm0,0" transform="translate(-321.593 -46.719)" fill="#75dbad"/>
      <path id="Path_126911" data-name="Path 126911" d="M27.4,462.382V465.6a2.026,2.026,0,0,1-2.024,2.026H22.156a2.027,2.027,0,0,1-2.027-2.026v-3.222a2.027,2.027,0,0,1,2.027-2.027h3.222A2.026,2.026,0,0,1,27.4,462.382Zm0,0" transform="translate(-14.468 -330.88)" fill="#75dbad"/>
      <path id="Path_126912" data-name="Path 126912" d="M97.013,423.453H85.724a2.177,2.177,0,0,1,0-4.355H97.013a2.177,2.177,0,0,1,0,4.355Zm0,0" transform="translate(-60.049 -301.226)" fill="#87e5e8"/>
      <path id="Path_126913" data-name="Path 126913" d="M156.914,423.453h-4.687a2.177,2.177,0,0,1,0-4.355h4.687a2.177,2.177,0,0,1,0,4.355Zm0,0" transform="translate(-107.849 -301.226)" fill="#87e5e8"/>
      <path id="Path_126914" data-name="Path 126914" d="M192.453,131.324a9,9,0,1,1-9-9A9,9,0,0,1,192.453,131.324Zm0,0" transform="translate(-125.388 -87.921)" fill="#76b1cb"/>
      <path id="Path_126915" data-name="Path 126915" d="M18,341.9a9,9,0,1,1-9-9A9,9,0,0,1,18,341.9Zm0,0" transform="translate(0 -239.274)" fill="#76b1cb"/>
      <path id="Path_126916" data-name="Path 126916" d="M181.131,131.324a9,9,0,0,1,5.661-8.358,9,9,0,1,0,0,16.716A9,9,0,0,1,181.131,131.324Zm0,0" transform="translate(-125.388 -87.921)" fill="#5ba1ba"/>
      <path id="Path_126917" data-name="Path 126917" d="M6.677,341.9a9,9,0,0,1,5.661-8.357,9,9,0,1,0,0,16.715A9,9,0,0,1,6.677,341.9Zm0,0" transform="translate(0 -239.274)" fill="#5ba1ba"/>
      <path id="Path_126918" data-name="Path 126918" d="M483.806,123.71a5.516,5.516,0,1,1-5.516-5.515A5.516,5.516,0,0,1,483.806,123.71Zm0,0" transform="translate(-339.806 -84.953)" fill="#76b1cb"/>
      <path id="Path_126919" data-name="Path 126919" d="M477.224,122.549a5.5,5.5,0,0,1,2.021-4.266,5.513,5.513,0,1,0,2.539,9.694A5.516,5.516,0,0,1,477.224,122.549Zm0,0" transform="translate(-339.806 -84.953)" fill="#5ba1ba"/>
      <path id="Path_126920" data-name="Path 126920" d="M397.1,278.547a5.516,5.516,0,1,1-5.516-5.516A5.516,5.516,0,0,1,397.1,278.547Zm0,0" transform="translate(-277.485 -196.241)" fill="#76b1cb"/>
      <path id="Path_126921" data-name="Path 126921" d="M390.566,276.225a5.481,5.481,0,0,1,1.024-3.193h-.009a5.516,5.516,0,1,0,4.492,8.71A5.517,5.517,0,0,1,390.566,276.225Zm0,0" transform="translate(-277.485 -196.241)" fill="#5ba1ba"/>
      <path id="Path_126922" data-name="Path 126922" d="M81.078,415.932v3.222a2.026,2.026,0,0,1-2.024,2.027H75.832a2.027,2.027,0,0,1-2.027-2.027v-3.222a2.027,2.027,0,0,1,2.027-2.026h3.222A2.025,2.025,0,0,1,81.078,415.932Zm0,0" transform="translate(-53.047 -297.495)" fill="#75dbad"/>
    </g>
    <rect id="Rectangle_7966" data-name="Rectangle 7966" width="180" height="220" rx="24" transform="translate(320 6423)" fill="none"/>
  </g>
</svg>
