<svg xmlns="http://www.w3.org/2000/svg" width="180" height="220" viewBox="0 0 180 220">
  <g id="Group_69458" data-name="Group 69458" transform="translate(-1200 -6423)">
    <g id="bulb" transform="translate(1225.514 6461.204)">
      <path id="Path_126829" data-name="Path 126829" d="M41.856,76.532a9.556,9.556,0,0,0,9.556-9.556V64.825H32.3v2.143a9.556,9.556,0,0,0,9.556,9.564Z" transform="translate(25.637 64.087)" fill="#9297ab"/>
      <path id="Path_126830" data-name="Path 126830" d="M42.372,78.065A10.6,10.6,0,0,1,31.8,67.483V64.325H52.945v3.16A10.6,10.6,0,0,1,42.372,78.065ZM33.833,66.356v1.126a8.548,8.548,0,0,0,17.1,0V66.356Z" transform="translate(25.12 63.57)" fill="#323c6b"/>
      <path id="Path_126831" data-name="Path 126831" d="M26.748,51.435H68.44V71.824a8.584,8.584,0,0,1-8.584,8.584H35.33a8.584,8.584,0,0,1-8.584-8.584V51.435h0Z" transform="translate(19.899 50.252)" fill="#9297ab"/>
      <path id="Path_126832" data-name="Path 126832" d="M54.627,51.43V71.823a8.6,8.6,0,0,1-8.582,8.6H40.11a8.6,8.6,0,0,0,8.58-8.6V51.43Z" transform="translate(33.706 50.247)" fill="#84879c"/>
      <g id="Group_69371" data-name="Group 69371" transform="translate(7.486 2.796)">
        <path id="Path_126833" data-name="Path 126833" d="M26.747,55.671H68.441V57.7H26.747Z" transform="translate(12.414 51.833)" fill="#323c6b"/>
        <path id="Path_126834" data-name="Path 126834" d="M26.747,60.449H68.441v2.033H26.747Z" transform="translate(12.414 56.769)" fill="#323c6b"/>
        <path id="Path_126835" data-name="Path 126835" d="M0,0H2.033V11.656H0Z" transform="translate(23.594 0.838) rotate(-24.335)" fill="#323c6b"/>
        <path id="Path_126836" data-name="Path 126836" d="M0,0H2.033V11.656H0Z" transform="matrix(0.629, -0.777, 0.777, 0.629, 8.168, 13.346)" fill="#323c6b"/>
        <path id="Path_126837" data-name="Path 126837" d="M0,0H2.031V11.656H0Z" transform="translate(0 31.42) rotate(-77.701)" fill="#323c6b"/>
        <path id="Path_126838" data-name="Path 126838" d="M0,0H11.656V2.033H0Z" transform="translate(89.747 10.628) rotate(-65.665)" fill="#323c6b"/>
        <path id="Path_126839" data-name="Path 126839" d="M0,0H11.656V2.033H0Z" transform="matrix(0.777, -0.629, 0.629, 0.777, 101.449, 19.078)" fill="#323c6b"/>
        <path id="Path_126840" data-name="Path 126840" d="M0,0H11.656V2.031H0Z" transform="translate(108.179 31.929) rotate(-12.299)" fill="#323c6b"/>
        <path id="Path_126841" data-name="Path 126841" d="M35.34,44.673h8.576v2.033H35.34Z" transform="translate(21.292 40.47)" fill="#323c6b"/>
        <path id="Path_126842" data-name="Path 126842" d="M35.34,15.125h8.576v2.033H35.34Z" transform="translate(21.292 9.942)" fill="#323c6b"/>
      </g>
      <path id="Path_126843" data-name="Path 126843" d="M63.953,20.424A15.633,15.633,0,0,1,76.028,34.991a8.647,8.647,0,0,1-.185,2.017A15.515,15.515,0,0,1,82.39,49.475,15.125,15.125,0,0,1,77.2,60.753a14.519,14.519,0,0,1,1.976,7.319,15.611,15.611,0,0,1-9.853,14.1c-.773,8.708-8.926,15.535-18.839,15.535h-.138a11.811,11.811,0,0,1-12.03-11.351V13.131c.787-4.392,4.52-6.429,9.5-6.38,9.757.663,14.124,8.312,16.133,13.673Z" transform="translate(31.854 4.085)" fill="#fcd462"/>
      <path id="Path_126844" data-name="Path 126844" d="M52.659,48a17.752,17.752,0,0,0,5.53-3.8,16.847,16.847,0,0,1-9.17,12.463A15.6,15.6,0,0,0,52.659,48Z" transform="translate(42.912 42.777)" fill="#f7be56"/>
      <path id="Path_126845" data-name="Path 126845" d="M76.977,60.751a14.612,14.612,0,0,1,1.972,7.319,15.485,15.485,0,0,1-8.926,13.683,14.436,14.436,0,0,0,1.342-16.489A15.123,15.123,0,0,0,76.55,53.981,15.466,15.466,0,0,0,70,41.518a8.155,8.155,0,0,0,.183-2.013A15.621,15.621,0,0,0,58.109,24.927c-1.993-5.368-6.364-13.012-16.123-13.663a14.332,14.332,0,0,0-3.456.346c1.3-3.334,4.7-4.9,9.068-4.859,9.759.671,14.131,8.316,16.143,13.683A15.6,15.6,0,0,1,75.8,34.991,8.164,8.164,0,0,1,75.615,37a15.5,15.5,0,0,1,6.547,12.463,15.123,15.123,0,0,1-5.185,11.284Z" transform="translate(32.074 4.085)" fill="#f7be56"/>
      <path id="Path_126846" data-name="Path 126846" d="M48.4,37.456a1.017,1.017,0,0,1-.777-1.675,13.309,13.309,0,0,1,10.135-5.471c6.16,0,10.668,5.248,10.855,5.471a1.017,1.017,0,0,1-1.551,1.313c-.041-.047-4.1-4.752-9.3-4.752h-.012a11.4,11.4,0,0,0-8.57,4.749A1.017,1.017,0,0,1,48.4,37.456Z" transform="translate(41.218 28.426)" fill="#323c6b"/>
      <path id="Path_126847" data-name="Path 126847" d="M55.883,36.129a1.017,1.017,0,0,1-.333-.055,12.722,12.722,0,0,1-7.738-8.049,1.017,1.017,0,1,1,1.968-.514,10.843,10.843,0,0,0,6.437,6.644,1.017,1.017,0,0,1-.335,1.976Z" transform="translate(41.628 24.749)" fill="#323c6b"/>
      <path id="Path_126848" data-name="Path 126848" d="M46.911,16.428a1.017,1.017,0,0,1-.464-1.921,14.694,14.694,0,0,1,9.971-1.332,1.017,1.017,0,1,1-.547,1.958,12.894,12.894,0,0,0-8.5,1.189,1.017,1.017,0,0,1-.46.106Z" transform="translate(39.682 10.368)" fill="#323c6b"/>
      <path id="Path_126849" data-name="Path 126849" d="M59.817,47.595a15.885,15.885,0,0,1-12.333-4.688,1.017,1.017,0,0,1,1.5-1.372C50.7,43.413,54,45.655,60.124,45.56h.012a1.017,1.017,0,0,1,.012,2.033Z" transform="translate(41.049 39.681)" fill="#323c6b"/>
      <circle id="Ellipse_4494" data-name="Ellipse 4494" cx="4.284" cy="4.284" r="4.284" transform="translate(78.635 23.673)" fill="#e1e6e9"/>
      <path id="Path_126850" data-name="Path 126850" d="M47.28,23.165a5.3,5.3,0,1,1,5.3-5.3A5.3,5.3,0,0,1,47.28,23.165Zm0-8.566a3.267,3.267,0,1,0,3.267,3.267A3.267,3.267,0,0,0,47.28,14.6Z" transform="translate(35.638 10.092)" fill="#323c6b"/>
      <circle id="Ellipse_4495" data-name="Ellipse 4495" cx="4.284" cy="4.284" r="4.284" transform="translate(85.147 44.078)" fill="#e1e6e9"/>
      <path id="Path_126851" data-name="Path 126851" d="M50.48,33.2a5.3,5.3,0,1,1,5.307-5.3A5.3,5.3,0,0,1,50.48,33.2Zm0-8.566A3.267,3.267,0,1,0,53.754,27.9a3.267,3.267,0,0,0-3.273-3.267Z" transform="translate(38.95 20.46)" fill="#323c6b"/>
      <circle id="Ellipse_4496" data-name="Ellipse 4496" cx="4.284" cy="4.284" r="4.284" transform="translate(82.919 73.866)" fill="#e1e6e9"/>
      <path id="Path_126852" data-name="Path 126852" d="M49.389,47.852a5.3,5.3,0,1,1,5.3-5.3,5.3,5.3,0,0,1-5.3,5.3Zm0-8.566a3.267,3.267,0,1,0,3.265,3.266,3.267,3.267,0,0,0-3.265-3.266Z" transform="translate(37.814 35.598)" fill="#323c6b"/>
      <path id="Path_126853" data-name="Path 126853" d="M32.443,20.424A15.633,15.633,0,0,0,20.368,34.991a8.647,8.647,0,0,0,.185,2.017,15.515,15.515,0,0,0-6.547,12.467,15.125,15.125,0,0,0,5.189,11.278,14.519,14.519,0,0,0-1.976,7.319,15.611,15.611,0,0,0,9.853,14.1C27.844,90.879,36,97.706,45.911,97.706h.138a11.811,11.811,0,0,0,12.03-11.351V13.131c-.787-4.392-4.52-6.429-9.5-6.38C38.819,7.413,34.452,15.062,32.443,20.424Z" transform="translate(6.736 4.085)" fill="#fcd462"/>
      <path id="Path_126854" data-name="Path 126854" d="M20.327,37.472a14.555,14.555,0,0,0-1.972,7.319,13.948,13.948,0,0,0,1,5.2,14.665,14.665,0,0,1-3.761-9.719A14.377,14.377,0,0,1,17.2,33.65a16.032,16.032,0,0,0,3.131,3.822Z" transform="translate(8.373 31.877)" fill="#f7be56"/>
      <path id="Path_126855" data-name="Path 126855" d="M58.048,13.033a11.083,11.083,0,0,0-6.709-1.769c-9.739.651-14.11,8.3-16.123,13.663A15.655,15.655,0,0,0,23.139,39.5a9.269,9.269,0,0,0,.183,2.013,15.521,15.521,0,0,0-6.547,12.463,14.706,14.706,0,0,0,.976,5.286,14.775,14.775,0,0,1-3.741-9.8A15.5,15.5,0,0,1,20.557,37a8.163,8.163,0,0,1-.183-2.013A15.6,15.6,0,0,1,32.431,20.434C34.443,15.066,38.815,7.421,48.574,6.75c4.941-.041,8.641,1.952,9.475,6.282Z" transform="translate(6.74 4.085)" fill="#f7be56"/>
      <path id="Path_126856" data-name="Path 126856" d="M36.514,37.456a1.017,1.017,0,0,1-.777-.36,11.4,11.4,0,0,0-8.57-4.749h-.012c-5.2,0-9.263,4.7-9.3,4.752A1.018,1.018,0,1,1,16.3,35.78c.189-.224,4.695-5.471,10.855-5.471A13.309,13.309,0,0,1,37.29,35.78a1.017,1.017,0,0,1-.775,1.673Z" transform="translate(8.854 28.426)" fill="#323c6b"/>
      <path id="Path_126857" data-name="Path 126857" d="M22.753,36.13a1.017,1.017,0,0,1-.335-1.976,10.843,10.843,0,0,0,6.437-6.644,1.017,1.017,0,0,1,1.968.514,12.722,12.722,0,0,1-7.736,8.049,1.016,1.016,0,0,1-.333.057Z" transform="translate(14.723 24.748)" fill="#323c6b"/>
      <path id="Path_126858" data-name="Path 126858" d="M32.771,16.426a1.017,1.017,0,0,1-.462-.112,12.738,12.738,0,0,0-8.5-1.191,1.017,1.017,0,0,1-.549-1.95,14.688,14.688,0,0,1,9.963,1.338,1.017,1.017,0,0,1-.464,1.921Z" transform="translate(15.622 10.369)" fill="#323c6b"/>
      <path id="Path_126859" data-name="Path 126859" d="M21.269,47.595h-.333a1.017,1.017,0,0,1,.012-2.033h.319A13.929,13.929,0,0,0,32.1,41.534a1.017,1.017,0,0,1,1.5,1.372,15.887,15.887,0,0,1-12.333,4.688Z" transform="translate(12.852 39.681)" fill="#323c6b"/>
      <circle id="Ellipse_4497" data-name="Ellipse 4497" cx="4.284" cy="4.284" r="4.284" transform="translate(47.783 23.673)" fill="#e1e6e9"/>
      <path id="Path_126860" data-name="Path 126860" d="M32.108,23.165a5.3,5.3,0,1,1,5.3-5.3,5.3,5.3,0,0,1-5.3,5.3Zm0-8.566a3.267,3.267,0,1,0,3.265,3.267A3.267,3.267,0,0,0,32.108,14.6Z" transform="translate(19.96 10.092)" fill="#323c6b"/>
      <circle id="Ellipse_4498" data-name="Ellipse 4498" cx="4.284" cy="4.284" r="4.284" transform="translate(41.271 44.078)" fill="#e1e6e9"/>
      <path id="Path_126861" data-name="Path 126861" d="M28.9,33.2a5.3,5.3,0,1,1,5.3-5.3A5.3,5.3,0,0,1,28.9,33.2Zm0-8.566A3.267,3.267,0,1,0,32.17,27.9,3.267,3.267,0,0,0,28.9,24.634Z" transform="translate(16.65 20.46)" fill="#323c6b"/>
      <circle id="Ellipse_4499" data-name="Ellipse 4499" cx="4.284" cy="4.284" r="4.284" transform="translate(43.499 73.866)" fill="#e1e6e9"/>
      <path id="Path_126862" data-name="Path 126862" d="M30,47.852a5.3,5.3,0,1,1,5.3-5.3,5.3,5.3,0,0,1-5.3,5.3Zm0-8.566a3.267,3.267,0,1,0,3.267,3.267A3.267,3.267,0,0,0,30,39.286Z" transform="translate(17.784 35.598)" fill="#323c6b"/>
      <path id="Path_126863" data-name="Path 126863" d="M44.849,77.176a1.017,1.017,0,0,1-.181-2.017A13.73,13.73,0,0,0,55.851,62.191a1.017,1.017,0,0,1,2.033.069,15.773,15.773,0,0,1-12.846,14.9A.967.967,0,0,1,44.849,77.176Z" transform="translate(37.553 60.35)" fill="#323c6b"/>
      <path id="Path_126864" data-name="Path 126864" d="M50.77,61.428a1.017,1.017,0,0,1-1.017-1.017v-.895a1.017,1.017,0,0,1,2.033,0v.895A1.017,1.017,0,0,1,50.77,61.428Z" transform="translate(43.669 57.552)" fill="#323c6b"/>
      <path id="Path_126865" data-name="Path 126865" d="M25.642,7.587a1.017,1.017,0,0,1-.588-1.846l.213-.155c.222-.159.443-.317.673-.464a1.017,1.017,0,1,1,1.094,1.714c-.2.126-.388.264-.581.407l-.226.161A1.017,1.017,0,0,1,25.642,7.587Z" transform="translate(17.707 2.239)" fill="#323c6b"/>
      <path id="Path_126866" data-name="Path 126866" d="M43.438,7.239a1.017,1.017,0,0,1-.474-.118,16.875,16.875,0,0,0-7.97-1.83l-.565.014A22.3,22.3,0,0,0,28.7,6.47a1.017,1.017,0,1,1-.663-1.921,24.4,24.4,0,0,1,6.3-1.281l.634-.016a18.9,18.9,0,0,1,8.946,2.072,1.017,1.017,0,0,1-.476,1.915Z" transform="translate(20.496 0.468)" fill="#323c6b"/>
      <path id="Path_126867" data-name="Path 126867" d="M51,99.246A12.831,12.831,0,0,1,37.815,86.878V13.647c.854-4.823,4.7-7.46,10.542-7.4C56.083,6.773,61.9,11.561,65.249,20.1a16.672,16.672,0,0,1,12.323,15.4,11.8,11.8,0,0,1-.087,1.588,16.412,16.412,0,0,1,6.451,12.9A16.025,16.025,0,0,1,79,61.471a15.387,15.387,0,0,1,1.726,7.116,16.635,16.635,0,0,1-9.92,14.785C69.661,92.325,61.095,99.246,51,99.246ZM48.127,8.282c-2.759,0-7.429.742-8.289,5.546l.016,73.052a10.757,10.757,0,0,0,11.02,10.335c9.4,0,17.233-6.417,17.959-14.608a1.017,1.017,0,0,1,.61-.844A14.675,14.675,0,0,0,78.682,68.6a13.419,13.419,0,0,0-1.84-6.815,1.017,1.017,0,0,1,.2-1.265A14.116,14.116,0,0,0,81.9,49.994a14.472,14.472,0,0,0-6.134-11.648,1.017,1.017,0,0,1-.384-1.057,7.852,7.852,0,0,0,.157-1.779A14.7,14.7,0,0,0,64.206,21.922a1.017,1.017,0,0,1-.679-.624c-3.05-8.157-8.186-12.534-15.249-13.012Z" transform="translate(31.335 3.568)" fill="#323c6b"/>
      <path id="Path_126868" data-name="Path 126868" d="M46.566,99.244c-10.233,0-18.8-6.913-19.925-15.859A16.635,16.635,0,0,1,16.721,68.6a15.387,15.387,0,0,1,1.726-7.116A16.025,16.025,0,0,1,13.511,50a16.412,16.412,0,0,1,6.451-12.9,11.792,11.792,0,0,1-.087-1.588A16.672,16.672,0,0,1,32.194,20.1c3.345-8.539,9.149-13.332,16.833-13.852h.2c5.795,0,9.556,2.623,10.369,7.216l.016,73.41A12.8,12.8,0,0,1,46.566,99.244Zm2.69-90.962H49.1c-7,.478-12.134,4.855-15.19,13.012a1.017,1.017,0,0,1-.679.624A14.7,14.7,0,0,0,21.9,35.506a7.849,7.849,0,0,0,.157,1.779,1.017,1.017,0,0,1-.384,1.057,14.472,14.472,0,0,0-6.134,11.648,14.116,14.116,0,0,0,4.853,10.524,1.017,1.017,0,0,1,.2,1.265,13.419,13.419,0,0,0-1.84,6.815,14.675,14.675,0,0,0,9.235,13.167,1.017,1.017,0,0,1,.61.844c.726,8.192,8.558,14.608,17.827,14.608A10.792,10.792,0,0,0,57.574,86.878V13.646c-.846-4.619-5.5-5.364-8.318-5.364Z" transform="translate(6.225 3.57)" fill="#323c6b"/>
      <path id="Path_126869" data-name="Path 126869" d="M60.375,81.941H35.847a9.611,9.611,0,0,1-9.6-9.6V50.935H69.973V72.34A9.611,9.611,0,0,1,60.375,81.941ZM28.281,52.968V72.342a7.576,7.576,0,0,0,7.567,7.567H60.375a7.576,7.576,0,0,0,7.567-7.567V52.968Z" transform="translate(19.382 49.736)" fill="#323c6b"/>
      <path id="Path_126870" data-name="Path 126870" d="M33.153,28.668a1.315,1.315,0,0,1,1.317,1.311L34.5,43.846a1.314,1.314,0,1,1-2.629,0l-.026-13.866a1.315,1.315,0,0,1,1.311-1.311Z" transform="translate(25.164 26.73)" fill="#fff"/>
      <path id="Path_126871" data-name="Path 126871" d="M33.148,26.243a1.315,1.315,0,0,1,1.317,1.311v.689a1.314,1.314,0,0,1-2.629,0v-.689A1.315,1.315,0,0,1,33.148,26.243Z" transform="translate(25.159 24.225)" fill="#fff"/>
    </g>
    <rect id="Rectangle_7963" data-name="Rectangle 7963" width="180" height="220" rx="24" transform="translate(1200 6423)" fill="none"/>
  </g>
</svg>
