<svg xmlns="http://www.w3.org/2000/svg" width="180" height="220" viewBox="0 0 180 220">
  <g id="Group_69457" data-name="Group 69457" transform="translate(-760 -6423)">
    <g id="_018---Complete-Agile-Process" data-name="018---Complete-Agile-Process" transform="translate(789.003 6473)">
      <path id="Path" d="M51.3,33.365l6.3-10.408a1.94,1.94,0,0,1,3.345,0l6.308,10.42a2.029,2.029,0,0,1-1.655,3.1H52.98A2.038,2.038,0,0,1,51.3,33.365Z" transform="translate(53.434 23.513)" fill="#8a92a0"/>
      <path id="Path-2" data-name="Path" d="M17.257,32.116l-6.3,10.408a1.941,1.941,0,0,1-3.345,0L1.305,32.1A2.029,2.029,0,0,1,2.96,29H15.58a2.038,2.038,0,0,1,1.678,3.116Z" transform="translate(0 30.994)" fill="#8a92a0"/>
      <rect id="Rectangle" width="24.825" height="16.55" rx="2" transform="translate(11.347 93.094)" fill="#e0293c"/>
      <rect id="Rectangle-2" data-name="Rectangle" width="24.825" height="16.55" rx="2" transform="translate(15.484 10.344)" fill="#f9ad2f"/>
      <rect id="Rectangle-3" data-name="Rectangle" width="24.825" height="16.55" rx="2" transform="translate(83.754 12.413)" fill="#ffa334"/>
      <rect id="Rectangle-4" data-name="Rectangle" width="24.825" height="16.55" rx="2" transform="translate(1.003 35.169)" fill="#ffc436"/>
      <rect id="Rectangle-5" data-name="Rectangle" width="24.825" height="16.55" rx="2" transform="translate(106.51 109.644) rotate(180)" fill="#ff526f"/>
      <rect id="Rectangle-6" data-name="Rectangle" width="24.825" height="16.55" rx="2" transform="translate(120.991 84.819) rotate(180)" fill="#f7912a"/>
      <rect id="Rectangle-7" data-name="Rectangle" width="24.825" height="16.55" rx="2" transform="translate(48.585 103.438)" fill="#f33a4d"/>
      <rect id="Rectangle-8" data-name="Rectangle" width="24.825" height="16.55" rx="2" transform="translate(48.585)" fill="#ffac54"/>
      <circle id="Oval" cx="26.894" cy="26.894" r="26.894" transform="translate(34.103 33.1)" fill="#8ad256"/>
      <path id="Path-3" data-name="Path" d="M31.193,44.688a2.069,2.069,0,0,1-1.463-.606l-4.138-4.138a2.069,2.069,0,0,1,2.925-2.925L30.97,39.47,41.951,24.828a2.069,2.069,0,0,1,3.31,2.483L32.848,43.86a2.069,2.069,0,0,1-1.508.828Z" transform="translate(25.666 25.65)" fill="#fff"/>
      <g id="Group_69373" data-name="Group 69373" transform="translate(7.209 7.716)">
        <path id="Path-4" data-name="Path" d="M16.835,13.053a2.12,2.12,0,0,1-.476,1.324,45.784,45.784,0,0,0-4.82,6.951H7.07a2.139,2.139,0,0,1,.248-.993A49.069,49.069,0,0,1,12.2,12.95a4.423,4.423,0,0,0,.931.1Z" transform="translate(-0.719 6.124)" fill="#79818f"/>
        <path id="Path-5" data-name="Path" d="M48.847,8.757A4.2,4.2,0,0,0,46.406,11.9a.294.294,0,0,1-.124-.041A47.693,47.693,0,0,0,36,7.93V3.73a2.04,2.04,0,0,1,.5.062A52.133,52.133,0,0,1,48.185,8.178,1.794,1.794,0,0,1,48.847,8.757Z" transform="translate(30.2 -3.73)" fill="#79818f"/>
        <path id="Path-6" data-name="Path" d="M57.068,24.148a2.019,2.019,0,0,1-.91.207A2.069,2.069,0,0,1,54.3,23.2a50.424,50.424,0,0,0-4.882-7.944A2.129,2.129,0,0,1,49,14.011h4.138a3.2,3.2,0,0,0,.455-.021,53.673,53.673,0,0,1,4.427,7.385A2.081,2.081,0,0,1,57.068,24.148Z" transform="translate(44.094 7.235)" fill="#79818f"/>
        <path id="Path-7" data-name="Path" d="M29.141,3.73v4.2a44.462,44.462,0,0,0-7.779,2.731,2.251,2.251,0,0,1-.5.145v-.31a4.094,4.094,0,0,0-1.676-3.31,2.116,2.116,0,0,1,.455-.29,48.893,48.893,0,0,1,9.02-3.1,2,2,0,0,1,.476-.062Z" transform="translate(12.235 -3.73)" fill="#79818f"/>
        <path id="Path-8" data-name="Path" d="M8.8,25a1.893,1.893,0,0,1-.021.331,48.409,48.409,0,0,0-.641,7.944H4A52.708,52.708,0,0,1,4.641,25Z" transform="translate(-4 19.003)" fill="#79818f"/>
        <path id="Path-9" data-name="Path" d="M57.975,41a2.139,2.139,0,0,1-.248.993,49.068,49.068,0,0,1-4.882,7.385,4.423,4.423,0,0,0-.931-.1h-3.7a2.121,2.121,0,0,1,.476-1.324A45.782,45.782,0,0,0,53.506,41Z" transform="translate(43.25 36.103)" fill="#79818f"/>
        <path id="Path-10" data-name="Path" d="M30.669,54.7v4.2a2.04,2.04,0,0,1-.5-.062A54.46,54.46,0,0,1,17.76,54.1a4.2,4.2,0,0,0,.5-1.965V49.94a2.139,2.139,0,0,1,.993.248,48.823,48.823,0,0,0,11.42,4.51Z" transform="translate(10.706 45.657)" fill="#79818f"/>
        <path id="Path-11" data-name="Path" d="M17.424,51.415h-4.7a52.052,52.052,0,0,1-5.979-9.434,2.072,2.072,0,0,1,3.724-1.821,49.634,49.634,0,0,0,6.455,9.93,2.069,2.069,0,0,1,.5,1.324Z" transform="translate(-1.287 33.963)" fill="#79818f"/>
        <path id="Path-12" data-name="Path" d="M45.951,54.47a2.116,2.116,0,0,1-.455.29,48.893,48.893,0,0,1-9.02,3.1,1.764,1.764,0,0,1-.476.062v-4.2a44.461,44.461,0,0,0,7.779-2.731,2.251,2.251,0,0,1,.5-.145v.31A4.094,4.094,0,0,0,45.951,54.47Z" transform="translate(30.2 46.63)" fill="#79818f"/>
        <path id="Path-13" data-name="Path" d="M58.48,29a52.708,52.708,0,0,1-.641,8.275H53.68a1.893,1.893,0,0,1,.021-.331A48.411,48.411,0,0,0,54.342,29Z" transform="translate(49.096 23.278)" fill="#79818f"/>
      </g>
    </g>
    <rect id="Rectangle_7965" data-name="Rectangle 7965" width="180" height="220" rx="24" transform="translate(760 6423)" fill="none"/>
  </g>
</svg>
