<svg xmlns="http://www.w3.org/2000/svg" xmlns:xlink="http://www.w3.org/1999/xlink" width="220" height="60" viewBox="0 0 220 60">
  <defs>
    <clipPath id="clip-_02">
      <rect width="220" height="60"/>
    </clipPath>
  </defs>
  <g id="_02" data-name="02" clip-path="url(#clip-_02)">
    <rect width="220" height="60" fill="#fff"/>
    <g id="heatmiser-logo" transform="translate(40 0.482)">
      <path id="Path_25404" data-name="Path 25404" d="M1736.208-631.809a9.59,9.59,0,0,0-2.265.8,7.868,7.868,0,0,0-4.235,5.847,12.485,12.485,0,0,0,0,3.323,7.427,7.427,0,0,0,4.013,5.317,9.239,9.239,0,0,0,7.576.1,7.19,7.19,0,0,0,4.056-5.41,10.563,10.563,0,0,0-.265-3.914,5.837,5.837,0,0,0-3.927-4.08c-.855-.265-1.44-.283-.813-.024a9.707,9.707,0,0,1,1.778,1.169,6.021,6.021,0,0,1,1.84,2.856,6.834,6.834,0,0,1-.462,4.3,6.759,6.759,0,0,1-3.188,3.225,5.55,5.55,0,0,1-2.511.6,6.164,6.164,0,0,1-1.44-.068,6.052,6.052,0,0,1-4.93-5.071,10.573,10.573,0,0,1,0-2.72,6.653,6.653,0,0,1,5.816-5.884,7.1,7.1,0,0,1,1.5-.074,3.893,3.893,0,0,0,.862-.013,3.77,3.77,0,0,0-1.065-.308,9.919,9.919,0,0,0-2.338.03Z" transform="translate(-1623.152 631.893)" fill="#666"/>
      <path id="Path_25405" data-name="Path 25405" d="M1819.446-579.921a6.716,6.716,0,0,0-2.191,1.662,6.539,6.539,0,0,0-1.256,4.291,3.448,3.448,0,0,0,.35,1.933A2.651,2.651,0,0,0,1819-570.8a2.649,2.649,0,0,0,2.21-3.018,6.2,6.2,0,0,0-.683-2.185c-.212-.476-.443-1.04-.511-1.262a3.828,3.828,0,0,1-.08-2.462,3.786,3.786,0,0,0,.129-.357C1820.061-580.137,1819.784-580.063,1819.446-579.921Z" transform="translate(-1704.235 583.286)" fill="#666"/>
      <path id="Path_25406" data-name="Path 25406" d="M0-426.768v13.232H5.416v-14.457l.511-.406a6.584,6.584,0,0,1,1.889-1.112c1.686-.635,3.01-.314,3.543.847l.178.388.019,7.367.013,7.373h5.665v-6.573c0-3.613-.031-7.094-.061-7.735-.172-3.329-.9-4.93-2.609-5.761A4.863,4.863,0,0,0,12-434.06a6.274,6.274,0,0,0-2.647.412,8.615,8.615,0,0,0-3.6,2.492l-.338.394V-440H0Z" transform="translate(0 451.809)" fill="#666"/>
      <path id="Path_25407" data-name="Path 25407" d="M1020.37-439.976c0,.018-.4,1.5-.892,3.3s-.892,3.282-.892,3.3-.578.024-1.292.024H1016v3.077h2.339v5.2c0,5.478.018,5.884.283,7.108a5.334,5.334,0,0,0,2.944,4.092A10.7,10.7,0,0,0,1028.7-414l.412-.159V-417.4l-.554.178a6.36,6.36,0,0,1-2.308.345,2.088,2.088,0,0,1-1.5-.5,2.507,2.507,0,0,1-.714-1.324c-.117-.443-.123-.72-.142-6.019l-.024-5.551h5.241v-3.077h-5.231V-440h-1.754C1021.157-440,1020.37-439.987,1020.37-439.976Z" transform="translate(-953.471 451.809)" fill="#666"/>
      <path id="Path_25408" data-name="Path 25408" d="M347.818-345.422a8.643,8.643,0,0,0-8.056,6.154,12.64,12.64,0,0,0-.591,5.053,13.735,13.735,0,0,0,.159,2.567,8.536,8.536,0,0,0,2.2,4.511,8.2,8.2,0,0,0,3.828,2.265,18.212,18.212,0,0,0,8.418.068,9.011,9.011,0,0,0,2.745-1.071l.29-.191V-329.4l-.781.326a14.044,14.044,0,0,1-7.81,1.04,4.529,4.529,0,0,1-2.894-2.468,7.153,7.153,0,0,1-.578-2.708v-.517h13.473l.043-.142a19.314,19.314,0,0,0-.061-3.367c-.64-4.712-3.2-7.509-7.422-8.087a16.632,16.632,0,0,0-2.965-.1Zm2.425,3.41a3.848,3.848,0,0,1,1.594,1.108,6.893,6.893,0,0,1,1.274,3.582l.05.64h-8.346v-.3a8.547,8.547,0,0,1,.246-1.7,4.552,4.552,0,0,1,2.369-3.225A4.279,4.279,0,0,1,350.243-342.012Z" transform="translate(-318.289 363.079)" fill="#666"/>
      <path id="Path_25409" data-name="Path 25409" d="M2228.537-345.756a9.82,9.82,0,0,0-4.123,1.145,9.342,9.342,0,0,0-4.462,7.022,33.458,33.458,0,0,0,0,5.207,8.992,8.992,0,0,0,1.76,4.341,9.25,9.25,0,0,0,6.579,3.274,26.158,26.158,0,0,0,4.216-.037,11.791,11.791,0,0,0,4.7-1.4l.259-.166v-3.379l-.511.24a15.93,15.93,0,0,1-7.053,1.3c-2.733-.283-4.271-2.074-4.474-5.2l-.043-.659h13.54l.043-.326a18.752,18.752,0,0,0-.053-2.96,9.851,9.851,0,0,0-2.462-5.876,8.492,8.492,0,0,0-5.927-2.53A9.278,9.278,0,0,0,2228.537-345.756Zm1.939,3.287a3.412,3.412,0,0,1,1.778.973,5.131,5.131,0,0,1,.646.8,8.2,8.2,0,0,1,.9,3.163l.043.511h-8.4l.043-.48a7.287,7.287,0,0,1,1.182-3.593,3.752,3.752,0,0,1,3.8-1.372Z" transform="translate(-2083.232 363.417)" fill="#666"/>
      <path id="Path_25410" data-name="Path 25410" d="M2598.63-344.586a5.094,5.094,0,0,0-1.6.549,3.937,3.937,0,0,0-1.175.9,5.828,5.828,0,0,0-1.287,1.73l-.216.424v-3.229H2589v20.187h5.354v-14.29l.2-.375a3.075,3.075,0,0,1,1.311-1.286,2.667,2.667,0,0,1,1.8-.142,1.885,1.885,0,0,1,1.151,1.625l.043.314h4.917l-.019-1.865-.024-1.865-.24-.486a4.078,4.078,0,0,0-1.759-1.742,5.756,5.756,0,0,0-.923-.349,8.706,8.706,0,0,0-2.185-.1Z" transform="translate(-2429.662 362.297)" fill="#666"/>
      <path id="Path_25411" data-name="Path 25411" d="M2852.1-344.682a2.357,2.357,0,0,0-1.354,1.237,1.641,1.641,0,0,0-.166.923,2.142,2.142,0,0,0,1.243,2.074,1.656,1.656,0,0,0,1.028.2,1.657,1.657,0,0,0,1.028-.2,2.3,2.3,0,0,0,1.226-1.641,2.306,2.306,0,0,0-.568-1.97,1.922,1.922,0,0,0-1.594-.688,2.778,2.778,0,0,0-.844.068Zm1.422.406a1.893,1.893,0,0,1,1.009.973,2.055,2.055,0,0,1,.031,1.563,1.862,1.862,0,0,1-1.335,1.088,1.861,1.861,0,0,1-1.656-.473,2.471,2.471,0,0,1-.4-.535,2.2,2.2,0,0,1-.031-1.641,1.9,1.9,0,0,1,2.383-.973Z" transform="translate(-2675.142 362.424)" fill="#666"/>
      <path id="Path_25412" data-name="Path 25412" d="M2874-328.65v1.354h.371v-1.169h.24c.234,0,.247.013.61.582s.387.582.6.582c.116,0,.215-.013.215-.031a6.429,6.429,0,0,0-.375-.591,4.841,4.841,0,0,1-.349-.572l.185-.086a.778.778,0,0,0,.333-1.015c-.135-.326-.375-.412-1.175-.412H2874Zm1.342-.886a.324.324,0,0,1,.134.3c0,.3-.172.4-.688.4h-.419v-.8h.419a1.032,1.032,0,0,1,.554.1Z" transform="translate(-2697.123 348.583)" fill="#666"/>
      <path id="Path_25413" data-name="Path 25413" d="M699.54-343.742a16.019,16.019,0,0,0-4.961,1.2l-.394.185v3.441l.357-.159a16.129,16.129,0,0,1,3.089-1.034c3.294-.726,5.576.024,5.908,1.939a8.818,8.818,0,0,1,.05,1.271l-.018.873-.363-.24a6.354,6.354,0,0,0-1.822-.714,14.2,14.2,0,0,0-3.089-.092,11.011,11.011,0,0,0-3.459.911c-2.567,1.28-3.754,3.68-3.49,7.053.216,2.769,1.1,4.468,2.837,5.416a7.315,7.315,0,0,0,3.908.7,8.851,8.851,0,0,0,2.634-.382,8.045,8.045,0,0,0,1.547-.769,5.891,5.891,0,0,0,1.165-1.194l.2-.314.092,1.2.092,1.2,2.573.014,2.572.013-.024-7.09c-.024-7.644-.024-7.624-.357-8.967-.635-2.541-2.141-3.853-5.009-4.351a32.943,32.943,0,0,0-4.035-.106Zm1.619,9.588c1.662.318,2.462,1.6,2.455,3.945a3.635,3.635,0,0,1-.886,2.769,3.682,3.682,0,0,1-3.3.874,2.8,2.8,0,0,1-2.382-2.111,7.881,7.881,0,0,1-.1-2.363c.2-1.686.9-2.683,2.16-3.04a4.591,4.591,0,0,1,2.05-.074Z" transform="translate(-648.766 361.496)" fill="#666"/>
      <path id="Path_25414" data-name="Path 25414" d="M1287.506-343.74a7.108,7.108,0,0,0-3.532,1.686,8.047,8.047,0,0,0-1.256,1.422c-.092.135-.106.053-.209-1.342l-.11-1.49H1277v20.187h5.665l.013-7.336.019-7.336.517-.412a4.605,4.605,0,0,1,3.576-1.165,2.2,2.2,0,0,1,1.9,1.686c.092.277.106,1.112.116,7.435l.024,7.127h5.533V-337.3l.246-.371a5.223,5.223,0,0,1,1.575-1.44,3.566,3.566,0,0,1,3.077-.135,2.607,2.607,0,0,1,1.01,1.01c.308.6.308.582.308,8.013v6.942H1306l-.018-7.984-.018-7.989-.166-.609a5.144,5.144,0,0,0-3.588-3.766,4.961,4.961,0,0,0-1.429-.191,7.385,7.385,0,0,0-5.4,1.723,5,5,0,0,0-1.145,1.477l-.228.43-.074-.24a7.4,7.4,0,0,0-.357-.794,3.9,3.9,0,0,0-.874-1.145,3.339,3.339,0,0,0-1.169-.88,4.8,4.8,0,0,0-2.523-.56,7.672,7.672,0,0,0-1.5.065Z" transform="translate(-1198.408 361.549)" fill="#666"/>
      <path id="Path_25415" data-name="Path 25415" d="M1957.882-343.513c-3.484.271-5.594,1.73-6.271,4.341a5.641,5.641,0,0,0-.15,1.785,10.5,10.5,0,0,0,.08,1.6c.486,2.228,1.606,3.219,4.967,4.4,2.2.769,3.41,1.482,3.785,2.21a2.7,2.7,0,0,1,.025,1.569,2.569,2.569,0,0,1-1.218,1.237,4.954,4.954,0,0,1-2.714.486,7.389,7.389,0,0,1-1.939-.142,13.886,13.886,0,0,1-2.763-.929c-.35-.172-.647-.308-.659-.308s-.025.818-.025,1.815v1.815l.234.117a11.1,11.1,0,0,0,2.936.757,34.939,34.939,0,0,0,5.262-.031c3.9-.6,5.668-2.488,5.828-6.2a6.587,6.587,0,0,0-.7-3.619,5.971,5.971,0,0,0-2.326-2.086,16.467,16.467,0,0,0-2.886-1.034c-2.445-.749-3.046-1.028-3.4-1.557a1.847,1.847,0,0,1-.106-1.717c.455-.917,2.118-1.459,3.971-1.305a10.954,10.954,0,0,1,3.514.862l.542.24V-342.4l-.2-.123a11.276,11.276,0,0,0-5.783-.988Z" transform="translate(-1830.927 361.291)" fill="#666"/>
      <path id="Path_25416" data-name="Path 25416" d="M1816-327.907v10.093h5.231V-338H1816Z" transform="translate(-1704.236 356.086)" fill="#666"/>
    </g>
  </g>
</svg>
