<svg xmlns="http://www.w3.org/2000/svg" width="143.602" height="144" viewBox="0 0 143.602 144">
    <g>
        <path d="M408.973 57.137l-18.474-9.8-2.25 4.241 19 10.078a2.4 2.4 0 0 0 1.125.28h12v-4.8z" transform="translate(-16.662 -16) translate(-260.111 -21.937)"/>
        <path d="M259.584 59.21l-14.43 1.312a21.7 21.7 0 0 1-18.011-7.061l-7.466-8.3a7.2 7.2 0 0 1-.325-9.244L232.07 44.4a2.4 2.4 0 1 0 2.663-3.994l-14.4-9.6a2.4 2.4 0 0 0-1.335-.4H192.6A11.813 11.813 0 0 1 181 20.8h42l11.871 6.3 2.25-4.24-12.4-6.576A2.4 2.4 0 0 0 223.6 16h-45.2a2.4 2.4 0 0 0-2.4 2.367A16.6 16.6 0 0 0 192.6 35.2h21.584a12 12 0 0 0 1.924 13.175l7.466 8.3a26.541 26.541 0 0 0 19.656 8.735q1.177 0 2.359-.107L259.91 64h11.89v-4.8h-12c-.071 0-.145 0-.217.01z" transform="translate(-16.662 -16) translate(-111.536)"/>
        <path d="M95.86 420.8h-9.8v4.8h9.8a11.813 11.813 0 0 1 11.6 9.6h-42l-35.673-18.92a2.4 2.4 0 0 0-1.125-.28h-12v4.8h11.4l35.672 18.92a2.4 2.4 0 0 0 1.125.28h45.2a2.4 2.4 0 0 0 2.4-2.367A16.6 16.6 0 0 0 95.86 420.8z" transform="translate(-16.662 -16) translate(0 -280)"/>
        <path d="M28.879 337.511l14.43-1.312a21.7 21.7 0 0 1 18.011 7.061l7.466 8.3a7.2 7.2 0 0 1 .325 9.245l-12.718-8.478a2.4 2.4 0 1 0-2.663 3.994l14.4 9.6a2.4 2.4 0 0 0 1.323.4h11.8v-4.8h-6.977a12 12 0 0 0-1.924-13.175l-7.466-8.3a26.525 26.525 0 0 0-22.013-8.631l-14.32 1.3H16.662v4.8h12c.071 0 .145 0 .217-.01z" transform="translate(-16.662 -16) translate(0 -220.72)"/>
        <path d="M366.792 200.471a2.4 2.4 0 0 0-.889 2.554 52.89 52.89 0 0 1-25.735 60.158l2.3 4.214a57.688 57.688 0 0 0 29.294-59.947l6.682 4.185 2.548-4.068-11.5-7.2a2.4 2.4 0 0 0-2.7.104z" transform="translate(-16.662 -16) translate(-226.454 -128.8)"/>
        <path d="M42.643 149.34a2.4 2.4 0 0 0 2.343-2.919A52.833 52.833 0 0 1 73.58 87.377l-2.089-4.32a57.681 57.681 0 0 0-32.067 59.413l-8.947-4.841-2.284 4.222 13.308 7.2a2.4 2.4 0 0 0 1.142.289z" transform="translate(-16.662 -16) translate(-8.072 -46.94)"/>
        <g>
            <g>
                <path d="M66.563 36.067a18.194 18.194 0 0 0-13.834-6.231c-7.565 0-12.355 4.518-15.041 8.309a27.531 27.531 0 0 0-1.787 2.9 27.507 27.507 0 0 0-1.787-2.9c-2.686-3.791-7.476-8.309-15.041-8.309a18.2 18.2 0 0 0-13.834 6.231A21.764 21.764 0 0 0 0 50.523C0 56.5 2.333 62.054 7.341 68.011c4.476 5.323 10.915 10.811 18.372 17.165 2.779 2.368 5.652 4.816 8.711 7.493l.092.081a2.1 2.1 0 0 0 2.771 0l.092-.081c3.059-2.676 5.932-5.125 8.711-7.493 7.456-6.354 13.9-11.841 18.371-17.164C69.469 62.054 71.8 56.5 71.8 50.523a21.764 21.764 0 0 0-5.237-14.456zM43.36 81.973c-2.4 2.041-4.86 4.142-7.46 6.4-2.6-2.259-5.064-4.36-7.46-6.4C13.848 69.537 4.207 61.322 4.207 50.523a17.565 17.565 0 0 1 4.188-11.674 14.042 14.042 0 0 1 10.677-4.806c5.768 0 9.5 3.553 11.608 6.534a24.939 24.939 0 0 1 3.22 6.4 2.1 2.1 0 0 0 4 0 24.942 24.942 0 0 1 3.22-6.4c2.112-2.981 5.84-6.534 11.608-6.534a14.041 14.041 0 0 1 10.677 4.806 17.564 17.564 0 0 1 4.188 11.674c.001 10.799-9.639 19.014-24.233 31.45z" transform="translate(-16.662 -16) translate(53.759 63.017) translate(0 -29.836)"/>
            </g>
        </g>
    </g>
</svg>
