<svg xmlns="http://www.w3.org/2000/svg" xmlns:xlink="http://www.w3.org/1999/xlink" width="280" height="240" viewBox="0 0 280 240">
  <defs>
    <clipPath id="clip-path">
      <rect id="Rectangle_7505" data-name="Rectangle 7505" width="180" height="69.231" fill="#eb6c51"/>
    </clipPath>
  </defs>
  <g id="Group_69153" data-name="Group 69153" transform="translate(-1262 -8876)">
    <rect id="Rectangle_7504" data-name="Rectangle 7504" width="280" height="240" transform="translate(1262 8876)" fill="none"/>
    <g id="hyrecar" transform="translate(1312 8958.385)" clip-path="url(#clip-path)">
      <g id="Layer_x0020_1" transform="translate(0 16.154)">
        <g id="_1287522552416" transform="translate(0 0)">
          <path id="Path_116136" data-name="Path 116136" d="M0,66V98.671H8.12V85.022H20.635V98.671H28.6V66H20.635V78.346H14.454c-2.323,0-4.032-.153-6.335-.153V66.02Z" transform="translate(0 -64.709)" fill="#eb6c51" fill-rule="evenodd"/>
          <path id="Path_116137" data-name="Path 116137" d="M5491.822,27.951c-1.133-.6-3.935-3.858-5.2-4.722-1.785.422-5.49,4.4-11.826,1.785-10.153-4.165-5.335-22.593,8.37-17.833l3.147,1.731,5.2-5.033C5480.685-7.945,5455.461,1.4,5462.736,22.9a15.317,15.317,0,0,0,4.415,6.315c5.759,5.566,19.615,6.3,24.692-1.287Z" transform="translate(-5356.61 1.29)" fill="#eb6c51" fill-rule="evenodd"/>
          <path id="Path_116138" data-name="Path 116138" d="M1630.375,592.468c-3.57,0-2.725-.978-3.186,2.342a31.986,31.986,0,0,0-.4,3.992c.923.02,2.9.327,4.55.327,6.181,0,8.7-4.55,10.5-9.655L1651.355,565H1643.2c-.154.633-.326,1.075-.518,1.747l-3.628,11.654c-.6,1.536-1.113-.48-1.325-1.114l-1.862-5.279L1633.442,565H1625l1.458,3.57c.518,1.19,1.018,2.4,1.554,3.647,1.038,2.476,1.961,4.761,3.052,7.179l3.052,7.179c.577,1.67,0,2.457-.672,3.763a3.084,3.084,0,0,1-3.091,2.112Z" transform="translate(-1593.808 -554.13)" fill="#eb6c51" fill-rule="evenodd"/>
          <path id="Path_116139" data-name="Path 116139" d="M4054.313,540.445c.615-5.586,9.311-5.566,9.906-.153ZM4047,543.363c0,13.13,18.231,16.528,23.246,7.16l-5.355-3.243c-1.846,3.992-9.156,3.839-10.557-1.962l16.507-.231c.059,0,1.154-13.154-10.654-14.09-4.145,0-6.871.808-9.789,3.705a12.977,12.977,0,0,0-3.378,8.654Z" transform="translate(-3969.315 -520.783)" fill="#eb6c51" fill-rule="evenodd"/>
          <path id="Path_116140" data-name="Path 116140" d="M7144.159,547.666c0-2.976,6.258-2.769,8.121-2.769C7150.457,552.752,7144.159,550.525,7144.159,547.666Zm-6.006-13a31.668,31.668,0,0,0,3.9,4.4c3.4-1.785,9.559-4.4,9.905,1.305-5.6,0-14.954.71-14.954,7.962,0,6.775,8.849,8.676,13.745,5.452.441-.288.808-.633,1.209-.9v1.962h7.16c0-5.777.749-15.836-1.615-19.5-3.128-5.988-13.108-4.914-18.271-1.363a8.15,8.15,0,0,1-1.076.71Z" transform="translate(-7000 -520.863)" fill="#eb6c51" fill-rule="evenodd"/>
          <path id="Path_116141" data-name="Path 116141" d="M3165.314,535.577v-2.918H3158v23.077h7.7c.058-3.4-.48-11.769.48-13.936,1.171-2.654,4.012-3.129,7.154-3.129l-.058-6.661a8.231,8.231,0,0,0-5.3,1.209,13.517,13.517,0,0,0-2.667,2.381Z" transform="translate(-3097.38 -521.77)" fill="#eb6c51" fill-rule="evenodd"/>
          <path id="Path_116142" data-name="Path 116142" d="M8558.314,535.577v-2.918H8551v23.077h7.7c.058-3.4-.479-11.769.482-13.936,1.17-2.654,4.01-3.129,7.159-3.129l-.06-6.661a8.228,8.228,0,0,0-5.3,1.21,13.442,13.442,0,0,0-2.668,2.38Z" transform="translate(-8386.861 -521.77)" fill="#eb6c51" fill-rule="evenodd"/>
        </g>
      </g>
    </g>
  </g>
</svg>
