<svg xmlns="http://www.w3.org/2000/svg" xmlns:xlink="http://www.w3.org/1999/xlink" width="220" height="60" viewBox="0 0 220 60">
  <defs>
    <clipPath id="clip-path">
      <path id="path74" d="M102.132-296.562a41.673,41.673,0,0,1,8.183-9.95,1.772,1.772,0,0,0,.727-1.478c-.176-.737-1.617-1.2-3.463-1.341-12.691-.666-23.976,9.091-24.3,21.8a21.184,21.184,0,0,0,1.99,10.291.825.825,0,0,0,.845.59.825.825,0,0,0,.762-.694c.3-5.835,2.288-13.1,4.292-16.678,1.342-2.244,2.721-4.512,4.483-3.029.719.767-.378,2.086-1.539,4.589a52.83,52.83,0,0,0-3.417,11.455,41.287,41.287,0,0,0-.54,10.44c.265,4.565,2.282,7.432,3.547,6.552.821-.7-.508-1.378-.109-2.235a.95.95,0,0,1,.809-.494,3.089,3.089,0,0,0,.67.007c.824-.05.635-1.4.635-1.4a51.379,51.379,0,0,1,.523-10.75,53.31,53.31,0,0,1,5.905-17.672Zm23.876-1.03a1.38,1.38,0,0,1,.223-1.544,2.048,2.048,0,0,1,1.111-.556s.192-.031.422-.072a.957.957,0,0,0,.78-1.024s.016-.773-1.173-.889a5.035,5.035,0,0,0-2.293.432s-2.473.976-5.928,4.529c-2.619,2.7-5.885,8.312-7.706,14.31-1.855,6.106-2.64,11.782-1.7,17.657,0,0,.537,2.869,2.086,3.936a1.275,1.275,0,0,0,1.042.194,1.031,1.031,0,0,0,.4-.316.856.856,0,0,0-.006-.948s-.079-.129-.194-.3a2.23,2.23,0,0,1-.31-.85,1.914,1.914,0,0,1,.226-1.3,1.47,1.47,0,0,1,.76-.587A22.9,22.9,0,0,0,128.9-285a20.612,20.612,0,0,0-2.886-12.59Zm-7.922-2.966a22.578,22.578,0,0,1,2.337-1.822,1.162,1.162,0,0,0,.515-.929,1.583,1.583,0,0,0-.668-1.17,2.3,2.3,0,0,1-.365-.45,1.166,1.166,0,0,1,.047-1.021,1.367,1.367,0,0,1,.7-.63,6.384,6.384,0,0,1,.791-.233,1.281,1.281,0,0,0,.546-.216.834.834,0,0,0,.127-.894s-.163-.457-1.2-.522a4.91,4.91,0,0,0-1.637.117,9.1,9.1,0,0,0-1.634.522c-.562.3-9.565,3.788-15.483,21.264a67.932,67.932,0,0,0-2.811,16.668s-.369,6.006,1.6,9.291a3.74,3.74,0,0,0,.935,1.027.845.845,0,0,0,1.116-.038s.576-.447-.017-1.376a2.274,2.274,0,0,1-.2-.481,1.787,1.787,0,0,1,.072-1.031,1.465,1.465,0,0,1,1.273-.944,2.08,2.08,0,0,0,1.524-.6,2.419,2.419,0,0,0,.32-1.673s-.119-1.272-.234-2.95a36.546,36.546,0,0,1,.748-9.568,60.688,60.688,0,0,1,2.145-7.848,37.323,37.323,0,0,1,9.456-14.493Z" transform="translate(-83.239 309.364)"/>
    </clipPath>
    <clipPath id="clip-path-2">
      <path id="path80" d="M24.744-399.522a43.423,43.423,0,0,1,43.35-43.51,43.429,43.429,0,0,1,43.381,43.51,43.4,43.4,0,0,1-43.381,43.363A43.39,43.39,0,0,1,24.744-399.522Z" transform="translate(-24.744 443.032)"/>
    </clipPath>
    <radialGradient id="radial-gradient" cx="0.847" cy="-0.057" r="1.307" gradientTransform="matrix(0, 1, 1.095, 0, 0.909, -0.904)" gradientUnits="objectBoundingBox">
      <stop offset="0" stop-color="#cceffc"/>
      <stop offset="0.089" stop-color="#4ec3e8"/>
      <stop offset="0.202" stop-color="#397fca"/>
      <stop offset="0.31" stop-color="#357dc0"/>
      <stop offset="0.547" stop-color="#216950"/>
      <stop offset="0.8" stop-color="#21684c"/>
      <stop offset="1" stop-color="#1c5937"/>
    </radialGradient>
    <clipPath id="clip-_08">
      <rect width="220" height="60"/>
    </clipPath>
  </defs>
  <g id="_08" data-name="08" clip-path="url(#clip-_08)">
    <rect width="220" height="60" fill="#fff"/>
    <g id="Group_69149" data-name="Group 69149" transform="translate(-118.464 -9199.001)">
      <g id="g10" transform="translate(179.965 9199.001)">
        <g id="g12" transform="translate(0 0)">
          <path id="path14" d="M10.922-27.733l.107-1.629a6.919,6.919,0,0,1-2.487.52c-2.468,0-3.294-1.494-2.767-4.129.471-2.365,1.909-4.18,4.273-4.18a7.545,7.545,0,0,1,2.374.387l.537-1.678a10.372,10.372,0,0,0-2.438-.319c-3.813,0-6.1,2.568-6.806,6.092-.6,3.022.3,5.472,4.092,5.472a9.352,9.352,0,0,0,3.113-.537h0" transform="translate(50.894 64.385)" fill="#100f0d"/>
          <path id="path16" d="M37.279-29.923a3.277,3.277,0,0,0-3.173,2.014h-.033a12.523,12.523,0,0,0,.537-1.846H32.9l-1.667,8.345h1.8l.675-3.394c.5-2.5,1.536-3.659,3.138-3.358l.435-1.761h0" transform="translate(32.324 58.469)" fill="#100f0d"/>
          <path id="path18" d="M50.435-21.042,52.1-29.387H50.3l-1.668,8.345h1.8" transform="translate(20.651 58.097)" fill="#100f0d"/>
          <path id="path20" d="M56.528-39.044a.97.97,0,0,0-.186-.859.97.97,0,0,0-.8-.356,1.583,1.583,0,0,0-1.492,1.216.981.981,0,0,0,.2.861.981.981,0,0,0,.81.353,1.578,1.578,0,0,0,1.475-1.214h0" transform="translate(17.041 65.39)" fill="#e71d26"/>
          <path id="path22" d="M66.728-21.6l.155-1.527a4.729,4.729,0,0,1-1.894.4c-1.662,0-1.984-1.158-1.679-2.686.353-1.763,1.349-2.886,2.878-2.886a4.37,4.37,0,0,1,1.614.319l.5-1.562a5.869,5.869,0,0,0-1.762-.251c-2.871,0-4.616,1.93-5.146,4.581-.594,2.972.755,4.029,2.9,4.029a7.518,7.518,0,0,0,2.435-.42h0" transform="translate(12.194 58.37)" fill="#100f0d"/>
          <path id="path24" d="M89.555-29l-2.418-4.532,3.85-3.809h-2.2L85.372-33.77l1.5-7.482h-1.8L82.623-29h1.8l.845-4.23L87.274-29h2.283" transform="translate(-2.14 66.058)" fill="#100f0d"/>
          <path id="path26" d="M112.576-26.7h-3.543a2.458,2.458,0,0,1,2.235-1.864C112.329-28.569,112.833-27.846,112.576-26.7Zm1.712.419c.4-1.98-.3-3.608-2.687-3.608-2.433,0-4.186,1.88-4.688,4.4-.587,2.938.571,4.281,3.172,4.281a8.458,8.458,0,0,0,2.995-.537l.117-1.427a6.5,6.5,0,0,1-2.54.537c-1.663,0-2.342-.873-1.908-2.806h5.324a8.413,8.413,0,0,0,.216-.839h0" transform="translate(-18.329 58.438)" fill="#100f0d"/>
          <path id="path28" d="M136.746-27.464l.3-1.477a4.833,4.833,0,0,1-1.119.135c-.84,0-1.024-.336-.775-1.578l.8-4h2.181l.278-1.391h-2.2l.627-3.14-1.876.487-.53,2.653h-1.594l-.278,1.391h1.593l-.909,4.549c-.371,1.863.027,2.551,1.807,2.551a9.275,9.275,0,0,0,1.7-.184h0" transform="translate(-35.627 64.488)" fill="#100f0d"/>
          <path id="path30" d="M168.817-27.733l.106-1.629a6.911,6.911,0,0,1-2.486.52c-2.467,0-3.293-1.494-2.767-4.129.473-2.367,1.91-4.18,4.276-4.18a7.554,7.554,0,0,1,2.374.387l.537-1.678a10.36,10.36,0,0,0-2.437-.319c-3.813,0-6.1,2.568-6.8,6.092-.6,3.022.3,5.472,4.09,5.472a9.348,9.348,0,0,0,3.112-.537h0" transform="translate(-55 64.385)" fill="#100f0d"/>
          <path id="path32" d="M194.29-25.6c-.386,1.93-1.54,2.836-2.7,2.836-1.393,0-1.933-.989-1.558-2.87.383-1.914,1.607-2.753,2.7-2.753C194.159-28.384,194.646-27.381,194.29-25.6Zm1.871-.118c.587-2.937-.741-4.179-2.974-4.179a5.278,5.278,0,0,0-5.052,4.447c-.587,2.937.666,4.23,2.982,4.23a5.332,5.332,0,0,0,5.044-4.5h0" transform="translate(-72.803 58.439)" fill="#100f0d"/>
          <path id="path34" d="M223.222-21.042l1.668-8.345h-1.8l-.805,4.029c-.332,1.662-1.52,2.988-2.779,2.988-.958,0-1.121-.6-.914-1.645l1.073-5.371h-1.78l-1.167,5.842c-.295,1.476.054,2.668,1.951,2.668a3.863,3.863,0,0,0,3.266-1.813l.014.017a12.194,12.194,0,0,0-.444,1.628h1.712" transform="translate(-92.01 58.097)" fill="#100f0d"/>
          <path id="path36" d="M250.917-21.383l1.168-5.842c.295-1.477-.054-2.668-1.951-2.668a3.865,3.865,0,0,0-3.266,1.812l-.012-.018a12.155,12.155,0,0,0,.443-1.628h-1.711l-1.668,8.345h1.8l.8-4.029c.333-1.662,1.521-2.988,2.779-2.988.958,0,1.122.6.914,1.645l-1.073,5.371h1.778" transform="translate(-110.311 58.438)" fill="#100f0d"/>
          <path id="path38" d="M277.817-21.6l.155-1.527a4.729,4.729,0,0,1-1.894.4c-1.661,0-1.984-1.158-1.679-2.686.353-1.763,1.349-2.886,2.878-2.886a4.371,4.371,0,0,1,1.615.319l.5-1.562a5.878,5.878,0,0,0-1.763-.251c-2.869,0-4.616,1.93-5.145,4.581-.594,2.972.755,4.029,2.9,4.029a7.522,7.522,0,0,0,2.434-.42h0" transform="translate(-129.37 58.37)" fill="#100f0d"/>
          <path id="path40" d="M295.507-28.152l1.667-8.345h-1.8l-1.668,8.345ZM297.9-38.86a.9.9,0,0,0-.173-.8.9.9,0,0,0-.745-.33A1.467,1.467,0,0,0,295.6-38.86a.908.908,0,0,0,.184.8.908.908,0,0,0,.752.326A1.46,1.46,0,0,0,297.9-38.86h0" transform="translate(-143.703 65.207)" fill="#100f0d"/>
          <path id="path42" d="M308.222-29.005l2.446-12.254h-1.8l-2.446,12.254h1.8" transform="translate(-152.229 66.06)" fill="#100f0d"/>
          <path id="path44" d="M15.986-78.09,18.25-89.42H16.418L14.156-78.09h1.83" transform="translate(43.776 98.359)" fill="#100f0d"/>
          <path id="path46" d="M36.193-72.349l1.168-5.842c.295-1.476-.055-2.668-1.951-2.668a3.863,3.863,0,0,0-3.265,1.813l-.014-.017a11.88,11.88,0,0,0,.442-1.629H30.86l-1.666,8.345h1.8l.8-4.029c.332-1.661,1.521-2.988,2.778-2.988.958,0,1.122.6.913,1.645l-1.074,5.368h1.778" transform="translate(33.691 92.617)" fill="#100f0d"/>
          <path id="path48" d="M64.113-78.432l.295-1.476a4.9,4.9,0,0,1-1.119.134c-.84,0-1.023-.336-.775-1.578l.8-4h2.181l.278-1.394h-2.2L64.2-89.88l-1.876.487-.531,2.652H60.2l-.278,1.394h1.595l-.91,4.548c-.371,1.863.028,2.552,1.807,2.552a9.288,9.288,0,0,0,1.7-.185h0" transform="translate(13.084 98.666)" fill="#100f0d"/>
          <path id="path50" d="M85.784-77.669H82.243a2.457,2.457,0,0,1,2.235-1.863C85.532-79.531,86.047-78.811,85.784-77.669Zm1.712.419c.394-1.981-.3-3.609-2.686-3.609-2.433,0-4.186,1.88-4.688,4.4-.587,2.937.571,4.28,3.173,4.28a8.45,8.45,0,0,0,2.994-.537l.118-1.426a6.5,6.5,0,0,1-2.541.537c-1.661,0-2.344-.873-1.906-2.806h5.324c.1-.32.171-.6.216-.84h0" transform="translate(-0.363 92.617)" fill="#100f0d"/>
          <path id="path52" d="M113.542-80.889a3.274,3.274,0,0,0-3.172,2.014h-.034a12.421,12.421,0,0,0,.537-1.846h-1.712L107.5-72.375h1.8l.677-3.391c.5-2.5,1.537-3.659,3.138-3.356l.432-1.763h0" transform="translate(-18.821 92.647)" fill="#100f0d"/>
          <path id="path54" d="M134.671-72.349l1.168-5.842c.295-1.476-.055-2.668-1.951-2.668a3.863,3.863,0,0,0-3.265,1.813l-.014-.017a11.9,11.9,0,0,0,.442-1.629h-1.712l-1.665,8.345h1.8l.805-4.029c.332-1.661,1.52-2.988,2.778-2.988.958,0,1.122.6.914,1.645L132.9-72.347h1.774" transform="translate(-32.352 92.617)" fill="#100f0d"/>
          <path id="path56" d="M161.412-75.957a2.87,2.87,0,0,1-2.518,2.367c-.7,0-1.06-.4-.935-1.024.144-.719.871-1.511,3.487-1.511Zm1.124,3.609c.108-.705.262-1.561.406-2.283l.681-3.406c.341-1.712-.144-2.82-2.693-2.82a9.245,9.245,0,0,0-3.045.554l-.137,1.528a5.881,5.881,0,0,1,2.614-.672c1.309,0,1.638.539,1.431,1.578l-.107.537c-3,0-5.137,1.108-5.518,3.022-.265,1.327.48,2.132,1.907,2.132a3.7,3.7,0,0,0,3.111-1.727l.014.017a12.277,12.277,0,0,0-.393,1.545h1.727" transform="translate(-51.427 92.617)" fill="#100f0d"/>
          <path id="path58" d="M189.072-78.432l.3-1.476a4.9,4.9,0,0,1-1.117.134c-.84,0-1.025-.336-.776-1.578l.8-4h2.183l.278-1.394h-2.2l.627-3.139-1.876.487-.531,2.652h-1.593l-.278,1.394h1.6l-.909,4.547c-.372,1.863.027,2.552,1.806,2.552a9.29,9.29,0,0,0,1.7-.185h0" transform="translate(-70.718 98.666)" fill="#100f0d"/>
          <path id="path60" d="M206.724-79.115l1.667-8.345h-1.8l-1.667,8.345Zm2.391-10.709a.9.9,0,0,0-.173-.795.9.9,0,0,0-.744-.329,1.465,1.465,0,0,0-1.383,1.124.909.909,0,0,0,.183.8.908.908,0,0,0,.752.326,1.46,1.46,0,0,0,1.367-1.126h0" transform="translate(-84.162 99.384)" fill="#100f0d"/>
          <path id="path62" d="M226-76.562c-.386,1.93-1.541,2.837-2.7,2.837-1.393,0-1.933-.99-1.558-2.87.381-1.914,1.607-2.753,2.7-2.753C225.869-79.348,226.356-78.341,226-76.562Zm1.871-.115c.586-2.939-.743-4.181-2.976-4.181a5.278,5.278,0,0,0-5.052,4.448c-.586,2.937.666,4.23,2.982,4.23a5.335,5.335,0,0,0,5.045-4.5h0" transform="translate(-94.069 92.617)" fill="#100f0d"/>
          <path id="path64" d="M255.978-72.349l1.167-5.842c.3-1.476-.053-2.668-1.95-2.668a3.863,3.863,0,0,0-3.265,1.813l-.013-.017a12.132,12.132,0,0,0,.442-1.629H250.65l-1.668,8.345h1.8l.806-4.029c.332-1.661,1.52-2.988,2.778-2.988.957,0,1.122.6.913,1.645l-1.073,5.371h1.778" transform="translate(-113.705 92.617)" fill="#100f0d"/>
          <path id="path66" d="M283.022-75.957A2.871,2.871,0,0,1,280.5-73.59c-.705,0-1.061-.4-.935-1.024.144-.719.873-1.511,3.491-1.511Zm1.123,3.609c.108-.705.262-1.561.406-2.283l.681-3.406c.342-1.712-.144-2.82-2.693-2.82a9.261,9.261,0,0,0-3.047.554l-.137,1.528a5.9,5.9,0,0,1,2.618-.672c1.309,0,1.638.539,1.43,1.578l-.107.537c-3.005,0-5.139,1.108-5.522,3.022-.265,1.327.481,2.132,1.907,2.132A3.7,3.7,0,0,0,282.8-73.9l.012.017a12.349,12.349,0,0,0-.393,1.545h1.727" transform="translate(-132.98 92.617)" fill="#100f0d"/>
          <path id="path68" d="M308.408-79.968l2.446-12.253h-1.8l-2.446,12.253h1.8" transform="translate(-152.354 100.237)" fill="#100f0d"/>
          <g id="g70">
            <g id="g72" clip-path="url(#clip-path)">
              <g id="g78" transform="translate(-15.677 -35.861)" clip-path="url(#clip-path-2)">
                <path id="path106" d="M102.158-259.433v-.036h-.109v-.036h-.072v-.036h-.072v-.036h-.036v-.036H101.8v-.036h-.036v-.036h-.036v-.036h-.036v-.036h-.036v-.036h-.072v-.036h-.036v-.036h-.036v-.036h-.036v-.036h-.036v-.036H101.4v-.036h-.036v-.036h-.036v-.036h-.036v-.036h-.036v-.036h-.036v-.072h-.036v-.036h-.036v-.036h-.036v-.036h-.036v-.072h-.036v-.036h-.036v-.036h-.036v-.072h-.036v-.036H100.9v-.072h-.036v-.072h-.036v-.036h-.036v-.072h-.036v-.072h-.036v-.072h-.036v-.072h-.036v-.072h-.036v-.072h-.036v-.072h-.036v-.072H100.5v-.107h-.036v-.072h-.036v-.072h-.036v-.107h-.036v-.072h-.036v-.072h-.036v-.107h-.036v-.072h-.036v-.107h-.036v-.107h-.036v-.107h-.036v-.107h-.036v-.107h-.036v-.107H100v-.144h-.036v-.107h-.036v-.144h-.036v-.144h-.036v-.144h-.036v-.107h-.036v-.179h-.036v-.179h-.036v-.144h-.036v-.179h-.036v-.179H99.6v-.216h-.036v-.216h-.036v-.216h-.036v-.25h-.036v-.288h-.036v-.288h-.036v-.36h-.036v-.394h-.036v-.5h-.036v-.751h-.036v-2.039h.036v-.93h.036v-.751h.036v-.5h.036v-.5h.036v-.465h.036v-.432h.036v-.322h.036v-.36h.036v-.36H99.6v-.322h.036v-.288h.036v-.288h.036v-.288h.036v-.288h.036v-.288h.036v-.25h.036v-.216h.036v-.25h.036v-.216h.036v-.25H100v-.25h.036v-.216h.036v-.216h.036v-.179h.036v-.216h.036v-.216h.036v-.216h.036v-.216h.036v-.179h.036v-.179h.036v-.179h.036v-.179h.036v-.216h.036v-.179h.036v-.179h.036v-.179h.036v-.179h.036v-.144h.036v-.179h.036v-.179h.036v-.179h.036v-.144h.036v-.179h.036v-.144h.036v-.179h.036v-.144h.036v-.179h.036v-.144h.036v-.144h.036v-.144h.036v-.179h.036v-.144h.036v-.144h.036v-.144h.036v-.144h.036v-.144h.036v-.144h.036v-.144h.036v-.144h.036v-.144h.036v-.144h.036v-.144h.036v-.107h.036v-.144h.036v-.144h.036v-.107h.036v-.144h.036v-.144h.036v-.107h.036v-.144h.036v-.107h.036v-.144h.036v-.107h.036v-.144h.036v-.107h.036v-.144h.036v-.107h.036v-.107h.036v-.107h.036v-.107h.036v-.107h.036v-.107h.036v-.107h.036v-.107h.036v-.107h.036v-.072h.036v-.107h.036v-.107h.036v-.107h.036v-.107h.036v-.072h.036v-.107h.036v-.107h.036v-.107h.036v-.107h.036v-.072h.036v-.107h.036v-.072h.036v-.107h.036v-.107h.036v-.072h.036v-.107h.036v-.107h.036v-.072h.036v-.107h.036v-.072h.036v-.107h.036v-.107h.036v-.072h.036v-.107h.036v-.072h.036v-.107h.036v-.072h.036v-.107h.036v-.072h.036v-.107h.036v-.072h.036v-.072h.036v-.107h.036v-.072h.036v-.107h.036v-.072h.036v-.107h.036V-291h.036v-.072h.036v-.107h.036v-.072h.036v-.107h.036v-.072h.036v-.072h.036v-.072h.036v-.107h.036v-.072h.036v-.072h.036v-.072h.036V-292h.036v-.072h.036v-.072h.036v-.072h.036v-.107h.036v-.072h.036v-.072h.036v-.072h.036v-.107h.036v-.072h.036v-.072h.036v-.072h.036v-.072h.036v-.072h.036v-.072h.036v-.072h.036v-.072h.036v-.107h.036v-.072h.036v-.072h.036v-.072h.036v-.072h.036v-.072h.036v-.072H105v-.072h.036v-.072h.036v-.072h.036v-.072h.036v-.072h.036v-.072h.036v-.072h.036v-.072h.036v-.072h.036v-.072h.036v-.072h.036v-.072h.036v-.072h.036v-.072h.036v-.072h.036v-.072h.036v-.072h.036v-.072h.036v-.072h.036v-.072h.036v-.036h.036v-.072h.036v-.072h.036v-.072h.036v-.072h.036v-.072h.036v-.036h.036v-.072h.036v-.072h.036v-.072h.036v-.072h.036v-.036h.036v-.072h.036v-.072h.036v-.072h.036v-.072h.036v-.072h.036v-.036h.036v-.072h.036v-.072h.036v-.072h.036v-.036h.036v-.072h.036v-.072h.036v-.036h.036v-.072h.036v-.072h.036v-.036h.036v-.072h.036v-.072h.036v-.072h.036v-.036h.036v-.072h.036v-.072h.036v-.036h.036v-.072h.036v-.072h.036v-.036h.036v-.072h.036v-.036h.036v-.072h.036v-.072h.036v-.036h.036v-.072h.036v-.036h.036v-.072h.036v-.072h.036v-.036h.036v-.072h.036v-.072h.036v-.036h.036v-.072h.036v-.036h.036v-.072h.036v-.036h.036v-.072h.036v-.036h.036v-.072h.036v-.036h.036v-.072h.036v-.036h.036v-.072h.036v-.036h.036v-.072h.036v-.036h.036v-.072h.036v.089h.036v-.072h.036v-.036h.036v-.072h.036v-.036h0v-.072h.036v-.036h.036v-.072h.036v-.036h.036v-.036h.036v-.072h.036v-.036h.036v-.072h.036v-.036h.036v-.036h.036v-.072h.036v-.036h.036v-.072h.036V-300h.036v-.036h.036v-.072h.036v-.036h.036v-.072h.036v-.036h.036v-.036h.036v-.072h.036v-.036h.036v-.036h.036v-.072h.036v-.036h.036v-.036h.036v-.072h.036v-.036h.036v-.036h.036v-.072h.036v-.036h.036v-.036h.036v-.072h.036v-.036h.036v-.036h.036v-.036h.036v-.072h.036v-.036h.036v-.036h.036v-.036h.036v-.072h.036v-.036h.036v-.036h.036v-.036h.036v-.072h.036v-.036h.036v-.036h.036v-.036h.036v-.072H110v-.036h.036v-.036h.036v-.036h.036v-.036h.036v-.072h.036v-.036h.036v-.036h.036v-.036h.036v-.036h.036v-.072h.036v-.036h.036v-.036h.036v-.036h.036v-.036h.036v-.036h.036v-.072h.036v-.036h.036v-.036h.036v-.036h.036v-.036h.036v-.036h.036v-.036h.036v-.072h.036v-.036h.036v-.036h.036v-.036h.036v-.036h.036v-.036h.036v-.036h.036v-.036h.036v-.036h.036v-.036h.036v-.072h.036v-.036h.036v-.036h.036v-.036h.036v-.036h.036v-.036h.036v-.036h.036v-.036h.036v-.036h.036v-.036h.036v-.036h.036v-.036h.036v-.036h.036v-.036h.036v-.036h.036v-.036h.036v-.036h.036v-.036h.036v-.072h.036v-.036h.036v-.036h.036v-.036h.036v-.036h.036v-.036h.036v-.036h.072v-.036h.036V-304h.036v-.036h.036v-.036h.036v-.036h.036v-.036h.036v-.036h.036v-.036h.036v-.036h.036v-.036h.036v-.036h.036v-.036h.036v-.036h.036v-.036h.036v-.036h.036v-.036h.036v-.036h.036v-.036h.036v-.036h.036v-.036h.072v-.036h.036v-.036h.036v-.036h.036v-.036h.036v-.036h.072v-.036h.036v-.036h.036v-.036h.072v-.036h.036V-305h.036v-.036h.036v-.036h.036v-.036h.036v-.036h.036v-.036h.072v-.036h.036v-.036h.036v-.036h.036v-.036h.036v-.036h.072v-.036h.036v-.036h.036v-.036h.036v-.036h.036v-.036h.072v-.036h.036v-.036h.036v-.036h.036v-.036h.072v-.036h.036v-.036h.036v-.036h.036v-.036h.072v-.036h.036v-.036h.036v-.036h.072v-.036h.036v-.036h.036v-.036h.072v-.036h.036v-.036h.036v-.036h.072v-.036h0v-.036h.036v-.036h.072v-.036h.036v-.036h.072v-.036h.036v-.036H115v-.036h.072v-.036h.036v-.036h.072v-.036h.036v-.036h.072v-.036h.036v-.036h.072v-.036h.036v-.036h.072v-.036h.036v-.036h.072v-.036h.036v-.036h.072v-.036h.036v-.036h.072v-.036h.072v-.036h.036v-.036h.072v-.036h.036v-.036h.072v-.036h.072v-.036h.036v-.036h.072v-.036h.072v-.036h.072v-.036h.036v-.036h.072v-.036h.072v-.036h.072v-.036h.072v-.036h.072v-.036h.072v-.036h.036v-.036h.072v-.036h.072v-.036h.072v-.036h.072v-.036h.107v-.036h.072v-.036h.072v-.036h.072v-.036h.072v-.036h.072v-.036h.107v-.036h.107v-.036h.072v-.036h.107v-.036h.107v-.036h.107v-.036h.107v-.036h.107v-.036h.107v-.036h.144v-.036h.107v-.036h.144v-.036h.179v-.036h.144v-.036h.216v-.036h.25v-.036h.394v-.036h.5v.036h.394v.036h.216v.036h.144v.036h.107v.036h.107v.036h.072v.036h.072v.036h.072v.036h.015v.036h.036v.036h.036v.036h.036v.036h.036v.036h.036v.072h.036v.144h.036v.432h-.036v.144h-.036v.072h-.036v.036h-.036v.072h-.036v.036h-.072v.036h-.036v.036H121.8v.036h-.108v.036h-.107v.036h-.144v.036h-.144v.036h-.144v.036h-.144v.036H120.9v.036h-.107v.036h-.107v.036h-.107v.036h-.072v.036h-.072v.036H120.4v.036h-.072v.036h-.036v.036h-.036v.036h-.036v.036h-.036v.036h-.036v.036h-.036v.036h-.036v.036h-.036v.036H120v.072h-.036v.036h-.036v.072h-.036v.107h-.036v.107h-.036v.144h-.036v.394h.036v.144h.036v.072h.036v.072h.036v.036h.036v.072H120v.036h.036v.036h.036v.072h.036v.036h.036v.036h.036v.036h.036v.036h.036v.036h.072v.036h.036v.036h.036v.036h.036v.036h.036v.072h.036v.036h.036v.036h.036v.036h.036v.072h.036v.036h.036v.072h.036V-304h.036v.072h.036v.107h.036v.072h.036v.144h.036v.465h-.036v.107h-.036v.107h-.036v.072h-.036v.072h-.036v.036h-.036v.036h-.036v.072h-.036v.036h-.036v.036h-.036v.036h-.036v.036h-.072v.036H120.4v.036h-.072v.036h-.036v.036h-.072v.036h-.036v.036h-.072v.036h-.036v.036H120v.036h-.036v.036h-.036v.036h-.072v.036h-.036v.036h-.036v.036h-.072v.036h-.036v.036h-.072v.036h-.036v.036h-.036v.036H119.5v.036h-.072v.036h-.036v.036h-.036v.036h-.072v.036h-.036v.036h-.036v.036h-.072v.036H119.1v.036h-.036v.036h-.036v.036h-.036v.036h-.072v.036h-.036v.036h-.036v.036h-.036v.036h-.072v.036h-.036v.036h-.036v.036h-.036v.036H118.6v.036h-.072v.036h-.036v.036h-.036v.036h-.036v.036h-.036v.036h-.036v.036h-.072v.036h-.036v.036H118.2v.036h-.036v.036h-.036v.036H118.1v.036h-.072v.036h-.036v.036h-.036v.036h-.036v.036h-.036v.036h-.036v.036h-.036v.036h-.036v.036h-.036v.036H117.7v.036h-.036v.036h-.036v.036h-.036v.036h-.036v.036h-.036v.036h-.036v.036h-.036v.036h-.036v.036h-.036v.036h-.036v.036H117.3v.036h-.036v.036h-.036v.036H117.2v.036h-.036v.036h-.036v.036h-.036v.036h-.036v.036h-.036v.036h-.036v.036h-.036v.036h-.036v.036h-.036v.036h-.036v.072H116.8v.036h-.036v.036h-.036v.036h-.036v.036h-.036v.036h-.036v.036h-.036v.036h-.036v.036h-.036v.036h-.036v.036h-.036v.036H116.4v.036h-.036v.072h-.036v.036H116.3v.036h-.036v.036h-.036v.036h-.036v.036h-.036v.036h-.036v.036h-.036v.036h-.036v.036h-.036v.036h-.036v.036h-.036v.036H115.9v.072h-.036v.036h-.036v.036h-.036v.036h-.036v.036h-.036v.036h-.036v.036h-.036v.072h-.036v.036h-.036V-298h-.036v.036h-.036v.036h-.036v.036h-.036v.072h0v.036h-.036v.036h-.036v.036h-.036v.036h-.036v.036h-.036v.072h-.036v.036h-.036v.036h-.036v.036h-.036v.036h-.036v.036h-.036v.072H115v.036h-.036v.036h-.036v.036h-.036v.036h-.036v.072h-.036v.036h-.036v.036h-.036v.036h-.036v.072h-.036v.036h-.036v.036H114.6v.036h-.036v.072h-.036v.036h-.036v.036h-.036v.036h-.036v.072h-.036v.036h-.036v.036h-.036v.036h-.036v.072h-.036v.036h-.036v.036h-.036v.036h-.036v.072H114.1v.036h-.036v.036h-.036v.072h-.036v.036h-.036v.036h-.036v.072h-.036v.036h-.036v.036h-.036v.072h-.036v.036h-.036v.036H113.7v.072h-.036v.036h-.036v.036H113.6v.072h-.036v.036h-.036v.072h-.036v.036h-.036v.036h-.036v.072h-.036v.036h-.036v.036h-.036v.072h-.036v.036h-.036v.036H113.2v.072h-.036v.036h-.036v.072h-.036v.036h-.036v.072h-.036v.036h-.036v.072h-.036v.036h-.036v.072h-.036v.036h-.036v.072H112.8v.036h-.036v.036h-.036v.072H112.7v.036h-.036v.072h-.036v.036h-.036v.072h-.036v.036h-.036v.072h-.036v.036h-.036v.072h-.036v.072h-.036v.036h-.036v.072H112.3v.036h-.036v.072h-.036v.036h-.036v.072h-.036v.072h-.036v.036h-.036v.072h-.036v.036h-.036v.072h-.036v.072h-.036v.036H111.9v.072h-.036v.036h-.036v.072H111.8v.072h-.036v.036h-.036v.072h-.036v.072h-.036v.072h-.036v.036h-.036v.072h-.036v.072h-.036v.036h-.036v.072h-.036v.072H111.4v.072h-.036v.036h-.036v.072h-.036v.072h-.036v.072h-.036v.036h-.036v.072h-.036v.072h-.036v.072h-.036v.072h-.036v.072h-.036v.036h-.036v.072h-.036v.072H110.9v.072h-.036v.072h-.036v.072h-.036v.072h-.036v.036h-.036v.072h-.036v.072h-.036v.072h-.036v.072h-.036v.072h-.036v.072H110.5v.072h-.036v.072h-.036v.072h-.036v.072h-.036v.072h-.036v.072h-.036v.072h-.036v.072h-.036v.107h-.036v.072h-.036v.072h-.036v.072h-.036v.072h-.036v.072H110v.072h-.036v.072h-.036v.072h-.036v.107h-.036v.072h-.036v.072h-.036v.072h-.036v.107h-.036v.072h-.036v.072h-.036v.072H109.6v.107h-.036v.072h-.036v.072h-.036v.107h-.036v.072h-.036v.072h-.036V-288h-.036v.072h-.036v.072h-.036v.107h-.036v.072h-.036v.107h-.036v.072h-.036v.107H109.1v.072h-.036v.072h-.036v.107h-.036v.072h-.036v.107h0v.072h-.036v.107h-.036v.072h-.036v.107h-.036v.072h-.036v.107h-.036v.072H108.7v.107h-.036v.072h-.036v.107H108.6V-286h-.036v.107h-.036v.072h-.036v.107h-.036v.107h-.036v.072h-.036v.107h-.036v.024h-.036v.107h-.036v.107h-.036v.107H108.2v.107h-.036v.107h-.036v.107h-.036v.107h-.036v.107h-.036v.107h-.036v.144h-.036v.107h-.036v.107h-.036v.144h-.036v.107H107.8v.107h-.036v.144h-.036v.107H107.7v.144h-.036v.107h-.036v.144h-.036v.144h-.036v.107h-.036v.144h-.036v.144h-.036v.107h-.036v.144h-.036v.144h-.036v.144H107.3v.144h-.036v.144h-.036v.144h-.036v.144h-.036v.144h-.036v.144h-.036v.144h-.036v.144h-.036v.144h-.036v.144h-.036v.179H106.9v.144h-.036v.144h-.036v.144H106.8v.179h-.036v.144h-.036v.179h-.036v.144h-.036v.144h-.036v.179h-.036v.179h-.036v.144h-.036v.179h-.036v.179h-.036v.179H106.4v.179h-.036v.216h-.036v.179h-.036v.216h-.036v.216h-.036v.216h-.036v.216h-.036v.216h-.036v.25h-.036V-276h-.036v.25h-.036v.216h-.036v.288h-.036v.288H105.9v.288h-.036v.288h-.036v.36h-.036v.394h-.036v.393h-.036v.537h-.036v.608h-.036v2.826h.036v.68h.036v.5h.036v.465h.036v.465h.036v.432h.036v.432h.036v.432h.036v.36h.036v.322h-.036v.322H105.9v.144h-.036v.144h-.036v.107h-.036v.107h-.036v.072h-.036v.072h-.036v.072h-.036v.072h-.036v.036h-.036v.036h-.036v.036H105.5v.036h-.036v.036h-.036v.036h-.036v.036h-.072v.036h-.036v.036h-.072v.036h-.036v.036h-.072v.036H105v.036h-.072v.036h-.107v.036h-.144v.036H104.5v.036h-.322v.036h-.288v.036h-.144v.036h-.107v.036h-.072v.036h-.072v.036h-.072v.036h-.072v.036h-.036v.036h-.036v.036H103.2v.036h-.036v.036h-.036v.036H103.1v.036h-.036v.036h-.036v.072h-.036v.036h-.036v.036h-.036v.072h-.036v.072h-.036v.072h-.036v.072h-.036v.107h-.036v.144H102.7v.25h-.036v.179h.036v.288h.036v.107h.036v.107h.036v.072h.036v.107h.036v.072h.036v.036h.036v.072h.036v.072h.036v.072h.036v.072h.036v.107h.036v.107h.036v.179h.036v.25h-.036v.179h-.036v.072H103.1v.072h-.036v.072h-.036v.036h-.036v.036h-.036v.036h-.036v.036h-.036v.036h-.072v.036h-.072v.036h-.072v.036h-.107v.036Zm10.087-1.217v-.036h-.107v-.036h-.107v-.036h-.072v-.036h-.072v-.036h-.072v-.036h-.072v-.036h-.036v-.037h-.036v-.036h-.036v-.036h-.072v-.036h-.036v-.036h-.036v-.036h-.036v-.036h-.036v-.036h-.036v-.036h-.036v-.036h-.036v-.036h-.036v-.036h-.036v-.036H111.2v-.036h-.036v-.036h-.036v-.072H111.1v-.036h-.036v-.036h-.036v-.036h-.036v-.072h-.036v-.036h-.036v-.036h-.036v-.072h-.036v-.036h-.036v-.072h-.036v-.036h-.036v-.072H110.7v-.072h-.036v-.036h-.036v-.072h-.036v-.072h-.036v-.072h-.036v-.072h-.036v-.072h-.036v-.072h-.036v-.072h-.036v-.072h-.036v-.072H110.3v-.072h-.036v-.072h-.036v-.107H110.2v-.072h-.036v-.107h-.036v-.072h-.036v-.107h-.036v-.107h-.036v-.107h-.036v-.107h-.036v-.107h-.036v-.107h-.036v-.107h-.036v-.144H109.8v-.144h-.036v-.144h-.036v-.144h-.036v-.144h-.036V-265h-.036v-.216h-.036v-.25h-.036v-.322h-.036v-.322h-.036v-.322h-.036v-.322H109.4v-.36h-.036v-.68h-.036v-.644H109.3v-.68h-.036v-.608h.036v-1.9h.036v-.465h.036v-.465h.036v-.465h.036v-.465h.036v-.322h.036v-.288h.036v-.25h.036v-.25h.036v-.288h.036v-.25h.036v-.288h.036v-.25h.036v-.216h.036v-.216h.036v-.179h.036v-.179h.036v-.179h.036v-.216h.036v-.179h.036v-.179h.036v-.179h.036v-.216h.036v-.179h.036v-.179h.036v-.179h.036v-.144h.036v-.144h.036v-.144h.036v-.144h.036v-.179h.036v-.144h.036v-.144h.036v-.144h.036v-.144h.036v-.179h.036v-.144h.036v-.144h.036v-.144h.036v-.144h.036v-.144h.036v-.144h.036v-.107h.036v-.144h.036v-.107h.036v-.144h.036v-.144h.036v-.107h.036v-.144h.036v-.144h.036v-.107h.036v-.144h.036v-.107h.036v-.144h.036v-.107h.036v-.107h.036v-.144h.036v-.107h.036v-.107h.036v-.144h.036v-.107h.036v-.107h.036v-.107h.036v-.107h.036v-.107h.036v-.107h.036v-.107h.036v-.107h.036v-.107h.036v-.107h.036v-.107h.036v-.107h.036v-.107h.036v-.072h.036v-.107h.036v-.107h.036v-.107h.036v-.107h.036v-.107h.036v-.072h.036v-.107h.036v-.107h.036v-.072h.036v-.107h.036v-.072h.036v-.107h.036v-.107h.036v-.072h.036v-.107h.036v-.107h.036v-.072h.036v-.107h.036v-.072h.036v-.072h.036v-.107h.036v-.072h.036v-.107h.036v-.072h.036v-.107h.036v-.072h.036v-.072h.036v-.107h.036v-.072H113v-.107h.036v-.072h.036v-.072h.036v-.072h.036v-.107h.036v-.072h.036v-.072h.036v-.072h.036v-.107h.036v-.072h.036v-.072h.036v-.072h.036V-288h.036v-.072h.036v-.072h.036v-.072h.036v-.072h.036v-.072h.036v-.072h.036v-.107h.036v-.072h.036v-.072h.036v-.072h.036v-.072h.036v-.072h.036v-.072h.036v-.072h.036v-.072h.036v-.072h.036v-.072h.036v-.072h.036v-.072h.036v-.072h.036v-.072h.036v-.072h.036v-.072h.036v-.072h.036v-.072h.036v-.072h.036v-.072h.036v-.072h.036v-.072h.036v-.072h.036v-.072h.036v-.072h.036v-.036h.036v-.072h.036v-.072h.018v-.072h.036v-.072h.036v-.072h.036v-.072h.036v-.072h.036v-.036h.036v-.072h.036v-.072H115v-.072h.036v-.072h.036v-.036h.036v-.072h.036v-.072h.036v-.072h.036v-.036h.036v-.072h.036v-.072h.036v-.072h.036v-.036h.036v-.072h.036v-.072h.036v-.072h.036v-.036h.036v-.072h.036v-.072h.036v-.036h.036v-.072h.036v-.072h.036v-.036h.036v-.072h.036v-.072h.036v-.036h.036v-.072h.036v-.072h.036v-.036h.036v-.072h.036v-.036h.036v-.072h.036v-.072h.036V-293h.036v-.072h.036v-.036h.036v-.072h.036v-.036h.036v-.072h.036v-.036h.036v-.072h.036v-.072h.036v-.036h.036v-.072h.036v-.036h.036v-.072h.036v-.036h.036v-.072h.036v-.036h.036v-.072h.036v-.036h.036V-294h.036v-.036h.036v-.036h.036v-.072h.036v-.036h.036v-.072h.036v-.036h.036v-.072h.036v-.036h.036v-.072h.036v-.036h.036v-.036h.036v-.072h.036v-.036h.036v-.036h.036v-.072h.036v-.036h.036v-.072h.036v-.036h.036v-.036h.036v-.072h.036v-.036h.036v-.036h.036v-.072h.036v-.036h.036v-.036h.036v-.072h.036v-.036h.036v-.036h.036v-.036h.036v-.072h.036v-.036h.036v-.036h.036v-.072h.036v-.036h.036v-.036h.036v-.036h.036v-.072h.036v-.036h.036v-.036h.036v-.036h.036v-.036h.036v-.072h.036v-.036h.036v-.036h.036v-.036h.036v-.036h.036v-.072h.036v-.036h.036v-.036h.036v-.036h.036v-.036h.036v-.036h.036v-.036h.036v-.072h.036v-.036h.036v-.036h.036v-.036h.036v-.036h.036v-.036h.036v-.036h.036v-.036h.036v-.036h.036v-.036h.036v-.036h.036v-.036h.036v-.036h.036v-.036h.036v-.036h.036v-.072h.036v-.036h.072v-.036h.036v-.036h.036v-.036h.036v-.036h.036v-.036h.036v-.036h.036v-.036h.036v-.036h.036v-.036h.036v-.036h.036v-.036h.036v-.036h.036v-.036h.036v-.036h.036v-.036h.036v-.036h.036v-.036h.036v-.036H120v-.036h.036v-.036h.036v-.036h.036v-.036h.036v-.036h.036V-298h.036v-.036h.036v-.036h.036v-.036h.036v-.036h.072v-.036h.036v-.036h.036v-.036h.036v-.036h.036v-.036h.036v-.036h.036v-.036h.036v-.036h.036v.078h.072v-.036h.036v-.036h.036v-.036h.036v-.036h.036v-.036h.036v-.036h.036v-.036h.072v-.036h.036v-.036h.036v-.036h.036v-.036h.036v-.036h0v-.036h.072v-.036h.036v-.036h.036v-.036h.036v-.036h.036V-299h.072v-.036h.036v-.036h.036v-.036h.036v-.036h.036v-.036h.072v-.036h.036v-.036h.036v-.036h.036v-.036h.072v-.036h.036v-.036h.036v-.036h.036v-.036h.072v-.036h.036v-.036h.036v-.036h.072v-.036h.036v-.036h.036v-.036h.072v-.036h.036v-.036h.036v-.036h.072v-.036h.036v-.036h.036v-.036h.072v-.036h.036v-.036h.072V-300h.036v-.036h.036v-.036h.072v-.036h.036v-.036h.072v-.036h.036v-.036h.072v-.036h.036v-.036h.072v-.036h.036v-.036h.072v-.036h.036v-.036h.072v-.036h.036v-.036h.072v-.036h.036v-.036h.072v-.036h.036v-.036h.072v-.036h.072v-.036h.036v-.036h.072v-.036h.072v-.036h.036v-.036h.072v-.036h.072v-.036h.072v-.036h.036v-.036h.072v-.036h.072v-.036h.072v-.036h.072v-.036h.072v-.036h.072v-.036h.072v-.036h.072v-.036h.072v-.036H125v-.036h.107v-.036h.072v-.036h.107v-.036h.072v-.036h.107v-.036h.144v-.036h.107v-.036h.144v-.036H126v-.036h.179v-.036h.216v-.036h.288v-.036h.759v.036h.179v.036h.144v.036h.072v.036h.107v.036h.072v.036h.072v.036h.036v.036h.072v.036h.036v.036h.036v.036h.036v.036h.036v.036h.037v.072h.036v.072h.036v.072h.036v.107h.036v.36h-.036v.144h-.036v.107h-.036v.107h-.036v.036h-.036v.036h-.036v.072h-.036v.036h-.036v.036H128.2v.036h-.036V-300h-.072v.036h-.072v.036h-.036v.036h-.108v.036h-.107v.036h-.216v.036h-.216v.036h-.179v.036h-.107v.036h-.107v.036h-.107v.036h-.072v.036h-.072v.036h-.072v.036h-.072v.036h-.036v.036h-.072v.036h-.036v.036h-.072v.036H126.3v.036h-.036v.036h-.036v.036h-.036v.036h-.036v.072h-.036v.036h-.036V-299h-.036v.072h-.036v.072h-.036v.072h-.036v.107H125.9v.107h-.036v.179h-.036v.288h.036v.179h.036v.107h.036v.072h.036v.072h.036v.072h.036v.036h.036v.072h.036v.072h.036v.036h.036v.072h.036v.072h.036v.072h.036v.036h.036v.072h.036v.072h.036v.072h.036v.072h.036v.072h.036v.036h.036v.072h.036v.072h.036v.072h.036v.072h.036v.072h.036v.036h.036v.072h.036v.072h.036v.107h.036v.072h.036v.072h.036v.072h.036v.072h.036v.107h.036v.072h.036v.072h.036v.072h.036v.072h.036v.072h.036v.107h.036v.072h.036v.072h.036v.072h.036v.072h.036v.107h.036v.072h.036v.107h.036v.072h.036v.107h.036v.107h.036v.107h.032v.072h.036v.107h.036v.107h.036v.107h.036v.107h.036v.072h.036v.107h.036v.107h.036v.107h.036v.107h.036v.144h.036v.107h.036v.144h.036v.144h.036v.144h.036v.107h.036v.144h.036v.144h.036v.144h.036v.107h.036v.144h.036v.179h.036v.216h.036v.179h.036V-291h.036v.179h.036v.216h.036v.179h.036v.216h.036v.322h.036v.36h.036v.36h.036v.322h.036v.465h.036v1.037h.036v1.538h-.036v.858h-.036v.465h-.036v.288h-.036v.322h-.036v.288H128.7v.322h-.036v.179h-.036v.216H128.6v.179h-.036v.179h-.036v.216h-.036v.179h-.036v.179h-.036v.216h-.036v.179h-.036v.144h-.036v.144h-.036v.144h-.036v.144H128.2v.107h-.036v.144h-.036v.144h-.036v.107h-.036v.144h-.036v.144h-.036v.144h-.036v.107h-.036v.144h-.036v.107h-.036v.107H127.8v.107h-.036v.072h-.036v.107H127.7v.107h-.036v.107h-.036v.107h-.036v.107h-.036v.107h-.036v.072h-.036v.107h-.036v.107h-.036v.107h-.036v.107h-.036v.107H127.3v.072h-.036v.072h-.036v.072h-.036v.107h-.036v.072h-.036v.072h-.036v.107h-.036v.072h-.036v.072h-.036v.072h-.036v.107H126.9v.072h-.036v.072h-.036v.107H126.8v.072h-.036v.072h-.036v.072h-.036v.107h-.036v.072h-.036v.072h-.036v.072h-.036v.072h-.036v.072h-.036v.036h-.036v.072H126.4v.072h-.036v.072h-.036v.072h-.036v.072h-.036v.072h-.036v.072h-.036v.072h-.036v.072h-.036v.036h-.036v.072h-.036v.072h-.036v.072h-.036v.072h-.036v.072H125.9v.072h-.036v.072h-.036v.036h-.036v.072h-.036v.072h-.036v.036h-.036v.072h-.036v.036h-.036v.072h-.036v.072h-.036v.036H125.5v.072h-.036v.036h-.036v.072h-.036v.072h-.036v.036h-.036v.072h-.036v.036h-.036v.072h-.036v.072h-.036V-274h-.036v.072h-.036v.036h-.036v.072h-.036v.072H125v.036h-.036v.072h-.036v.036h-.036v.072h-.036v.036h-.036v.036h-.036v.072h-.036v.036h-.036v.036h-.036v.072h-.036v.036H124.6v.072h-.036v.036h-.036v.036h-.036v.072h-.036v.036h-.036v.036h-.036v.072h-.036v.036h-.036v.072h-.036v.036h-.036v.036h-.036v.072h-.036v.036h-.036v.036H124.1v.072h-.036v.036h-.036v.072h-.036v.036h-.036v.036h-.036v.036h-.036v.072h-.036v.036h-.036v.036h-.036v.036h-.036v.036H123.7v.072h-.036v.036h-.036v.036H123.6v.036h-.036v.036h-.036v.036h-.036v.072h-.036v.036h-.036v.036h-.036v.036h-.036v.036h-.036v.072h-.036v.036h-.036v.036H123.2v.036h-.036v.036h-.036v.072h-.036v.036h-.036v.036h-.036v.036h-.036v.036h-.036v.036h-.036v.072h-.036v.036h-.036v.036H122.8v.036h-.036v.036h-.036v.036H122.7v.036h-.036v.036h-.036v.036h-.036v.036h-.036v.036h-.036v.036h-.036v.036h-.036v.036h-.036v.036h-.036v.036h-.036v.036H122.3v.036h-.036v.036h-.036v.036h-.036v.036h-.036v.036h-.036v.036h-.036v.036h-.036v.036h-.036v.036h-.036v.036h-.036v.036H121.9v.036h0v.072h-.036v.036h-.036v.036H121.8v.036h-.036v.036h-.072v.036h-.036v.036h-.036v.036h-.036v.036h-.036v.036h-.036v.036h-.036v.036h-.036v.036h-.072v.036h-.036v.036h-.036v.036h-.036v.036h-.036v.036h-.036v.036h-.036v.036h-.036v.036h-.072v.036h-.036v.036h-.036v.036h-.036v.036H120.9v.036h-.036V-269h-.036v.036h-.036v.036h-.036v.036h-.072v.036h-.036v.036h-.036v.036h-.036v.036h-.036v.036H120.5v.036h-.072v.036h-.036v.036h-.036v.036h-.072v.036h-.036v.036h-.036v.036h-.036v.036h-.072v.036h-.036v.036h-.036v.036h-.072v.036h-.036v.036h-.036v.036h-.072v.036h-.036v.036h-.036v.036h-.036v.036h-.072v.036H119.6v.036h-.036v.036h-.072v.036h-.036v.036h-.036v.036h-.036v.036h-.072v.036h-.036v.036h-.072v.036h-.036v.036H119.1v.036h-.036v.036h-.072v.036h-.036v.036h-.072v.036h-.036v.036h-.072v.036h-.036v.036h-.072v.036h-.036v.036h-.072v.036h-.036v.036h-.072v.036h-.036v.036h-.072v.036h-.036v.036h-.072v.036H118.2v.036h-.072v.036h-.036v.036h-.072v.036h-.036v.036h-.072v.036h-.072v.036H117.8v.036h-.072v.036h-.072v.036h-.072v.036h-.072v.036h-.036v.036h-.072v.036h-.072v.036h-.072v.036h-.036v.036h-.072v.036h-.072v.036h-.072v.036h-.072v.036H116.9v.036h-.072v.036h-.072v.036h-.072v.036h-.036v.036h-.072v.036h-.072v.036h-.072v.036h-.107v.036h-.072v.036h-.072v.036h-.072v.036h-.072v.036h-.072v.036H115.9v.036h-.107v.036h-.072v.036h-.072v.036h-.072v.036H115.5v.036h-.072v.036h-.072v.036h-.073v.036h-.072v.036h-.072v.036h-.107v.036h-.072v.036h-.109v.036h-.072v.036h-.107v.036H114.6v.036H114.5v.036h-.107v.036h-.072v.036h-.107v.036h-.072v.036h-.107v.036h-.107v.036h-.107v.036h-.107v.036H113.6v.036h-.072v.036h-.072v.036h-.036v.036h-.072v.036h-.036v.036h-.072v.036h-.036v.036h-.036v.036h-.036v.036H113.1v.036h-.036v.036h-.036v.072h-.036v.036h-.036v.036h-.036v.072h-.036v.072h-.036v.036h-.036V-264h-.036v.107h-.036v.179H112.7V-263h.036v.179h.036v.144h.036v.072h.036v.107h.036v.072h.036v.072h.036v.072h.036v.072h.036v.072h.036v.036h.036v.072h.036v.036h.036v.072h.036v.036h.036v.072h.036v.072h.036v.107h.036v.25h.036v.107h-.036v.144h-.036v.144h-.036v.072h-.036v.036h-.036v.072h-.036v.036h-.036v.036H113.1v.036h-.072v.036h-.036v.036h-.072v.036h-.036v.036h-.107v.036ZM92.965-263.94v-.036h-.144v-.036h-.072v-.036h-.107v-.036H92.57v-.036h-.036v-.036h-.072v-.036h-.036v-.036H92.39v-.036h-.072v-.036h-.036v-.036h-.036v-.036H92.21v-.036h-.036v-.036h-.036v-.036H92.1v-.036h-.036v-.036H92.03v-.036h-.036v-.036h-.036v-.036h-.036v-.072h-.036v-.036H91.85v-.036h-.036v-.036h-.036v-.072h-.036v-.036h-.036v-.072H91.67v-.036h-.036v-.072H91.6v-.036h-.036v-.072h-.036v-.036h-.036v-.072h-.036v-.072h-.036v-.072h-.036v-.072h-.036v-.036h-.036v-.072h-.036v-.072h-.036v-.072H91.2v-.072h-.036v-.107h-.036v-.072h-.036v-.072h-.036v-.072h-.036v-.072h-.036v-.107h-.036v-.107h-.036v-.072h-.036v-.107h-.036v-.107h-.036v-.072h-.036v-.107h-.036v-.107H90.7v-.144h-.036v-.107h-.036v-.107h-.036v-.144h-.036v-.107h-.036v-.179h-.036V-268h-.036v-.144h-.036v-.144h-.036v-.179h-.036v-.179H90.3v-.216h-.036v-.179h-.036v-.25H90.2v-.288h-.017v-.25h-.036v-.394h-.036v-.5h-.036v-.432h-.036v-.537H90v-.966h-.036v-2H90v-.965h.036v-.576h.036v-.537h.036v-.465h.036v-.36h.036v-.394h.036v-.36h.036v-.288h.036v-.288h.036v-.288h.036v-.288h.036v-.288h.036v-.216h.036v-.25H90.5v-.25h.036v-.216h.036v-.216h.036v-.216h.036v-.179h.036v-.179h.036v-.179h.036v-.179h.036v-.179h.036v-.179h.036v-.144H90.9v-.179h.036v-.179h.036v-.144h.036v-.179h.036v-.179h.036v-.144h.036v-.179h.036v-.144h.036v-.144h.036v-.179h.036v-.144h.036v-.144h.036v-.144h.036v-.179H91.4v-.144h.036v-.144h.036v-.144h.036v-.144h.036v-.144h.036v-.144h.036v-.107h.036v-.144h.036v-.144h.036V-286h.036v-.144H91.8v-.144h.036v-.107h.036v-.144h.036v-.107h.036v-.144h.036v-.107h.036V-287h.036v-.144h.036v-.107h.036v-.144h.036v-.107h.036v-.144h.036v-.107h.036v-.107H92.3v-.107h.036v-.107h.036v-.107h.036v-.107h.036v-.107h.036v-.107h.036v-.144h.036v-.107h.036v-.107h.036v-.107h.036v-.107H92.7v-.107h.036v-.107h.036v-.107H92.8v-.072h.036v-.107h.036v-.107h.036v-.107h.036v-.072h.036v-.107h.036v-.107h.036v-.072h.036v-.107h.036v-.107h.036v-.072H93.2v-.107h.036v-.107h.036v-.107h.036v-.072h.036v-.107h.036v-.107h.036v-.072h.036v-.072h.036v-.107h.036v-.072h.036v-.107H93.6v-.072h.036v-.107h.036v-.072H93.7v-.107h.036v-.072h.036v-.072h.036v-.107h.036v-.072h.036v-.107h.036v-.072h.036v-.072h.036v-.072h.036v-.107h.036v-.072H94.1v-.072h.036v-.072h.036v-.072h.036v-.072h.036v-.072h.036v-.072h.036v-.072h.036v-.107h.036v-.072h.036v-.072h.036v-.072H94.5v-.072h.036v-.072h.036v-.036H94.6v-.072h.036v-.072h.036v-.072h.036v-.072h.036v-.072h.036v-.072h.036v-.072h.036v-.072h.036v-.072h.036v-.072h.036v-.072H95v-.072h.036v-.072h.036v-.072h.036v-.036h.036v-.072h.036v-.072h.036v-.072h.036V-295h.036v-.072h.036v-.072h.036v-.072h.036v-.072h.036v-.107h.036v-.072H95.5v-.072h.036v-.072h.036v-.072h.036v-.107h.036v-.072h.036v-.107h.036v-.107h.036v-.107h.036v-.179h.036v-.537H95.79v-.072h-.036v-.072h-.036v-.072h-.036v-.036h-.036v-.036H95.61v-.036h-.036v-.036h-.036v-.036H95.5v-.036h-.072v-.036h-.036v-.036h-.072v-.036h-.036v-.036h-.107v-.036h-.072v-.036h-.072v-.036h-.072v-.036H94.82v-.036h-.144v-.036h-.322v.036h-.179v.036h-.107v.036h-.107v.036h-.072v.036h-.072v.036h-.072v.036h-.072v.036h-.036v.036h-.072v.036h-.036v.036h-.072v.036h-.036v.036h-.036v.036h-.036v.036h-.036v.036h-.072v.036h-.036v.036h-.036v.036h-.036v.036H93.1v.036h-.036v.036h-.036v.036H92.99v.036h-.036v.036h-.036v.072h-.036v.036h-.036v.036H92.81v.036h-.036v.036h-.036v.036H92.7v.036h-.036v.072H92.63v.036h-.036v.036h-.036v.072h-.036v.036h-.036v.036H92.45v.072h-.036v.036h-.036v.036h-.036V-296h-.036v.036H92.27v.072h-.036v.036H92.2v.036h-.036v.072h-.036v.036H92.09v.072h-.036v.036h-.036v.072h-.036v.036h-.036v.072H91.91v.036h-.036v.072h-.036v.072H91.8v.036h-.036v.072H91.73v.036h-.036v.072h-.036v.072h-.036v.036h-.036v.072h-.036v.036h-.036v.072h-.036v.072h-.036v.036h-.036v.072h-.036v.072h-.036v.036H91.3v.072h-.036v.072h-.036v.036h-.036v.072h-.036v.072h-.036v.072h-.036v.036h-.036v.072h-.036v.072h-.036v.072h-.036v.072H90.9v.072h-.036v.072h-.036v.072H90.8v.072h-.036v.072h-.036v.072h-.036v.072h-.036v.072h-.036v.072h-.036v.107h-.036v.072h-.036v.072h-.036v.072h-.036v.072H90.4v.072h-.036v.107h-.036v.072h-.036v.072h-.036v.107H90.22v.072h-.041v.072h-.036v.107h-.036v.072h-.036v.072h-.036v.107H90v.072h-.036v.107h-.036v.107h-.036v.072h-.036v.107h-.036v.072h-.036v.107h-.036v.072h-.036v.107h-.036v.107h-.036v.107H89.6v.072h-.036v.107h-.036v.107h-.036v.107h-.036v.107h-.036v.072h-.036v.107h-.036v.107h-.036v.107h-.036v.107h-.036v.107h-.036v.107h-.036v.107h-.036v.107H89.1v.107h-.036v.107h-.036v.107h-.036v.144h-.036v.107h-.036v.107h-.036v.144h-.036v.107h-.036v.107h-.036v.144H88.74V-288H88.7v.107h-.036v.144h-.036v.107H88.6v.144H88.56v.144h-.036v.107h-.036v.144h-.036V-287h-.036v.144H88.38v.144h-.036v.144h-.036v.144h-.036v.144h-.036v.144H88.2v.144h-.036v.144h-.036v.144h-.036v.144h-.036v.144H88.02v.144h-.036v.179h-.036v.144h-.036v.144h-.036v.179H87.84v.144H87.8v.179h-.036v.179h-.036v.179H87.7v.179H87.66v.144h-.036v.179h-.036v.179h-.036v.216h-.036v.179H87.48v.216h-.036v.179h-.036v.216h-.036v.216h-.036v.216H87.3v.216h-.036v.25h-.036v.216h-.036v.25h-.036v.25h-.036v.288h-.036v.288h-.036v.288h-.036v.322h-.036v.36h-.036v.36H86.9v.432h-.036v.5h-.036v.465H86.8v.072h-.036v.107h-.036v.036h-.036v.036h-.036v.072h-.036v.036h-.036v.036h-.036v.036h-.072v.036h-.036v.036h-.072v.036h-.107v.036h-.465v-.036H85.7v-.036h-.072v-.036H85.6v-.036h-.072v-.036h-.036v-.036h-.036v-.036h-.036v-.036H85.38v-.036h-.036v-.036h-.036v-.072h-.036v-.036h-.036v-.072H85.2v-.072h-.036v-.072h-.036v-.072h-.036v-.072h-.036v-.072H85.02v-.107h-.036v-.072h-.036v-.072h-.036v-.107h-.036v-.072H84.84v-.072H84.8v-.107h-.036v-.072h-.036v-.072H84.7v-.107H84.66v-.072h-.036v-.107h-.036v-.107h-.036v-.072h-.036v-.107h-.036v-.107h-.036v-.107h-.036v-.072h-.036v-.107h-.036v-.107H84.3v-.072h-.036v-.084h-.036v-.107h-.036v-.144h-.036V-280h-.036v-.107h-.036v-.144h-.036v-.107h-.036v-.107h-.036v-.144h-.036v-.107H83.9v-.107h-.036V-281h-.036v-.144H83.8v-.144h-.021v-.179H83.74v-.144H83.7v-.179h-.036v-.144h-.036v-.144H83.6v-.25H83.56v-.216h-.036v-.216h-.036v-.216h-.036v-.216h-.036v-.25H83.38v-.36h-.036v-.36h-.036v-.36h-.036v-.575h-.036v-.787H83.2v-1.932h.036v-.644h.036v-.5h.036v-.322h.036v-.36h.036v-.322h.036v-.25h.036v-.216h.036v-.216h.036v-.216h.036v-.216H83.6v-.179h.036v-.179h.036v-.144H83.7v-.179h.036v-.179h.036v-.144h.036v-.179h.036v-.144h.036v-.107h.036v-.144h.036v-.144h.036v-.107h.036v-.144h.036v-.107H84.1v-.144h.036v-.107h.036v-.107h.036v-.144h.036v-.107h.036v-.107h.036v-.107h.036v-.107h.036v-.107h.036v-.107h.036v-.107H84.5v-.072h.036v-.107h.036v-.072H84.6v-.107h.036v-.107h.036v-.072h.036v-.107h.036v-.072h.036v-.107h.036v-.072h.036v-.107h.036v-.072h.036v-.107h.036v-.072H85v-.072h.036v-.072h.036v-.107h.036v-.072h.036v-.072h.036v-.072h.036v-.072h.036v-.107h.036v-.072h.036v-.072h.036v-.072h.036v-.072h.036v-.072h.036v-.072H85.5v-.072h.036v-.072h.036v-.072h.036v-.072h.036v-.072h.036v-.072h.036v-.072h.036v-.072h.036v-.036h.036v-.072h.036v-.072H85.9v-.072h.036v-.072h.036v-.072h.036v-.036h.036v-.072h.036v-.072h.036v-.036h.036v-.072h.036v-.072h.036v-.072h.036v-.036h.036v-.072h.036v-.072h.036v-.036H86.4v-.072h.036v-.072h.036v-.036h.036v-.072h.036v-.072h.036v-.036h.036v-.072h.036v-.036h.036v-.072h.036v-.036h.036v-.072H86.8v-.036h.036v-.072h.036v-.036h.036v-.072h.036v-.036h.036v-.072h.036v-.072h.036v-.036h.036v-.036h.036v-.072h.036v-.036h.036v-.072h.036v-.036h.036v-.036H87.3v-.072h.036v-.036h.036v-.036h.036v-.072h.036v-.036h.036v-.072h.036v-.036h.036v-.036h.036v-.072h.036v-.036h.036v-.072H87.7v-.036h.036v-.036h.036v-.036H87.8v-.072h.036v-.036h.036v-.036h.036v-.036h.036v-.072h.036v-.036h.036v-.036h.036v-.036h.036v-.072h.036v-.036h.036v-.036H88.2v-.036h.036v-.072h.036v-.036h.036v-.036h.036v-.036h.036v-.072h.036v-.036h.036v-.036h.036v-.036h.036v-.036h.036v-.036H88.6v-.036h.036v-.072h.036v-.036H88.7v-.036h.036v-.036h.036v-.036h.036v-.036h.036v-.036h.036v-.072h.036v-.036h.036v-.036h.036v-.036h.036v-.036h.036v-.036H89.1V-302h.036v-.036h.036v-.036h.036v-.072h.036v-.036h.036v-.036h.036v-.036h.036v-.036h.036v-.036h.036v-.036h.036v-.036H89.5v-.036h.036v-.036h0v-.036h.036v-.036H89.6v-.036h.036v-.036h.036v-.036h.036v-.036h.036v-.036h.036v-.036h.036v-.036h.036v-.036h.036v-.036h.036v-.036h.036v-.036H90v-.036h.036v-.036h.036v-.036h.036v-.036h.036v-.036h.072v-.036h.036v-.036h.036v-.036h.036v-.036h.036v-.036h.036v-.036h.036v-.036h.036v-.036H90.5v-.036h.036v-.036h.036v-.036h.036v-.036h.036v-.036h.072v-.036h.036v-.036h.036v-.036h.036v-.036h.036v-.036H90.9v-.036h.072v-.036h.036v-.036h.036v-.036h.036v-.036h.036v-.036h.036v-.036h.072v-.036h.036v-.036h.036v-.036h.036v-.036h.036v-.036h.072v-.036h.036v-.036h.036v-.036h.036v-.036h.036v-.036h.072v-.036h.036v-.036h.036v-.036H91.8v-.036h.036v-.036h.036v-.036h.036v-.036h.072v-.036h.036v-.036h.036v-.036h.072v-.036h.036v-.036h.036v-.036h.072v-.036H92.3v.054h.036v-.036h.036v-.036h.072v-.036h.036v-.036h.072V-305h.036v-.036h.036v-.036H92.7v-.036h.036v-.036H92.8v-.036h.036v-.036h.072v-.036h.036v-.036h.072v-.036h.036v-.036h.036v-.036h.072v-.036H93.2v-.036h.072v-.036h.036v-.036h.072v-.036h.036v-.036h.072v-.036h.036v-.036H93.6v-.036h.072v-.036H93.7v-.036h.072v-.036h.036v-.036h.072v-.036h.072v-.036h.036v-.036h.072v-.036H94.1v-.036h.072v-.036h.072v-.036h.036v-.036h.072v-.036h.036v-.036h.072v-.036h.072v-.036H94.6v-.036h.072v-.036h.036v-.036h.072v-.036h.072v-.036h.072v-.036h.036v-.036h.072v-.036h.072v-.036h.072v-.036h.072v-.036h.036v-.036h.072v-.036h.072v-.036H95.5v-.036h.072v-.036h.072v-.036h.072v-.036h.072v-.036h.072v-.036h.072v-.036h.072v-.036h.072v-.036h.072v-.036h.072v-.036h.072v-.036h.072v-.036h.107v-.036h.072v-.036h.072v-.036h.072v-.036H96.8v-.036h.072v-.036h.072v-.036h.072v-.036h.107v-.036h.072v-.036h.072v-.036h.072v-.036h.107v-.036h.072v-.036h.107v-.036h.107v-.036H97.8v-.036h.107v-.036h.072v-.036h.107v-.036h.107v-.036h.072v-.036h.107v-.036h.072v-.036h.107v-.036h.107v-.036H98.8v-.036h.107v-.036h.107v-.036h.107v-.036h.107v-.036h.107v-.036h.107v-.036h.107v-.036h.107v-.036H99.8v-.036h.107v-.036h.144v-.036h.144v-.036h.107v-.036h.144v-.036h.107v-.036h.179v-.036h.144v-.036h.144v-.036h.179v-.036h.144v-.036h.179V-309h.144v-.036h.179v-.036h.216v-.036h.216v-.036h.179v-.036h.216v-.036h.216v-.036h.288v-.036h.288v-.036h.288v-.036h.288v-.036h.465v-.036h.465v-.036h1.073v-.036h.823v.036h.894v.036h.322v.036h.288v.036h.25v.036h.216v.036h.116v.036h.179v.036h.144v.036h.144v.036h.144v.036h.107v.036h.107v.036h.107V-309h.107v.036h.072v.036h.072v.036h.072v.036h.107v.036h.072v.036h.036v.036h.072v.036h.036v.036h.072v.036h.036v.036h.036v.036h.036v.036h.036v.036h.036v.036h.036v.036h.036v.036h.036v.036h.036v.072h.036v.072H111v.072h.036v.288H111v.179h-.036v.107h-.036v.107h-.036v.107h-.036v.036h-.036v.072h-.036v.072h-.036v.072h-.036v.036h-.036v.036h-.036v.072h-.036v.036h-.036v.036h-.036v.072H110.5v.036h-.036v.036h-.036v.036h-.036v.036h-.036v.036h-.036v.036h-.036v.036h-.036v.036h-.072v.036h-.036v.036H110.1v.036h-.036v.036h-.036v.036h-.036v.036h-.036v.036h-.036v.036h-.072v.036h-.036v.036h-.036v.036h-.036v.036h-.036v.036h-.036v.036h-.036v.036H109.6v.036h-.036v.036h-.036v.036h-.036v.036h-.036v.036h-.036v.036h-.036v.036h-.072v.036h-.036v.036h-.036v.036H109.2v.036h-.036v.036h-.036v.036h-.036v.036h-.036v.036h-.036v.036h-.036v.036h-.032v.036h-.036v.036h-.036v.036h-.036v.036h-.036v.036h-.036v.036h-.036v.036H108.7v.036h-.036v.036h-.036v.036H108.6v.036h-.036v.036h-.036v.036h-.036v.036h-.036v.036h-.036v.036h-.036v.036h-.036v.036h-.036v.036h-.036v.036h-.036v.036H108.2v.036h-.036v.036h-.036v.036h-.036v.036h-.036v.036h-.036v.036h-.036v.036h-.036v.036h-.036v.072h-.036v.036h-.036v.036H107.8v.036h-.036v.036h-.036v.036H107.7v.036h-.036V-304h-.036v.036h-.036v.036h-.036v.036h-.036v.036h-.036v.036h-.036v.036h-.036v.036h-.036v.036h-.036v.072H107.3v.036h-.036v.036h-.036v.036h-.036v.036h-.036v.036h-.036v.036h-.036v.036h-.036v.036h-.036v.036h-.036v.072h-.036v.036H106.9v.036h-.036v.036h-.036v.036H106.8v.036h-.036v.036h-.036v.036h-.036v.036h-.036v.072h-.036v.036h-.036v.036h-.036v.036h-.036v.036h-.036v.036h-.036v.036H106.4v.072h-.036v.036h-.036v.036h-.036v.036h-.036v.036h-.036v.036h-.036v.036h-.036v.072h-.036v.036h-.036v.036h-.036v.036h-.036v.036h-.036v.072h-.036v.036H105.9v.036h-.036v.036h-.036v.036h-.036v.072h-.036v.036h-.036v.036h-.036v.036h-.036v.036h-.036v.072h-.036v.036h-.036v.036H105.5v.036h-.036v.036h-.036v.072h-.036v.036h-.036v.036h-.036v.036h-.036v.072h-.036v.036h-.036v.036h-.036v.036h-.036v.072h-.036v.036h-.036v.036h-.036v.036H105v.072h-.036v.036h-.036v.036h-.036v.036h-.036v.072h-.036v.036h-.036v.036h-.036v.072h-.036v.036h-.036v.036h-.036v.072H104.6v.036h-.036v.036h-.036v.072h-.036v.036h-.036v.036h-.036v.072h-.036v.036h-.036v.036h-.036v.036h-.036v.072h-.036v.036h-.036v.072h-.036v.036h-.036v.036H104.1v.072h-.036v.036h-.036v.072h-.036v.036h-.036v.036h-.036v.072h-.036v.036h-.036v.072h-.036v.036h-.036v.036h-.036v.072H103.7v.036h-.036v.072h-.036v.036H103.6V-299h-.036v.036h-.036v.072h-.036v.036h-.036v.036h-.036v.072h-.036v.036h-.036v.072h-.036v.036h-.036v.072h-.036v.036H103.2v.072h-.036v.036h-.036v.072h-.036v.036h-.036v.072h-.036v.072h-.036v.036h-.036v.072h-.036v.036h-.036v.072h-.036v.072H102.8v.036h-.036v.072h-.036v.036H102.7v.072h-.036v.072h-.036v.036h-.036v.072h-.036v.036h-.036v.072h-.036v.072h0v.072h-.036v.036h-.036v.072h-.036v.072h-.036v.036H102.3v.072h-.036v.072h-.036v.072h-.036v.036h-.036v.072h-.036v.072h-.036v.072h-.036v.072h-.036v.036h-.036v.072h-.036v.072h-.036v.072h-.036v.072h-.036v.072H101.8v.072h-.036v.072h-.036v.072h-.036v.036h-.036v.072h-.036v.072h-.036v.072h-.036v.072h-.036v.072h-.036v.072h-.036v.072H101.4v.072h-.036v.072h-.036v.072h-.036v.072h-.036v.072h-.036v.072h-.036v.072h-.036v.072h-.036v.072h-.036v.072h-.036v.072h-.036v.072h-.036v.072h-.036v.107H100.9v.072h-.036v.072h-.036v.072h-.036v.072h-.036v.072h-.036v.072h-.036v.072h-.036v.107h-.036v.072h-.036v.072h-.036v.072H100.5v.072h-.036v.072h-.036v.072h-.036v.072h-.036v.107h-.036v.072h-.036v.072h-.036v.072h-.036v.072h-.036v.107h-.036v.072h-.036v.072h-.036v.107h-.036v.072H100v.107h-.036v.072h-.036v.072h-.036v.107h-.036v.072h-.036v.107h-.036v.072h-.036v.072h-.036v.107h-.036v.072h-.036v.072H99.6v.107h-.036v.072h-.036v.107h-.036v.072h-.036v.072h-.036v.107h-.036v.072h-.036v.107h-.036v.072h-.036v.107h-.036v.107h-.036v.107h-.036v.072h-.036v.107H99.1v.107h-.036v.072h-.036v.107h-.036v.107h-.036v.072h-.036v.107h-.036v.107h-.036v.107h-.036v.072h-.036v.107h-.036v.107H98.7v.072h-.036v.107h-.036v.107H98.6v.107H98.56v.072h-.036v.107h-.036v.144h-.036v.107h-.036v.107H98.38v.107h-.036v.107h-.036v.107h-.036v.107h-.036v.107H98.2v.144h-.036v.107h-.036v.107h-.036v.107h-.036v.107H98.02v.107h-.036v.107h-.036v.107h-.036v.144h-.036v.107H97.84v.107H97.8v.107h-.036v.144h-.036v.144H97.7v.107H97.66v.144h-.036v.144h-.036v.107h-.036v.144h-.036v.144H97.48v.107h-.036v.144h-.036v.144h-.036v.107h-.036v.144H97.3v.144h-.036v.144h-.036v.107h-.036v.144h-.036v.144h-.036v.179h-.036v.144h-.036v.179h-.036v.144h-.036v.179h-.036v.144H96.9v.144h-.036v.179h-.036v.144H96.8v.179h-.036v.144h-.036v.179h-.036v.144h-.036v.179h-.036v.179h-.036v.179h-.036v.216h-.036v.179h-.036v.216h-.036v.179H96.4v.216h-.036v.179h-.036v.216h-.036v.179h-.036v.216h-.036v.25h-.036v.25h-.036v.216h-.036v.25h-.036v.288h-.036v.25h-.036v.288h0v.288H95.97V-277h-.036v.322H95.9v.322h-.036v.36h-.036v.36H95.79v.394h-.036v.432h-.036v.465h-.036v.5h-.036v.644H95.61v.823h-.036v2.9h.036v.715h.036v.5h.036v.858h-.036v.144H95.61v.107h-.036v.072h-.036v.072H95.5v.072h-.036v.036H95.43v.036h-.036v.036h-.036v.036h-.036v.036h-.107v.036h-.107v.036h-.963v.036h-.107v.036h-.072v.036h-.072v.036h-.036v.036h-.072v.036H93.75v.036h-.036v.036h-.036v.036h-.036v.072h-.036v.036H93.57v.072h-.036v.107H93.5v.394h.036v.144h.036v.072h.036v.107h.036v.072h.036v.072h.036v.072h.036v.072h.036V-265h.036v.107h.036v.072h.036v.144h.036v.322h-.036v.144h-.036v.036h-.036v.072h-.036v.036H93.75v.036h-.036v.036h-.036v.036h-.036v.036h-.072v.036H93.5v.036h-.1v.036" transform="translate(-67.517 345.308)" fill="url(#radial-gradient)"/>
              </g>
            </g>
          </g>
          <path id="path108" d="M236.481-152.9h.293c.332,0,.615-.12.615-.432,0-.222-.161-.443-.615-.443a1.965,1.965,0,0,0-.293.021Zm0,1.4h-.4v-2.53a4.565,4.565,0,0,1,.716-.06,1.33,1.33,0,0,1,.787.191.608.608,0,0,1,.232.525.63.63,0,0,1-.494.615v.021c.222.04.374.242.424.614a2.126,2.126,0,0,0,.16.625h-.422a1.876,1.876,0,0,1-.172-.647.473.473,0,0,0-.174-.342.473.473,0,0,0-.371-.1h-.282Zm.423-3.237a1.87,1.87,0,0,0-1.814,1.915,1.871,1.871,0,0,0,.512,1.342,1.87,1.87,0,0,0,1.312.583,1.849,1.849,0,0,0,1.309-.577,1.849,1.849,0,0,0,.506-1.338,1.865,1.865,0,0,0-.507-1.34,1.865,1.865,0,0,0-1.308-.585Zm.01-.353a2.238,2.238,0,0,1,1.588.669,2.238,2.238,0,0,1,.642,1.6,2.236,2.236,0,0,1-.64,1.61,2.236,2.236,0,0,1-1.6.669,2.25,2.25,0,0,1-1.6-.67,2.251,2.251,0,0,1-.648-1.609,2.254,2.254,0,0,1,.653-1.6,2.254,2.254,0,0,1,1.6-.667h.01" transform="translate(-193.621 196.294)" fill="#100f0d"/>
        </g>
      </g>
    </g>
  </g>
</svg>
