<svg xmlns="http://www.w3.org/2000/svg" width="280" height="280" viewBox="0 0 280 280">
    <defs>
        <clipPath id="p3gaindzda">
            <path d="M109.485-291.577a57.9 57.9 0 0 1 11.373-13.823 2.462 2.462 0 0 0 1.01-2.054c-.245-1.023-2.247-1.667-4.812-1.863-17.632-.925-33.313 12.631-33.765 30.282a29.433 29.433 0 0 0 2.765 14.3 1.147 1.147 0 0 0 2.232-.145c.414-8.106 3.178-18.2 5.964-23.172 1.866-3.118 3.78-6.27 6.228-4.209 1 1.066-.524 2.9-2.138 6.376a73.4 73.4 0 0 0-4.748 15.916 57.364 57.364 0 0 0-.749 14.5c.368 6.343 3.171 10.327 4.929 9.1 1.141-.968-.706-1.915-.152-3.106a1.319 1.319 0 0 1 1.125-.687 4.308 4.308 0 0 0 .931.01c1.145-.07.883-1.947.883-1.947a71.387 71.387 0 0 1 .727-14.937 74.064 74.064 0 0 1 8.2-24.547zm33.178-1.432a1.917 1.917 0 0 1 .31-2.146 2.846 2.846 0 0 1 1.544-.772s.267-.043.586-.1a1.33 1.33 0 0 0 1.083-1.422s.022-1.075-1.63-1.235a6.992 6.992 0 0 0-3.185.6s-3.435 1.357-8.236 6.292c-3.639 3.754-8.177 11.548-10.708 19.882-2.577 8.484-3.669 16.371-2.367 24.533 0 0 .745 3.986 2.9 5.469a1.771 1.771 0 0 0 1.448.269 1.434 1.434 0 0 0 .552-.44 1.19 1.19 0 0 0-.008-1.317s-.11-.179-.27-.423a3.1 3.1 0 0 1-.431-1.18 2.66 2.66 0 0 1 .314-1.812 2.044 2.044 0 0 1 1.056-.816c10.873-3.578 20.166-14.436 21.057-27.888.353-6.726-.747-12.193-4.011-17.492zm-11.007-4.121a31.384 31.384 0 0 1 3.247-2.531 1.614 1.614 0 0 0 .716-1.291 2.2 2.2 0 0 0-.928-1.626 3.194 3.194 0 0 1-.507-.626 1.62 1.62 0 0 1 .066-1.418 1.894 1.894 0 0 1 .972-.875 8.869 8.869 0 0 1 1.1-.324 1.78 1.78 0 0 0 .758-.3 1.159 1.159 0 0 0 .176-1.243s-.226-.635-1.672-.725a6.823 6.823 0 0 0-2.274.163 12.637 12.637 0 0 0-2.27.725c-.781.419-13.289 5.264-21.513 29.544a94.385 94.385 0 0 0-3.9 23.16s-.512 8.345 2.229 12.909a5.194 5.194 0 0 0 1.3 1.427 1.174 1.174 0 0 0 1.55-.053s.8-.622-.024-1.911a3.161 3.161 0 0 1-.283-.669 2.483 2.483 0 0 1 .1-1.432 2.036 2.036 0 0 1 1.769-1.311 2.889 2.889 0 0 0 2.118-.837 3.36 3.36 0 0 0 .445-2.324s-.166-1.767-.325-4.094a50.777 50.777 0 0 1 1.04-13.293 84.322 84.322 0 0 1 2.98-10.9 51.857 51.857 0 0 1 13.13-20.145z" transform="translate(-83.274 309.364)" style="fill:#fff"/>
        </clipPath>
        <clipPath id="1k649x5ovb">
            <path d="M24.744-382.579a60.332 60.332 0 0 1 60.233-60.454 60.34 60.34 0 0 1 60.27 60.454 60.3 60.3 0 0 1-60.27 60.25 60.287 60.287 0 0 1-60.233-60.25z" transform="translate(-24.744 443.032)" style="fill:#fff"/>
        </clipPath>
    </defs>
    <g data-name="Group 68953">
        <path data-name="Rectangle 7195" style="fill:none;opacity:.2" d="M0 0h280v280H0z"/>
        <path d="m13.789-23.443.149-2.262a9.611 9.611 0 0 1-3.455.723c-3.428 0-4.575-2.074-3.844-5.735.658-3.287 2.653-5.806 5.94-5.806a10.481 10.481 0 0 1 3.3.538l.747-2.331a14.406 14.406 0 0 0-3.387-.444c-5.291 0-8.477 3.568-9.454 8.462-.839 4.2.416 7.6 5.684 7.6a12.988 12.988 0 0 0 4.324-.745" transform="translate(101.909 190.281)" style="fill:#fff"/>
        <path d="M39.632-29.917c-2.126-.21-3.579 1.234-4.407 2.8h-.046a17.4 17.4 0 0 0 .747-2.564h-2.379L31.232-18.1h2.495l.942-4.71c.693-3.473 2.134-5.082 4.359-4.664l.6-2.447" transform="translate(86.887 185.494)" style="fill:#fff"/>
        <path d="m51.135-17.8 2.315-11.583h-2.494L48.64-17.8h2.495" transform="translate(77.443 185.193)" style="fill:#fff"/>
        <path d="M57.5-38.57a1.348 1.348 0 0 0-1.375-1.688 2.2 2.2 0 0 0-2.073 1.688 1.362 1.362 0 0 0 1.4 1.687A2.192 2.192 0 0 0 57.5-38.57" transform="translate(74.522 191.093)" style="fill:#fff"/>
        <path d="m68.859-18.415.215-2.121a6.568 6.568 0 0 1-2.63.56c-2.308 0-2.756-1.609-2.333-3.731.489-2.448 1.874-4.009 4-4.009a6.07 6.07 0 0 1 2.243.443l.69-2.169a8.153 8.153 0 0 0-2.448-.348c-3.988 0-6.412 2.681-7.148 6.363-.825 4.128 1.049 5.6 4.034 5.6a10.444 10.444 0 0 0 3.381-.584" transform="translate(70.603 185.414)" style="fill:#fff"/>
        <path d="m92.252-24.238-3.358-6.3 5.348-5.29h-3.055l-4.745 4.964 2.078-10.4h-2.495l-3.4 17.021h2.495l1.173-5.876 2.789 5.876h3.172" transform="translate(59.006 191.636)" style="fill:#fff"/>
        <path d="M114.837-25.464h-4.921a3.415 3.415 0 0 1 3.105-2.589c1.469 0 2.179 1.004 1.816 2.589zm2.377.583c.549-2.75-.421-5.012-3.732-5.012-3.38 0-5.814 2.611-6.511 6.107-.816 4.081.792 5.946 4.406 5.946a11.748 11.748 0 0 0 4.16-.746l.162-1.981a9.032 9.032 0 0 1-3.528.746c-2.309 0-3.254-1.213-2.65-3.894h7.391c.135-.442.237-.838.3-1.166" transform="translate(45.911 185.47)" style="fill:#fff"/>
        <path d="m138.377-23.014.411-2.052a6.712 6.712 0 0 1-1.554.187c-1.166 0-1.422-.467-1.077-2.191l1.108-5.55h3.035l.387-1.933h-3.055l.872-4.361-2.606.676-.737 3.684h-2.215l-.386 1.933h2.214l-1.266 6.321c-.516 2.588.038 3.543 2.51 3.543a12.883 12.883 0 0 0 2.359-.256" transform="translate(31.917 190.364)" style="fill:#fff"/>
        <path d="m171.685-23.443.148-2.262a9.6 9.6 0 0 1-3.454.723c-3.427 0-4.574-2.074-3.844-5.735.658-3.287 2.653-5.806 5.939-5.806a10.491 10.491 0 0 1 3.3.538l.745-2.331a14.391 14.391 0 0 0-3.385-.444c-5.292 0-8.473 3.568-9.451 8.462-.839 4.2.417 7.6 5.681 7.6a12.985 12.985 0 0 0 4.322-.745" transform="translate(16.247 190.281)" style="fill:#fff"/>
        <path d="M196.741-23.926c-.536 2.681-2.139 3.939-3.748 3.939-1.935 0-2.685-1.374-2.165-3.986.532-2.658 2.233-3.823 3.749-3.823 1.982-.004 2.659 1.396 2.164 3.87zm2.6-.164c.816-4.08-1.03-5.8-4.131-5.8a7.331 7.331 0 0 0-7.017 6.177c-.815 4.08.925 5.876 4.142 5.876a7.406 7.406 0 0 0 7.006-6.249" transform="translate(1.845 185.471)" style="fill:#fff"/>
        <path d="m225.788-17.8 2.312-11.583h-2.49l-1.119 5.594c-.461 2.308-2.112 4.15-3.86 4.15-1.33 0-1.557-.838-1.269-2.284l1.491-7.46h-2.472l-1.621 8.114c-.41 2.051.075 3.706 2.71 3.706a5.365 5.365 0 0 0 4.536-2.518l.02.024a16.946 16.946 0 0 0-.617 2.261h2.378" transform="translate(-13.694 185.193)" style="fill:#fff"/>
        <path d="m253.64-18.072 1.622-8.115c.41-2.051-.075-3.706-2.71-3.706a5.368 5.368 0 0 0-4.537 2.517L248-27.4a16.886 16.886 0 0 0 .615-2.261h-2.378l-2.316 11.587h2.495l1.117-5.6c.462-2.308 2.112-4.15 3.86-4.15 1.33 0 1.559.839 1.269 2.284l-1.49 7.461h2.47" transform="translate(-28.497 185.47)" style="fill:#fff"/>
        <path d="m279.948-18.415.215-2.121a6.568 6.568 0 0 1-2.631.56c-2.308 0-2.756-1.609-2.333-3.731.49-2.448 1.874-4.009 4-4.009a6.071 6.071 0 0 1 2.243.443l.691-2.169a8.164 8.164 0 0 0-2.45-.348c-3.986 0-6.411 2.681-7.146 6.363-.825 4.128 1.049 5.6 4.034 5.6a10.448 10.448 0 0 0 3.381-.584" transform="translate(-43.915 185.414)" style="fill:#fff"/>
        <path d="m296.208-23.547 2.315-11.587h-2.494l-2.316 11.587zm3.322-14.875a1.248 1.248 0 0 0-1.274-1.563 2.037 2.037 0 0 0-1.92 1.563 1.261 1.261 0 0 0 1.3 1.56 2.029 2.029 0 0 0 1.9-1.56" transform="translate(-55.51 190.945)" style="fill:#fff"/>
        <path d="m308.921-24.238 3.4-17.021h-2.494l-3.4 17.021h2.495" transform="translate(-62.408 191.636)" style="fill:#fff"/>
        <path d="m16.7-73.682 3.143-15.738H17.3l-3.144 15.738H16.7" transform="translate(96.15 217.763)" style="fill:#fff"/>
        <path d="m38.915-69.038 1.622-8.115c.41-2.05-.076-3.706-2.71-3.706a5.366 5.366 0 0 0-4.535 2.518l-.019-.023a16.5 16.5 0 0 0 .613-2.262h-2.377l-2.314 11.588h2.495l1.118-5.6c.461-2.307 2.112-4.15 3.859-4.15 1.33 0 1.559.839 1.268 2.286l-1.49 7.46h2.47" transform="translate(87.992 213.119)" style="fill:#fff"/>
        <path d="m65.743-73.978.41-2.05a6.806 6.806 0 0 1-1.554.186c-1.166 0-1.421-.467-1.076-2.191l1.108-5.55h3.03l.387-1.936H65l.87-4.36-2.61.679-.737 3.683h-2.214l-.387 1.936h2.215l-1.264 6.317c-.516 2.588.039 3.545 2.51 3.545a12.9 12.9 0 0 0 2.359-.257" transform="translate(71.322 218.012)" style="fill:#fff"/>
        <path d="M88.045-76.428h-4.92a3.413 3.413 0 0 1 3.1-2.588c1.475 0 2.185 1.002 1.82 2.588zm2.379.582c.548-2.752-.421-5.013-3.732-5.013-3.38 0-5.814 2.611-6.512 6.108-.816 4.08.794 5.945 4.407 5.945a11.738 11.738 0 0 0 4.158-.747l.164-1.981a9.024 9.024 0 0 1-3.53.746c-2.308 0-3.256-1.212-2.648-3.893h7.39c.134-.444.237-.839.3-1.166" transform="translate(60.445 213.119)" style="fill:#fff"/>
        <path d="M115.9-80.883c-2.126-.21-3.581 1.235-4.405 2.8h-.047a17.249 17.249 0 0 0 .746-2.564h-2.378L107.5-69.062h2.495l.94-4.71c.694-3.473 2.135-5.082 4.359-4.662l.6-2.448" transform="translate(45.513 213.143)" style="fill:#fff"/>
        <path d="m137.392-69.038 1.623-8.115c.409-2.05-.076-3.706-2.71-3.706a5.365 5.365 0 0 0-4.535 2.518l-.02-.023a16.511 16.511 0 0 0 .615-2.262h-2.378l-2.314 11.587h2.494l1.118-5.6c.462-2.307 2.111-4.15 3.859-4.15 1.33 0 1.558.839 1.269 2.286l-1.49 7.46h2.469" transform="translate(34.568 213.119)" style="fill:#fff"/>
        <path d="M163.473-74.051a3.986 3.986 0 0 1-3.5 3.287c-.978 0-1.472-.56-1.3-1.422.2-1 1.21-2.1 4.844-2.1zm1.562 5.012c.149-.979.364-2.169.564-3.172l.947-4.731c.473-2.378-.2-3.917-3.74-3.917a12.839 12.839 0 0 0-4.23.77l-.19 2.122a8.169 8.169 0 0 1 3.631-.933c1.818 0 2.276.748 1.988 2.192l-.149.746c-4.17 0-7.134 1.539-7.665 4.2-.368 1.844.666 2.962 2.649 2.962a5.135 5.135 0 0 0 4.321-2.4l.019.023a17.055 17.055 0 0 0-.546 2.146h2.4" transform="translate(19.136 213.119)" style="fill:#fff"/>
        <path d="m190.7-73.978.411-2.05a6.808 6.808 0 0 1-1.552.186c-1.167 0-1.424-.467-1.078-2.191l1.107-5.55h3.032l.386-1.936h-3.054l.87-4.36-2.605.676-.737 3.683h-2.214l-.387 1.936h2.221l-1.263 6.317c-.517 2.588.038 3.545 2.509 3.545a12.9 12.9 0 0 0 2.359-.257" transform="translate(3.531 218.012)" style="fill:#fff"/>
        <path d="m207.424-74.512 2.315-11.588h-2.495l-2.315 11.587zm3.321-14.876a1.247 1.247 0 0 0-1.274-1.561 2.034 2.034 0 0 0-1.92 1.561 1.262 1.262 0 0 0 1.3 1.564 2.028 2.028 0 0 0 1.9-1.564" transform="translate(-7.345 218.593)" style="fill:#fff"/>
        <path d="M228.452-74.892c-.536 2.682-2.14 3.941-3.75 3.941-1.934 0-2.685-1.375-2.163-3.986.53-2.658 2.232-3.823 3.749-3.823 1.981 0 2.657 1.399 2.164 3.868zm2.6-.16c.814-4.082-1.033-5.807-4.133-5.807a7.331 7.331 0 0 0-7.019 6.179c-.814 4.079.925 5.875 4.142 5.875a7.411 7.411 0 0 0 7.008-6.247" transform="translate(-15.358 213.119)" style="fill:#fff"/>
        <path d="m258.7-69.038 1.621-8.115c.41-2.05-.074-3.706-2.71-3.706a5.365 5.365 0 0 0-4.535 2.518l-.018-.023a16.853 16.853 0 0 0 .614-2.262h-2.376l-2.316 11.587h2.494l1.119-5.6c.461-2.307 2.111-4.15 3.859-4.15 1.329 0 1.558.839 1.268 2.286l-1.49 7.46h2.47" transform="translate(-31.242 213.119)" style="fill:#fff"/>
        <path d="M285.084-74.051a3.988 3.988 0 0 1-3.5 3.287c-.979 0-1.474-.56-1.3-1.422.2-1 1.212-2.1 4.849-2.1zm1.56 5.012a73.65 73.65 0 0 1 .565-3.172l.946-4.731c.476-2.378-.2-3.917-3.741-3.917a12.864 12.864 0 0 0-4.233.77l-.191 2.122a8.2 8.2 0 0 1 3.637-.933c1.818 0 2.275.748 1.986 2.192l-.149.746c-4.174 0-7.138 1.539-7.669 4.2-.368 1.844.668 2.962 2.648 2.962a5.144 5.144 0 0 0 4.329-2.4l.017.023a17.166 17.166 0 0 0-.545 2.146h2.4" transform="translate(-46.835 213.119)" style="fill:#fff"/>
        <path d="m309.107-75.2 3.4-17.019h-2.494l-3.4 17.019h2.495" transform="translate(-62.509 219.283)" style="fill:#fff"/>
        <g style="clip-path:url(#p3gaindzda)" transform="translate(30 115.68)">
            <g style="clip-path:url(#1k649x5ovb)">
                <path d="M109.541-239.936v-.05h-.149v-.05h-.1v-.05h-.1v-.05h-.05v-.05h-.1v-.05h-.05v-.05h-.05v-.05h-.05v-.05h-.05v-.05h-.1v-.05h-.05v-.05h-.05v-.05h-.05v-.05h-.05v-.05h-.05v-.05h-.05v-.05h-.05v-.05h-.05v-.05h-.05v-.05h-.05v-.1h-.05v-.05h-.05v-.05h-.05v-.05h-.05v-.1H108v-.05h-.05v-.05h-.05v-.1h-.05v-.05h-.05v-.1h-.05v-.1h-.05v-.05h-.05v-.1h-.05v-.1h-.05v-.1h-.05v-.1h-.05v-.1h-.05v-.1h-.05v-.1h-.05v-.1h-.05v-.149h-.05v-.1h-.05v-.1h-.05v-.149h-.05v-.1H107v-.1h-.05v-.149h-.05v-.1h-.05v-.149h-.05v-.149h-.05v-.149h-.05v-.149h-.05v-.149h-.05v-.149h-.05v-.2h-.05v-.149h-.05v-.2h-.05v-.2h-.05v-.2h-.05v-.149h-.05v-.249h-.05V-246h-.05v-.2h-.05v-.249h-.05v-.249H106v-.3h-.05v-.3h-.05v-.3h-.05v-.348h-.05v-.4h-.05v-.4h-.05v-.5h-.05v-.547h-.05v-.7h-.05v-1.044h-.05v-2.833h.05v-1.292h.05v-1.044h.05v-.7h.05v-.7h.05v-.646h.05v-.6h.05v-.447h.05v-.5h.05v-.5h.05v-.447h.05v-.4h.05v-.4h.05v-.4h.05v-.4h.05v-.4h.05v-.348h.05v-.3h.05v-.348h.05v-.3h.05v-.348h.05v-.348h.05v-.3h.05v-.3h.05v-.249h.05v-.3h.05v-.3h.05v-.3h.05v-.3h.05v-.249h.05v-.249h.05v-.249h.05v-.248h.05v-.3h.05v-.248h.05v-.249h.05v-.249h.05v-.249h.05v-.2h.05v-.249h.05v-.249h.05v-.248h.05v-.2h.05v-.249h.05v-.2h.05v-.249h.05v-.2h.05v-.249h.05v-.2h.05v-.2h.05v-.2h.05v-.249h.05v-.2h.05v-.2h.05v-.2h.05v-.2h.05v-.2h.05v-.2h.05v-.2h.05v-.2h.05v-.2h.05v-.2h.05v-.2h.05v-.149h.05v-.2h.05v-.2h.05v-.149h.05v-.2h.05v-.2h.05v-.149h.05v-.2h.05v-.149h.05v-.2h.05v-.149h.05v-.2h.05v-.149h.05v-.2h.05v-.149h.05v-.149h.05v-.149h.05v-.149h.05v-.149h.05v-.149h.05v-.149h.05v-.149h.05v-.149h.05v-.1h.05v-.149h.05v-.149h.05v-.149h.05v-.149h.05v-.1h.05v-.149h.05v-.149h.05v-.149h.05v-.149h.05v-.1h.05v-.149h.05v-.1h.05v-.149h.05v-.149h.05v-.1h.05v-.149h.05v-.149h.05v-.1h.05v-.149h.05v-.1h.05v-.149h.05v-.149h.05v-.1h.05v-.149h.05v-.1h.05v-.149h.05v-.1h.05v-.149h.05v-.1h.05v-.149h.05v-.1h.05v-.1h.05v-.149h.05v-.1h.05v-.149h.05v-.1h.05v-.149h.05v-.1h.05v-.1h.05v-.149h.05v-.1h.05v-.149h.05v-.1h.05v-.1h.05v-.1h.05v-.149h.05v-.1h.05v-.1h.05v-.1h.05v-.149h.05v-.1h.05v-.1h.05v-.1h.05v-.149h.05v-.1h.05v-.1h.05v-.1h.05v-.149h.05v-.1h.05v-.1h.05v-.1h.05v-.1h.05v-.1h.05v-.1h.05v-.1h.05v-.1h.05v-.149h.05v-.1h.05v-.1h.05v-.1h.05v-.1h.05v-.1h.05v-.1h.05v-.1h.05v-.1h.05v-.1h.05v-.1h.05v-.1h.05v-.1h.05v-.1h.05v-.1h.05v-.1h.05v-.1h.05v-.1h.05v-.1h.05v-.1h.05v-.1h.05v-.1h.05v-.1h.05v-.1h.05v-.1h.05v-.1h.05v-.1h.05v-.05h.05v-.1h.05v-.1h.05v-.1h.05v-.1h.05v-.1h.05v-.05h.05v-.1h.05v-.1h.05v-.1h.05v-.1h.05v-.05h.05v-.1h.05v-.1h.05v-.1h.05v-.1h.05v-.1h.05v-.05h.05v-.1h.05v-.1h.05v-.1h.05v-.05h.05v-.1h.05v-.1h.05v-.05h.05v-.1h.05v-.1h.05v-.05h.05v-.1h.05v-.1h.05V-292.424h.05v-.1h.05v-.1h.05v-.05h.05v-.1h.05v-.1h.05v-.05h.05v-.1h.05v-.05h.05v-.1h.05v-.1h.05v-.05h.05v-.1h.05v-.05h.05v-.1h.05v-.1h.05v-.05h.05v-.1h.05v-.1h.05v-.05h.05v-.1h.05v-.05h.05v-.1h.05v-.05h.05v-.1h.05v-.05h.05v-.1h.05v-.05h.05v-.1h.05v-.05h.05v-.1h.05v-.05h.05v-.1h.05v-.05h.05v-.1h.05v.124h.05v-.1h.05v-.05h.05v-.1h.05v-.05h.05v-.1h.05v-.05h.05v-.1h.05v-.05h.05v-.05h.05v-.1h.05v-.05h.05v-.1h.05v-.05h.05v-.05h.05v-.1h.05v-.05h.05v-.1h.05v-.05h.05v-.05h.05v-.1h.05v-.05h.05v-.1h.05v-.05h.05v-.05h.05v-.1h.05v-.05h.05v-.05h.05v-.1h.05v-.05h.05v-.05h.05v-.1h.05v-.05h.05v-.05h.05v-.1h.05v-.05h.05v-.05h.05v-.1h.05v-.05h.05v-.05h.05v-.05h.05v-.1h.05v-.05h.05v-.05h.05v-.05h.05v-.1h.05v-.05h.05v-.05h.05v-.05h.05v-.1h.05v-.05h.05v-.05h.05v-.05h.05v-.1h.05v-.05h.05v-.05h.05v-.05h.05v-.05h.05v-.1h.05v-.05h.05v-.05h.05v-.05h.05v-.05h.05v-.1h.05v-.05h.05v-.05h.05v-.05h.05v-.05h.05v-.05h.05v-.1h.05v-.05h.05v-.05h.05v-.05h.05v-.05h.05v-.05h.05v-.05h.05v-.1h.05v-.05h.05v-.05h.05v-.05h.05v-.05h.05v-.05h.05v-.05h.05v-.05h.05v-.05h.05v-.05h.05v-.1h.05v-.05h.05v-.05h.05v-.05h.05v-.05h.05v-.05h.05v-.05h.05v-.05h.05v-.05h.05v-.05h.05v-.05h.05v-.05h.05v-.05h.05v-.05h.05v-.05h.05v-.05h.05v-.05h.05v-.05h.05v-.1h.05v-.05h.05v-.05h.05v-.05h.05v-.05h.05v-.05h.05v-.05h.1v-.05h.05v-.05h.05v-.05h.05v-.05h.05v-.05h.05v-.05h.05v-.05h.05v-.05h.05v-.05h.05v-.05h.05v-.05h.05v-.05h.05v-.05h.05v-.1h.05v-.05h.05v-.05h.05v-.05h.05v-.05h.05v-.05h.1v-.05h.05v-.05h.05v-.05h.05v-.05h.05v-.05h.1v-.05h.05v-.05h.05v-.05h.1v-.05h.05v-.05h.05v-.05h.05v-.05h.05v-.05h.05v-.05h.05v-.05h.1v-.05h.05v-.05h.05v-.05h.05v-.05h.05v-.05h.1v-.05h.05v-.05h.05v-.05h.05v-.05h.05v-.05h.1v-.05h.05v-.05h.05v-.05h.05v-.05h.1v-.05h.05v-.05h.05v-.05h.05v-.05h.1v-.05h.05v-.05h.05v-.05h.1v-.05h.05v-.05h.05v-.05h.1v-.05h.05v-.05h.05v-.05h.1v-.05h.05v-.05h.05v-.05h.1v-.05h.05v-.05h.1v-.05h.05v-.05h.05v-.05h.1v-.05h.05v-.05h.1v-.05h.05v-.05h.1v-.05h.05v-.05h.1v-.05h.05v-.05h.1v-.05h.05v-.05h.1v-.05h.05v-.05h.1v-.05h.05v-.05h.1v-.05h.1v-.05h.05v-.05h.1v-.05h.05v-.05h.1v-.05h.1v-.05h.05v-.05h.1v-.05h.1v-.05h.1v-.05h.05v-.05h.1v-.05h.1v-.05h.1v-.05h.1v-.05h.1v-.05h.1v-.05h.05v-.05h.1v-.05h.1v-.05h.1v-.05h.1v-.05h.149v-.05h.1v-.05h.1v-.05h.1v-.05h.1v-.05h.1v-.05h.149v-.05h.149v-.05h.1v-.05h.149v-.05h.149v-.05h.149v-.05h.149v-.05h.149v-.05h.149v-.05h.2v-.05h.149v-.05h.2v-.05h.249v-.05h.2v-.05h.3v-.05h.348v-.05h.547v-.05h.7v.05h.547v.05h.3v.05h.2v.05h.149v.05h.149v.05h.1v.05h.1v.05h.1v.05h.05v.05h.05v.05h.05v.05h.05v.05h.05v.05h.05v.1h.05v.2h.05v.6h-.05v.2h-.05v.1h-.05v.05h-.05v.1h-.05v.05h-.1v.05h-.05v.05h-.1v.05h-.149v.05h-.149v.05h-.2v.05h-.2v.05h-.2v.05h-.2v.05h-.149v.05h-.149v.05h-.149v.05h-.149v.05h-.1v.05h-.1v.05h-.05v.05h-.1v.05h-.05v.05h-.05v.05h-.05v.05h-.05v.05h-.05v.05h-.05v.05h-.05v.05h-.05v.05h-.05v.1h-.05v.05h-.05v.1h-.05v.149h-.05v.149h-.05v.2h-.05v.547h.05v.2h.05v.1h.05v.1h.05v.05h.05v.1h.05v.05h.05v.05h.05v.1h.05v.05h.05v.05h.05v.05h.05v.05h.05v.05h.1v.05h.05v.05h.05v.05h.05v.05h.05v.1h.05v.05h.05v.05h.05v.05h.05v.1h.05v.05h.05v.1h.05v.05h.05v.1h.05v.149h.05v.1h.05v.2h.05v.646h-.05v.149h-.05v.149h-.05v.1h-.05v.1h-.05v.05h-.05v.05h-.05v.1h-.05v.05h-.05v.05h-.05v.05h-.05v.05h-.1v.05h-.05v.05h-.1v.05h-.05v.05h-.1v.05h-.05v.05h-.1v.05h-.05v.05h-.1v.05h-.05v.05h-.05v.05h-.1v.05h-.05v.05h-.05v.05h-.1v.05h-.05v.05h-.1v.05h-.05v.05h-.05v.05h-.05v.05h-.1v.05h-.05v.05h-.05v.05h-.1v.05h-.05v.05h-.05v.05h-.1v.05h-.05v.05h-.05v.05H133v.05h-.05v.05h-.1v.05h-.05v.05h-.05v.05h-.05v.05h-.1v.05h-.05v.05h-.05v.05h-.05v.05h-.05v.05h-.1v.05h-.05v.05h-.05v.05h-.05v.05h-.05v.05h-.05v.05h-.1v.05h-.05v.05h-.05v.05h-.05v.05h-.05v.05h-.05v.05h-.1v.05h-.05v.05h-.05v.05h-.05v.05h-.05v.05h-.05v.05h-.05v.05h-.05v.05h-.05v.05h-.05v.05h-.05v.05h-.05v.05H131v.05h-.05v.05h-.05v.05h-.05v.05h-.05v.05h-.05v.05h-.05v.05h-.05v.05h-.05v.05h-.05v.05h-.05v.05h-.05v.05h-.05v.05h-.05v.05h-.05v.05h-.05v.05h-.05v.05h-.05v.05h-.05v.05h-.05v.05H130v.05h-.05v.1h-.05v.05h-.05v.05h-.05v.05h-.05v.05h-.05v.05h-.05v.05h-.05v.05h-.05v.05h-.05v.05h-.05v.05h-.05v.05h-.05v.05h-.05v.1h-.05v.05h-.05v.05h-.05v.05h-.05v.05h-.05v.05H129v.05h-.05v.05h-.05v.05h-.05v.05h-.05v.05h-.05v.05h-.05v.05h-.05v.1h-.05v.05h-.05v.05h-.05v.05h-.05v.05h-.05v.05h-.05v.05h-.05v.1h-.05v.05h-.05v.05h-.05v.05h-.05v.05h-.05v.05H128v.1h-.05v.05h-.05v.05h-.05v.05h-.05v.05h-.05v.05h-.05v.1h-.05v.05h-.05v.05h-.05v.05h-.05v.05h-.05v.05h-.05v.1h-.05v.05h-.05v.05h-.05v.05h-.05v.05h-.05v.1h-.05v.05h-.05v.05H127v.05h-.05v.1h-.05v.05h-.05v.05h-.05v.05h-.05v.1h-.05v.05h-.05v.05h-.05v.05h-.05v.1h-.05v.05h-.05v.05h-.05v.05h-.05v.1h-.05v.05h-.05v.05h-.05v.05h-.05v.1h-.05v.05h-.05v.05H126v.1h-.05v.05h-.05v.05h-.05v.1h-.05v.05h-.05v.05h-.05v.1h-.05v.05h-.05v.05h-.05v.1h-.05v.05h-.05v.05h-.05v.1h-.05v.05h-.05v.1h-.05v.05h-.05v.05h-.05v.1h-.05v.05h-.05v.05H125V-289.412h-.05v.05h-.05v.1h-.05v.05h-.05v.1h-.05v.05h-.05v.1h-.05v.05h-.05v.1h-.05v.05h-.05v.1h-.05v.05h-.05v.1h-.05v.05h-.05v.05h-.05v.1h-.05v.05h-.05v.1h-.05v.05h-.05v.1H124v.05h-.05v.1h-.05v.05h-.05v.1h-.05v.1h-.05v.05h-.05v.1h-.05v.05h-.05v.1h-.05v.05h-.05v.1h-.05v.1h-.05v.05h-.05v.1h-.05v.05h-.05v.1h-.05v.1h-.05v.05h-.05v.1h-.05v.05H123v.1h-.05v.1h-.05v.05h-.05v.1h-.05v.1h-.05v.1h-.05v.05h-.05v.1h-.05v.1h-.05v.05h-.05v.1h-.05v.1h-.05v.1h-.05v.05h-.05v.1h-.05v.1h-.05v.1h-.05v.05h-.05v.1h-.05v.1H122v.1h-.05v.1h-.05v.1h-.05v.05h-.05v.1h-.05v.1h-.05v.1h-.05v.1h-.05v.1h-.05v.1h-.05v.05h-.05v.1h-.05v.1h-.05v.1h-.05v.1h-.05v.1h-.05v.1h-.05v.1h-.05v.1h-.05v.1H121v.1h-.05v.1h-.05v.1h-.05v.1h-.05v.1h-.05v.149h-.05v.1h-.05v.1h-.05v.1h-.05v.1h-.05v.1h-.05v.1h-.05v.1h-.05v.1h-.05v.149h-.05v.1h-.05v.1h-.05v.1h-.05v.149h-.05v.1H120v.1h-.05v.1h-.05v.149h-.05v.1h-.05v.1h-.05v.149h-.05v.1h-.05v.1h-.05v.149h-.05v.1h-.05v.1h-.05v.149h-.05v.1h-.05v.149h-.05v.1h-.05v.149h-.05v.1h-.05v.1h-.05v.149h-.05v.1H119v.149h-.05v.1h-.05v.149h-.05v.1h-.05v.149h-.05v.1h-.05v.149h-.05v.1h-.05v.149h-.05v.1h-.05v.149h-.05v.1h-.05v.149h-.05v.1h-.05v.149h-.05v.149h-.05v.1h-.05v.149h-.05v.149h-.05v.149H118v.149h-.05v.149h-.05v.149h-.05v.149h-.05v.149h-.05v.149h-.05v.149h-.05v.149h-.05v.2h-.05v.149h-.05v.149h-.05v.2h-.05v.149h-.05v.149h-.05v.2h-.05v.149h-.05v.2h-.05v.149h-.05v.2h-.05v.2H117v.349h-.05v.2h-.05v.149h-.05v.2h-.05v.2h-.05v.2h-.05v.2h-.05v.2h-.05v.2h-.05v.2h-.05v.2h-.05v.2h-.05v.2h-.05v.2h-.05v.2h-.05v.2h-.05v.249h-.05v.2h-.05v.2h-.05v.2H116v.249h-.05v.2h-.05v.248h-.05v.2h-.05v.2h-.05v.248h-.05v.249h-.05v.2h-.05v.249h-.05v.248h-.05v.249h-.05v.248h-.05v.3h-.05v.249h-.05v.3h-.05v.3h-.05v.3h-.05v.3h-.05v.3h-.05v.348H115v.3h-.05v.348h-.05v.3h-.05v.4h-.05v.4h-.05v.4h-.05v.4h-.05v.5h-.05v.547h-.05v.547h-.05v.745h-.05v.845h-.05v3.926h.05v.944h.05v.7h.05v.646h.05v.646h.05v.6h.05v.6h.05v.6h.05v.5h.05v.447h-.05v.447h-.05v.2h-.05v.2h-.05v.149h-.05v.149h-.05v.1h-.05v.1h-.05v.1h-.05v.1h-.05v.05h-.05v.05h-.05v.05h-.05v.05h-.05v.05h-.05v.05h-.05v.05h-.1v.05h-.05v.05h-.1v.05h-.05v.05h-.1v.05h-.149v.05h-.1v.05h-.149v.05h-.2v.05h-.249v.05h-.447v.05h-.4v.05h-.2v.05h-.149v.05h-.1v.05h-.1v.05h-.1v.05h-.1v.05h-.05v.05h-.05v.05h-.1v.05h-.05v.05h-.05v.05h-.05v.05h-.05v.05h-.05v.1h-.05v.05h-.05v.05h-.05v.1h-.05v.1h-.05v.1h-.05v.1h-.05v.149h-.05v.2h-.05v.348h-.05v.249h.05v.4h.05v.149h.05v.149h.05v.1h.05v.149h.05v.1h.05v.05h.05v.1h.05v.1h.05v.1h.05v.1h.05v.149h.05v.149h.05v.249h.05v.348h-.05v.249h-.05v.1h-.05v.1h-.05v.1h-.05v.05h-.05v.05h-.05v.05h-.05v.05h-.05v.05h-.1v.05h-.1v.05h-.1v.05h-.149v.05zm14.015-1.69v-.05h-.149v-.05h-.149v-.05h-.1v-.05h-.1v-.05h-.1v-.05h-.1v-.05h-.05v-.05h-.05v-.05h-.05v-.05h-.1v-.05h-.05v-.05h-.05v-.05h-.05v-.05h-.05v-.05h-.05v-.05h-.05v-.05h-.05v-.05h-.05v-.05h-.05v-.05h-.05v-.05h-.05v-.05h-.05v-.1h-.05v-.05h-.05v-.05h-.05v-.05h-.05v-.1h-.05v-.05h-.05v-.05h-.05v-.1h-.05v-.05h-.05v-.1h-.05v-.05h-.05v-.1h-.05v-.1h-.05v-.05h-.05v-.1h-.05v-.1h-.05v-.1h-.05v-.1h-.05v-.1h-.05v-.1h-.05v-.1h-.05v-.1h-.05v-.1h-.05v-.1h-.05v-.1h-.05v-.149h-.05v-.1h-.05v-.149h-.05v-.1h-.05v-.149h-.05v-.149h-.05v-.149h-.05v-.149h-.05v-.149h-.05v-.149h-.05v-.149h-.05v-.2h-.05v-.2h-.05v-.2h-.05v-.2h-.05v-.2h-.05v-.3h-.05v-.3h-.05v-.348h-.05v-.447h-.05v-.447h-.05v-.447h-.05v-.447h-.05v-.5h-.05v-.944h-.05v-.895h-.05v-.944h-.05v-.845h.05v-2.634h.05v-.646h.05v-.646h.05v-.646h.05v-.646h.05v-.447h.05v-.4h.05v-.348h.05v-.348h.05v-.4h.05v-.348h.05v-.4h.05v-.348h.05v-.3h.05v-.3h.05v-.249h.05v-.249h.05v-.249h.05v-.3h.05v-.249h.05v-.248h.05v-.249h.05v-.3h.05v-.249h.05v-.249h.05v-.248h.05v-.2h.05v-.2h.05v-.2h.05v-.2h.05v-.249h.05v-.2h.05v-.2h.05v-.2h.05v-.2h.05v-.249h.05v-.2h.05v-.2h.05v-.2h.05v-.2h.05v-.2h.05v-.2h.05v-.149h.05v-.2h.05v-.149h.05v-.2h.05v-.2h.05v-.149h.05v-.2h.05v-.2h.05v-.149h.05v-.2h.05v-.149h.05v-.2h.05v-.149h.05v-.149h.05v-.2h.05v-.149h.05v-.149h.05v-.2h.05v-.149h.05v-.149h.05v-.149h.05v-.149h.05v-.149h.05v-.149h.05v-.149h.05v-.149h.05v-.149h.05v-.149h.05v-.149h.05v-.149h.05v-.149h.05v-.1h.05v-.149h.05v-.149h.05v-.149h.05v-.149h.05v-.149h.05v-.1h.05v-.149h.05v-.149h.05v-.1h.05v-.149h.05v-.1h.05v-.149h.05v-.149h.05v-.1h.05v-.149h.05v-.149h.05v-.1H124v-.149h.05v-.1h.05v-.1h.05v-.149h.05v-.1h.05v-.149h.05v-.1h.05v-.149h.05v-.1h.05v-.1h.05v-.149h.05v-.1h.05v-.149h.05v-.1h.05v-.1h.05v-.1h.05v-.149h.05v-.1h.05v-.1h.05v-.1h.05v-.149h.05v-.1h.05v-.1h.05v-.1h.05v-.149h.05v-.1h.05v-.1h.05v-.1h.05v-.1h.05v-.1h.05v-.1h.05v-.149h.05v-.1h.05v-.1h.05v-.1h.05v-.1h.05v-.1h.05v-.1h.05v-.1h.05v-.1h.05v-.1h.05v-.1h.05v-.1h.05v-.1h.05v-.1h.05v-.1h.05v-.1h.05v-.1h.05v-.1h.05v-.1h.05v-.1h.05v-.1h.05v-.1h.05v-.1h.05v-.1h.05v-.1h.05v-.1h.05v-.05h.05v-.1h.05v-.1h.05v-.1h.05v-.1h.05v-.1h.05v-.1h.05v-.1h.05v-.05h.05v-.1h.05v-.1h.05v-.1h.05v-.1h.05v-.05h.05v-.1h.05v-.1h.05v-.1h.05v-.05h.05v-.1h.05v-.1h.05v-.1h.05v-.05h.05v-.1h.05v-.1h.05v-.1h.05v-.05h.05v-.1h.05v-.1h.05v-.05h.05v-.1h.05v-.1h.05v-.05h.05v-.1h.05v-.1h.05v-.05h.05v-.1h.05v-.1h.05v-.05h.05v-.1h.05v-.05h.05v-.1h.05v-.1h.05v-.05h.05v-.1h.05v-.05h.05v-.1h.05v-.05h.05v-.1h.05v-.05h.05v-.1h.05v-.1h.05v-.05h.05v-.1h.05v-.05h.05v-.1h.05v-.05h.05v-.1h.05v-.05h.05v-.1h.05v-.05h.05v-.1h.05v-.05h.05v-.05h.05v-.1h.05v-.05h.05v-.1h.05v-.05h.05v-.1h.05v-.05h.05v-.1h.05v-.05h.05v-.05h.05v-.1h.05v-.05h.05v-.05h.05v-.1h.05v-.05h.05v-.1h.05v-.05h.05v-.05h.05v-.1h.05v-.05h.05v-.05h.05v-.1h.05v-.05h.05v-.05h.05v-.1h.05v-.05h.05v-.05h.05v-.05h.05v-.1h.05v-.05h.05v-.05h.05v-.1h.05v-.05h.05v-.05h.05v-.05h.05v-.1h.05v-.05h.05v-.05h.05v-.05h.05v-.05h.05v-.1h.05v-.1h.05v-.05h.05v-.05h.05v-.1h.05v-.05h.05v-.05h.05v-.05h.05v-.05h.05v-.05h.05v-.05h.05v-.1h.05v-.05h.05v-.05h.05v-.05h.05v-.05h.05v-.05h.05v-.05h.05v-.05h.05v-.05h.05v-.05h.05v-.05h.05v-.05h.05v-.05h.05v-.05h.05v-.05h.05v-.1h.05v-.05h.1v-.05h.05v-.05h.05v-.05h.05v-.05h.05v-.05h.05v-.05h.05v-.05h.05v-.05h.05v-.05h.05v-.05h.05v-.05h.05v-.05h.05v-.05h.05v-.05h.05v-.05h.05v-.05h.05v-.05h.05v-.05h.05v-.05h.05v-.05h.05v-.05h.05v-.05h.05v-.05h.05v-.05h.05v-.05h.05v-.05h.05v-.05h.05v-.05h.1v-.05h.05v-.05h.05v-.05h.05v-.05h.05v-.05h.05v-.05h.05v-.05h.05v-.05h.05v-.05h.1v-.05h.05v-.05h.05v-.05h.05v-.05h.05v-.05h.05v-.05h.05v-.05h.1v-.05h.05v-.05h.05v-.05h.05v-.05h.05v-.05h.05v-.05h.1v-.05h.05v-.05h.05v-.05h.05v-.05h.05v-.05h.1v-.05h.05v.131h.05v-.05h.05v-.05h.05v-.05h.1v-.05h.05v-.05h.05v-.05h.05v-.05h.1v-.05h.05v-.05h.05v-.05h.05v-.05h.1v-.05h.05v-.05h.05v-.05h.1v-.05h.05v-.05h.05v-.05h.1v-.05h.05v-.05h.05v-.05h.1v-.05h.05v-.05h.05v-.05h.1v-.05h.05v-.05h.1v-.05h.05v-.05h.05v-.05h.1v-.05h.05v-.05h.1v-.05h.05v-.05h.1v-.05h.05v-.05h.1v-.05h.05v-.05h.1v-.05h.05v-.05h.1v-.05h.05v-.05h.1v-.05h.05v-.05h.1v-.05h.05v-.05h.1v-.05h.1v-.05h.05v-.05h.1v-.05h.1v-.05h.05v-.05h.1v-.05h.1v-.05h.1v-.05h.05v-.05h.1v-.05h.1v-.05h.1v-.05h.1v-.05h.1v-.05h.1v-.05h.1v-.05h.1v-.05h.1v-.05h.1v-.05h.149v-.05h.1v-.05h.149v-.05h.1v-.05h.149v-.05h.2v-.05h.149v-.05h.2v-.05h.2v-.05h.248v-.05h.3v-.05h.4v-.05h1.093v.05h.249v.05h.2v.05h.1v.05h.149v.05h.1v.05h.1v.05h.05v.05h.1v.05h.05v.05h.05v.05h.05v.05h.05v.05h.05v.1h.05v.1h.05v.1h.05v.149h.05v.5h-.05v.2h-.05v.149h-.05v.149h-.05v.05h-.05v.05h-.05v.1h-.05v.05h-.05v.05h-.05v.05h-.05v.05h-.1v.05h-.1v.05h-.05v.05h-.149v.05h-.149v.05h-.3v.05h-.3v.05h-.249v.05h-.149v.05h-.149v.05h-.149v.05h-.1v.05h-.1v.05h-.1v.05h-.1v.05h-.05v.05h-.1v.05h-.05v.05h-.1v.05h-.05v.05h-.05v.05h-.05v.05h-.05v.05h-.05v.1h-.05v.05h-.05v.1h-.05v.1h-.05v.1h-.05v.1h-.05v.149h-.05v.149h-.05v.248h-.05v.4h.05v.249h.05v.149h.05v.1h.05v.1h.05v.1h.05v.05h.05v.1h.05v.1h.05v.05h.05v.1h.05v.1h.05v.1h.05v.05h.05v.1h.05v.1h.05v.1h.05v.1h.05v.1h.05v.05h.05v.1h.05v.1h.05v.1h.05v.1h.05v.1h.05v.05h.05v.1h.05v.1h.05v.149h.05v.1h.05v.1h.05v.1h.05v.1h.05v.149h.05v.1h.05v.1h.05v.1h.05v.1h.05v.1h.05v.149h.05v.1h.05v.1h.05v.1h.05v.1h.05v.149h.05v.1h.05v.149h.05v.1h.05v.149h.05v.149h.05v.149h.05v.1h.05v.149h.05v.149h.05v.149h.05v.149h.05v.1h.05v.149h.05v.149h.05v.149h.05v.149h.05v.2h.05v.149h.05v.2h.05v.2h.05v.2h.05v.149h.05v.2h.05v.2h.05v.2h.05v.149h.05v.2h.05v.248h.05v.3h.05v.248h.05v.3h.05v.248h.05v.3h.05v.249h.05v.3h.05v.447h.05v.5h.05v.5h.05v.447h.05v.646h.05v1.441h.05v2.137h-.05v1.193h-.05v.646h-.05v.4h-.05v.447h-.05v.4h-.05v.447h-.05v.248h-.05v.3h-.05v.249h-.05v.248h-.05v.3h-.05v.248h-.05v.249h-.05v.3h-.05v.248h-.05v.2h-.05v.2h-.05v.2h-.05v.2h-.05v.149h-.05v.2h-.05v.2h-.05v.149h-.05v.2h-.05v.2h-.05v.2h-.05v.149h-.05v.2h-.05v.149h-.05v.149h-.05v.149h-.05v.1h-.05v.149h-.05v.149h-.05v.149h-.05v.149h-.05v.149h-.05v.149h-.05v.1h-.05v.149h-.05v.149h-.05v.149h-.05v.149h-.05v.149h-.05v.1h-.05v.1h-.05v.1h-.05v.149h-.05v.1h-.05v.1h-.05v.149h-.05v.1h-.05v.1h-.05v.1h-.05v.149h-.05v.1h-.05v.1h-.05v.149h-.05v.1h-.05v.1h-.05v.1h-.05v.149h-.05v.1h-.05v.1h-.05v.1h-.05v.1h-.05v.1h-.05v.05h-.05v.1h-.05v.1h-.05v.1h-.05v.1h-.05v.1h-.05v.1h-.05v.1h-.05v.1h-.05v.1h-.05v.05h-.05v.1h-.05v.1h-.05v.1h-.05v.1h-.05v.1h-.05v.1h-.05v.1h-.05v.05h-.05v.1h-.05v.1h-.05v.05h-.05v.1h-.05v.05h-.05v.1h-.05v.1h-.05v.05h-.05v.1h-.05v.05h-.05v.1h-.05v.1h-.05v.05h-.05v.1h-.05v.05h-.05v.1h-.05v.1h-.05v.05h-.05v.1h-.05v.05h-.05v.1h-.05v.1h-.05v.05h-.05v.1h-.05v.05h-.05v.1h-.05v.05h-.05v.05H141v.1h-.05v.05h-.05v.05h-.05v.1h-.05v.05h-.05v.1h-.05v.05h-.05v.05h-.05v.1h-.05v.05h-.05v.05h-.05v.1h-.05v.05h-.05v.1h-.05v.05h-.05v.05h-.05v.1h-.05v.05h-.05v.05h-.05v.1H140v.05h-.05v.1h-.05v.05h-.05v.05h-.05v.05h-.05v.1h-.05v.05h-.05v.05h-.05v.05h-.05v.05h-.05v.1h-.05v.05h-.05v.05h-.05v.05h-.05v.05h-.05v.05h-.05v.1h-.05v.05h-.05v.05h-.05v.05H139v.05h-.05v.1h-.05v.05h-.05v.05h-.05v.05h-.05v.05h-.05v.1h-.05v.05h-.05v.05h-.05v.05h-.05v.05h-.05v.05h-.05v.1h-.05v.05h-.05v.05h-.05v.05h-.05v.05h-.05v.05h-.05v.05h-.05v.05H138v.05h-.05v.05h-.05v.05h-.05v.05h-.05v.05h-.05v.05h-.05v.05h-.05v.05h-.05v.05h-.05v.05h-.05v.05h-.05v.05h-.05v.05h-.05v.05h-.05v.05h-.05v.05h-.05v.05h-.05v.05h-.05v.05h-.05v.05H137v.05h-.05v.1h-.05v.05h-.05v.05h-.05v.05h-.05v.05h-.1v.05h-.05v.05h-.05v.05h-.05v.05h-.05v.05h-.05v.05h-.05v.05h-.05v.05h-.1v.05h-.05v.05h-.05v.05h-.05v.05H136v.05h-.05v.05h-.05v.05h-.05v.05h-.1v.05h-.05v.05h-.05v.05h-.05v.05h-.05v.05h-.05v.05h-.05v.05h-.05v.05h-.05v.05h-.1v.05h-.05v.05h-.05v.05h-.05v.05h-.05v.05H135v.05h-.1v.05h-.05v.05h-.05v.05h-.1v.05h-.05v.05h-.05v.05h-.05v.05h-.1v.05h-.05v.05h-.05v.05h-.1v.05h-.05v.05h-.05v.05h-.1v.05H134v.05h-.05v.05h-.05v.05h-.1v.05h-.05v.05h-.05v.05h-.1v.05h-.05v.05h-.05v.05h-.05v.05h-.1v.05h-.05v.05h-.1v.05h-.05v.05h-.1v.05H133v.05h-.1v.05h-.05v.05h-.1v.05h-.05v.05h-.1v.05h-.05v.05h-.1v.05h-.05v.05h-.1v.05h-.05v.05h-.1v.05h-.05v.05h-.1v.1h-.1v.05h-.05v.05h-.1v.05h-.05v.05h-.1v.05h-.05v.05h-.1v.05h-.1v.05h-.05v.05h-.1v.05h-.1v.05h-.1v.05h-.1v.05h-.05v.05h-.1v.05h-.1v.05h-.1v.05h-.05v.05h-.1v.05h-.1v.05h-.1v.05h-.1v.05h-.05v.05h-.1v.05h-.1v.05h-.1v.05h-.05v.05h-.1v.05h-.1v.05h-.1v.05h-.149v.05h-.1v.05h-.1v.05h-.1v.05h-.1v.05h-.1v.05h-.1v.05h-.149v.05h-.1v.05h-.1v.05h-.1v.05h-.1v.05h-.1v.05h-.1v.05h-.149v.05h-.1v.05h-.1v.05h-.149v.05h-.1v.05h-.149v.05h-.1v.05h-.149v.05h-.1v.05h-.149v.05h-.149v.05h-.1v.05h-.149v.05h-.1v.05h-.149v.05h-.149v.05h-.149v.05h-.149v.05h-.149v.05h-.1v.05h-.1v.05h-.05v.05h-.1v.05h-.05v.05h-.1v.05h-.05v.05h-.05v.05h-.05v.05h-.05v.05h-.05v.05h-.05v.1h-.05v.05h-.05v.05h-.05v.1h-.05v.1h-.05v.05h-.05v.149h-.05v.149h-.05v.248h-.05v.994h.05v.249h.05v.2h.05v.1h.05v.149h.05v.1h.05v.1h.05v.1h.05v.1h.05v.1h.05v.05h.05v.1h.05v.05h.05v.1h.05v.05h.05v.1H125v.1h.05v.149h.05v.348h.05v.149h-.05v.2h-.05v.2H125v.1h-.05v.05h-.05v.1h-.05v.05h-.05v.05h-.05v.05h-.1v.05h-.05v.05h-.1v.05h-.05v.05h-.15v.05zM96.768-246.2v-.05h-.2v-.05h-.1v-.05h-.148v-.05h-.1v-.05h-.05v-.05h-.1v-.05h-.05v-.05h-.05v-.05h-.1v-.05h-.05v-.05h-.05v-.05h-.05v-.05h-.05v-.05h-.05v-.05h-.05v-.05h-.05v-.05h-.05v-.05h-.05v-.05h-.05v-.05h-.05v-.1h-.05v-.05h-.05v-.05h-.05v-.05h-.05v-.1h-.05v-.05h-.05v-.1h-.05v-.05h-.05v-.1h-.05v-.05h-.05v-.1h-.05v-.05h-.05v-.1h-.05v-.1h-.05v-.1h-.05v-.1h-.05v-.05h-.05v-.1h-.05v-.1h-.05v-.1h-.05v-.1h-.05v-.149h-.05v-.1h-.05v-.1h-.05v-.1h-.05v-.1h-.05v-.149h-.05v-.149h-.05v-.1h-.05v-.149h-.05v-.149h-.05v-.1h-.05v-.149h-.05v-.149h-.05v-.2h-.05v-.149h-.05v-.149h-.05v-.2h-.05v-.149h-.05v-.249h-.05v-.2h-.05v-.2h-.05v-.2h-.05v-.249h-.05v-.249h-.05v-.3h-.05v-.248h-.05v-.348h-.05v-.4h-.05v-.348h-.05v-.547h-.05v-.7h-.05v-.6h-.05v-.745h-.05v-1.342h-.05v-2.783h.05v-1.302h.05v-.8h.05v-.746h.05v-.646h.05v-.5h.05v-.547h.05v-.5h.05v-.4h.05v-.4h.05v-.4h.05v-.4h.05v-.4h.05v-.3h.05v-.348h.05v-.348h.05v-.3h.05v-.3h.05v-.3h.05v-.249h.05v-.248h.05v-.249h.05V-271h.05v-.249h.05v-.249h.05v-.2h.05v-.249h.05v-.248h.05v-.2h.05v-.249h.05v-.249h.05v-.2h.05v-.249h.05v-.2h.05v-.2h.05v-.248h.05v-.2h.05v-.2h.05v-.2h.05v-.248h.05v-.2h.05v-.2h.05v-.2h.05v-.2h.05v-.2h.05v-.2h.05v-.149h.05v-.2h.05v-.2h.05v-.2h.05v-.2h.05v-.2h.05v-.149h.05v-.2h.05v-.149h.05v-.2h.05v-.149h.05v-.149h.05v-.2h.05v-.149h.05v-.2h.05v-.149h.05v-.2h.05v-.149h.05v-.149h.05v-.149h.05v-.149h.05v-.149h.05v-.149h.05v-.149h.05v-.149h.05v-.2h.05v-.149h.05v-.149h.05v-.149h.05v-.149h.05v-.149h.05v-.149h.05v-.149h.05v-.1h.05v-.149h.05v-.149h.05v-.149h.05v-.1h.05v-.149h.05v-.149h.05v-.1h.05v-.149h.05v-.149h.05v-.1h.05v-.149h.05v-.149h.05v-.149h.05v-.1h.05v-.149h.05v-.149h.05v-.1h.05v-.1h.05v-.149h.05v-.1h.05v-.149h.05v-.1h.05v-.149h.05v-.1h.05v-.149h.05v-.1h.05v-.1h.05v-.149h.05v-.1h.05v-.149h.05v-.1h.05v-.1h.05v-.1h.05v-.149h.05v-.1h.05v-.1h.05v-.1h.05v-.1h.05v-.1h.05v-.1h.05v-.1h.05v-.1h.05v-.149h.05v-.1h.05v-.1h.05v-.1h.05v-.1h.05v-.1h.05v-.05H99v-.1h.05v-.1h.05v-.1h.05v-.1h.05v-.1h.05v-.1h.05v-.1h.05v-.1h.05v-.1h.05v-.1h.05v-.1h.05v-.1h.05v-.1h.05v-.1h.05v-.05h.05v-.1h.05v-.1h.05v-.1h.05v-.1h.05v-.1h.05v-.1h.05v-.1h.05v-.1h.05v-.149h.05v-.1h.05v-.1h.05v-.1h.05v-.1h.05v-.149h.05v-.1h.05v-.149h.05v-.149h.05v-.149h.05v-.249h.05v-.746h-.05v-.1h-.05v-.1h-.05v-.1h-.05v-.05h-.05v-.05h-.05v-.05h-.05v-.05h-.05v-.05h-.05v-.05h-.1v-.05h-.05v-.05h-.1v-.05h-.05v-.05h-.15v-.05h-.1v-.05h-.1v-.05h-.1v-.05h-.2v-.05h-.2v-.05h-.447v.05h-.249v.05h-.149v.05h-.145v.05h-.1v.05h-.1v.05h-.1v.05h-.1v.05h-.05v.05h-.1v.05h-.05v.05h-.1v.05h-.05v.05h-.05v.05h-.05v.05h-.05v.05h-.1v.05h-.05v.05h-.05v.05h-.05v.05h-.05v.05h-.05v.05h-.05v.05h-.05v.05h-.05v.05h-.05v.1h-.05v.05h-.05v.05h-.05v.05h-.05v.05h-.05v.05h-.05v.05h-.05v.1h-.05v.05h-.05v.05h-.05v.1h-.05v.05h-.05v.05h-.05v.1h-.05v.05h-.05v.05h-.05v.1h-.05v.05h-.05v.1h-.05v.05h-.05v.05h-.05v.1h-.05v.05h-.05v.1h-.05v.05h-.05v.1h-.05v.05h-.05v.1h-.05v.05h-.05v.1h-.05v.1h-.05v.05h-.05v.1h-.05v.05h-.05v.1h-.05v.1h-.05v.05h-.05v.1h-.05v.05h-.05v.1h-.05v.1h-.05v.05h-.05v.1h-.05v.1h-.05v.05h-.05v.1h-.05v.1h-.05v.05h-.05v.1h-.05v.1h-.05v.1h-.05v.05h-.05v.1h-.05v.1h-.05v.1h-.05v.1h-.05v.1h-.05v.1h-.05v.1h-.05v.1h-.05v.1h-.05v.1h-.05v.1h-.05v.1h-.05v.1h-.05v.149h-.05v.1h-.05v.1h-.05v.1h-.05v.1h-.05v.1h-.05v.149h-.05v.1h-.05v.1h-.05v.149h-.05v.1h-.05v.1h-.05v.149h-.05v.1h-.05v.1h-.05v.149h-.05v.1h-.05v.149h-.05v.149h-.05v.1h-.05v.149h-.05v.1h-.05v.149h-.05v.1h-.05v.149h-.01v.149h-.05v.149h-.05v.1h-.05v.149H92v.149h-.05v.149h-.05v.149h-.05v.1h-.05v.149h-.05v.149h-.05v.149h-.05v.149h-.05v.149h-.05v.149h-.05v.149h-.05v.149h-.05v.149h-.05v.149h-.05v.149h-.05v.2h-.05v.149h-.05v.149h-.05v.2h-.05v.149H91v.149h-.05v.2h-.05v.149h-.05v.149h-.05v.2h-.05v.149h-.05v.2h-.05v.2h-.05v.149h-.05v.2h-.05v.149h-.05v.2h-.05v.2h-.05v.2h-.05v.2h-.05v.2h-.05v.2h-.05v.2h-.05v.2h-.05v.2H90v.2h-.05v.2h-.05v.2h-.05v.249h-.05v.2h-.05v.2h-.05v.249h-.05v.2h-.05v.248h-.05v.249h-.05v.249h-.05v.248h-.05v.2h-.05v.249h-.05v.249h-.05v.3h-.05v.249h-.05v.3h-.05v.248h-.05v.3H89v.3h-.05v.3h-.05v.3h-.05v.348h-.05v.3h-.05v.348h-.05v.348h-.05v.4h-.05v.4h-.05v.4h-.05v.447h-.05v.5h-.05v.5h-.05v.6h-.05v.7h-.05v.646h-.05v.1h-.05v.149h-.05v.05h-.05v.05H88v.1h-.05v.05h-.05v.05h-.05v.05h-.1v.05h-.05v.05h-.1v.05h-.149v.05h-.646v-.05h-.149v-.05h-.1v-.05h-.05v-.05h-.1v-.05h-.05v-.05h-.05v-.05h-.05v-.05h-.05v-.05h-.05v-.05h-.05v-.1h-.05v-.05h-.05v-.1h-.05v-.1h-.05v-.1h-.05v-.1h-.05v-.1h-.05v-.1h-.05v-.149h-.05v-.1h-.05v-.1h-.05v-.149h-.05v-.1h-.05v-.1h-.05v-.149h-.05v-.1h-.05v-.1h-.05v-.149h-.05v-.1h-.05v-.149h-.05v-.149h-.05v-.1h-.05v-.149h-.05v-.149h-.05v-.149h-.05v-.1h-.05v-.149h-.05v-.149h-.05v-.1h-.05v-.149h-.05v-.149h-.05v-.2h-.05v-.149h-.05v-.149h-.05v-.2h-.05v-.149h-.05v-.149h-.05v-.2h-.05v-.149h-.05v-.149h-.05v-.248h-.05v-.2h-.05v-.2h-.05v-.248h-.05v-.2H83.9V-271h-.05v-.2h-.05v-.2h-.05v-.348h-.05v-.3h-.05v-.3h-.05v-.3h-.05v-.3h-.05v-.348h-.05v-.5h-.05v-.5h-.05v-.5h-.05v-.8h-.05v-1.093h-.05v-2.684h.05v-.895h.05v-.7h.05v-.447h.05v-.5h.05v-.447h.05v-.348h.05v-.3h.05v-.3h.05v-.3h.05v-.3h.05v-.249h.05v-.248h.05v-.2h.05v-.248h.05v-.249H84v-.2h.05v-.248h.05v-.2h.05v-.149h.05v-.2h.05v-.2h.05v-.149h.05v-.2h.05v-.149h.05v-.2h.05v-.149h.05v-.149h.05v-.2h.05v-.149h.05v-.149h.05v-.149h.05v-.149h.05v-.149h.05v-.149h.05v-.149H85v-.1h.05v-.149h.05v-.1h.05v-.149h.05v-.149h.05v-.1h.05v-.149h.05v-.1h.05v-.149h.05v-.1h.05v-.149h.05v-.1h.05v-.149h.05v-.1h.05v-.1h.05v-.1h.05v-.149h.05v-.1h.05v-.1h.05v-.1H86v-.1h.05v-.149h.05v-.1h.05v-.1h.05v-.1h.05v-.1h.05v-.1h.05v-.1h.05v-.1h.05v-.1h.05v-.1h.05v-.1h.05v-.1h.05v-.1h.05v-.1h.05v-.1h.05v-.05h.05v-.1h.05v-.1h.05v-.1H87v-.1h.05v-.1h.05v-.05h.05v-.1h.05v-.1h.05v-.05h.05v-.1h.05v-.1h.05v-.1h.05v-.05h.05v-.1h.05v-.1h.05v-.05h.05v-.1h.05v-.1h.05v-.05h.05v-.1h.05v-.1h.05v-.05h.05v-.1H88v-.05h.05v-.1h.05v-.05h.05v-.1h.05v-.05h.05v-.1h.05v-.05h.05v-.1h.05v-.05h.05v-.1h.05v-.1h.05v-.05h.05v-.05h.05v-.1h.05v-.05h.05v-.1h.05v-.05h.05v-.05h.05v-.1h.05v.031H89v-.05h.05v-.1h.05v-.05h.05v-.1h.05v-.05h.05v-.05h.05v-.1h.05v-.05h.05v-.1h.05v-.05h.05v-.05h.05v-.05h.05v-.1h.05v-.05h.05v-.05h.05v-.05h.05v-.1h.05v-.05h.05v-.05h.05v-.05H90v-.1h.05v-.05h.05v-.05h.05v-.05h.05v-.1h.05v-.05h.05v-.05h.05v-.05h.05v-.1h.05v-.05h.05v-.05h.05v-.05h.05v-.05h.05v-.05h.05v-.05h.05v-.1h.05v-.05h.05v-.05h.05v-.05h.05v-.05H91v-.1h.05v-.1h.05v-.05h.05v-.05h.05v-.05h.05v-.05h.05v-.05h.05v-.05h.05v-.05h.05v-.05h.05v-.1h.05v-.05h.05v-.05h.05v-.05h.05v-.05h.05v-.05h.05v-.05h.05v-.05h.05v-.05h.05v-.05H92v-.05h.05v-.05h.05v-.05h.05v-.05h.05v-.05h.05v-.05h.05v-.05h.05v-.05h.05v-.05h.05v-.05h.05v-.05h.05v-.05h.05v-.05h.05v-.05h.05v-.05h.05v-.05h.05v-.05h.05v-.05h.1v-.05H93v-.05h.05v-.05h.05v-.05h.05v-.05h.05v-.05h.05v-.05h.05v-.05h.05v-.05h.05v-.05h.05v-.05h.05v-.05h.05v-.05h.1v-.05h.05v-.05h.05v-.05h.05v-.05h.05v-.05h.05v-.05h.1v-.05h.05v-.05h.05v-.05h.05v-.05h.05v-.05h.05v-.05h.1v-.05h.05v-.05h.05v-.05h.05v-.05h.05v-.05h.1v-.05h.05v-.05h.05v-.05h.05v-.05h.05v-.05h.1v-.05H95v-.05h.05v-.05h.1v-.05h.05v-.05h.05v-.05h.05v-.05h.1v-.05h.05v-.05h.05v-.05h.1v-.05h.05v-.05h.05v-.05h.1v-.05h.1v-.05h.05v-.05h.1v-.05h.05v-.05h.1v-.05h.05v-.05h.05v-.05h.1v-.05h.05v-.05h.1v-.05h.05v-.05h.1v-.05h.05v-.05h.1v-.05h.05v-.05h.05v-.05h.1v-.05h.05v-.05h.1v-.05h.05v-.05h.1v-.05h.05v-.05h.1v-.05h.05v-.05h.1v-.05h.1v-.05h.05v-.05h.1v-.05h.05v-.05h.1v-.05h.1v-.05h.05v-.05h.1v-.05h.05v-.05h.1v-.05h.1v-.05h.05v-.05h.1v-.05h.05v-.05h.1v-.05h.1v-.05H99v-.05h.1v-.05h.05v-.05h.1v-.05h.1v-.05h.1v-.05h.05v-.05h.1v-.05h.1v-.05h.1v-.05h.1v-.05h.05v-.05h.1v-.05h.1v-.05h.1v-.05h.1v-.05h.1v-.05h.1v-.05h.1v-.05h.1v-.05h.1v-.05h.1v-.05h.1v-.05h.1v-.05h.1v-.05h.1v-.05h.1v-.05h.149v-.05h.1v-.05h.1v-.05h.1v-.05h.149v-.05h.1v-.05h.1v-.05h.1v-.05h.149v-.05h.1v-.05h.1v-.05h.1v-.05h.149v-.05h.1v-.05h.149v-.05h.149v-.05h.1v-.05h.149v-.05h.1v-.05h.149v-.05h.149v-.05h.1v-.05h.149v-.05h.1v-.05h.149v-.05h.149v-.05h.2v-.05h.149v-.05h.149v-.05h.149v-.05h.149v-.05h.149v-.05h.149v-.05h.149v-.05h.149v-.05h.2v-.05h.149v-.05h.2v-.05h.2v-.05h.149v-.05h.2v-.05h.149v-.05h.248v-.05h.2v-.05h.2v-.05h.249v-.05h.2v-.05h.249v-.05h.2v-.05h.249v-.05h.3v-.05h.3v-.05h.249v-.05h.3v-.05h.3v-.05h.4v-.05h.4v-.05h.4v-.05h.4v-.05h.646v-.05h.646v-.05h1.491v-.05H116v.05h1.243v.05h.447v.05h.4v.05h.348v.05h.3v.05h.249v.05h.248v.05h.2v.05h.2v.05h.2v.05h.149v.05h.149v.05h.149v.05h.149v.05h.1v.05h.1v.05h.1v.05h.149v.05h.1v.05h.05v.05h.1v.05h.05v.05h.1v.05h.05v.05h.05v.05h.05v.05h.05v.05h.05v.05h.05v.05h.05v.05h.05v.05h.05v.1h.05v.1h.05v.1h.05v.4h-.05v.249h-.05v.149h-.05v.149h-.05v.149h-.05v.05h-.05v.1h-.05v.1h-.05v.1h-.05v.05h-.05v.05h-.05v.1h-.05v.05h-.05v.05h-.05v.1h-.05v.05h-.05v.05h-.05v.05h-.05v.05h-.05v.05h-.05v.05h-.05v.05h-.05v.05h-.1v.05h-.05v.05h-.05v.05h-.05v.05h-.05v.05h-.05v.05h-.05v.05h-.05v.05h-.1v.05h-.05v.05h-.05v.05h-.05v.05h-.05v.05h-.05v.05h-.05v.05h-.05v.05h-.05v.05h-.05v.05h-.05v.05h-.05v.05h-.05v.05h-.05v.05h-.1v.05h-.05v.05h-.05v.05h-.05v.05h-.05v.05h-.05v.05h-.05v.05h-.05v.05h-.05v.05h-.05v.05h-.05v.05h-.05v.05h-.05v.05h-.05v.05h-.05v.05h-.05v.05h-.05v.05h-.05v.05h-.05v.05h-.05v.05h-.05v.05h-.05v.05h-.05v.05h-.05v.05h-.05v.05h-.05v.05h-.05v.05h-.05v.05h-.05v.05h-.05v.05h-.05v.05h-.05v.05h-.05v.05h-.05v.05h-.05v.05h-.05v.05h-.05v.05h-.05v.05h-.05v.05h-.05v.1h-.05v.05h-.05v.05h-.05v.05h-.05v.05h-.05v.05h-.05v.05h-.05v.05h-.05v.05h-.05v.05h-.05v.05H117v.05h-.05v.05h-.05v.05h-.05v.05h-.05v.05h-.05v.1h-.05v.05h-.05v.05h-.05v.05h-.05v.05h-.05v.05h-.05v.05h-.05v.05h-.05v.05h-.05v.05h-.05v.1h-.05v.05h-.05v.05h-.05v.05h-.05v.05H116v.05h-.05v.05h-.05v.05h-.05v.05h-.05v.1h-.05v.05h-.05v.05h-.05v.05h-.05v.05h-.05v.05h-.05v.05h-.05v.1h-.05v.05h-.05v.05h-.05v.05h-.05v.05h-.05v.05h-.05v.05h-.05v.1h-.05v.05H115v.05h-.05v.05h-.05v.05h-.05v.1h-.05v.05h-.05v.05h-.05v.05h-.05v.05h-.05v.1h-.05v.05h-.05v.05h-.05v.05h-.05v.05h-.05v.1h-.05v.05h-.05v.05h-.05v.05h-.05v.05h-.05v.1h-.05v.05H114v.05h-.05v.05h-.05v.1h-.05v.05h-.05v.05h-.05v.05h-.05v.1h-.05v.05h-.05v.05h-.05v.05h-.05v.1h-.05v.05h-.05v.05h-.05v.05h-.05v.1h-.05v.05h-.05v.05h-.05v.1h-.05v.05h-.05v.05H113v.1h-.05v.05h-.05v.05h-.05v.1h-.05v.05h-.05v.05h-.05v.1h-.05v.05h-.05v.05h-.05v.05h-.05v.1h-.05v.05h-.05v.1h-.05v.05h-.05v.05h-.05v.1h-.05v.05h-.05v.1h-.05v.05h-.05v.05H112v.1h-.05v.05h-.05v.1h-.05v.05h-.05v.05h-.05v.1h-.05v.05h-.05v.1h-.05v.05h-.05v.1h-.05v.05h-.05v.1h-.05v.05h-.05v.05h-.05v.1h-.05v.05h-.05v.1h-.05v.05h-.05v.1h-.05v.05H111v.1h-.05v.05h-.05v.1h-.05v.05h-.05v.1h-.05v.1h-.05v.05h-.05v.1h-.05v.05h-.05v.1h-.05v.1h-.05v.05h-.05v.1h-.05v.05h-.05v.1h-.05v.1h-.05v.05h-.05v.1h-.05v.05h-.05v.1H110v.1h-.05v.1h-.05v.05h-.05v.1h-.05v.1h-.05v.05h-.05v.1h-.05v.1h-.05v.1h-.05v.05h-.05v.1h-.05v.1h-.05v.1h-.05v.1h-.05v.05h-.05v.1h-.05v.1h-.05v.1h-.05v.1h-.05v.1H109v.1h-.05v.1h-.05v.1h-.05v.05h-.05v.1h-.05v.1h-.05v.1h-.05v.1h-.05v.1h-.05v.1h-.05v.1h-.05v.1h-.05v.1h-.05v.1h-.05v.1h-.05v.1h-.05v.1h-.05v.1h-.05v.1h-.05v.1H108v.2h-.05v.1h-.05v.1h-.05v.149h-.05v.1h-.05v.1h-.05v.1h-.05v.1h-.05v.1h-.05v.1h-.05v.1h-.05v.149h-.05v.1h-.05v.1h-.05v.1h-.05v.1h-.05v.1h-.05v.1h-.05v.1h-.05v.149H107v.1h-.05v.1h-.05v.1h-.05v.1h-.05v.149h-.05v.1h-.05v.1h-.05v.149h-.05v.1h-.05v.149h-.05v.1h-.05v.1h-.05v.149h-.05v.1h-.05v.149h-.05v.1h-.05v.1h-.05v.149h-.05v.1h-.05v.1H106v.149h-.05v.1h-.05v.149h-.05v.1h-.05v.1h-.05v.149h-.05v.1h-.05v.149h-.05v.1h-.05v.149h-.05v.149h-.05v.149h-.05v.1h-.05v.149h-.05v.149h-.05v.1h-.05v.149h-.05v.149h-.05v.1h-.05v.149H105v.149h-.05v.149h-.05v.1h-.05v.149h-.05v.149h-.05v.1h-.05v.149h-.05v.149h-.05v.149h-.05v.1h-.05v.149h-.05v.2h-.05v.149h-.05v.149h-.05v.149h-.05v.149h-.05v.149h-.05v.149h-.05v.149h-.05v.2H104v.149h-.05v.149h-.05v.149h-.05v.149h-.05v.149h-.05v.149h-.05v.149h-.05v.2h-.05v.149h-.05v.149h-.05v.149h-.05v.2h-.05v.2h-.05v.149h-.05v.2h-.05v.2h-.05v.149h-.05v.2h-.05v.2h-.05v.149H103v.2h-.05v.2h-.05v.149h-.05v.2h-.05v.2h-.05v.2h-.05v.149h-.05v.2h-.05v.2h-.05v.249h-.05v.2h-.05v.249h-.05v.2h-.05v.248h-.05v.2h-.05v.2h-.05v.248h-.05v.2h-.05v.249h-.05v.2H102v.249h-.05v.2h-.05v.248h-.05v.249h-.05v.248h-.05v.3h-.05v.249h-.05v.3h-.05v.249h-.05v.3h-.05v.248h-.05v.3h-.05v.249h-.05v.3h-.05v.348h-.05v.348h-.05v.3h-.05v.348h-.05v.4h-.05v.348H101v.4h-.05v.4h-.05v.4h-.05v.447h-.05v.447h-.05v.5h-.05v.5h-.05v.547h-.05v.6h-.05v.646h-.05v.7h-.05v.895h-.05v1.143h-.05v4.026h.05v.994h.05v.7h.05v1.193h-.05v.2h-.05v.149h-.05v.1h-.05v.1h-.05v.1h-.05v.05h-.05v.05h-.05v.05h-.05v.05H100v.05h-.1v.05h-.15v.05h-1.342v.05h-.149v.05h-.1v.05h-.1v.05h-.05v.05h-.1v.05h-.05v.05h-.05v.05h-.05v.05h-.05v.1h-.05v.05h-.05v.1h-.05v.149h-.05v.547h.05v.2h.05v.1h.05v.149h.05v.1h.05v.1h.05v.1h.05v.1h.05v.1h.05v.149h.05v.1h.05v.2h.05v.447h-.05v.2h-.05v.05h-.05v.1h-.05v.05h-.05v.05h-.05v.05h-.05v.05h-.05v.05h-.1v.05h-.1v.05h-.149v.05" transform="translate(-83.228 309.428)" style="fill:#fff"/>
            </g>
        </g>
        <path d="M237.173-152.071h.4c.459 0 .848-.166.848-.6 0-.306-.223-.611-.848-.611a2.705 2.705 0 0 0-.4.028zm0 1.934h-.557v-3.491a6.3 6.3 0 0 1 .987-.083 1.836 1.836 0 0 1 1.086.264.839.839 0 0 1 .32.723.869.869 0 0 1-.682.848v.028c.306.055.516.334.585.848a2.932 2.932 0 0 0 .221.862h-.583a2.589 2.589 0 0 1-.237-.891.652.652 0 0 0-.751-.61h-.389zm.584-4.464a2.578 2.578 0 0 0-2.5 2.642 2.575 2.575 0 0 0 2.517 2.656 2.552 2.552 0 0 0 2.5-2.643 2.573 2.573 0 0 0-2.5-2.655zm.013-.488a3.088 3.088 0 0 1 3.074 3.13 3.085 3.085 0 0 1-3.088 3.144 3.1 3.1 0 0 1-3.1-3.144 3.11 3.11 0 0 1 3.1-3.13h.013" transform="translate(-148.228 328.275)" style="fill:#fff"/>
    </g>
</svg>
