<svg xmlns="http://www.w3.org/2000/svg" xmlns:xlink="http://www.w3.org/1999/xlink" width="280" height="240" viewBox="0 0 280 240">
  <defs>
    <clipPath id="clip-path">
      <path id="path74" d="M109.5-291.569A57.926,57.926,0,0,1,120.874-305.4a2.463,2.463,0,0,0,1.01-2.055c-.245-1.024-2.248-1.668-4.814-1.864-17.64-.925-33.327,12.636-33.78,30.3a29.446,29.446,0,0,0,2.766,14.305,1.147,1.147,0,0,0,2.233-.145c.414-8.11,3.18-18.207,5.966-23.182,1.866-3.119,3.782-6.272,6.231-4.21,1,1.066-.525,2.9-2.139,6.379a73.436,73.436,0,0,0-4.75,15.923,57.389,57.389,0,0,0-.75,14.511c.368,6.346,3.172,10.331,4.931,9.108,1.141-.968-.706-1.916-.152-3.107a1.32,1.32,0,0,1,1.125-.687,4.307,4.307,0,0,0,.931.01c1.145-.07.883-1.948.883-1.948a71.418,71.418,0,0,1,.727-14.943A74.1,74.1,0,0,1,109.5-291.569ZM142.688-293a1.918,1.918,0,0,1,.31-2.146,2.847,2.847,0,0,1,1.545-.773s.267-.043.587-.1a1.331,1.331,0,0,0,1.084-1.423s.022-1.075-1.631-1.236a7,7,0,0,0-3.187.6s-3.437,1.357-8.24,6.295c-3.641,3.755-8.18,11.553-10.712,19.891-2.578,8.487-3.67,16.377-2.368,24.543,0,0,.746,3.988,2.9,5.471a1.772,1.772,0,0,0,1.449.27,1.434,1.434,0,0,0,.552-.44,1.19,1.19,0,0,0-.008-1.318s-.11-.179-.27-.423a3.1,3.1,0,0,1-.431-1.181,2.661,2.661,0,0,1,.314-1.813,2.044,2.044,0,0,1,1.057-.816c10.877-3.579,20.175-14.442,21.066-27.9.353-6.729-.748-12.2-4.012-17.5Zm-11.012-4.123a31.39,31.39,0,0,1,3.248-2.532,1.615,1.615,0,0,0,.716-1.291,2.2,2.2,0,0,0-.929-1.626,3.2,3.2,0,0,1-.508-.626,1.62,1.62,0,0,1,.066-1.419,1.9,1.9,0,0,1,.972-.876,8.85,8.85,0,0,1,1.1-.324,1.78,1.78,0,0,0,.759-.3,1.159,1.159,0,0,0,.177-1.243s-.226-.635-1.673-.725a6.826,6.826,0,0,0-2.275.163,12.639,12.639,0,0,0-2.271.725c-.781.419-13.295,5.266-21.522,29.557a94.425,94.425,0,0,0-3.907,23.169s-.513,8.349,2.229,12.914a5.2,5.2,0,0,0,1.3,1.427,1.175,1.175,0,0,0,1.551-.053s.8-.622-.024-1.912a3.164,3.164,0,0,1-.283-.669,2.484,2.484,0,0,1,.1-1.433,2.036,2.036,0,0,1,1.77-1.312,2.891,2.891,0,0,0,2.119-.838,3.362,3.362,0,0,0,.445-2.325s-.166-1.768-.325-4.1a50.8,50.8,0,0,1,1.04-13.3,84.354,84.354,0,0,1,2.981-10.908A51.879,51.879,0,0,1,131.676-297.125Z" transform="translate(-83.274 309.364)"/>
    </clipPath>
    <clipPath id="clip-path-2">
      <path id="path80" d="M24.744-382.553A60.358,60.358,0,0,1,85-443.032a60.366,60.366,0,0,1,60.3,60.479A60.321,60.321,0,0,1,85-322.278,60.312,60.312,0,0,1,24.744-382.553Z" transform="translate(-24.744 443.032)"/>
    </clipPath>
    <radialGradient id="radial-gradient" cx="0.847" cy="-0.057" r="1.307" gradientTransform="matrix(0, 1, 1.095, 0, 0.909, -0.904)" gradientUnits="objectBoundingBox">
      <stop offset="0" stop-color="#cceffc"/>
      <stop offset="0.089" stop-color="#4ec3e8"/>
      <stop offset="0.202" stop-color="#397fca"/>
      <stop offset="0.31" stop-color="#357dc0"/>
      <stop offset="0.547" stop-color="#216950"/>
      <stop offset="0.8" stop-color="#21684c"/>
      <stop offset="1" stop-color="#1c5937"/>
    </radialGradient>
  </defs>
  <g id="Group_69149" data-name="Group 69149" transform="translate(-150 -9114)">
    <rect id="Rectangle_7494" data-name="Rectangle 7494" width="280" height="240" transform="translate(150 9114)" fill="none"/>
    <g id="g10" transform="translate(8.089 9459.364)">
      <g id="g12">
        <path id="path14" d="M13.8-23.432l.149-2.264a9.617,9.617,0,0,1-3.457.723c-3.431,0-4.578-2.076-3.846-5.739C7.3-34,9.3-36.522,12.586-36.522a10.488,10.488,0,0,1,3.3.538l.747-2.332a14.417,14.417,0,0,0-3.389-.444c-5.3,0-8.483,3.57-9.461,8.468-.84,4.2.417,7.606,5.688,7.606a13,13,0,0,0,4.327-.746h0" transform="translate(244 -185.985)" fill="#100f0d"/>
        <path id="path16" d="M39.638-29.917c-2.127-.21-3.582,1.235-4.41,2.8h-.046a17.408,17.408,0,0,0,.747-2.566h-2.38l-2.317,11.6h2.5L34.67-22.8c.693-3.476,2.135-5.086,4.362-4.667l.605-2.448h0" transform="translate(228.987 -190.768)" fill="#100f0d"/>
        <path id="path18" d="M51.137-17.787l2.317-11.6h-2.5l-2.318,11.6h2.5" transform="translate(219.549 -191.07)" fill="#100f0d"/>
        <path id="path20" d="M57.507-38.569a1.349,1.349,0,0,0-1.376-1.69,2.2,2.2,0,0,0-2.074,1.69,1.363,1.363,0,0,0,1.4,1.688,2.193,2.193,0,0,0,2.05-1.688h0" transform="translate(216.63 -185.173)" fill="#e71d26"/>
        <path id="path22" d="M68.864-18.407l.215-2.123a6.573,6.573,0,0,1-2.632.56c-2.31,0-2.758-1.61-2.334-3.733.49-2.45,1.875-4.012,4-4.012a6.074,6.074,0,0,1,2.244.443l.69-2.171a8.158,8.158,0,0,0-2.449-.349c-3.991,0-6.416,2.683-7.153,6.368-.826,4.131,1.05,5.6,4.036,5.6a10.451,10.451,0,0,0,3.384-.584h0" transform="translate(212.713 -190.849)" fill="#100f0d"/>
        <path id="path24" d="M92.259-24.226l-3.361-6.3,5.351-5.294H91.193l-4.749,4.968,2.079-10.4h-2.5l-3.4,17.033h2.5l1.174-5.88,2.791,5.88h3.174" transform="translate(201.124 -184.631)" fill="#100f0d"/>
        <path id="path26" d="M114.843-25.461h-4.925a3.417,3.417,0,0,1,3.107-2.591C114.5-28.052,115.2-27.047,114.843-25.461Zm2.379.583c.55-2.752-.421-5.015-3.735-5.015-3.382,0-5.818,2.613-6.516,6.111-.816,4.084.793,5.95,4.409,5.95a11.756,11.756,0,0,0,4.163-.747l.162-1.983a9.038,9.038,0,0,1-3.531.747c-2.311,0-3.256-1.213-2.652-3.9h7.4c.135-.443.237-.838.3-1.166h0" transform="translate(188.036 -190.793)" fill="#100f0d"/>
        <path id="path28" d="M138.381-23l.411-2.053a6.717,6.717,0,0,1-1.555.187c-1.167,0-1.423-.467-1.077-2.193l1.109-5.554H140.3l.387-1.934h-3.057l.872-4.364-2.608.677-.737,3.687h-2.216l-.386,1.934h2.215l-1.264,6.323c-.516,2.59.038,3.546,2.512,3.546A12.893,12.893,0,0,0,138.381-23h0" transform="translate(174.051 -185.901)" fill="#100f0d"/>
        <path id="path30" d="M171.692-23.432l.148-2.264a9.607,9.607,0,0,1-3.456.723c-3.429,0-4.577-2.076-3.846-5.739.658-3.29,2.655-5.81,5.943-5.81a10.5,10.5,0,0,1,3.3.538l.746-2.332a14.4,14.4,0,0,0-3.388-.444c-5.3,0-8.479,3.57-9.457,8.468-.839,4.2.417,7.606,5.685,7.606a12.994,12.994,0,0,0,4.325-.746h0" transform="translate(158.389 -185.985)" fill="#100f0d"/>
        <path id="path32" d="M196.747-23.922c-.537,2.683-2.141,3.942-3.751,3.942-1.936,0-2.687-1.375-2.166-3.989.532-2.66,2.234-3.826,3.752-3.826C196.565-27.795,197.242-26.4,196.747-23.922Zm2.6-.164c.816-4.082-1.03-5.809-4.134-5.809a7.336,7.336,0,0,0-7.022,6.182c-.816,4.083.926,5.88,4.145,5.88a7.411,7.411,0,0,0,7.011-6.253h0" transform="translate(143.996 -190.792)" fill="#100f0d"/>
        <path id="path34" d="M225.794-17.787l2.318-11.6h-2.5l-1.119,5.6c-.461,2.31-2.113,4.153-3.863,4.153-1.331,0-1.558-.839-1.27-2.286l1.492-7.466h-2.474l-1.622,8.12c-.41,2.052.075,3.709,2.712,3.709a5.369,5.369,0,0,0,4.539-2.52l.02.024a16.955,16.955,0,0,0-.617,2.263h2.38" transform="translate(128.467 -191.07)" fill="#100f0d"/>
        <path id="path36" d="M253.646-18.064l1.623-8.121c.41-2.053-.075-3.709-2.712-3.709a5.372,5.372,0,0,0-4.54,2.519L248-27.4a16.9,16.9,0,0,0,.616-2.263h-2.379l-2.318,11.6h2.5l1.118-5.6c.463-2.31,2.114-4.153,3.863-4.153,1.331,0,1.56.839,1.27,2.286l-1.491,7.466h2.472" transform="translate(113.672 -190.793)" fill="#100f0d"/>
        <path id="path38" d="M279.953-18.407l.215-2.123a6.573,6.573,0,0,1-2.633.56c-2.309,0-2.758-1.61-2.334-3.733.49-2.45,1.875-4.012,4-4.012a6.075,6.075,0,0,1,2.245.443l.691-2.171a8.17,8.17,0,0,0-2.451-.349c-3.988,0-6.416,2.683-7.151,6.368-.825,4.131,1.05,5.6,4.037,5.6a10.456,10.456,0,0,0,3.383-.584h0" transform="translate(98.264 -190.849)" fill="#100f0d"/>
        <path id="path40" d="M296.209-23.536l2.317-11.6h-2.5l-2.318,11.6Zm3.324-14.885a1.249,1.249,0,0,0-1.275-1.564,2.039,2.039,0,0,0-1.922,1.564,1.262,1.262,0,0,0,1.3,1.562,2.03,2.03,0,0,0,1.9-1.562h0" transform="translate(86.675 -185.321)" fill="#100f0d"/>
        <path id="path42" d="M308.923-24.226l3.4-17.033h-2.5l-3.4,17.033h2.5" transform="translate(79.782 -184.631)" fill="#100f0d"/>
        <path id="path44" d="M16.7-73.671,19.847-89.42H17.3L14.156-73.671H16.7" transform="translate(238.245 -158.519)" fill="#100f0d"/>
        <path id="path46" d="M38.922-69.03l1.623-8.121c.41-2.052-.076-3.708-2.712-3.708a5.37,5.37,0,0,0-4.539,2.52l-.019-.023a16.514,16.514,0,0,0,.614-2.264H31.51l-2.316,11.6h2.5l1.118-5.6c.462-2.309,2.114-4.153,3.862-4.153,1.331,0,1.56.839,1.269,2.287L36.45-69.03h2.472" transform="translate(230.092 -163.161)" fill="#100f0d"/>
        <path id="path48" d="M65.747-73.967l.41-2.052a6.811,6.811,0,0,1-1.555.186c-1.167,0-1.422-.467-1.077-2.193l1.109-5.554h3.032l.387-1.937H65l.871-4.363-2.608.677-.738,3.686H60.31l-.387,1.937h2.217l-1.265,6.322c-.516,2.59.039,3.547,2.512,3.547a12.91,12.91,0,0,0,2.361-.257h0" transform="translate(213.432 -158.271)" fill="#100f0d"/>
        <path id="path50" d="M88.051-76.425H83.128a3.415,3.415,0,0,1,3.107-2.589C87.7-79.014,88.416-78.012,88.051-76.425Zm2.38.583c.548-2.754-.422-5.016-3.734-5.016-3.382,0-5.818,2.613-6.517,6.113-.816,4.082.794,5.949,4.41,5.949a11.746,11.746,0,0,0,4.161-.747l.164-1.982a9.03,9.03,0,0,1-3.532.746c-2.309,0-3.258-1.213-2.65-3.9h7.4c.134-.445.237-.839.3-1.167h0" transform="translate(202.561 -163.161)" fill="#100f0d"/>
        <path id="path52" d="M115.9-80.883c-2.127-.211-3.583,1.236-4.409,2.8h-.047a17.262,17.262,0,0,0,.746-2.566h-2.379l-2.315,11.6h2.5l.941-4.713c.695-3.476,2.136-5.086,4.362-4.665l.6-2.45h0" transform="translate(187.638 -163.137)" fill="#100f0d"/>
        <path id="path54" d="M137.4-69.03l1.624-8.121c.41-2.052-.076-3.708-2.712-3.708a5.369,5.369,0,0,0-4.538,2.52l-.02-.023a16.523,16.523,0,0,0,.615-2.264h-2.38l-2.315,11.6h2.5l1.119-5.6c.462-2.309,2.113-4.153,3.862-4.153,1.331,0,1.559.839,1.27,2.287l-1.491,7.465H137.4" transform="translate(176.7 -163.161)" fill="#100f0d"/>
        <path id="path56" d="M163.478-74.046a3.989,3.989,0,0,1-3.5,3.29c-.979,0-1.473-.56-1.3-1.423.2-1,1.211-2.1,4.847-2.1Zm1.563,5.016c.15-.98.364-2.17.564-3.174l.947-4.734c.474-2.38-.2-3.92-3.743-3.92a12.849,12.849,0,0,0-4.233.77l-.19,2.124a8.175,8.175,0,0,1,3.633-.934c1.82,0,2.277.749,1.989,2.194l-.149.747c-4.173,0-7.14,1.54-7.67,4.2-.369,1.845.667,2.964,2.651,2.964a5.138,5.138,0,0,0,4.324-2.4l.019.023a17.062,17.062,0,0,0-.546,2.147h2.4" transform="translate(161.277 -163.161)" fill="#100f0d"/>
        <path id="path58" d="M190.706-73.967l.411-2.052a6.813,6.813,0,0,1-1.553.186c-1.168,0-1.425-.467-1.079-2.193l1.108-5.554h3.034l.386-1.937h-3.056l.871-4.363-2.607.677-.738,3.686h-2.215l-.387,1.937H187.1l-1.264,6.321c-.517,2.59.038,3.547,2.511,3.547a12.912,12.912,0,0,0,2.361-.257h0" transform="translate(145.681 -158.271)" fill="#100f0d"/>
        <path id="path60" d="M207.425-74.5l2.317-11.6h-2.5l-2.317,11.6Zm3.324-14.886a1.248,1.248,0,0,0-1.275-1.562,2.036,2.036,0,0,0-1.922,1.562,1.263,1.263,0,0,0,1.3,1.565,2.029,2.029,0,0,0,1.9-1.565h0" transform="translate(134.812 -157.69)" fill="#100f0d"/>
        <path id="path62" d="M228.458-74.887c-.537,2.683-2.142,3.944-3.752,3.944-1.936,0-2.687-1.376-2.165-3.989.53-2.66,2.234-3.826,3.752-3.826C228.275-78.759,228.952-77.359,228.458-74.887Zm2.6-.16c.814-4.085-1.033-5.811-4.136-5.811a7.336,7.336,0,0,0-7.022,6.183c-.815,4.082.926,5.879,4.145,5.879a7.416,7.416,0,0,0,7.013-6.251h0" transform="translate(126.803 -163.161)" fill="#100f0d"/>
        <path id="path64" d="M258.706-69.03l1.622-8.121c.411-2.052-.074-3.708-2.711-3.708a5.369,5.369,0,0,0-4.538,2.52l-.018-.023a16.867,16.867,0,0,0,.614-2.264H251.3l-2.318,11.6h2.5l1.12-5.6c.461-2.309,2.113-4.153,3.862-4.153,1.33,0,1.559.839,1.269,2.287l-1.491,7.465h2.472" transform="translate(110.929 -163.161)" fill="#100f0d"/>
        <path id="path66" d="M285.089-74.046a3.991,3.991,0,0,1-3.505,3.29c-.98,0-1.475-.56-1.3-1.423.2-1,1.213-2.1,4.852-2.1Zm1.561,5.016c.15-.98.364-2.17.565-3.174l.946-4.734c.476-2.38-.2-3.92-3.743-3.92a12.873,12.873,0,0,0-4.236.77l-.191,2.124a8.2,8.2,0,0,1,3.639-.934c1.819,0,2.277.749,1.988,2.194l-.149.747c-4.177,0-7.143,1.54-7.675,4.2-.369,1.845.668,2.964,2.65,2.964a5.147,5.147,0,0,0,4.332-2.4l.017.023a17.17,17.17,0,0,0-.546,2.147h2.4" transform="translate(95.345 -163.161)" fill="#100f0d"/>
        <path id="path68" d="M309.109-75.19l3.4-17.031h-2.5l-3.4,17.031h2.5" transform="translate(79.681 -157)" fill="#100f0d"/>
        <g id="g70" transform="translate(88.637 49)">
          <g id="g72" transform="translate(83.274 -309.364)" clip-path="url(#clip-path)">
            <g id="g78" transform="translate(-21.826 -49.846)" clip-path="url(#clip-path-2)">
              <path id="path106" d="M109.552-239.907v-.05H109.4v-.05h-.1v-.05h-.1v-.05h-.05v-.05h-.1v-.05H109v-.05h-.05v-.05h-.05v-.05h-.05v-.05h-.1v-.05h-.05v-.05h-.05v-.05h-.05v-.05h-.05v-.05h-.05v-.05h-.05v-.05h-.05v-.05h-.05v-.05h-.05v-.05h-.05v-.1h-.05v-.05h-.05v-.05h-.05v-.05h-.05v-.1h-.05v-.05h-.05v-.05h-.05v-.1h-.05v-.05h-.05v-.1h-.05v-.1h-.05v-.05h-.05v-.1h-.05v-.1h-.05v-.1h-.05v-.1h-.05v-.1h-.05v-.1h-.05v-.1h-.05v-.1h-.05v-.149h-.05v-.1h-.05v-.1h-.05v-.149h-.05v-.1h-.05v-.1h-.05v-.149h-.05v-.1h-.05v-.149h-.05v-.149h-.05v-.149h-.05v-.149h-.05v-.149h-.05v-.149h-.05v-.2h-.05v-.149h-.05v-.2h-.05v-.2h-.05v-.2h-.05v-.149h-.05v-.249h-.05v-.249h-.05v-.2h-.05v-.249h-.05v-.249h-.05v-.3h-.05v-.3h-.05v-.3h-.05v-.348h-.05v-.4h-.05v-.4h-.05v-.5h-.05v-.547h-.05v-.7h-.05v-1.044h-.05v-2.834h.05v-1.293h.05v-1.044h.05v-.7h.05v-.7h.05v-.646h.05v-.6h.05v-.448h.05v-.5h.05v-.5h.05v-.447h.05v-.4h.05v-.4h.05v-.4h.05v-.4h.05v-.4h.05v-.348h.05v-.3h.05v-.348h.05v-.3h.05v-.348h.05v-.348h.05v-.3h.05v-.3h.05v-.249h.05v-.3h.05v-.3h.05v-.3h.05v-.3h.05v-.249h.05v-.249h.05v-.249h.05v-.249h.05v-.3h.05v-.249h.05v-.249h.05v-.249h.05v-.249h.05v-.2h.05v-.249h.05v-.249h.05v-.249h.05v-.2h.05v-.249h.05v-.2h.05v-.249h.05v-.2h.05v-.249h.05v-.2h.05v-.2h.05v-.2h.05v-.249h.05v-.2h.05v-.2h.05v-.2h.05v-.2h.05v-.2h.05v-.2h.05v-.2h.05v-.2h.05v-.2h.05v-.2h.05v-.2h.05v-.149h.05v-.2h.05v-.2h.05v-.149h.05v-.2h.05v-.2h.05v-.149H109v-.2h.05v-.149h.05v-.2h.05v-.149h.05v-.2h.05v-.149h.05v-.2h.05v-.149h.05v-.149h.05v-.149h.05v-.149h.05v-.149h.05v-.149h.05v-.149h.05v-.149h.05v-.149h.05v-.1h.05v-.149h.05v-.149h.05v-.149H110v-.149h.05v-.1h.05v-.149h.05v-.149h.05v-.149h.05v-.149h.05v-.1h.05v-.149h.05v-.1h.05v-.149h.05v-.149h.05v-.1h.05v-.149h.05v-.149h.05v-.1h.05v-.149h.05v-.1h.05v-.149h.05v-.149h.05v-.1h.05v-.149h.05v-.1h.05v-.149h.05v-.1h.05v-.149h.05v-.1h.05v-.149h.05v-.1h.05v-.1h.05v-.149h.05v-.1h.05v-.149h.05v-.1h.05v-.149h.05v-.1h.05v-.1h.05v-.149h.05v-.1h.05v-.149h.05v-.1h.05v-.1h.05v-.1h.05v-.149h.05v-.1h.05v-.1h.05v-.1h.05v-.149h.05v-.1h.05v-.1h.05v-.1h.05v-.149h.05v-.1h.05v-.1h.05v-.1h.05v-.149h.05v-.1h.05v-.1h.05v-.1h.05v-.1h.05v-.1h.05v-.1h.05v-.1h.05v-.1h.05v-.149h.05v-.1h.05v-.1h.05v-.1h.05v-.1h.05v-.1h.05v-.1h.05v-.1h.05v-.1h.05v-.1h.05v-.1h.05v-.1h.05v-.1h.05v-.1h.05v-.1h.05v-.1h.05v-.1h.05v-.1h.05v-.1h.05v-.1h.05v-.1h.05v-.1h.05v-.1h.05v-.1h.05v-.1h.05v-.1h.05v-.1h.05v-.05h.05v-.1h.05v-.1h.05v-.1h.05v-.1h.05v-.1h.05v-.05h.05v-.1h.05v-.1h.05v-.1h.05v-.1h.05v-.05h.05v-.1h.05v-.1h.05v-.1h.05v-.1h.05v-.1h.05v-.05h.05v-.1h.05v-.1h.05v-.1h.05v-.05h.05v-.1h.05v-.1h.05v-.05h.05v-.1h.05v-.1h.05v-.05h.05v-.1h.05v-.1h.05v-.1h.05v-.05h.05v-.1h.05v-.1h.05v-.05h.05v-.1h.05v-.1h.05v-.05h.05v-.1h.05v-.05h.05v-.1h.05v-.1h.05v-.05h.05v-.1h.05v-.05h.05v-.1h.05v-.1h.05v-.05h.05v-.1h.05v-.1h.05v-.05h.05v-.1h.05v-.05h.05v-.1h.05v-.05h.05v-.1h.05v-.05h.05v-.1h.05v-.05h.05v-.1h.05v-.05h.05v-.1h.05v-.05h.05v-.1h.05v-.05h.05v-.1h.05V-295h.05v-.1h.05v-.05h.05v-.1h.05v-.05H118v-.1h.05v-.05h.05v-.1h.05v-.05h.05v-.05h.05v-.1h.05v-.05h.05v-.1h.05v-.05h.05v-.05h.05v-.1h.05v-.05h.05v-.1h.05v-.05h.05v-.05h.05v-.1h.05v-.05h.05v-.1h.05v-.05h.05v-.05H119v-.1h.05v-.05h.05v-.05h.05v-.1h.05v-.05h.05v-.05h.05v-.1h.05v-.05h.05v-.05h.05v-.1h.05v-.05h.05v-.05h.05v-.1h.05v-.05h.05v-.05h.05v-.05h.05v-.1h.05v-.05h.05v-.05h.05v-.05h.05v-.1h.05v-.05h.05v-.05h.05v-.05h.05v-.1h.05v-.05h.05v-.05h.05v-.05h.05v-.1h.05v-.05h.05v-.05h.05v-.05h.05v-.05h.05v-.1h.05v-.05h.05v-.05h.05v-.05h.05v-.05h.05v-.1h.05v-.05h.05v-.05h.05v-.05h.05v-.05h.05v-.05h.05v-.1h.05v-.05h.05v-.05h.05v-.05h.05v-.05h.05v-.05h.05v-.05h.05v-.1h.05v-.05h.05v-.05h.05v-.05h.05v-.05h.05v-.05h.05v-.05h.05v-.05h.05v-.05h.05v-.05h.05v-.1h.05v-.05h.05v-.05h.05v-.05h.05v-.05h.05v-.05h.05v-.05h.05v-.05h.05v-.05h.05v-.05h.05v-.05h.05v-.05h.05v-.05h.05v-.05h.05v-.05h.05v-.05h.05v-.05h.05v-.05h.05v-.1h.05v-.05h.05v-.05h.05v-.05h.05v-.05h.05v-.05h.05v-.05h.1v-.05h.05v-.05h.05v-.05h.05v-.05h.05v-.05h.05v-.05h.05v-.05h.05v-.05h.05v-.05h.05v-.05h.05v-.05h.05v-.05h.05v-.05h.05v-.05h.05v-.05h.05v-.05h.05v-.05h.05v-.05h.05v-.05h.05v-.05h.1v-.05h.05v-.05h.05v-.05h.05v-.05h.05v-.05h.05V-303h.05v-.05h.05v-.05h.05v-.05h.1v-.05h.05v-.05h.05v-.05h.05v-.05h.05v-.05h.05v-.05h.05v-.05h.1v-.05h.05v-.05h.05v-.05h.05v-.05h.05v-.05h.1v-.05h.05v-.05h.05v-.05h.05v-.05h.05V-304h.1v-.05h.05v-.05h.05v-.05h.05v-.05h.1v-.05h.05v-.05h.05v-.05h.05v-.05h.1v-.05h.05v-.05h.05v-.05h.1v-.05h.05v-.05h.05v-.05h.1v-.05h.05v-.05h.05v-.05h.1v-.05H127v-.05h.05v-.05h.1v-.05h.05v-.05h.1v-.05h.05v-.05h.05v-.05h.1v-.05h.05v-.05h.1v-.05h.05v-.05h.1v-.05h.05v-.05h.1v-.05H128v-.05h.1v-.05h.05v-.05h.1v-.05h.05v-.05h.1v-.05h.05v-.05h.1v-.05h.1v-.05h.05v-.05h.1v-.05h.05v-.05h.1v-.05h.1v-.05h.05v-.05h.1v-.05h.1v-.05h.1v-.05h.05v-.05h.1v-.05h.1v-.05h.1v-.05h.1v-.05h.1v-.05h.1v-.05h.05v-.05h.1v-.05h.1v-.05h.1v-.05h.1v-.05h.149v-.05h.1v-.05h.1v-.05h.1v-.05h.1v-.05h.1v-.05h.149v-.05h.149v-.05h.1v-.05h.149v-.05h.149v-.05h.149v-.05h.149v-.05h.149v-.05h.149v-.05h.2v-.05h.149v-.05h.2v-.05h.249v-.05h.2v-.05h.3v-.05h.348v-.05h.547v-.05h.7v.05h.547v.05h.3v.05h.2v.05h.149v.05h.149v.05h.1v.05h.1v.05h.1v.05H137v.05h.05v.05h.05v.05h.05v.05h.05v.05h.05v.1h.05v.2h.05v.6h-.05v.2h-.05v.1h-.05v.05h-.05v.1h-.05v.05H137v.05h-.05v.05h-.1v.05H136.7v.05h-.149v.05h-.2v.05h-.2v.05h-.2v.05h-.2v.05h-.149v.05h-.149v.05h-.149v.05h-.149v.05h-.1v.05h-.1v.05h-.05v.05h-.1v.05h-.05v.05h-.05v.05h-.05v.05h-.05v.05h-.05v.05h-.05v.05h-.05v.05h-.05v.05h-.05v.1h-.05v.05h-.05v.1h-.05v.149h-.05v.149h-.05v.2h-.05v.547h.05v.2h.05v.1h.05v.1h.05v.05h.05v.1h.05v.05h.05v.05h.05v.1h.05v.05h.05v.05h.05v.05h.05v.05h.05v.05h.1v.05h.05v.05h.05v.05h.05v.05h.05v.1h.05v.05h.05v.05h.05v.05h.05v.1h.05v.05h.05v.1h.05v.05h.05v.1h.05v.149h.05v.1h.05v.2h.05v.646h-.05v.149h-.05v.149h-.05v.1h-.05v.1h-.05v.05h-.05v.05h-.05v.1h-.05v.05h-.05v.05h-.05v.05h-.05v.05h-.1v.05h-.05v.05h-.1v.05h-.05v.05h-.1v.05h-.05v.05h-.1v.05h-.05v.05h-.1v.05h-.05v.05h-.05v.05h-.1v.05h-.05v.05h-.05v.05h-.1v.05h-.05v.05h-.1v.05h-.05v.05h-.05v.05h-.05v.05h-.1v.05h-.05v.05h-.05v.05h-.1v.05h-.05v.05h-.05v.05h-.1v.05h-.05v.05h-.05v.05h-.05v.05h-.05v.05h-.1v.05h-.05v.05h-.05v.05h-.05v.05h-.1v.05h-.05v.05h-.05v.05h-.05v.05h-.05v.05h-.1v.05h-.05v.05h-.05v.05h-.05v.05h-.05v.05h-.05v.05h-.1v.05h-.05v.05h-.05v.05h-.05v.05h-.05v.05h-.05v.05h-.1v.05h-.05v.05h-.05v.05h-.05v.05h-.05v.05h-.05v.05h-.05v.05h-.05v.05h-.05v.05h-.05v.05h-.05v.05h-.05v.05h-.05v.05h-.05v.05h-.05v.05h-.05v.05h-.05v.05h-.05v.05h-.05v.05h-.05v.05h-.05v.05h-.05v.05h-.05v.05h-.05v.05h-.05v.05h-.05v.05h-.05v.05h-.05v.05h-.05v.05h-.05v.05h-.05v.05h-.05v.05h-.05v.05h-.05v.1h-.05v.05h-.05v.05h-.05v.05h-.05v.05h-.05v.05h-.05v.05h-.05v.05h-.05v.05h-.05v.05h-.05v.05h-.05v.05h-.05v.05h-.05v.1h-.05v.05h-.05v.05h-.05v.05h-.05v.05h-.05v.05h-.05v.05h-.05v.05h-.05v.05h-.05v.05h-.05v.05h-.05v.05h-.05v.05h-.05v.1h-.05v.05h-.05v.05h-.05v.05h-.05v.05h-.05v.05h-.05v.05h-.05v.1h-.05v.05h-.05v.05h-.05v.05h-.05v.05h-.05v.05h-.05v.1H128v.05h-.05v.05h-.05v.05h-.05v.05h-.05v.05h-.05v.1h-.05v.05h-.05v.05h-.05v.05h-.05v.05h-.05v.05h-.05v.1h-.05v.05h-.05v.05h-.05v.05h-.05v.05h-.05v.1h-.05v.05h-.05v.05h-.05v.05H127v.1h-.05v.05h-.05v.05h-.05v.05h-.05v.1h-.05v.05h-.05v.05h-.05v.05h-.05v.1h-.05v.05h-.05v.05h-.05v.05h-.05v.1h-.05v.05h-.05v.05h-.05v.05h-.05v.1h-.05v.05h-.05v.05h-.05v.1h-.05v.05h-.05v.05h-.05v.1h-.05v.05h-.05v.05h-.05v.1h-.05v.05h-.05v.05h-.05v.1h-.05v.05h-.05v.05h-.05v.1h-.05v.05h-.05v.1h-.05v.05h-.05v.05h-.05v.1h-.05v.05h-.05v.05h-.05v.1h-.05v.05h-.05v.05h-.05v.1h-.05v.05h-.05v.1h-.05v.05h-.05v.1h-.05v.05h-.05v.1h-.05v.05h-.05v.1h-.05v.05h-.05v.1h-.05v.05h-.05v.05h-.05v.1h-.05v.05h-.05v.1h-.05v.05h-.05v.1h-.05v.05h-.05v.1h-.05v.05h-.05v.1h-.05v.1h-.05v.05h-.05v.1h-.05v.05h-.05v.1h-.05v.05h-.05v.1h-.05v.1h-.05v.05h-.05v.1h-.05v.05h-.05v.1h-.05v.1h-.05v.05h-.05v.1h-.05v.05h-.05v.1h-.05v.1h-.05v.05h-.05v.1h-.05v.1h-.05v.1h-.05v.05h-.05v.1h-.05v.1h-.05v.05h-.05v.1h-.05v.1h-.05v.1h-.05v.05h-.05v.1h-.05v.1h-.05v.1h-.05v.05h-.05v.1h-.05v.1h-.05v.1h-.05v.1h-.05v.1h-.05v.05h-.05v.1h-.05v.1h-.05v.1h-.05v.1h-.05v.1h-.05v.1h-.05v.05h-.05v.1h-.05v.1h-.05v.1h-.05v.1h-.05v.1h-.05v.1h-.05v.1h-.05v.1h-.05v.1h-.05v.1h-.05v.1h-.05v.1h-.05v.1h-.05v.1h-.05v.149h-.05v.1h-.05v.1h-.05v.1h-.05v.1h-.05v.1h-.05v.1h-.05v.1h-.05v.1h-.05v.149h-.05v.1h-.05v.1h-.05v.1h-.05v.149h-.05v.1h-.05v.1h-.05v.1h-.05v.149h-.05v.1h-.05v.1h-.05v.149h-.05v.1h-.05v.1h-.05v.149h-.05v.1h-.05v.1h-.05v.149h-.05v.1h-.05v.149h-.05v.1h-.05v.149h-.05v.1h-.05v.1h-.05v.149h-.05v.1h-.05v.149H119v.1h-.05v.149h-.05v.1h-.05v.149h-.05v.1h-.05v.149h-.05v.1h-.05v.149h-.05v.1h-.05v.149h-.05v.1h-.05v.149h-.05v.1h-.05v.149h-.05v.149h-.05v.1h-.05v.149h-.05V-276h-.05v.149h-.05v.149H118v.149h-.05v.149h-.05v.149h-.05v.149h-.05v.149h-.05v.149h-.05v.149h-.05v.2h-.05v.149h-.05v.149h-.05v.2h-.05v.149h-.05v.149h-.05v.2h-.05v.149h-.05v.2h-.05v.149h-.05v.2h-.05v.2h-.05v.149h-.05v.2h-.05v.2h-.05v.149h-.05v.2h-.05v.2h-.05v.2h-.05v.2h-.05v.2h-.05v.2h-.05v.2h-.05v.2h-.05v.2h-.05v.2h-.05v.2h-.05v.2h-.05v.2h-.05v.249h-.05v.2h-.05v.2h-.05v.2h-.05v.249h-.05v.2h-.05v.249h-.05v.2h-.05v.2h-.05v.249h-.05v.249h-.05v.2h-.05v.249h-.05v.249h-.05v.249h-.05v.249h-.05v.3h-.05v.249h-.05v.3h-.05v.3h-.05v.3h-.05v.3h-.05v.3h-.05v.348h-.05v.3h-.05v.348h-.05v.3h-.05v.4h-.05v.4h-.05v.4h-.05v.4h-.05v.5h-.05v.547h-.05v.547h-.05v.746h-.05v.845h-.05v3.928h.05v.945h.05v.7h.05v.646h.05v.646h.05v.6h.05v.6h.05v.6h.05v.5h.05v.447h-.05v.447h-.05v.2h-.05v.2h-.05v.149h-.05v.149h-.05v.1h-.05v.1h-.05v.1h-.05v.1h-.05v.05h-.05v.05h-.05v.05h-.05v.05h-.05v.05h-.05v.05h-.05v.05h-.1v.05h-.05v.05h-.1v.05h-.05v.05h-.1v.05h-.149v.05h-.1v.05h-.149v.05h-.2v.05h-.249v.05h-.447v.05h-.4v.05h-.2v.05h-.149v.05h-.1v.05h-.1v.05h-.1v.05h-.1v.05h-.05v.05h-.05v.05h-.1v.05h-.05v.05h-.05v.05h-.05v.05h-.05v.05h-.05v.1h-.05v.05h-.05v.05h-.05v.1h-.05v.1h-.05v.1h-.05v.1h-.05v.149h-.05v.2h-.05v.348h-.05v.249h.05v.4h.05v.149h.05v.149h.05v.1h.05v.149h.05v.1h.05v.05h.05v.1h.05v.1h.05v.1h.05v.1h.05v.149h.05v.149h.05v.249h.05v.348h-.05v.249h-.05v.1h-.05v.1h-.05v.1h-.05v.05h-.05v.05h-.05v.05h-.05v.05h-.05v.05h-.1v.05h-.1v.05h-.1v.05h-.149v.05Zm14.021-1.691v-.05h-.149v-.05h-.149v-.05h-.1v-.05h-.1v-.05h-.1v-.05h-.1v-.05h-.05V-242h-.05v-.05h-.05v-.05h-.1v-.05h-.05v-.05h-.05v-.05h-.05v-.05h-.05v-.05h-.05v-.05h-.05v-.05h-.05v-.05h-.05v-.05h-.05v-.05h-.05v-.05h-.05v-.05h-.05v-.1h-.05v-.05h-.05v-.05h-.05v-.05h-.05v-.1h-.05v-.05h-.05v-.05h-.05v-.1h-.05v-.05h-.05v-.1h-.05v-.05h-.05v-.1h-.05v-.1h-.05v-.05h-.05v-.1h-.05v-.1h-.05v-.1h-.05v-.1h-.05v-.1h-.05v-.1h-.05v-.1h-.05v-.1h-.05v-.1h-.05v-.1h-.05v-.1h-.05v-.149h-.05v-.1h-.05v-.149h-.05v-.1h-.05v-.149h-.05v-.149h-.05v-.149h-.05v-.149h-.05v-.149h-.05v-.149h-.05v-.149h-.05v-.2h-.05v-.2h-.05v-.2h-.05v-.2h-.05v-.2h-.05v-.3h-.05v-.3h-.05v-.348h-.05v-.447h-.05v-.447h-.05v-.447h-.05v-.447h-.05v-.5h-.05v-.945h-.05v-.895h-.05v-.945h-.05v-.845h.05v-2.635h.05v-.646h.05v-.646h.05v-.646h.05v-.646h.05v-.447h.05v-.4h.05v-.348h.05v-.348h.05v-.4h.05v-.348h.05v-.4h.05v-.348h.05v-.3h.05v-.3h.05v-.249h.05v-.249h.05v-.249h.05v-.3h.05v-.249h.05v-.249h.05v-.249h.05v-.3h.05v-.249h.05v-.249h.05v-.249h.05v-.2h.05v-.2h.05v-.2h.05v-.2h.05v-.249h.05v-.2h.05v-.2h.05v-.2h.05v-.2h.05v-.249h.05v-.2h.05v-.2h.05v-.2h.05v-.2h.05v-.2h.05v-.2h.05v-.149h.05v-.2h.05v-.149h.05v-.2h.05v-.2h.05v-.149h.05v-.2h.05v-.2h.05v-.149h.05v-.2h.05v-.149h.05v-.2h.05v-.149h.05v-.149h.05v-.2h.05v-.149h.05v-.149h.05v-.2h.05v-.149h.05v-.149h.05v-.149h.05v-.149h.05v-.149h.05v-.149h.05v-.149h.05v-.149h.05v-.149h.05v-.149h.05v-.149h.05v-.149h.05v-.149h.05v-.1h.05v-.149h.05v-.149h.05v-.149h.05v-.149h.05v-.149h.05v-.1h.05v-.149h.05v-.149h.05v-.1h.05v-.149h.05v-.1h.05v-.149h.05v-.149h.05v-.1h.05v-.149h.05v-.149h.05v-.1h.05v-.149h.05v-.1h.05v-.1h.05v-.149h.05v-.1h.05v-.149h.05v-.1h.05v-.149h.05v-.1h.05v-.1h.05v-.149h.05v-.1h.05v-.149h.05v-.1h.05v-.1h.05v-.1h.05v-.149h.05v-.1h.05v-.1h.05v-.1h.05v-.149h.05v-.1h.05v-.1h.05v-.1h.05v-.149h.05v-.1h.05v-.1h.05v-.1h.05v-.1h.05v-.1h.05v-.1h.05v-.149h.05v-.1h.05v-.1h.05v-.1h.05v-.1h.05v-.1h.05v-.1h.05v-.1h.05v-.1h.05v-.1h.05v-.1h.05v-.1h.05v-.1h.05v-.1h.05v-.1h.05v-.1h.05v-.1h.05v-.1h.05v-.1h.05v-.1h.05v-.1h.05v-.1h.05v-.1h.05v-.1h.05v-.1h.05v-.1h.05v-.05h.05v-.1h.05v-.1H127v-.1h.05v-.1h.05v-.1h.05v-.1h.05v-.1h.05v-.05h.05v-.1h.05v-.1h.05v-.1h.05v-.1h.05v-.05h.05v-.1h.05v-.1h.05v-.1h.05v-.05h.05v-.1h.05v-.1h.05v-.1h.05v-.05h.05v-.1H128v-.1h.05v-.1h.05v-.05h.05v-.1h.05v-.1h.05v-.05h.05v-.1h.05v-.1h.05v-.05h.05v-.1h.05v-.1h.05v-.05h.05v-.1h.05v-.1h.05v-.05h.05v-.1h.05v-.05h.05v-.1h.05v-.1h.05v-.05h.05v-.1h.05v-.05h.05v-.1h.05v-.05h.05v-.1h.05v-.05h.05v-.1h.05v-.1h.05v-.05h.05v-.1h.05v-.05h.05v-.1h.05v-.05h.05v-.1h.05v-.05h.05v-.1h.05v-.05h.05v-.1h.05v-.05h.05v-.05h.05v-.1h.05v-.05h.05v-.1h.05v-.05h.05v-.1h.05v-.05h.05v-.1h.05v-.05h.05v-.05h.05v-.1h.05v-.05h.05v-.05h.05v-.1h.05v-.05h.05v-.1h.05v-.05h.05v-.05h.05v-.1h.05v-.05h.05v-.05h.05v-.1h.05v-.05h.05v-.05h.05v-.1h.05v-.05h.05v-.05h.05v-.05h.05v-.1h.05v-.05h.05v-.05h.05v-.1h.05v-.05h.05v-.05h.05v-.05h.05v-.1h.05v-.05h.05v-.05h.05v-.05h.05v-.05h.05v-.1h.05v-.05h.05v-.05h.05v-.05h.05v-.05h.05v-.1h.05v-.05h.05v-.05h.05v-.05h.05v-.05h.05v-.05h.05v-.05h.05v-.1h.05v-.05h.05v-.05h.05v-.05h.05v-.05h.05v-.05h.05v-.05h.05v-.05h.05v-.05h.05v-.05h.05v-.05h.05v-.05h.05v-.05h.05v-.05h.05v-.05h.05v-.1h.05v-.05h.1v-.05h.05v-.05h.05v-.05h.05v-.05h.05v-.05h.05v-.05h.05v-.05h.05v-.05h.05v-.05h.05v-.05h.05v-.05h.05v-.05h.05v-.05h.05v-.05h.05v-.05h.05v-.05h.05v-.05h.05v-.05h.05v-.05h.05v-.05h.05v-.05h.05v-.05h.05v-.05h.05v-.05h.05v-.05h.05v-.05h.05v-.05h.05v-.05h.1v-.05h.05v-.05h.05v-.05h.05v-.05h.05v-.05h.05v-.05h.05v-.05h.05v-.05h.05V-294h.1v-.05h.05v-.05h.05v-.05h.05v-.05h.05v-.05h.05v-.05h.05v-.05h.1v-.05h.05v-.05h.05v-.05h.05v-.05h.05v-.05H136v-.05h.1v-.05h.05v-.05h.05v-.05h.05v-.05h.05v-.05h.1v-.05h.05V-295h.05v-.05h.05v-.05h.05v-.05h.1v-.05h.05v-.05h.05v-.05h.05v-.05h.1v-.05H137v-.05h.05v-.05h.05v-.05h.1v-.05h.05v-.05h.05v-.05h.1v-.05h.05v-.05h.05v-.05h.1v-.05h.05v-.05h.05v-.05h.1v-.05h.05v-.05h.05v-.05h.1v-.05h.05v-.05h.1v-.05h.05v-.05h.05v-.05h.1v-.05h.05v-.05h.1v-.05h.05v-.05h.1v-.05h.05v-.05h.1v-.05h.05v-.05h.1v-.05h.05v-.05h.1v-.05h.05v-.05h.1v-.05h.05v-.05h.1v-.05h.05v-.05h.1v-.05h.1v-.05h.05v-.05h.1v-.05h.1v-.05h.05v-.05h.1v-.05h.1v-.05h.1v-.05h.05v-.05h.1v-.05h.1v-.05h.1v-.05h.1v-.05h.1v-.05h.1v-.05h.1v-.05h.1v-.05h.1v-.05h.1v-.05h.149v-.05h.1v-.05h.149v-.05h.1v-.05h.149v-.05h.2v-.05h.149v-.05h.2v-.05h.2v-.05h.249v-.05h.3v-.05h.4v-.05H144.7v.05h.249v.05h.2v.05h.1v.05h.149v.05h.1v.05h.1v.05h.05v.05h.1v.05h.05v.05h.05v.05h.05v.05h.05v.05H146v.1h.05v.1h.05v.1h.05v.149h.05v.5h-.05v.2h-.05v.149h-.05v.149H146v.05h-.05v.05h-.05v.1h-.05v.05h-.05v.05h-.05v.05h-.05v.05h-.1v.05h-.1v.05h-.05v.05H145.3v.05h-.149v.05h-.3v.05h-.3v.05h-.249v.05h-.149v.05h-.149v.05h-.149v.05h-.1v.05h-.1v.05h-.1v.05h-.1v.05h-.05v.05h-.1v.05h-.05v.05h-.1v.05h-.05v.05h-.05v.05h-.05v.05h-.05v.05h-.05v.1h-.05v.05h-.05v.1h-.05v.1h-.05v.1h-.05v.1h-.05v.149h-.05v.149h-.05v.249h-.05v.4h.05v.249h.05v.149h.05v.1h.05v.1h.05v.1h.05v.05h.05v.1h.05v.1h.05v.05h.05v.1h.05v.1h.05v.1h.05v.05h.05v.1h.05v.1h.05v.1h.05v.1h.05v.1h.05v.05h.05v.1h.05v.1h.05v.1h.05v.1h.05v.1h.05v.05h.05v.1h.05v.1h.05v.149h.05v.1h.05v.1h.05v.1h.05v.1h.05v.149h.05v.1h.05v.1h.05v.1h.05v.1h.05v.1h.05v.149h.05v.1h.05v.1h.05v.1h.05v.1h.05v.149h.05v.1h.05v.149h.05v.1h.05v.149h.05v.149h.05v.149H145v.1h.05v.149h.05v.149h.05v.149h.05v.149h.05v.1h.05v.149h.05v.149h.05v.149h.05v.149h.05v.2h.05v.149h.05v.2h.05v.2h.05v.2h.05v.149h.05v.2h.05v.2h.05v.2h.05v.149H146v.2h.05v.249h.05v.3h.05v.249h.05v.3h.05v.249h.05v.3h.05v.249h.05v.3h.05v.447h.05v.5h.05v.5h.05v.448h.05v.646h.05v1.442h.05v2.138h-.05v1.193h-.05v.646h-.05v.4h-.05v.447h-.05v.4h-.05v.448h-.05v.249h-.05v.3h-.05v.249h-.05v.249h-.05v.3h-.05v.249h-.05v.249h-.05v.3H146v.249h-.05v.2h-.05v.2h-.05v.2h-.05v.2h-.05v.149h-.05v.2h-.05v.2h-.05v.149h-.05v.2h-.05v.2h-.05v.2h-.05v.149h-.05v.2h-.05v.149h-.05v.149h-.05v.149h-.05v.1h-.05v.149h-.05v.149H145v.149h-.05v.149h-.05v.149h-.05v.149h-.05v.1h-.05v.149h-.05v.149h-.05v.149h-.05v.149h-.05v.149h-.05v.1h-.05v.1h-.05v.1h-.05v.149h-.05v.1h-.05v.1h-.05v.149h-.05v.1h-.05v.1h-.05v.1h-.05v.149h-.05v.1h-.05v.1h-.05v.149h-.05v.1h-.05v.1h-.05v.1h-.05v.149h-.05v.1h-.05v.1h-.05v.1h-.05v.1h-.05v.1h-.05v.05h-.05v.1h-.05v.1h-.05v.1h-.05v.1h-.05v.1h-.05v.1h-.05v.1h-.05v.1h-.05v.1h-.05v.05h-.05v.1h-.05v.1h-.05v.1h-.05v.1h-.05v.1h-.05v.1h-.05v.1h-.05v.05h-.05v.1h-.05v.1h-.05v.05h-.05v.1h-.05v.05h-.05v.1h-.05v.1h-.05v.05h-.05v.1h-.05v.05h-.05v.1h-.05v.1h-.05v.05h-.05v.1h-.05v.05h-.05v.1h-.05v.1h-.05v.05h-.05v.1h-.05v.05h-.05v.1h-.05v.1h-.05v.05h-.05v.1h-.05v.05h-.05v.1h-.05v.05h-.05v.05h-.05v.1h-.05v.05h-.05v.05h-.05v.1h-.05v.05h-.05v.1h-.05v.05h-.05v.05h-.05v.1h-.05v.05h-.05v.05h-.05v.1h-.05v.05h-.05v.1h-.05v.05h-.05v.05h-.05v.1h-.05v.05h-.05v.05h-.05v.1h-.05v.05h-.05v.1h-.05v.05h-.05v.05h-.05v.05h-.05v.1h-.05v.05h-.05v.05h-.05v.05h-.05v.05h-.05v.1h-.05v.05h-.05v.05h-.05v.05h-.05v.05h-.05v.05h-.05v.1h-.05v.05h-.05v.05h-.05v.05h-.05v.05h-.05v.1h-.05v.05h-.05v.05h-.05v.05h-.05v.05h-.05v.1h-.05v.05h-.05v.05h-.05v.05h-.05v.05h-.05v.05h-.05v.1h-.05v.05h-.05v.05h-.05v.05h-.05v.05h-.05v.05h-.05v.05h-.05v.05h-.05v.05h-.05v.05h-.05v.05h-.05v.05h-.05v.05h-.05v.05h-.05v.05h-.05v.05h-.05v.05h-.05v.05h-.05v.05h-.05v.05h-.05v.05h-.05v.05h-.05v.05h-.05v.05h-.05v.05h-.05v.05h-.05v.05h-.05v.05h-.05v.05H137v.1h-.05v.05h-.05v.05h-.05v.05h-.05v.05h-.1v.05h-.05v.05h-.05v.05h-.05v.05h-.05v.05h-.05v.05h-.05v.05h-.05v.05h-.1v.05h-.05v.05h-.05v.05h-.05v.05h-.05v.05H136v.05h-.05v.05h-.05v.05h-.1v.05h-.05v.05h-.05v.05h-.05v.05h-.05v.05h-.05v.05h-.05v.05h-.05v.05h-.05v.05h-.1v.05h-.05v.05h-.05v.05h-.05v.05h-.05v.05h-.05v.05h-.1v.05h-.05v.05h-.05v.05h-.1v.05h-.05v.05h-.05v.05h-.05v.05h-.1v.05h-.05v.05h-.05v.05h-.1v.05h-.05v.05h-.05v.05h-.1v.05h-.05v.05h-.05v.05h-.05v.05h-.1v.05h-.05v.05h-.05v.05h-.1v.05h-.05v.05h-.05v.05h-.05v.05h-.1v.05h-.05v.05h-.1v.05h-.05v.05h-.1v.05h-.05v.05h-.1v.05h-.05v.05h-.1v.05h-.05v.05h-.1v.05h-.05v.05h-.1v.05h-.05v.05h-.1v.05h-.05v.05h-.1v.05h-.05v.05h-.1v.05h-.05v.05h-.1v.05h-.05v.05h-.1v.05h-.05v.05h-.1v.05h-.05v.05h-.1v.05h-.1v.05h-.05v.05h-.1v.05h-.1v.05h-.1v.05h-.1v.05h-.05v.05h-.1v.05h-.1v.05h-.1v.05h-.05v.05h-.1v.05h-.1v.05h-.1v.05h-.1v.05h-.05v.05h-.1v.05h-.1v.05h-.1v.05h-.05v.05h-.1v.05h-.1v.05h-.1v.05h-.149v.05h-.1v.05h-.1v.05h-.1v.05h-.1v.05h-.1v.05h-.1v.05h-.149v.05h-.1v.05h-.1v.05h-.1v.05h-.1v.05h-.1v.05h-.1v.05H127.8v.05h-.1v.05h-.1v.05h-.149v.05h-.1v.05H127.2v.05h-.1v.05h-.149v.05h-.1v.05h-.149v.05h-.149v.05h-.1v.05h-.149v.05h-.1v.05h-.149v.05h-.149v.05h-.149v.05h-.149v.05h-.149v.05h-.1v.05h-.1v.05h-.05v.05h-.1v.05h-.05v.05h-.1v.05h-.05v.05h-.05v.05h-.05v.05h-.05v.05h-.05v.05h-.05v.1h-.05v.05h-.05v.05h-.05v.1h-.05v.1h-.05v.05h-.05v.149h-.05v.149h-.05v.249h-.05v.994h.05v.249h.05v.2h.05v.1h.05v.149h.05v.1h.05v.1h.05v.1h.05v.1h.05v.1h.05v.05h.05v.1h.05v.05h.05v.1h.05v.05h.05v.1h.05v.1h.05v.149h.05v.348h.05v.149h-.05v.2h-.05v.2h-.05v.1h-.05v.05h-.05v.1h-.05v.05h-.05v.05h-.05v.05h-.1v.05h-.05v.05h-.1v.05h-.05v.05h-.149v.05Zm-26.8-4.574v-.05h-.2v-.05h-.1v-.05h-.149v-.05h-.1v-.05h-.05v-.05h-.1v-.05h-.05v-.05h-.05v-.05h-.1v-.05h-.05v-.05h-.05v-.05h-.05v-.05h-.05v-.05h-.05v-.05h-.05v-.05h-.05v-.05h-.05v-.05h-.05v-.05h-.05v-.05h-.05v-.1h-.05v-.05h-.05v-.05h-.05v-.05h-.05v-.1h-.05v-.05h-.05v-.1h-.05v-.05h-.05v-.1h-.05v-.05h-.05v-.1h-.05v-.05h-.05v-.1h-.05v-.1h-.05v-.1h-.05v-.1h-.05v-.05h-.05v-.1h-.05v-.1h-.05v-.1h-.05v-.1h-.05v-.149h-.05v-.1h-.05v-.1h-.05v-.1h-.05v-.1h-.05v-.149h-.05v-.149h-.05v-.1h-.05v-.149h-.05v-.149h-.05v-.1h-.05v-.149h-.05v-.149h-.05v-.2h-.05v-.149h-.05v-.149h-.05v-.2h-.05v-.149h-.05v-.249h-.05v-.2h-.05v-.2h-.05v-.2h-.05v-.249h-.05v-.249h-.05v-.3h-.05v-.249h-.05v-.348h-.05v-.4H92.9v-.348h-.05v-.547H92.8v-.7h-.05v-.6H92.7v-.746h-.05v-1.342H92.6v-2.784h.05v-1.342h.05v-.8h.05v-.746h.05v-.646h.05v-.5h.05v-.547h.05v-.5h.05v-.4h.05v-.4h.05v-.4h.05v-.4h.05v-.4h.05v-.3h.05v-.348h.05v-.348h.05v-.3h.05v-.3h.05v-.3h.05v-.249h.05v-.249h.05v-.249h.05v-.249h.05v-.249h.05v-.249h.05v-.2h.05v-.249h.05v-.249h.05v-.2h.05v-.249h.05v-.249h.05v-.2h.05v-.249h.05v-.2h.05v-.2h.05v-.249h.05v-.2h.05v-.2h.05v-.2h.05v-.249h.05v-.2h.05v-.2h.05v-.2h.05v-.2h.05v-.2h.05v-.2h.05v-.149h.05v-.2h.05v-.2h.05v-.2h.05v-.2h.05v-.2h.05v-.149h.05v-.2h.05v-.149h.05v-.2h.05v-.149h.05v-.149h.05v-.2h.05v-.149h.05v-.2h.05v-.149h.05v-.2h.05v-.149h.05v-.149h.05v-.149h.05v-.149h.05v-.149h.05v-.149h.05v-.149h.05v-.149h.05v-.2h.05v-.149h.05v-.149h.05v-.149h.05v-.149h.05v-.149h.05v-.149h.05v-.149h.05v-.1h.05v-.149h.05v-.149h.05v-.149h.05v-.1h.05v-.149h.05v-.149h.05v-.1h.05v-.149h.05v-.149h.05v-.1h.05v-.149h.05v-.149h.05v-.149h.05v-.1h.05v-.149h.05v-.149h.05v-.1h.05v-.1h.05v-.149h.05v-.1h.05v-.149h.05v-.1h.05v-.149h.05v-.1h.05v-.149h.05v-.1h.05v-.1h.05v-.149h.05v-.1h.05v-.149h.05v-.1h.05v-.1h.05v-.1h.05v-.149h.05v-.1h.05v-.1h.05v-.1h.05v-.1h.05v-.1h.05v-.1h.05v-.1h.05v-.1h.05v-.149h.05v-.1h.05v-.1h.05v-.1h.05v-.1h.05v-.1h.05v-.05h.05v-.1h.05v-.1h.05v-.1h.05v-.1h.05v-.1h.05v-.1h.05v-.1h.05v-.1h.05v-.1h.05v-.1h.05v-.1h.05v-.1h.05v-.1h.05v-.1h.05v-.05h.05v-.1h.05v-.1h.05v-.1h.05v-.1h.05v-.1h.05v-.1h.05v-.1h.05v-.1h.05v-.149h.05v-.1h.05v-.1h.05v-.1h.05v-.1h.05v-.149h.05v-.1h.05v-.149h.05v-.149h.05v-.149h.05v-.249h.05v-.746h-.05v-.1h-.05v-.1h-.05v-.1h-.05v-.05h-.05v-.05h-.05v-.05h-.05v-.05h-.05v-.05h-.05v-.05h-.1v-.05h-.05v-.05h-.1v-.05h-.05v-.05h-.149v-.05h-.1v-.05h-.1v-.05h-.1v-.05h-.2v-.05h-.2v-.05h-.447v.05h-.249v.05h-.149v.05h-.149v.05h-.1v.05h-.1v.05h-.1v.05h-.1v.05h-.05v.05h-.1v.05h-.05v.05h-.1v.05h-.05v.05h-.05v.05h-.05v.05h-.05v.05h-.1v.05h-.05v.05h-.05v.05h-.05v.05h-.05v.05h-.05v.05h-.05v.05h-.05v.05h-.05v.05h-.05v.1h-.05v.05h-.05v.05h-.05v.05h-.05v.05h-.05v.05h-.05v.05h-.05v.1h-.05v.05h-.05v.05h-.05v.1h-.05v.05h-.05v.05h-.05v.1h-.05v.05h-.05v.05h-.05v.1h-.05v.05h-.05v.1h-.05v.05h-.05v.05h-.05v.1h-.05v.05h-.05v.1h-.05v.05h-.05v.1h-.05v.05h-.05v.1h-.05v.05h-.05v.1h-.05v.1h-.05v.05h-.05v.1h-.05v.05h-.05v.1h-.05v.1h-.05v.05h-.05v.1h-.05v.05h-.05v.1h-.05v.1h-.05v.05h-.05v.1h-.05v.1h-.05v.05h-.05v.1h-.05v.1h-.05v.05h-.05v.1h-.05v.1h-.05v.1h-.05v.05h-.05v.1h-.05v.1h-.05v.1h-.05v.1h-.05v.1h-.05v.1h-.05v.1h-.05v.1h-.05v.1h-.05v.1h-.05v.1h-.05v.1h-.05v.1h-.05v.149h-.05v.1h-.05v.1h-.05v.1h-.05v.1h-.05v.1h-.05v.149h-.05v.1h-.05v.1h-.05v.149h-.05v.1H92.9v.1h-.05v.149H92.8v.1h-.05v.1H92.7v.149h-.05v.1H92.6v.149h-.05v.149H92.5v.1h-.05v.149H92.4v.1h-.05v.149H92.3v.1h-.05v.149H92.2v.149h-.05v.149H92.1v.1h-.05v.149H92v.149h-.05v.149H91.9v.149h-.05v.1H91.8v.149h-.05v.149H91.7v.149h-.05v.149H91.6v.149h-.05v.149H91.5v.149h-.05v.149H91.4v.149h-.05v.149H91.3v.149h-.05v.2H91.2v.149h-.05v.149h-.05v.2h-.05v.149h-.05v.149h-.05v.2h-.05v.149h-.05v.149h-.05v.2h-.05v.149h-.05v.2h-.05v.2h-.05v.149h-.05v.2h-.05v.149h-.05v.2h-.05v.2h-.05v.2h-.05v.2h-.05v.2h-.05v.2h-.05v.2h-.05v.2h-.05v.2h-.05v.2h-.05v.2h-.05v.2h-.05v.249h-.05v.2h-.05v.2h-.05v.249h-.05v.2h-.05v.249h-.05v.249h-.05v.249h-.05v.249h-.05v.2h-.05v.249h-.05v.249h-.05v.3h-.05v.249h-.05v.3h-.05v.249h-.05v.3h-.05v.3h-.05v.3h-.05v.3h-.05v.348h-.05v.3h-.05v.348h-.05v.348h-.05v.4h-.05v.4h-.05v.4h-.05v.448h-.05v.5h-.05v.5h-.05v.6h-.05v.7h-.05v.646h-.05v.1h-.05v.149h-.05v.05h-.05v.05h-.05v.1h-.05v.05h-.05v.05h-.05v.05h-.1v.05h-.05v.05h-.1v.05h-.149v.05h-.646v-.05H86.68v-.05h-.1v-.05h-.05v-.05h-.1v-.05h-.05v-.05h-.05v-.05h-.05v-.05h-.05v-.05h-.05v-.05h-.05v-.1h-.05v-.05h-.05v-.1h-.05v-.1h-.05v-.1h-.05v-.1h-.05v-.1h-.05v-.1h-.05v-.149h-.05v-.1h-.05v-.1h-.05v-.149h-.05v-.1h-.05v-.1h-.05v-.149h-.05v-.1h-.05v-.1h-.05v-.149h-.05v-.1h-.05v-.149h-.05v-.149h-.05v-.1h-.05v-.149h-.05v-.149h-.05v-.149h-.05v-.1h-.05v-.149h-.05v-.149h-.05v-.1h-.05V-268h-.05v-.149h-.05v-.2h-.05v-.149h-.05v-.149h-.05v-.2h-.05v-.149h-.05v-.149h-.05v-.2h-.05v-.149h-.05v-.149h-.05v-.249h-.05v-.2h-.05v-.2H84v-.249h-.05v-.2H83.9v-.249h-.05v-.2H83.8v-.2h-.05v-.348H83.7v-.3h-.05v-.3H83.6v-.3h-.05v-.3H83.5v-.348h-.05v-.5H83.4v-.5h-.05v-.5H83.3v-.8h-.05v-1.094H83.2v-2.685h.05v-.895h.05v-.7h.05v-.448h.05v-.5h.05v-.447h.05v-.348h.05v-.3h.05v-.3h.05v-.3h.05v-.3h.05v-.249h.05v-.249h.05v-.2h.05v-.249h.05v-.249H84v-.2h.05v-.249h.05v-.2h.05v-.149h.05v-.2h.05v-.2h.05v-.149h.05v-.2h.05v-.149h.05v-.2h.05v-.149h.05v-.149h.05v-.2h.05v-.149h.05v-.149h.05v-.149h.05v-.149h.05v-.149h.05v-.149h.05v-.149h.05v-.1h.05v-.149h.05v-.1h.05v-.149h.05v-.149h.05v-.1h.05v-.149h.05v-.1h.05v-.149h.05v-.1h.05v-.149h.05v-.1h.05v-.149h.05v-.1h.05v-.1h.05v-.1h.05v-.149h.05v-.1h.05v-.1h.05v-.1h.05v-.1h.05v-.149h.05v-.1h.05v-.1h.05v-.1h.05v-.1h.05v-.1h.05v-.1h.05v-.1h.05v-.1h.05v-.1h.05v-.1h.05v-.1h.05v-.1h.05v-.1h.05v-.1h.05v-.05h.05v-.1h.05v-.1h.05v-.1h.05v-.1h.05v-.1h.05v-.05h.05v-.1h.05v-.1h.05v-.05h.05v-.1h.05v-.1h.05v-.1h.05v-.05h.05v-.1h.05v-.1h.05v-.05h.05v-.1h.05v-.1h.05v-.05h.05v-.1h.05v-.1h.05v-.05h.05v-.1h.05v-.05h.05v-.1h.05v-.05h.05v-.1h.05v-.05h.05v-.1h.05v-.05h.05v-.1h.05v-.05h.05v-.1h.05v-.1h.05v-.05h.05v-.05h.05v-.1h.05v-.05h.05v-.1h.05v-.05h.05v-.05h.05v-.1h.05v-.05h.05v-.05h.05v-.1h.05v-.05h.05v-.1h.05v-.05h.05v-.05h.05v-.1h.05v-.05h.05v-.1h.05v-.05h.05v-.05h.05v-.05h.05v-.1h.05v-.05h.05v-.05h.05v-.05h.05v-.1h.05v-.05h.05v-.05h.05v-.05h.05v-.1h.05v-.05h.05v-.05h.05v-.05h.05v-.1h.05v-.05h.05v-.05h.05v-.05h.05v-.1h.05v-.05h.05v-.05h.05v-.05h.05v-.05h.05v-.05h.05v-.05h.05v-.1h.05v-.05h.05v-.05h.05v-.05h.05v-.05h.05v-.05h.05v-.05h.05v-.1h.05v-.05h.05v-.05h.05v-.05h.05v-.05h.05v-.05h.05v-.05h.05v-.05h.05v-.05h.05v-.1h.05v-.05h.05v-.05h.05v-.05h.05v-.05h.05v-.05h.05v-.05h.05v-.05h.05v-.05h.05v-.05H92v-.05h.05v-.05h.05v-.05h.05v-.05h.05v-.05h.05v-.05h.05v-.05h.05v-.05h.05v-.05h.05v-.05h.05v-.05h.05v-.05h.05v-.05h.05v-.05h.05v-.05h.05v-.05h.05v-.05h.05v-.05h.1v-.05h.05v-.05h.05v-.05h.05v-.05h.05v-.05h.05v-.05h.05v-.05h.05v-.05h.05v-.05h.05v-.05h.05v-.05h.05v-.05h.05v-.05h.1v-.05h.05v-.05h.05v-.05h.05v-.05h.05v-.05h.05v-.05h.1v-.05h.05v-.05h.05v-.05h.05v-.05h.05v-.05h.05v-.05h.1v-.05h.05v-.05h.05v-.05h.05v-.05h.05v-.05h.1v-.05h.05v-.05h.05v-.05h.05v-.05h.05v-.05h.1v-.05h.05v-.05h.05v-.05h.1v-.05h.05v-.05h.05v-.05h.05v-.05h.1v-.05h.05v-.05h.05v-.05h.1v-.05h.05v-.05h.05v-.05h.1v-.05h.05V-303h.05v-.05h.05v-.05h.1v-.05h.05v-.05h.1v-.05h.05v-.05h.05v-.05h.1v-.05h.05v-.05h.1v-.05h.05v-.05h.1v-.05h.05v-.05h.1v-.05h.05v-.05h.05v-.05h.1v-.05h.05v-.05h.1v-.05h.05V-304h.1v-.05h.05v-.05h.1v-.05h.05v-.05h.1v-.05h.1v-.05h.05v-.05h.1v-.05h.05v-.05h.1v-.05h.1v-.05h.05v-.05h.1v-.05h.05v-.05h.1v-.05h.1v-.05h.05v-.05h.1v-.05h.05v-.05h.1v-.05h.1v-.05h.1v-.05h.1v-.05h.05v-.05h.1v-.05h.1v-.05h.1v-.05h.05v-.05h.1v-.05h.1v-.05h.1v-.05h.1v-.05h.05v-.05h.1v-.05h.1v-.05h.1v-.05h.1v-.05h.1v-.05h.1v-.05h.1v-.05h.1v-.05h.1v-.05h.1v-.05h.1v-.05h.1v-.05h.1v-.05h.1v-.05h.1v-.05h.149v-.05h.1v-.05h.1v-.05h.1v-.05h.149v-.05h.1v-.05h.1v-.05h.1v-.05h.149v-.05h.1v-.05h.1v-.05h.1v-.05h.149v-.05h.1v-.05h.149v-.05h.149v-.05h.1v-.05h.149v-.05h.1v-.05h.149v-.05h.149v-.05h.1v-.05h.149v-.05h.1v-.05h.149v-.05h.149v-.05h.2v-.05h.149v-.05h.149v-.05h.149v-.05h.149v-.05h.149v-.05h.149v-.05h.149v-.05h.149v-.05h.2v-.05h.149v-.05h.2v-.05h.2v-.05h.149v-.05h.2v-.05h.149v-.05h.249v-.05h.2v-.05h.2v-.05h.249v-.05h.2v-.05h.249v-.05h.2v-.05h.249v-.05h.3v-.05h.3v-.05h.249v-.05h.3v-.05h.3v-.05h.4v-.05h.4v-.05h.4v-.05h.4v-.05h.646v-.05h.646v-.05h1.492v-.05h1.144v.05h1.243v.05h.447v.05h.4v.05h.348v.05h.3v.05H119v.05h.249v.05h.2v.05h.2v.05h.2v.05h.149v.05h.149v.05h.149v.05h.149v.05h.1v.05h.1v.05h.1v.05h.149v.05h.1v.05h.05v.05h.1v.05h.05v.05h.1v.05h.05v.05h.05v.05h.05v.05h.05v.05h.05v.05h.05v.05h.05v.05h.05v.05h.05v.1h.05v.1h.05v.1h.05v.4h-.05v.249h-.05v.149h-.05v.149h-.05v.149h-.05v.05h-.05v.1h-.05v.1h-.05v.1h-.05v.05h-.05v.05h-.05v.1h-.05v.05h-.05v.05h-.05v.1h-.05v.05h-.05v.05h-.05v.05h-.05v.05h-.05v.05h-.05v.05h-.05v.05h-.05v.05h-.1v.05h-.05v.05h-.05v.05h-.05v.05h-.05v.05h-.05v.05h-.05v.05h-.05v.05h-.1v.05h-.05v.05h-.05v.05h-.05v.05h-.05v.05h-.05v.05h-.05v.05h-.05v.05h-.05v.05h-.05v.05h-.05v.05h-.05v.05h-.05v.05h-.05v.05h-.1v.05h-.05v.05h-.05v.05h-.05v.05h-.05v.05h-.05v.05h-.05v.05h-.05v.05h-.05v.05h-.05v.05H119v.05h-.05v.05h-.05v.05h-.05v.05h-.05v.05h-.05v.05h-.05v.05h-.05v.05h-.05v.05h-.05v.05h-.05v.05h-.05v.05h-.05v.05h-.05v.05h-.05v.05h-.05v.05h-.05v.05h-.05v.05h-.05v.05h-.05v.05H118v.05h-.05v.05h-.05v.05h-.05v.05h-.05v.05h-.05v.05h-.05v.05h-.05v.05h-.05v.05h-.05v.1h-.05v.05h-.05v.05h-.05v.05h-.05v.05h-.05v.05h-.05v.05h-.05v.05h-.05v.05h-.05v.05h-.05v.05h-.05v.05h-.05v.05h-.05v.05h-.05v.05h-.05v.05h-.05v.1h-.05v.05h-.05v.05h-.05v.05h-.05v.05h-.05v.05h-.05v.05h-.05v.05h-.05v.05h-.05v.05h-.05v.1h-.05v.05h-.05v.05h-.05v.05h-.05v.05h-.05v.05h-.05v.05h-.05v.05h-.05v.05h-.05v.1h-.05v.05h-.05v.05h-.05v.05h-.05v.05h-.05v.05h-.05v.05h-.05v.1h-.05v.05h-.05v.05h-.05v.05h-.05v.05h-.05v.05h-.05v.05h-.05v.1h-.05v.05h-.05v.05h-.05v.05h-.05v.05h-.05v.1h-.05v.05h-.05v.05h-.05v.05h-.05v.05h-.05v.1h-.05v.05h-.05v.05h-.05v.05h-.05v.05h-.05v.1h-.05v.05h-.05v.05h-.05v.05h-.05v.05h-.05v.1h-.05v.05h-.05v.05h-.05v.05h-.05v.1h-.05v.05h-.05v.05h-.05v.05h-.05v.1h-.05v.05h-.05v.05h-.05v.05h-.05v.1h-.05v.05h-.05v.05h-.05v.05h-.05v.1h-.05v.05h-.05v.05h-.05v.1h-.05v.05h-.05v.05h-.05v.1h-.05v.05h-.05v.05h-.05v.1h-.05v.05h-.05v.05h-.05v.1h-.05v.05h-.05v.05h-.05v.05h-.05v.1h-.05v.05h-.05v.1h-.05v.05h-.05v.05h-.05v.1h-.05v.05h-.05v.1h-.05v.05h-.05v.05h-.05v.1h-.05v.05h-.05v.1h-.05v.05h-.05v.05h-.05v.1h-.05v.05h-.05v.1h-.05v.05h-.05v.1h-.05v.05h-.05v.1h-.05v.05h-.05v.05h-.05v.1h-.05v.05h-.05v.1h-.05v.05h-.05v.1h-.05v.05h-.05v.1h-.05v.05h-.05v.1h-.05v.05h-.05v.1h-.05v.1h-.05v.05h-.05v.1h-.05v.05h-.05v.1h-.05v.1h-.05v.05h-.05v.1h-.05v.05h-.05v.1h-.05v.1h-.05v.05h-.05v.1h-.05v.05h-.05v.1h-.05v.1H110v.1h-.05v.05h-.05v.1h-.05v.1h-.05v.05h-.05v.1h-.05v.1h-.05v.1h-.05v.05h-.05v.1h-.05v.1h-.05v.1h-.05v.1h-.05v.05h-.05v.1h-.05v.1h-.05v.1h-.05v.1h-.05v.1h-.05v.1H109v.1h-.05v.1h-.05v.05h-.05v.1h-.05v.1h-.05v.1h-.05v.1h-.05v.1h-.05v.1h-.05v.1h-.05v.1h-.05v.1h-.05v.1h-.05v.1h-.05v.1h-.05v.1h-.05v.1h-.05v.1h-.05v.1h-.05v.1h-.05v.1h-.05v.1h-.05v.1h-.05v.149h-.05v.1h-.05v.1h-.05v.1h-.05v.1h-.05v.1h-.05v.1h-.05v.1h-.05v.149h-.05v.1h-.05v.1h-.05v.1h-.05v.1h-.05v.1h-.05v.1h-.05v.1h-.05v.149h-.05v.1h-.05v.1h-.05v.1h-.05v.1h-.05v.149h-.05v.1h-.05v.1h-.05v.149h-.05v.1h-.05v.149h-.05v.1h-.05v.1h-.05v.149h-.05v.1h-.05v.149h-.05v.1h-.05v.1h-.05v.149h-.05v.1h-.05v.1h-.05v.149h-.05v.1h-.05v.149h-.05v.1h-.05v.1h-.05v.149h-.05v.1h-.05v.149h-.05v.1h-.05v.149h-.05v.149h-.05v.149h-.05v.1h-.05v.149h-.05v.149h-.05v.1h-.05v.149h-.05v.149h-.05v.1h-.05v.149h-.05v.149h-.05v.149h-.05v.1h-.05v.149h-.05v.149h-.05v.1h-.05v.149h-.05v.149h-.05v.149h-.05v.1h-.05v.149h-.05v.2h-.05v.149h-.05v.149h-.05v.149h-.05v.149h-.05v.149h-.05v.149h-.05v.149h-.05v.2h-.05v.149h-.05v.149h-.05v.149h-.05v.149h-.05v.149h-.05v.149h-.05v.149h-.05v.2h-.05v.149h-.05v.149h-.05v.149h-.05v.2h-.05v.2h-.05v.149h-.05v.2h-.05v.2h-.05v.149h-.05v.2h-.05v.2h-.05v.149h-.05v.2h-.05v.2h-.05v.149h-.05v.2h-.05v.2h-.05v.2h-.05v.149h-.05v.2h-.05v.2h-.05v.249h-.05v.2h-.05v.249h-.05v.2h-.05v.249h-.05v.2h-.05v.2h-.05v.249h-.05v.2h-.05v.249h-.05v.2h-.05v.249h-.05v.2h-.05v.249h-.05v.249h-.05v.249h-.05v.3h-.05v.249h-.05v.3h-.05v.249h-.05v.3h-.05v.249h-.05v.3h-.05v.249h-.05v.3h-.05v.348h-.05v.348h-.05v.3h-.05v.348h-.05v.4h-.05v.348h-.05v.4H101v.4h-.05v.4h-.05v.447h-.05v.447h-.05v.5h-.05v.5h-.05v.547h-.05v.6h-.05v.646h-.05v.7h-.05v.895h-.05v1.144h-.05v4.027h.05v.994h.05v.7h.05v1.193h-.05v.2h-.05v.149h-.05v.1h-.05v.1h-.05v.1h-.05v.05h-.05v.05h-.05v.05h-.05v.05h-.05v.05h-.149v.05h-.149v.05H98.414v.05h-.149v.05h-.1v.05h-.1v.05h-.05v.05h-.1v.05h-.05v.05h-.05v.05h-.05v.05h-.05v.1h-.05v.05h-.05v.1h-.05v.149h-.05v.547h.05v.2h.05v.1h.05v.149h.05v.1h.05v.1h.05v.1h.05v.1h.05v.1h.05v.149h.05v.1h.05v.2h.05v.447h-.05v.2h-.05v.05h-.05v.1h-.05v.05h-.05v.05h-.05v.05h-.05v.05h-.05v.05h-.1v.05h-.1v.05H97.37v.05" transform="translate(-61.401 359.274)" fill="url(#radial-gradient)"/>
            </g>
          </g>
        </g>
        <path id="path108" d="M237.192-152.048h.407c.462,0,.855-.167.855-.6,0-.308-.224-.616-.855-.616a2.727,2.727,0,0,0-.407.029Zm0,1.948h-.561v-3.517a6.34,6.34,0,0,1,.995-.084,1.849,1.849,0,0,1,1.094.266.845.845,0,0,1,.322.729.876.876,0,0,1-.687.855v.029c.308.056.52.336.59.854a2.953,2.953,0,0,0,.223.869h-.587a2.606,2.606,0,0,1-.239-.9.657.657,0,0,0-.757-.615h-.392Zm.588-4.5a2.6,2.6,0,0,0-2.522,2.662,2.6,2.6,0,0,0,2.536,2.676,2.571,2.571,0,0,0,2.522-2.662,2.592,2.592,0,0,0-2.522-2.676Zm.014-.491a3.111,3.111,0,0,1,3.1,3.153,3.108,3.108,0,0,1-3.111,3.168,3.128,3.128,0,0,1-3.125-3.168,3.133,3.133,0,0,1,3.125-3.153h.014" transform="translate(-5.741 -48)" fill="#100f0d"/>
      </g>
    </g>
  </g>
</svg>
