<svg xmlns="http://www.w3.org/2000/svg" width="48" height="48" viewBox="0 0 48 48">
    <defs>
        <clipPath id="s6s88v9zaa">
            <path data-name="Rectangle 7701" d="M0 0h48v48H0z"/>
        </clipPath>
    </defs>
    <g data-name="19_Construction" style="clip-path:url(#s6s88v9zaa)">
        <path data-name="Path 115304" d="M30.824 226.919v1.269a1.269 1.269 0 0 0 .92 1.22 74.715 74.715 0 0 0 18.109 2.585 74.717 74.717 0 0 0 18.109-2.585 1.269 1.269 0 0 0 .921-1.22v-1.269a1.269 1.269 0 0 0-1.269-1.269H32.092a1.269 1.269 0 0 0-1.269 1.269z" transform="translate(-25.853 -204.136)" style="fill:#555"/>
        <path data-name="Path 115305" d="M92.541 310.516a1.269 1.269 0 0 0 1.269-1.269v-3.363c-1.8.425-4.513.994-7.673 1.434a8.838 8.838 0 0 1-17.638 0 85.005 85.005 0 0 1-7.673-1.434v3.363a1.269 1.269 0 0 0 1.269 1.269h1.8a13.712 13.712 0 0 0 1.249 2.988l-1.28 1.28a1.269 1.269 0 0 0 0 1.794l3.588 3.588a1.269 1.269 0 0 0 1.794 0l1.28-1.28a13.713 13.713 0 0 0 2.988 1.249v1.883a1.269 1.269 0 0 0 1.269 1.269h5.074a1.269 1.269 0 0 0 1.269-1.269v-1.883a13.709 13.709 0 0 0 2.988-1.249l1.28 1.28a1.269 1.269 0 0 0 1.794 0l3.588-3.588a1.269 1.269 0 0 0 0-1.794l-1.28-1.28a13.716 13.716 0 0 0 1.249-2.988z" transform="translate(-53.317 -277.585)" style="fill:#555"/>
        <path data-name="Path 115306" d="M77.95 13.9a1.269 1.269 0 0 1-1.678-.634L72.312 4.4a16.634 16.634 0 0 0-8.594 12.149h32.495A16.634 16.634 0 0 0 87.619 4.4l-3.96 8.866a1.269 1.269 0 1 1-2.312-1.043l4.383-9.81a1.273 1.273 0 0 0-.787-1.752 19.045 19.045 0 0 0-9.956 0 1.273 1.273 0 0 0-.787 1.752l4.384 9.807a1.269 1.269 0 0 1-.634 1.68z" transform="translate(-55.965 2.43)" style="fill:#555"/>
    </g>
</svg>
