<svg xmlns="http://www.w3.org/2000/svg" width="48" height="48" viewBox="0 0 48 48">
    <defs>
        <clipPath id="nft36h5b3a">
            <path data-name="Rectangle 7700" d="M0 0h48v48H0z"/>
        </clipPath>
    </defs>
    <g data-name="12_travel" style="clip-path:url(#nft36h5b3a)">
        <g data-name="Group 20232" transform="translate(4.8 6.259)">
            <path data-name="Path 114717" d="M0 0h4.518v2.259H0z" transform="rotate(-14.53 69.771 -68.181)" style="fill:#555"/>
            <path data-name="Path 114718" d="M4.406 120A4.411 4.411 0 0 0 0 124.406V142.7a4.411 4.411 0 0 0 4.406 4.406h2.37V120z" transform="translate(0 -113.224)" style="fill:#555"/>
            <path data-name="Path 114719" d="M140.33 36.776h-4.365l-1.059-4.764A2.554 2.554 0 0 0 132.4 30h-4.466a2.554 2.554 0 0 0-2.508 2.012l-1.059 4.764H120v27.107h20.33zm-12.7-4.274a.309.309 0 0 1 .3-.243h4.47a.309.309 0 0 1 .3.243l.95 4.274h-6.97z" transform="translate(-110.965 -30)" style="fill:#555"/>
            <circle data-name="Ellipse 4416" cx="1.506" cy="1.506" r="1.506" transform="translate(13.553 24.094)" style="fill:#555"/>
            <path data-name="Path 114720" d="M422.37 120H420v27.106h2.37a4.411 4.411 0 0 0 4.406-4.406v-18.294A4.411 4.411 0 0 0 422.37 120z" transform="translate(-388.376 -113.224)" style="fill:#555"/>
        </g>
    </g>
</svg>
