<svg xmlns="http://www.w3.org/2000/svg" width="48" height="48" viewBox="0 0 48 48">
    <defs>
        <clipPath id="bk7t61r18a">
            <path data-name="Rectangle 7696" d="M0 0h48v48H0z"/>
        </clipPath>
    </defs>
    <g data-name="01_healthcare" style="clip-path:url(#bk7t61r18a)">
        <g data-name="Group 20216">
            <g data-name="Group 20215">
                <path data-name="Path 114655" d="M32.373 33c-5.223 0-8.573 3.617-10.333 6.875C20.284 36.617 16.932 33 11.71 33 5.083 33 0 38.376 0 45.507a13.421 13.421 0 0 0 1.058 5.229h9.853l2.226-4.452a1.345 1.345 0 0 1 2.31 0l4.011 8.021 1.428-2.855a1.345 1.345 0 0 1 2.31 0l1.428 2.855 4.011-8.021a1.345 1.345 0 0 1 2.31 0l2.226 4.452h9.853a13.421 13.421 0 0 0 1.058-5.229C44.082 38.376 39 33 32.373 33z" transform="translate(1.959 -28.2)" style="fill:#555"/>
            </g>
        </g>
        <g data-name="Group 20218">
            <g data-name="Group 20217">
                <path data-name="Path 114656" d="M58 231.114a1.292 1.292 0 0 1-1.155-.714l-1.428-2.855-4.017 8.022a1.292 1.292 0 0 1-2.31 0l-1.428-2.855-1.428 2.855a1.345 1.345 0 0 1-2.31 0l-4.011-8.022-1.425 2.855a1.292 1.292 0 0 1-1.155.714h-9.3c2.658 4.182 7.445 8.155 13.434 13.209 1.68 1.419 3.47 2.928 5.348 4.557a1.293 1.293 0 0 0 1.692 0 514.41 514.41 0 0 1 5.348-4.557c5.988-5.054 10.775-9.026 13.434-13.209z" transform="translate(-23.664 -205.995)" style="fill:#555"/>
            </g>
        </g>
    </g>
</svg>
