<svg xmlns="http://www.w3.org/2000/svg" width="48" height="48" viewBox="0 0 48 48">
    <defs>
        <clipPath id="z7xbiyq5va">
            <path data-name="Rectangle 7702" d="M0 0h48v48H0z"/>
        </clipPath>
    </defs>
    <g data-name="07_logistics" style="clip-path:url(#z7xbiyq5va)">
        <path data-name="Path 114734" d="M.459 15.826 6.4 18.28l-1.26.587a.753.753 0 0 0-.354.968l1.714 3.68a.749.749 0 0 0 .423.39.733.733 0 0 0 .575 0l13.024-6.11.164-1.733.228-2.32a.556.556 0 0 1 .608-.5.55.55 0 0 1 .456.326.514.514 0 0 1 .062.285l-1.51 16a1.5 1.5 0 0 0 1.17.259c.575-.152 1.086-.825 1.51-1.933L29.25 10.2l.174-.511a.566.566 0 1 1 1.087.32.421.421 0 0 0-.015.04l-.596 1.716-.665 1.978 10.2-4.779C42.386 7.588 43.9 4.8 42.883 2.629a3.818 3.818 0 0 0-2.95-2.062 7.016 7.016 0 0 0-4.125.635l-11.55 5.39-12.4-4.84c-1.562-.587-2.8-.573-3.668.055a3.083 3.083 0 0 0-1.124 2.44.757.757 0 0 0 .323.594l8.353 5.721-4.788 2.266-8.027-2.009a.76.76 0 0 0-.837.36L.1 14.761a.753.753 0 0 0 .288 1.027l.071.038zm0 0" transform="translate(2.631 10.711)" style="fill:#555"/>
    </g>
</svg>
