<svg xmlns="http://www.w3.org/2000/svg" width="48" height="48" viewBox="0 0 48 48">
    <defs>
        <clipPath id="zki4y7psqa">
            <path data-name="Rectangle 7698" d="M0 0h48v48H0z"/>
        </clipPath>
    </defs>
    <g data-name="17_sports" style="clip-path:url(#zki4y7psqa)">
        <g data-name="Group 68736">
            <path data-name="Path 115292" d="M167.342 3.422c.479-.635.4-1.982.334-3.17 0-.051-.005-.1-.008-.152-.668-.065-1.353-.1-2.041-.1a21.142 21.142 0 0 0-7.491 1.368 49.349 49.349 0 0 1 7.093 4.2 15.245 15.245 0 0 0 2.113-2.148z" transform="translate(-141.616 2.821)" style="fill:#555"/>
            <path data-name="Path 115293" d="M359.945 178.732a14.039 14.039 0 0 0-2.678.529c3.6 6.284 5 14.223 5.349 19.975a21.1 21.1 0 0 0 6.047-13.987c-2.463-3.017-5.715-6.857-8.718-6.517z" transform="translate(-323.484 -160.405)" style="fill:#555"/>
            <path data-name="Path 115294" d="M31.674 36.818a18.744 18.744 0 0 0 6.8-3.142 45.039 45.039 0 0 0-7.908-4.4A21.265 21.265 0 0 0 21.274 39.3a41.594 41.594 0 0 1 7.81-1.982c.855-.159 1.738-.323 2.59-.5z" transform="translate(-16.619 -23.914)" style="fill:#555"/>
            <path data-name="Path 115295" d="M310.171 85.1q.339.34.675.693a22.517 22.517 0 0 1 2.261 2.815 14.876 14.876 0 0 1 3.587-.8c3.321-.375 6.274 2.254 8.808 5.149a21.086 21.086 0 0 0-5.232-11.493 30.1 30.1 0 0 0-4.979 1.015 24.437 24.437 0 0 0-5.12 2.621z" transform="translate(-280.471 -71.577)" style="fill:#555"/>
            <path data-name="Path 115296" d="M82.633 146.916c.869-2.942 1.876-5.063 3.826-6.442a19.806 19.806 0 0 0-1.9-2.344 41.548 41.548 0 0 0-.955-.966c-7.826 5.326-18.543 15.106-19.519 23.577a21.146 21.146 0 0 0 12.719 6.69c1.825-3.632 3.543-11.015 4.564-15.406.493-2.108.916-3.925 1.265-5.109z" transform="translate(-55.721 -122.459)" style="fill:#555"/>
            <path data-name="Path 115297" d="M15.34 103.855a75.567 75.567 0 0 1 8.244-6.577 45.705 45.705 0 0 0-2.625-2.15 21.264 21.264 0 0 1-8.175 3.913c-.874.182-1.768.348-2.633.508-3.332.618-6.53 1.217-9.222 2.718a21.148 21.148 0 0 0 2.99 17.894c1.553-6.135 6.869-12.115 11.421-16.306z" transform="translate(2.7 -84.064)" style="fill:#555"/>
            <path data-name="Path 115298" d="M262.726 13.55a28.006 28.006 0 0 1 6.1-3.138 31.321 31.321 0 0 1 3.685-.854 21.114 21.114 0 0 0-9.707-4.777c.081 1.479.117 3.1-.773 4.283a16.49 16.49 0 0 1-2.07 2.162 47.044 47.044 0 0 1 2.765 2.324z" transform="translate(-234.616 -1.546)" style="fill:#555"/>
            <path data-name="Path 115299" d="M242.31 201.242c-.331 1.12-.75 2.912-1.231 4.99-1.426 6.133-2.79 11.617-4.383 15.116.226.007.452.017.68.017a21.1 21.1 0 0 0 13.081-4.523c-.142-6.019-1.586-14.532-5.222-20.852-1.41 1.047-2.17 2.696-2.925 5.252z" transform="translate(-213.366 -176.186)" style="fill:#555"/>
        </g>
    </g>
</svg>
