<svg xmlns="http://www.w3.org/2000/svg" width="48" height="48" viewBox="0 0 48 48">
    <defs>
        <clipPath id="kpxpqc51ma">
            <path data-name="Rectangle 7704" d="M0 0h48v48H0z"/>
        </clipPath>
    </defs>
    <g data-name="16_foods" style="clip-path:url(#kpxpqc51ma)">
        <g data-name="Group 68737">
            <path data-name="Path 115301" d="M48.059 29.812a18.223 18.223 0 0 0-7.849 34.677l.571-11.029s-1.073-.352-1.309-.467c-2.277-1-3.932-3.957-3.932-7.79 0-4.183 3.243-7.786 6.38-7.816h.012c3.137.03 6.381 3.633 6.381 7.816 0 3.833-1.656 6.785-3.929 7.79-.018.008-1.319.48-1.319.48l.635 12.263a17.876 17.876 0 0 0 10.156-.41l.568-10.926a5.859 5.859 0 0 1-3.554-2.464c-.986-1.477.759-14.547.759-14.547h1.135v12.262h1.126V37.387h1.232v12.267h1.122V37.387h1.281v12.267h1.126V37.387h.871s1.745 13.07.758 14.547a5.876 5.876 0 0 1-3.514 2.457l-.05.018.491 9.4a18.226 18.226 0 0 0-9.145-34z" transform="translate(-24.058 -24.049)" style="fill:#555"/>
            <path data-name="Path 115302" d="M92.244 142.6a5.239 5.239 0 0 1 .157-.523.238.238 0 0 0-.133-.266.218.218 0 0 0-.287.062l-.305.492a5.284 5.284 0 0 0-.514 1.16 9.588 9.588 0 0 0-.352 1.683 8.028 8.028 0 0 0-.026.975 4.616 4.616 0 0 0 .187 1.036A6.717 6.717 0 0 0 92.6 150.2a5.61 5.61 0 0 0 .872.706l.082.058c.05.033.1.064.146.09a1.67 1.67 0 0 0 .351.145.211.211 0 0 0 .24-.1.214.214 0 0 0-.071-.253 2.278 2.278 0 0 1-.259-.284 5.149 5.149 0 0 1-.334-.458l-.292-.418a14.678 14.678 0 0 1-1.151-2.832 3.767 3.767 0 0 1-.161-.78 7.961 7.961 0 0 1-.045-.833 11.012 11.012 0 0 1 .068-1.547 6.04 6.04 0 0 1 .2-1.088z" transform="translate(-78.092 -123.302)" style="fill:#555"/>
            <path data-name="Path 115303" d="M21.623 0a21.623 21.623 0 1 0 21.623 21.623A21.623 21.623 0 0 0 21.623 0zm0 41.633a20.011 20.011 0 1 1 20.013-20.011 20.011 20.011 0 0 1-20.013 20.011z" style="fill:#555" transform="translate(2.377 2.377)"/>
        </g>
    </g>
</svg>
