<svg xmlns="http://www.w3.org/2000/svg" width="48" height="48" viewBox="0 0 48 48">
    <defs>
        <clipPath id="1vloh8rzya">
            <path data-name="Rectangle 7711" d="M0 0h48v48H0z"/>
        </clipPath>
    </defs>
    <g data-name="12_travel" style="clip-path:url(#1vloh8rzya)">
        <path data-name="Path 115454" d="M40.066 14.206C34.254 4.658 25.5 11.3 25.5 11.3a4.538 4.538 0 0 1-2.326.784h-2.345a4.507 4.507 0 0 1-2.325-.781s-8.756-6.644-14.568 2.9S.466 34.149.466 34.149c.41 2.545 1.762 4.244 4.314 4.03s8.067-6.854 8.067-6.854a3.148 3.148 0 0 1 2.122-.994h14.058a3.142 3.142 0 0 1 2.121.994s5.524 6.642 8.072 6.854 3.9-1.487 4.312-4.03c-.001-.003 2.345-10.396-3.466-19.943zm-23.349 7.772H13.7v2.905a2.81 2.81 0 0 1-1.626.475 1.964 1.964 0 0 1-1.433-.532v-2.847H7.8a2.289 2.289 0 0 1-.45-1.323 3.036 3.036 0 0 1 .393-1.735h3.015v-3.015a3.277 3.277 0 0 1 1.512-.307 3.987 3.987 0 0 1 1.547.363L13.8 18.92h2.847a2.835 2.835 0 0 1 .538 1.41 3.561 3.561 0 0 1-.468 1.648zm13.827 3.312a2.386 2.386 0 1 1 2.387-2.39 2.383 2.383 0 0 1-2.387 2.39zm0-6.565a2.386 2.386 0 1 1 2.387-2.385 2.382 2.382 0 0 1-2.387 2.385zm5.942 3.524a2.386 2.386 0 1 1 2.387-2.386 2.382 2.382 0 0 1-2.387 2.386z" transform="translate(2 .803)" style="fill:#555"/>
    </g>
</svg>
