<svg xmlns="http://www.w3.org/2000/svg" width="48" height="48" viewBox="0 0 48 48">
    <defs>
        <clipPath id="wwymqdacda">
            <path data-name="Rectangle 7697" d="M0 0h48v48H0z"/>
        </clipPath>
    </defs>
    <g data-name="08_retail" style="clip-path:url(#wwymqdacda)">
        <path data-name="Path 114738" d="M36.88 18.548a52.2 52.2 0 0 0 2.4-13.959A5.311 5.311 0 0 0 37.891.965a3.087 3.087 0 0 0-3.814-.559c-2.215 1.141-3.8 4.505-5.077 7.208l-.217.458A4.3 4.3 0 0 0 26.437 5.1a3.538 3.538 0 0 0-2.75-2.735 2.3 2.3 0 0 0-.056-.229A2.559 2.559 0 0 0 21.51.323a2.491 2.491 0 0 0-1.577.324A2.7 2.7 0 0 0 18.622.3a2.733 2.733 0 0 0-2.656 2.1 3.342 3.342 0 0 0-2.455 3.183 3.714 3.714 0 0 0-2.529 4.938 2.918 2.918 0 0 0-.407 3A3.941 3.941 0 0 0 7.619 12.1a.742.742 0 1 0 .022 1.483h.072a2.576 2.576 0 0 1 1.811.994 5.04 5.04 0 0 0-3.256 2.137 3.772 3.772 0 0 0-.183 2.722 1.276 1.276 0 0 0-.183.74L7.166 38.12a4.225 4.225 0 0 0 4.221 4.011h20.821a4.221 4.221 0 0 0 4.221-4l1.3-18.577a.979.979 0 0 0-.266-.723.958.958 0 0 0-.578-.286zm-7.486-8.353c.294-.548.615-1.229.953-1.948 1.115-2.368 2.643-5.61 4.41-6.522A1.6 1.6 0 0 1 36.829 2a3.854 3.854 0 0 1 .968 2.55 50.8 50.8 0 0 1-2.382 13.718 31.66 31.66 0 0 1-.307.9l-1.264.561a.69.69 0 0 0-.08.044 2.318 2.318 0 0 1-2.367 0l-.527-.317a3.838 3.838 0 0 0-1.971-.546 4.187 4.187 0 0 0-2.019.547l-.527.317a2.318 2.318 0 0 1-.947.294c.016-.056.035-.111.051-.166.205-.7.427-1.391.658-2.075q.127-.376.263-.746.291-.816.605-1.616c.088-.228.176-.458.269-.684a48.688 48.688 0 0 1 2.141-4.584zm-8.569 8.775a4.012 4.012 0 0 0-.243.048 3.813 3.813 0 0 0-.716.229l-.142-.651c.214.018.427.036.626.036a5.736 5.736 0 0 0 3.532-1.237 9.087 9.087 0 0 1 1.025-.64c-.068.194-.136.386-.2.581-.047.14-.1.277-.144.417q-.325.99-.619 2l-.493-.3a3.838 3.838 0 0 0-1.969-.544 3.765 3.765 0 0 0-.533.044.813.813 0 0 0-.124.017zm-1.18-10.024a.307.307 0 1 1-.132-.6l4.161-.9a.307.307 0 0 1 .3.241.3.3 0 0 1-.044.231.307.307 0 0 1-.191.134zm.292 3.009c.088-.111.171-.219.253-.328a1.829 1.829 0 0 0 .153-.24 1.589 1.589 0 0 0 .141-1.106l3.1-.677a1.7 1.7 0 0 0 .079.277 1.663 1.663 0 0 0 .731.821 34 34 0 0 0 .351.189l.3.162.145.079c.088.05.176.1.259.159s.146.092.219.142.161.12.24.184.135.118.2.181a2.965 2.965 0 0 1 .2.216 2.551 2.551 0 0 1 .314.448c-.314.694-.611 1.4-.9 2.117-.044.111-.092.219-.136.329a7.57 7.57 0 0 0-2.569 1.281 4.365 4.365 0 0 1-3.632.882l-.45-2.063a3.384 3.384 0 0 1 1-3.054zM15.548 30.4a.742.742 0 1 1 0 1.483h-5.194a.742.742 0 1 1 0-1.483zm-5.195 2.965h6.676a.742.742 0 1 1 0 1.483h-6.675a.742.742 0 1 1 0-1.483zm1.993-22.115.486-.4-.315-.543a2.23 2.23 0 0 1 1.841-3.349l.9-.038-.21-.878A1.828 1.828 0 0 1 15 5.613a1.846 1.846 0 0 1 1.7-1.833l.685-.052v-.736a1.246 1.246 0 0 1 1.244-1.2 1.224 1.224 0 0 1 .828.325l.52.47.5-.493a1.027 1.027 0 0 1 .866-.294 1.07 1.07 0 0 1 .872.755.966.966 0 0 1 .035.4l-.088.828h.834a2.042 2.042 0 0 1 2.031 1.9l.033.487.46.162a2.827 2.827 0 0 1 1.9 2.732 2.678 2.678 0 0 1-.483 1.47 7.848 7.848 0 0 0-1.481-.942 18.65 18.65 0 0 1-.343-.184.162.162 0 0 1-.084-.127.423.423 0 0 1 .1-.329 1.592 1.592 0 0 0 .349-1.37l-.088-.409a1.606 1.606 0 0 0-1.89-1.217L23.3 6l-2.177.476-2.127.463a1.58 1.58 0 0 0-1.206 1.883l.044.2v.008l.044.2a1.58 1.58 0 0 0 .917 1.111.449.449 0 0 1 .245.24c.019.055.008.083-.035.154-.074.1-.153.2-.234.3s-.168.215-.254.329l-.079.107a20.58 20.58 0 0 0-.191.267l-.095.143q-.086.132-.167.273c-.03.053-.06.1-.088.159-.056.1-.108.215-.157.327-.021.047-.044.091-.062.14a4.275 4.275 0 0 0-.17.51c-.007.027-.01.056-.016.083a4.093 4.093 0 0 0-.084.475c-.007.065-.009.132-.013.2-.006.088-.017.171-.017.263-.022-.028-.044-.052-.064-.079-.049-.064-.1-.122-.147-.183a8.636 8.636 0 0 0-.331-.386l-.163-.176a5.92 5.92 0 0 0-.351-.33c-.044-.038-.088-.08-.132-.116a4.485 4.485 0 0 0-.474-.339c-.048-.03-.1-.052-.145-.079a3.606 3.606 0 0 0-.347-.176 2.38 2.38 0 0 0-.193-.073 2.993 2.993 0 0 0-.319-.093c-.065-.015-.129-.032-.194-.044a2.887 2.887 0 0 0-.407-.039c-.031 0-.062-.009-.094-.009a3.852 3.852 0 0 0-2.095.706 1.412 1.412 0 0 1-.1-.534 1.438 1.438 0 0 1 .529-1.113zm-4.765 6.159a3.7 3.7 0 0 1 2.4-1.42 4 4 0 0 0 1.658-.952c.207-.2.4-.369.592-.523a6.008 6.008 0 0 1 .487-.36l.018-.011a2.967 2.967 0 0 1 .867-.405l.032-.007a1.679 1.679 0 0 1 .384-.049c.933 0 1.934.931 2.974 2.765a5.629 5.629 0 0 1 .49 3.621 2.255 2.255 0 0 1-.165-.022 2.308 2.308 0 0 1-.756-.275l-.527-.317a3.838 3.838 0 0 0-1.973-.543 4.187 4.187 0 0 0-2.019.547l-.257.154a2.841 2.841 0 0 1-2.909 0l-1-.6a1.28 1.28 0 0 0-.418-.159 2.129 2.129 0 0 1 .122-1.444zm10.93 20.4h-8.157a.742.742 0 1 1 0-1.483h8.159a.742.742 0 1 1 0 1.483z" transform="translate(1.408 2.939)" style="fill:#555"/>
    </g>
</svg>
