<svg xmlns="http://www.w3.org/2000/svg" width="48" height="48" viewBox="0 0 48 48">
    <defs>
        <clipPath id="mtdymgokfa">
            <path data-name="Rectangle 7712" d="M0 0h48v48H0z"/>
        </clipPath>
    </defs>
    <g style="clip-path:url(#mtdymgokfa)">
        <path d="M42.357 1.671A5.7 5.7 0 0 0 32.8 4.338l-.629-.629a1.377 1.377 0 0 0-1.945 0l-3.059 3.056a1.377 1.377 0 0 0 0 1.945l1.066 1.066-1.112 1.112-1.065-1.066a1.375 1.375 0 1 0-1.944 1.944c2.914 2.914 2.78 2.784 2.789 2.789.026.028-4.261-1.965-4.528-2.034a1.377 1.377 0 0 0-1.317 2.3l2.789 2.789c-4.592-2.087-4.424-2.052-4.781-2.075a1.375 1.375 0 0 0-1.217 2.165c.1.145-.064-.034 2.941 2.971-4.488-2.041-4.276-1.95-4.288-1.95a1.376 1.376 0 0 0-1.824 1.848c.132.268.179.283 1.328 1.432L14.9 23.113l-1.07-1.065a1.375 1.375 0 0 0-1.945 0L8.828 25.1a1.375 1.375 0 0 0 0 1.945l.177.177-4.062 5.439a5.7 5.7 0 1 0 6.424 6.424l5.433-4.062a1.493 1.493 0 0 0 1.15.579 1.374 1.374 0 0 0 .972-.4l3.057-3.057a1.375 1.375 0 0 0 0-1.945l-1.066-1.066 1.112-1.112 1.066 1.066a1.375 1.375 0 0 0 1.945-1.945l-2.788-2.788c4.59 2.086 4.39 2.022 4.672 2.063a1.374 1.374 0 0 0 1.245-2.251c-.066-.077.134.126-2.861-2.869 4.725 2.148 4.5 2.118 5 2.074a1.375 1.375 0 0 0 1.07-2.053c-.132-.231-.018-.087-3.009-3.078 4.591 2.087 4.392 2.022 4.672 2.064a1.374 1.374 0 0 0 1.563-1.477c-.052-.61-.336-.794-1.463-1.921l1.116-1.107 1.066 1.066a1.377 1.377 0 0 0 1.945 0l3.055-3.066a1.375 1.375 0 0 0 0-1.945l-.629-.629a5.7 5.7 0 0 0 2.666-9.559zM7.81 40.387a2.948 2.948 0 1 1 0-4.169 2.946 2.946 0 0 1 0 4.169zm32.6-32.6a2.948 2.948 0 1 1 0-4.169 2.951 2.951 0 0 1 .002 4.166z" transform="translate(1.977 1.998)" style="fill:#555" data-name="12_travel"/>
    </g>
</svg>
