<svg xmlns="http://www.w3.org/2000/svg" width="48" height="48" viewBox="0 0 48 48">
    <defs>
        <clipPath id="t0fpolonja">
            <path data-name="Rectangle 7705" d="M0 0h48v48H0z"/>
        </clipPath>
    </defs>
    <g data-name="05_social" style="clip-path:url(#t0fpolonja)">
        <path data-name="Exclusion 4" d="M-10897.265 8499.187v-5.132h-10.98a5.591 5.591 0 0 1-5.594-5.576v-19.93a5.593 5.593 0 0 1 5.595-5.578h19.99a5.592 5.592 0 0 1 5.592 5.578v15.257h-2.191a3.97 3.97 0 0 0-3.972 3.958v6.291h-1.794l-6.643 5.129zm-2.884-16.85h2.635l-.6 3.638a1.076 1.076 0 0 0 .188.813 1.08 1.08 0 0 0 .711.44 1.079 1.079 0 0 0 .177.015 1.09 1.09 0 0 0 1.078-.914l.66-3.993h4.382a1.091 1.091 0 0 0 1.091-1.091 1.09 1.09 0 0 0-1.091-1.092h-4.02l.439-2.664h3.58a1.092 1.092 0 0 0 1.091-1.092 1.093 1.093 0 0 0-1.091-1.094h-3.219l.6-3.636a1.1 1.1 0 0 0-.9-1.256 1.106 1.106 0 0 0-.18-.015 1.089 1.089 0 0 0-1.077.914l-.659 3.992h-2.636l.6-3.636a1.085 1.085 0 0 0-.191-.813 1.089 1.089 0 0 0-.708-.441 1.241 1.241 0 0 0-.181-.015 1.086 1.086 0 0 0-1.074.914l-.662 3.994h-4.38a1.093 1.093 0 0 0-1.093 1.092 1.094 1.094 0 0 0 1.093 1.092h4.02l-.44 2.664h-3.579a1.092 1.092 0 0 0-1.092 1.092 1.092 1.092 0 0 0 1.092 1.092h3.218l-.6 3.638a1.078 1.078 0 0 0 .188.813 1.086 1.086 0 0 0 .71.439 1.017 1.017 0 0 0 .181.015 1.085 1.085 0 0 0 1.074-.914l.66-3.992zm2.993-2.184h-2.635l.44-2.664h2.633l-.44 2.664z" transform="translate(10913.839 -8462.971)" style="fill:#555"/>
        <path data-name="Exclusion 3" d="M-10902.074 8488.669v-3.641h-7.794a3.969 3.969 0 0 1-3.971-3.957v-14.143a3.969 3.969 0 0 1 3.971-3.958h14.186a3.966 3.966 0 0 1 3.97 3.958v14.143a3.966 3.966 0 0 1-3.97 3.957h-1.679zm-3.042-19.809a3.819 3.819 0 0 0-.9.109 4.061 4.061 0 0 0-3.028 4.1 5.356 5.356 0 0 0 1.612 3.837 15.969 15.969 0 0 0 4.149 2.862 1.088 1.088 0 0 0 .511.128 1.089 1.089 0 0 0 .512-.128c3.459-1.834 5.764-3.676 5.764-6.7a4.034 4.034 0 0 0-3.139-4.077 4.05 4.05 0 0 0-.868-.1 3.537 3.537 0 0 0-2.28.8 3.664 3.664 0 0 0-2.329-.836z" transform="translate(10939.713 -8441.13)" style="fill:#555"/>
    </g>
</svg>
