<svg xmlns="http://www.w3.org/2000/svg" width="48" height="48" viewBox="0 0 48 48">
    <defs>
        <clipPath id="v5fbwa6mda">
            <path data-name="Rectangle 7710" d="M0 0h48v48H0z"/>
        </clipPath>
    </defs>
    <g data-name="04_fitness" style="clip-path:url(#v5fbwa6mda)">
        <g data-name="Group 69210">
            <g data-name="Group 69209">
                <path data-name="Path 115452" d="M343.967 190.79h-1.25v-19.922a1.14 1.14 0 0 0-.8-1.1L331 166.11v27.023h12.969a1.172 1.172 0 1 0 0-2.344zm-3.594 0h-2.344v-4.69h-2.344v4.687h-2.344v-5.857a1.16 1.16 0 0 1 1.172-1.172h4.687a1.16 1.16 0 0 1 1.172 1.172v5.859zm-1.172-9.375h-4.687a1.172 1.172 0 0 1 0-2.344h4.686a1.172 1.172 0 0 1 0 2.344zm0-4.687h-4.687a1.172 1.172 0 1 1 0-2.344h4.686a1.172 1.172 0 0 1 0 2.344z" transform="translate(-301.139 -150.133)" style="fill:#555"/>
            </g>
        </g>
        <g data-name="Group 69212">
            <g data-name="Group 69211">
                <path data-name="Path 115453" d="M22.774 7.1 4.024.071a1.185 1.185 0 0 0-1.594 1.1v36.486H1.18a1.172 1.172 0 1 0 0 2.343h22.344V8.2a1.175 1.175 0 0 0-.75-1.1zM11.8 37.657H7.117V31.8a1.16 1.16 0 0 1 1.172-1.172H11.8v7.031zm-1.172-9.375H8.289a1.172 1.172 0 0 1 0-2.344h2.344a1.172 1.172 0 0 1 0 2.344zm0-4.687H8.289a1.172 1.172 0 0 1 0-2.344h2.344a1.172 1.172 0 1 1 0 2.344zm0-4.687H8.289a1.172 1.172 0 0 1 0-2.344h2.344a1.172 1.172 0 0 1 0 2.344zm0-4.687H8.289a1.172 1.172 0 0 1 0-2.344h2.344a1.172 1.172 0 1 1 0 2.344zm8.2 23.437h-4.679v-7.032h3.516a1.16 1.16 0 0 1 1.171 1.174v5.859zm-1.172-9.375H15.32a1.172 1.172 0 0 1 0-2.344h2.344a1.172 1.172 0 0 1 0 2.344zm0-4.687H15.32a1.172 1.172 0 1 1 0-2.344h2.344a1.172 1.172 0 0 1 0 2.344zm0-4.687H15.32a1.172 1.172 0 0 1 0-2.344h2.344a1.172 1.172 0 0 1 0 2.344zm0-4.687H15.32a1.172 1.172 0 1 1 0-2.344h2.344a1.172 1.172 0 1 1 0 2.344z" transform="translate(3.992 3)" style="fill:#555"/>
            </g>
        </g>
    </g>
</svg>
