<svg xmlns="http://www.w3.org/2000/svg" width="48" height="48" viewBox="0 0 48 48">
    <defs>
        <clipPath id="jo73imm9ua">
            <path data-name="Rectangle 7694" d="M0 0h48v48H0z"/>
        </clipPath>
    </defs>
    <g data-name="04_fitness" style="clip-path:url(#jo73imm9ua)">
        <g data-name="Group 20224">
            <g data-name="Group 20221">
                <path data-name="Path 114676" d="M29.121 44.826H27.9l7.919-10.8a.815.815 0 1 0-1.315-.965l-8.627 11.76h-1.795a.815.815 0 1 0 0 1.63h5.039a.815.815 0 1 0 0-1.63z" transform="translate(-1.494 -3.242)" style="fill:#555"/>
            </g>
            <g data-name="Group 20222">
                <path data-name="Path 114677" d="m9.475 13.836-1.275.528a.8.8 0 0 0-.44.44.815.815 0 0 0 0 .62l3.592 8.7 6.119-2.389-4.493-8.545a.813.813 0 0 0-1.036-.373l-.964.4-2.691-6.524 2.422-.516a.815.815 0 1 0-.34-1.595L4.945 5.737l-1.581-3.3a.815.815 0 1 0-1.469.7L3.753 7.02a.816.816 0 0 0 .735.463.829.829 0 0 0 .171-.018l2.009-.428z" transform="translate(2.481 2.464)" style="fill:#555"/>
            </g>
            <g data-name="Group 20223">
                <path data-name="Path 114678" d="M42.232 26.3a9.308 9.308 0 0 0-9.062-7.57V9.249h.7a1.9 1.9 0 0 0 1.867-1.491l.571-2.52a1.89 1.89 0 0 0-.373-1.614 1.869 1.869 0 0 0-1.7-.709l-7.412.824a1.91 1.91 0 0 0-1.7 1.9v1.7a1.924 1.924 0 0 0 1.906 1.911h4.511v9.609a9.363 9.363 0 0 0-1.828.5L11.7 26.385a5.675 5.675 0 0 0 1.977 10.965v2.317h-.838a.815.815 0 0 0 0 1.63h3.3a.815.815 0 1 0 0-1.63h-.833v-2.313l7.183-.012 5.164-7.04A5.28 5.28 0 1 1 31.6 33.2l-3.035 4.136 4.308-.007v2.341h-.833a.815.815 0 0 0 0 1.63h3.3a.815.815 0 0 0 0-1.63h-.836v-2.46a9.274 9.274 0 0 0 7.728-10.91z" transform="translate(1.312 2.27)" style="fill:#555"/>
            </g>
        </g>
    </g>
</svg>
