<svg xmlns="http://www.w3.org/2000/svg" width="48" height="48" viewBox="0 0 48 48">
    <defs>
        <clipPath id="w9fuau7pqa">
            <path data-name="Rectangle 7707" d="M0 0h48v48H0z"/>
        </clipPath>
    </defs>
    <g data-name="04_fitness" style="clip-path:url(#w9fuau7pqa)">
        <path data-name="Path 115448" d="m40.054 15.709-2.928-.585a16.742 16.742 0 0 0-1.275-3.079l1.656-2.484a1.176 1.176 0 0 0-.147-1.484L32.924 3.64a1.177 1.177 0 0 0-1.484-.147l-2.485 1.655a16.748 16.748 0 0 0-3.079-1.275L25.291.946A1.176 1.176 0 0 0 24.137 0h-6.274a1.177 1.177 0 0 0-1.154.946l-.585 2.928a16.754 16.754 0 0 0-3.079 1.275l-2.484-1.657a1.177 1.177 0 0 0-1.484.147L4.639 8.076a1.176 1.176 0 0 0-.147 1.484l1.656 2.484a16.747 16.747 0 0 0-1.275 3.079l-2.928.585A1.177 1.177 0 0 0 1 16.863v6.275a1.176 1.176 0 0 0 .946 1.154l2.928.586a16.744 16.744 0 0 0 1.275 3.079l-1.656 2.482a1.176 1.176 0 0 0 .147 1.484l4.436 4.437a1.176 1.176 0 0 0 1.484.147l2.433-1.622V27.5a10.98 10.98 0 1 1 16.012 0v7.385l2.433 1.622a1.176 1.176 0 0 0 1.484-.147l4.437-4.437a1.176 1.176 0 0 0 .147-1.484l-1.656-2.484a16.749 16.749 0 0 0 1.275-3.079l2.928-.586A1.176 1.176 0 0 0 41 23.137v-6.274a1.176 1.176 0 0 0-.946-1.154z" style="fill:#555" transform="translate(3 3)"/>
        <path data-name="Path 115449" d="M172.178 171.271a.967.967 0 0 0-1.441.7l-.717 4.964h-3.137l-.717-4.964a.967.967 0 0 0-1.441-.7 7.476 7.476 0 0 0-3.725 6.446 7.4 7.4 0 0 0 4.19 6.693l.124.06v12.23a1.176 1.176 0 0 0 1.176 1.176h3.922a1.177 1.177 0 0 0 1.176-1.176v-12.23l.124-.06a7.4 7.4 0 0 0 4.19-6.693 7.476 7.476 0 0 0-3.724-6.446z" transform="translate(-144.451 -154.717)" style="fill:#555"/>
    </g>
</svg>
