<svg xmlns="http://www.w3.org/2000/svg" width="48" height="48" viewBox="0 0 48 48">
    <defs>
        <clipPath id="b8lxb20p9a">
            <path data-name="Rectangle 7699" d="M0 0h48v48H0z"/>
        </clipPath>
    </defs>
    <g style="clip-path:url(#b8lxb20p9a)">
        <path d="M38.645 39.347v-4.388a2.867 2.867 0 0 0 1.405-2.638c0-1.552-.943-2.811-2.108-2.811s-2.108 1.258-2.108 2.811a2.867 2.867 0 0 0 1.405 2.638v4.388h-4.918V18l-4.216-2.108v3.782h2.108v1.4h-2.108v2.811h2.108v1.405h-2.108v2.811h2.108v1.409h-2.108v2.811h2.108v1.405h-2.108v2.811h2.108v1.405h-2.108v1.405H26.7V11.069l-8.432-2.408v2.581h4.919v1.405h-4.919v2.811h4.919v1.405h-4.919v2.811h4.919v1.405h-4.919v2.811h4.919v1.405h-4.919v2.811h4.919v1.404h-4.919v2.811h4.919v1.405h-4.919v2.811h4.919v1.405h-4.919v1.405h-1.405V0H4.216v2.811h6.324v1.405H4.216v2.81h6.324v1.406H4.216v2.811h6.324v1.405H4.216v2.811h6.324v1.405H4.216v2.811h6.324v1.405H4.216v2.811h6.324v1.405H4.216v2.811h6.324v1.403H4.216v2.811h6.324v1.405H4.216v2.811h6.324v1.405H4.216v1.405H0v1.405h42.158v-1.405zm0 0" transform="translate(2.921 3.757)" style="fill:#555" data-name="18_Real_Estate"/>
    </g>
</svg>
