<svg xmlns="http://www.w3.org/2000/svg" width="48" height="48" viewBox="0 0 48 48">
    <defs>
        <clipPath id="mti5pzmp7a">
            <path data-name="Rectangle 7695" d="M0 0h48v48H0z"/>
        </clipPath>
    </defs>
    <g data-name="02_finance" style="clip-path:url(#mti5pzmp7a)">
        <g data-name="Group 20219">
            <path data-name="Path 114657" d="M48.15 49.237h19.288A19.262 19.262 0 0 0 48.15 30zm-1.94 1.683V31.632c-17.962 0-25.922 22.35-12.552 33.882C45.905 76.077 65.5 67.555 65.5 50.92zm4.184-19.39-.818.818v.408l1.174-1.174zm-.818.206.255-.255h-.255zm16.33 15.818-.255.255h.306a14.088 14.088 0 0 0-.306-2.041l-2.041 2.041h.408l1.682-1.684a1.813 1.813 0 0 1 .1.51l-1.174 1.174h.408l.816-.816c0 .2.052.357.052.561zM63 47.809l2.552-2.552-.052-.307-2.91 2.858zm-1.02 0 3.368-3.368-.1-.306-3.674 3.674zm-1.02 0 4.133-4.133-.1-.306-4.393 4.439zm-1.02 0 4.9-4.9-.1-.255-5.16 5.155zm-1.02 0 5.608-5.609-.1-.255-5.867 5.868zm-1.02 0 6.327-6.327-.1-.255-6.581 6.583zm-1.02 0 6.991-6.991-.1-.255-7.245 7.246zm-1.02 0 7.655-7.654-.153-.2-7.862 7.854zm-1.02 0 8.318-8.267-.158-.255-8.521 8.522zm-.969 0 8.88-8.879-.2-.2-9.083 9.083zm-1.02 0 9.441-9.441-.153-.255-9.7 9.7zm-1.02 0 10-10-.153-.2-10.254 10.2zm-1.02 0 10.554-10.563-.2-.2-10.77 10.763zm-1.02 0 11.064-11.073-.2-.2L49.577 47.6v.2zm-.205-.817 10.758-10.767-.2-.2-10.567 10.559zm0-1.02 10.249-10.257-.255-.153-10 10zm0-1.02 9.7-9.7-.255-.153-9.44 9.44zm0-1.019 9.074-9.083-.2-.153-8.879 8.826zm0-1.02 8.514-8.472-.255-.153-8.268 8.212zm0-1.02 7.86-7.86-.2-.153-7.656 7.6zm0-1.02 7.247-7.248-.255-.1-6.992 6.991zm0-1.02 6.584-6.534-.255-.153-6.329 6.328zm0-1.023 5.87-5.868-.255-.1-5.614 5.613zm0-1.02 5.155-5.154-.255-.1-4.9 4.9zm0-1.02 4.432-4.39-.306-.1-4.135 4.133zm0-1.02 3.674-3.623-.306-.1-3.368 3.367zm0-1.02 2.858-2.807-.306-.1-2.562 2.547zm0-.969 2.041-2.041-.357-.051-1.684 1.683z" transform="translate(-23.205 -26.083)" style="fill:#555;fill-rule:evenodd"/>
        </g>
    </g>
</svg>
