<svg xmlns="http://www.w3.org/2000/svg" width="48" height="48" viewBox="0 0 48 48">
  <g id="Group_69456" data-name="Group 69456" transform="translate(1832 -20730)">
    <path id="apple-ios" d="M1.359,2.132a.544.544,0,1,1-1.083,0,.568.568,0,0,1,.549-.594.547.547,0,0,1,.534.594ZM.538,19.968V6.324H1.1V19.968ZM19.7,10.247c0,6.879-3.819,10.006-8,10.006-4.27,0-7.728-3.382-7.728-9.721C3.973,4.023,7.551.526,12,.526,16.361.526,19.7,3.965,19.7,10.247Zm-15.16.142c0,5.216,2.528,9.268,7.188,9.268,4.692,0,7.383-4.177,7.383-9.327,0-4.776-2.156-9.135-7.077-9.135S4.54,5.3,4.54,10.389Zm17.212,8.1A7.915,7.915,0,0,0,25.7,19.719,4.74,4.74,0,0,0,30.7,15.148c0-2.526-1.566-3.844-4.225-4.976-2.38-1.013-4.519-2.113-4.519-4.814,0-2.814,2.217-4.8,5.23-4.8a6.307,6.307,0,0,1,3.411.853l-.226.491a6.468,6.468,0,0,0-3.21-.775A4.3,4.3,0,0,0,22.586,5.3c0,2.447,1.9,3.265,4.341,4.43,2.842,1.393,4.349,2.621,4.349,5.293,0,2.871-2.046,5.2-5.685,5.2A7.578,7.578,0,0,1,21.5,19.058l.254-.568Z" transform="translate(-1823.776 20743.975)" fill="#222" stroke="#222" stroke-width="1.5"/>
    <rect id="Rectangle_7965" data-name="Rectangle 7965" width="48" height="48" transform="translate(-1832 20730)" fill="none"/>
  </g>
</svg>
