<svg xmlns="http://www.w3.org/2000/svg" width="46.102" height="48" viewBox="0 0 46.102 48">
  <g id="Group_69463" data-name="Group 69463" transform="translate(1754 -20718.012)">
    <rect id="Rectangle_7964" data-name="Rectangle 7964" width="46.102" height="46.023" transform="translate(-1754 20719)" fill="none"/>
    <g id="wireless-2" transform="translate(-1754 20718.012)">
      <circle id="Ellipse_4490" data-name="Ellipse 4490" cx="12.112" cy="12.112" r="12.112" transform="translate(10.994 13.711)" fill="#e3f2fd"/>
      <circle id="Ellipse_4491" data-name="Ellipse 4491" cx="4.038" cy="4.038" r="4.038" transform="translate(19.067 0.786)" fill="#bbdefb"/>
      <circle id="Ellipse_4493" data-name="Ellipse 4493" cx="4.038" cy="4.038" r="4.038" transform="translate(37.239 32.28)" fill="#bbdefb"/>
      <g id="Group_69366" data-name="Group 69366" transform="translate(0 0)">
        <path id="Path_126801" data-name="Path 126801" d="M42.5,33.3,39.616,31.6A12.9,12.9,0,0,0,28.877,12.937V9.558a4.819,4.819,0,1,0-1.561,0v3.379A12.9,12.9,0,0,0,16.577,31.6L13.69,33.309a4.867,4.867,0,1,0,.749,1.354l2.911-1.725a12.877,12.877,0,0,0,21.462,0l2.938,1.725A4.809,4.809,0,1,0,42.5,33.3ZM11.282,40.9Zm13.556-36.1a3.258,3.258,0,1,1,3.258,3.258,3.258,3.258,0,0,1-3.258-3.258Zm3.258,32.329A11.316,11.316,0,1,1,39.411,25.82,11.316,11.316,0,0,1,28.095,37.137Zm18.173,2.427a3.258,3.258,0,1,1,3.258-3.258,3.258,3.258,0,0,1-3.258,3.258Z" transform="translate(-4.991 0.016)" fill="#404040"/>
        <path id="Path_126802" data-name="Path 126802" d="M50.523,65.069a.781.781,0,1,0,1.1,1.1,5.685,5.685,0,0,1,8.034,0,.781.781,0,1,0,1.1-1.1,7.25,7.25,0,0,0-10.243,0Z" transform="translate(-32.536 -38.382)" fill="#404040"/>
        <path id="Path_126803" data-name="Path 126803" d="M59.21,71.22a3.984,3.984,0,0,0-2.837,1.17.781.781,0,1,0,1.1,1.1,2.45,2.45,0,0,1,3.466,0,.781.781,0,1,0,1.1-1.1,3.985,3.985,0,0,0-2.836-1.17Z" transform="translate(-36.104 -43.424)" fill="#404040"/>
        <path id="Path_126804" data-name="Path 126804" d="M52.059,54.67a10.4,10.4,0,0,0-7.41,3.066.781.781,0,1,0,1.1,1.1,8.908,8.908,0,0,1,12.6,0,.788.788,0,0,0,1.124-1.1,10.4,10.4,0,0,0-7.41-3.066Z" transform="translate(-28.948 -33.331)" fill="#404040"/>
        <path id="Path_126805" data-name="Path 126805" d="M81.016,14.028a20.682,20.682,0,0,1,13.333,23.1.786.786,0,0,0,1.55.256A22.241,22.241,0,0,0,81.542,12.556a.782.782,0,0,0-.526,1.472Z" transform="translate(-50.953 -7.622)" fill="#404040"/>
        <path id="Path_126806" data-name="Path 126806" d="M8.265,38.062a.767.767,0,0,0,.781-.933A20.682,20.682,0,0,1,22.379,14.021a.782.782,0,1,0-.526-1.472A22.242,22.242,0,0,0,7.509,37.413a.781.781,0,0,0,.756.649Z" transform="translate(-6.232 -7.62)" fill="#404040"/>
        <path id="Path_126807" data-name="Path 126807" d="M54.5,106.19a20.627,20.627,0,0,1-26.655,0,.781.781,0,1,0-1.011,1.191,22.188,22.188,0,0,0,28.673,0,.781.781,0,0,0-1.011-1.191Z" transform="translate(-18.06 -64.634)" fill="#404040"/>
      </g>
      <circle id="Ellipse_4492" data-name="Ellipse 4492" cx="3.194" cy="3.194" r="3.194" transform="translate(1.698 33.125)" fill="#bbdefb"/>
    </g>
  </g>
</svg>
