<svg xmlns="http://www.w3.org/2000/svg" xmlns:xlink="http://www.w3.org/1999/xlink" width="280" height="240" viewBox="0 0 280 240">
  <defs>
    <clipPath id="clip-path">
      <rect id="Rectangle_7201" data-name="Rectangle 7201" width="160" height="71.127" fill="none"/>
    </clipPath>
  </defs>
  <g id="Group_69140" data-name="Group 69140" transform="translate(-1262 -8400)">
    <path id="Path_116318" data-name="Path 116318" d="M0,0H280V240H0Z" transform="translate(1262 8400)" fill="none"/>
    <g id="Group_69002" data-name="Group 69002" transform="translate(1328 8483.937)">
      <g id="Group_69001" data-name="Group 69001" clip-path="url(#clip-path)">
        <path id="Path_115437" data-name="Path 115437" d="M10.113,12.748C12.539,7.914,15.741,3.227,20.291.171c.941.843,2.267,1.423,2.8,2.627-5.108,3.927-8.281,9.8-10.249,15.831a58.4,58.4,0,0,0-.907,30.647c1.749,6.827,4.8,13.679,10.277,18.328.747-1.268,3.149-2.513,1.965-4.157-5.62-8.255-7.792-18.44-7.647-28.317-.02-10.1,2.423-20.551,8.553-28.747A26.785,26.785,0,0,1,31.449.115a38.942,38.942,0,0,1,2.9,2.613,27.379,27.379,0,0,0-2.9,2.607c-.667-.609-1.333-1.223-2-1.828a24.32,24.32,0,0,0-2.656,3.261,22.948,22.948,0,0,1,1.6,2.465c-5.609,8.591-7.265,19.2-6.867,29.292.42,7.553,2,15.272,5.96,21.8a64.091,64.091,0,0,0,2.728-6.412,3.3,3.3,0,0,0-.239-1.819,51.8,51.8,0,0,1-2.267-16.944c-.133-10.487,2.632-21.305,9.181-29.648A21.348,21.348,0,0,1,42.611.239c7.539,5.584,11.876,14.555,13.64,23.6a71.944,71.944,0,0,1,1.169,10.827c-.073,7.575-1.028,15.283-4.133,22.256A33.477,33.477,0,0,1,42.557,70.908c-.868-.819-3.027-1.433-2.575-2.852A30.3,30.3,0,0,0,48.8,55.523,50.359,50.359,0,0,0,52.314,36.1,48.475,48.475,0,0,0,45.97,9.926a25.9,25.9,0,0,0-5.277-6.292A10.609,10.609,0,0,0,37.925,6.8c5.824,7.827,8.084,17.743,8.323,27.348a54.728,54.728,0,0,1-4.231,23.149A33.867,33.867,0,0,1,31.4,70.963a14.02,14.02,0,0,1-2.949-2.6c1.024-.789,1.905-1.769,3-2.461.659.533,1.261,1.14,1.887,1.715a19.531,19.531,0,0,0,2.476-3.143c-.24-.916-1.067-1.549-1.3-2.465a13.406,13.406,0,0,1,1.321-2.549c3.932-7.289,5.375-15.652,5.487-23.859-.083-8.567-1.672-17.3-5.955-24.82-1.2,2.779-3.621,5.721-2.4,8.875a59.563,59.563,0,0,1,.5,30.063c-2.091,8.161-6.267,16.213-13.2,21.256C11.938,64.895,7.569,54.75,6.045,44.8c-1.476-10.76-.619-22.133,4.069-32.049" transform="translate(0.759 0.017)" fill="#fefefe"/>
        <path id="Path_115438" data-name="Path 115438" d="M6.843,9.276c3.075-4.864,8.1-9.284,14.172-9.2,2.353-.473,4.527,1.485,6.827.692a13.108,13.108,0,0,1,9.815.468,15.36,15.36,0,0,1,8.176-.96c5.487,1.184,9.644,5.549,12.359,10.253C64.223,21,65.223,33.652,63.5,45.41,62.012,53.7,58.829,62.257,52.187,67.784a14.071,14.071,0,0,1-14.556,2.188,15.108,15.108,0,0,1-5.857,1.135,17.148,17.148,0,0,1-5.305-1.135,13.3,13.3,0,0,1-10.551.107c-5.151-2.177-8.667-6.9-11.091-11.773C.391,49.2-.657,38.772.356,28.792A45.733,45.733,0,0,1,6.843,9.276m4.031,3.488C6.185,22.681,5.333,34.054,6.8,44.814c1.524,9.952,5.9,20.092,14.224,26.173,6.933-5.043,11.111-13.095,13.2-21.256a59.563,59.563,0,0,0-.491-30.061c-1.219-3.153,1.2-6.1,2.4-8.875C40.417,18.31,42,27.048,42.088,35.616c-.116,8.205-1.555,16.567-5.489,23.851a13.406,13.406,0,0,0-1.321,2.549c.229.916,1.067,1.549,1.3,2.465A19.53,19.53,0,0,1,34.1,67.624c-.624-.575-1.228-1.179-1.887-1.715-1.1.692-1.979,1.672-3,2.461a14.02,14.02,0,0,0,2.948,2.6A33.867,33.867,0,0,0,42.775,57.3,54.728,54.728,0,0,0,47,34.156c-.239-9.6-2.5-19.521-8.323-27.348a10.609,10.609,0,0,1,2.768-3.163,25.9,25.9,0,0,1,5.277,6.292,48.475,48.475,0,0,1,6.34,26.171A50.359,50.359,0,0,1,49.56,55.536a30.3,30.3,0,0,1-8.816,12.533c-.453,1.419,1.705,2.032,2.575,2.852A33.477,33.477,0,0,0,54.049,56.933c3.1-6.973,4.059-14.681,4.133-22.256A71.946,71.946,0,0,0,57.013,23.85C55.247,14.81,50.909,5.84,43.371.256a21.348,21.348,0,0,0-5.725,5.267C31.1,13.865,28.328,24.684,28.464,35.17a51.8,51.8,0,0,0,2.267,16.944,3.3,3.3,0,0,1,.239,1.819,64.091,64.091,0,0,1-2.728,6.412c-3.967-6.533-5.541-14.249-5.96-21.8-.4-10.1,1.257-20.7,6.867-29.292a22.948,22.948,0,0,0-1.6-2.465A24.318,24.318,0,0,1,30.2,3.524c.667.605,1.333,1.219,2,1.828a27.381,27.381,0,0,1,2.9-2.607,38.94,38.94,0,0,0-2.9-2.612A26.785,26.785,0,0,0,25.844,6.4c-6.133,8.2-8.572,18.645-8.553,28.747-.145,9.877,2.027,20.063,7.643,28.32,1.184,1.643-1.219,2.889-1.965,4.157-5.477-4.649-8.533-11.5-10.277-18.328A58.4,58.4,0,0,1,13.6,18.649c1.968-6.028,5.14-11.905,10.252-15.833-.533-1.2-1.867-1.784-2.8-2.627C16.5,3.242,13.3,7.93,10.873,12.764" transform="translate(0 0)" fill="#e30613"/>
        <path id="Path_115439" data-name="Path 115439" d="M70.217,12.539c5.088-.38,10.195.083,15.292-.141.933,0,1.867,0,2.812.011.011.423.035,1.277.044,1.705a5.867,5.867,0,0,0-3.357,1.321,4.785,4.785,0,0,0-.8,3.021c-.088,9.225.107,18.449-.1,27.665-.455,3.249-1.692,6.739-4.673,8.473a14.852,14.852,0,0,1-12.455.785c-3.509-1.333-5.385-5.039-5.8-8.587.7,0,1.388-.015,2.085-.02A7.983,7.983,0,0,0,65.53,50.5c2.159,2.028,6.159,2.221,8.055-.249A10.519,10.519,0,0,0,75,44.146c0-8.455.015-16.909,0-25.365-.02-1.433-.127-3.323-1.657-3.987a16.776,16.776,0,0,0-3.089-.667c-.011-.4-.025-1.2-.029-1.593" transform="translate(8.626 1.746)"/>
        <path id="Path_115440" data-name="Path 115440" d="M87.267,12.511c6.067-.049,12.133-.224,18.2.024-.02.533-.035,1.067-.049,1.6-2.021.147-4.791.745-4.667,3.333-.277,8.875-.039,17.768-.123,26.647.049,2.344-.243,4.94,1.16,6.979a15.831,15.831,0,0,0,7.348.667,8,8,0,0,0,6.267-5c.732,0,1.467.011,2.2.025-1.041,2.768-1.959,5.58-2.933,8.372H87.311c-.015-.533-.024-1.057-.029-1.588a6.2,6.2,0,0,0,3.289-1.261,4.748,4.748,0,0,0,.877-3.28q.007-15.139,0-30.267a4.941,4.941,0,0,0-.867-3.387,6.028,6.028,0,0,0-3.265-1.267c-.02-.533-.033-1.067-.048-1.6" transform="translate(12.306 1.749)" fill="#030303"/>
        <path id="Path_115441" data-name="Path 115441" d="M113.6,12.585c4.4-.391,8.816.028,13.216-.185a34.388,34.388,0,0,1,5.067.171c-.011.512-.02,1.028-.024,1.545-1.371.331-3.056.249-4.056,1.4a8.384,8.384,0,0,0-.736,4.308q-.02,12.9,0,25.8a11.318,11.318,0,0,0,.677,4.756c.852,1.3,2.559,1.395,3.967,1.452,2.111.02,4.387.244,6.311-.8a8.831,8.831,0,0,0,3.816-4.251h2.155c-.927,2.807-1.94,5.585-2.865,8.392-9.143,0-18.279.019-27.423-.011-.043-.507-.088-1.019-.127-1.521a6.508,6.508,0,0,0,3.4-1.344c.984-.969.852-2.48.907-3.753-.029-10.193.035-20.389-.029-30.584a3.847,3.847,0,0,0-1.584-3.249c-.881-.2-1.763-.429-2.645-.629,0-.376-.015-1.116-.02-1.491" transform="translate(16.017 1.743)"/>
      </g>
    </g>
  </g>
</svg>
