<svg xmlns="http://www.w3.org/2000/svg" width="54" height="38.368" viewBox="0 0 54 38.368">
    <path data-name="Path 115378" d="M330.278 502.5c-.6-3.744-3.042-6.888-10.273-9.821-2.512-1.155-5.312-1.981-6.147-3.885a4.238 4.238 0 0 1-.148-2.4c.538-2.176 3.136-2.855 5.2-2.231a5.716 5.716 0 0 1 3.339 3.1c3.542-2.293 3.534-2.278 6.006-3.853a15.3 15.3 0 0 0-1.981-2.652c-2.13-2.379-5.031-3.6-9.673-3.51-.8.1-1.615.211-2.418.312a10.97 10.97 0 0 0-5.819 3.432c-3.885 4.407-2.777 12.122 1.95 15.3 4.657 3.495 11.5 4.29 12.372 7.559.85 4-2.941 5.3-6.709 4.836-2.777-.577-4.321-1.989-5.991-4.556-3.073 1.779-3.073 1.779-6.233 3.6a13.874 13.874 0 0 0 2.793 3.8c5.944 6.03 20.82 5.733 23.488-3.393a11.267 11.267 0 0 0 .244-5.638zm-30.735-24.775h-7.676c0 6.631-.031 13.214-.031 19.845 0 4.22.218 8.089-.468 9.275-1.123 2.332-4.033 2.044-5.359 1.591a6.588 6.588 0 0 1-2.832-2.941 3.951 3.951 0 0 0-.437-.7q-3.124 1.907-6.241 3.822a12.336 12.336 0 0 0 4.524 5.18 14.9 14.9 0 0 0 10.968 1.349 9.691 9.691 0 0 0 6.194-4.852c1.747-3.222 1.373-7.122 1.357-11.436.04-7.037.001-14.073.001-21.132z" transform="translate(-276.5 -477.237)" style="fill:#323330"/>
</svg>
