<svg xmlns="http://www.w3.org/2000/svg" xmlns:xlink="http://www.w3.org/1999/xlink" width="220" height="60" viewBox="0 0 220 60">
  <defs>
    <clipPath id="clip-_10">
      <rect width="220" height="60"/>
    </clipPath>
  </defs>
  <g id="_10" data-name="10" clip-path="url(#clip-_10)">
    <rect width="220" height="60" fill="#fff"/>
    <g id="Group_69131" data-name="Group 69131" transform="translate(69.655)">
      <path id="Path_8" data-name="Path 8" d="M74.76,215.927l-5.355,12.74v-3.586H62.064v-9.155H56.1v12.985H75.269l1.052-2.781H81l1.07,2.781h6.278L82.8,215.927ZM77,223.086l1.6-4.059h.088l1.62,4.059Z" transform="translate(-27.258 -197.082)" fill="#222" fill-rule="evenodd"/>
      <path id="Path_9" data-name="Path 9" d="M128.63,219.056H136v-3.129H122.666v12.985h5.964v-4.636h7.142v-3.132H128.63Z" transform="translate(-58.975 -197.082)" fill="#222" fill-rule="evenodd"/>
      <path id="Path_10" data-name="Path 10" d="M153.276,215.927l-5.454,12.985h5.966l1.046-2.781h4.675l1.069,2.781h6.277l-5.543-12.985Zm2.242,7.159,1.6-4.059h.089l1.618,4.059Z" transform="translate(-70.961 -197.082)" fill="#222" fill-rule="evenodd"/>
      <path id="Path_11" data-name="Path 11" d="M202.564,223.364a4.818,4.818,0,0,0-1.737-.625,4.971,4.971,0,0,0,2.582-1.046,2.891,2.891,0,0,0,1.068-2.294,2.987,2.987,0,0,0-2.315-2.963,12.163,12.163,0,0,0-3.962-.511h-9.326v12.985h5.966v-4.521h1.335a2.631,2.631,0,0,1,1.136.226,1.369,1.369,0,0,1,.8,1.068l.578,3.232h6.233L203.9,225.15a2.975,2.975,0,0,0-1.334-1.781Zm-5.528-1.8a7.759,7.759,0,0,1-1,.044h-1.464v-2.781h1.554a3.5,3.5,0,0,1,1.764.344,1.118,1.118,0,0,1,.567,1.014q0,1.112-1.42,1.379Z" transform="translate(-90.521 -197.08)" fill="#222" fill-rule="evenodd"/>
      <path id="Path_12" data-name="Path 12" d="M233.689,223.854h1.128v1.777q-.289.048-.5.075a3.549,3.549,0,0,1-.567.035,3.828,3.828,0,0,1-2.383-.711,2.886,2.886,0,0,1-1.09-2.426,3.349,3.349,0,0,1,1.336-2.848,5.875,5.875,0,0,1,3.608-1,11.223,11.223,0,0,1,2.626.31,12.4,12.4,0,0,1,1.492.443v-3.479a27.664,27.664,0,0,0-2.817-.39q-1.258-.1-2.527-.1a13.468,13.468,0,0,0-6.833,1.489,5.978,5.978,0,0,0-2.627,2.936,5.667,5.667,0,0,0-.444,2.2,5.961,5.961,0,0,0,1.78,4.426q2.406,2.336,7.635,2.335a32.339,32.339,0,0,0,3.55-.178,23.179,23.179,0,0,0,2.9-.489v-6.833h-6.272Z" transform="translate(-107.299 -196.898)" fill="#222" fill-rule="evenodd"/>
      <path id="Path_13" data-name="Path 13" d="M267.877,225.869v-2.03h7.3v-2.956h-7.3V219h7.632v-3.072h-13.6v12.986h13.757v-3.043Z" transform="translate(-125.321 -197.082)" fill="#222" fill-rule="evenodd"/>
      <path id="Path_14" data-name="Path 14" d="M28.491,214.506V197.3h7.575l7.642-17.365h-20.7L1,229.931H33.793l3.481-7.906H25.182l3.308-7.517Z" transform="translate(-1.005 -179.932)" fill="#01915b" fill-rule="evenodd"/>
    </g>
  </g>
</svg>
