<svg xmlns="http://www.w3.org/2000/svg" width="280" height="240" viewBox="0 0 280 240">
  <g id="Group_69146" data-name="Group 69146" transform="translate(-1262 -8638)">
    <rect id="Rectangle_7490" data-name="Rectangle 7490" width="280" height="240" transform="translate(1262 8638)" fill="none"/>
    <g id="Group_69131" data-name="Group 69131" transform="translate(1309 8729)">
      <path id="Path_8" data-name="Path 8" d="M80.923,215.927,73.8,232.875v-4.77H64.033V215.927H56.1V233.2H81.6L83,229.5h6.218l1.423,3.7h8.351l-7.373-17.273Zm2.983,9.523,2.124-5.4h.117l2.155,5.4Z" transform="translate(-17.731 -190.859)" fill="#222" fill-rule="evenodd"/>
      <path id="Path_9" data-name="Path 9" d="M130.6,220.09h9.8v-4.163H122.666V233.2H130.6v-6.167h9.5v-4.166h-9.5V220.09Z" transform="translate(-37.939 -190.859)" fill="#222" fill-rule="evenodd"/>
      <path id="Path_10" data-name="Path 10" d="M155.077,215.927,147.822,233.2h7.936l1.391-3.7h6.219l1.422,3.7h8.35l-7.373-17.273Zm2.982,9.523,2.123-5.4h.118l2.153,5.4Z" transform="translate(-45.576 -190.859)" fill="#222" fill-rule="evenodd"/>
      <path id="Path_11" data-name="Path 11" d="M207.085,225.824a6.41,6.41,0,0,0-2.31-.832,6.612,6.612,0,0,0,3.435-1.391,3.846,3.846,0,0,0,1.421-3.052q0-2.873-3.08-3.942a16.18,16.18,0,0,0-5.271-.68H188.874V233.2h7.936v-6.014h1.776a3.5,3.5,0,0,1,1.511.3,1.821,1.821,0,0,1,1.066,1.421l.769,4.3h8.292l-1.363-5.007a3.958,3.958,0,0,0-1.775-2.369Zm-7.353-2.4a10.322,10.322,0,0,1-1.329.059h-1.948v-3.7h2.067a4.651,4.651,0,0,1,2.346.458,1.487,1.487,0,0,1,.754,1.349q0,1.479-1.889,1.834Z" transform="translate(-58.039 -190.859)" fill="#222" fill-rule="evenodd"/>
      <path id="Path_12" data-name="Path 12" d="M236.86,226.6h1.5v2.364c-.256.043-.478.076-.666.1a4.719,4.719,0,0,1-.754.046,5.092,5.092,0,0,1-3.17-.946,3.839,3.839,0,0,1-1.45-3.227,4.455,4.455,0,0,1,1.777-3.789,7.815,7.815,0,0,1,4.8-1.332,14.93,14.93,0,0,1,3.493.412,16.506,16.506,0,0,1,1.985.59V216.19a36.8,36.8,0,0,0-3.747-.519q-1.673-.131-3.361-.131-5.714,0-9.09,1.981a7.953,7.953,0,0,0-3.494,3.906,7.539,7.539,0,0,0-.591,2.93,7.93,7.93,0,0,0,2.368,5.888q3.2,3.107,10.157,3.106a43.03,43.03,0,0,0,4.722-.237,30.835,30.835,0,0,0,3.864-.651v-9.089H236.86V226.6Z" transform="translate(-68.728 -190.742)" fill="#222" fill-rule="evenodd"/>
      <path id="Path_13" data-name="Path 13" d="M269.848,229.152v-2.7h9.713V222.52h-9.713v-2.508H280v-4.086h-18.09V233.2h18.3v-4.048Z" transform="translate(-80.212 -190.859)" fill="#222" fill-rule="evenodd"/>
      <path id="Path_14" data-name="Path 14" d="M37.57,225.924V203.032H47.646l10.166-23.1H30.281L1,246.443H44.623l4.63-10.517H33.168l4.4-10Z" transform="translate(-1.005 -179.932)" fill="#01915b" fill-rule="evenodd"/>
    </g>
  </g>
</svg>
