<svg xmlns="http://www.w3.org/2000/svg" width="280" height="240" viewBox="0 0 280 240">
  <g id="Group_26566" data-name="Group 26566" transform="translate(-14444 4722)">
    <rect id="Rectangle_33048" data-name="Rectangle 33048" width="280" height="240" transform="translate(14444 -4722)" fill="none"/>
    <g id="Group_26565" data-name="Group 26565" transform="translate(14471 -4646)">
      <path id="Path_1" data-name="Path 1" d="M1.381,44.389s121.688-20.162,229.578,0c0,0-101.088-9.917-217.055,9.186Z" transform="translate(0 21.297)" fill="#ce8b03"/>
      <path id="Path_2" data-name="Path 2" d="M3.762,20.708H14.82V44.336h9.514v9.449H3.762Z" transform="translate(3.312 0.823)" fill="#8b2119"/>
      <path id="Path_3" data-name="Path 3" d="M12.841,42.475v-.093c0-5.15,3.833-8.031,9.834-8.031a20.162,20.162,0,0,1,6.094.942v-.426c0-2.362-1.468-3.73-4.775-3.73A18.7,18.7,0,0,0,16.86,32.6l-1.889-7.134A29.49,29.49,0,0,1,25.84,23.573c5.241,0,8.645,1.088,10.912,3.357,1.939,1.939,2.695,4.445,2.695,8.177V49.8H28.721V47.207A9.732,9.732,0,0,1,21.3,50.415c-4.961,0-8.461-2.836-8.461-7.94m16.024-2.219V39.169a7.405,7.405,0,0,0-2.46-.423c-2.123,0-3.307,1.277-3.307,2.881v.093a2.4,2.4,0,0,0,2.458,2.506c1.891,0,3.309-1.511,3.309-3.969" transform="translate(15.939 4.808)" fill="#8b2119"/>
      <path id="Path_4" data-name="Path 4" d="M24.859,42.845l10.493-10.68H25.286V23.751h24.9v6.715L39.65,41.145H50.189v8.408H24.859Z" transform="translate(32.655 5.055)" fill="#8b2119"/>
      <path id="Path_5" data-name="Path 5" d="M36.48,54.564l3.12-7.323a11.683,11.683,0,0,0,4.724,1.7,3.725,3.725,0,0,0,1.748-.38L35.961,23.751H47.067l4.488,13.611,4.115-13.611H66.581L57.651,47.76c-2.506,6.754-5.248,9.5-11.2,9.5a20.432,20.432,0,0,1-9.97-2.692" transform="translate(48.096 5.056)" fill="#8b2119"/>
      <path id="Path_6" data-name="Path 6" d="M48.232,41.894V41.8c0-8.179,4.918-13.609,11.008-13.609a9.633,9.633,0,0,1,7.751,3.538V20.116H77.719v34.5H66.991v-3.17c-1.745,1.891-3.735,3.782-7.653,3.782-6.243,0-11.106-5.434-11.106-13.329m19-.134v-.1a4.312,4.312,0,1,0-8.6,0v.1a4.311,4.311,0,1,0,8.6,0" transform="translate(65.163)" fill="#8b2119"/>
      <path id="Path_7" data-name="Path 7" d="M61.495,42.475v-.093c0-5.15,3.828-8.031,9.829-8.031a20.149,20.149,0,0,1,6.094.942v-.426c0-2.362-1.466-3.73-4.772-3.73A18.721,18.721,0,0,0,65.509,32.6l-1.891-7.134a29.551,29.551,0,0,1,10.871-1.891c5.243,0,8.648,1.088,10.919,3.357,1.937,1.939,2.692,4.445,2.692,8.177V49.8H77.373V47.207a9.734,9.734,0,0,1-7.421,3.209c-4.961,0-8.456-2.836-8.456-7.94m16.019-2.219V39.169a7.39,7.39,0,0,0-2.458-.423c-2.125,0-3.307,1.277-3.307,2.881v.093a2.4,2.4,0,0,0,2.458,2.506c1.889,0,3.307-1.511,3.307-3.969" transform="translate(83.61 4.808)" fill="#8b2119"/>
      <path id="Path_8" data-name="Path 8" d="M73.2,54.564l3.12-7.323a11.692,11.692,0,0,0,4.72,1.7,3.731,3.731,0,0,0,1.753-.38L72.682,23.751H83.788l4.488,13.611,4.107-13.611H103.3L94.37,47.76c-2.5,6.754-5.241,9.5-11.2,9.5a20.41,20.41,0,0,1-9.97-2.692" transform="translate(99.17 5.056)" fill="#8b2119"/>
      <path id="Path_9" data-name="Path 9" d="M84.8,46.792l3.634-6.1a18.653,18.653,0,0,0,9.549,2.883c1.038,0,1.559-.237,1.559-.846v-.093c0-.519-.471-.856-3.072-1.513-6.522-1.609-10.534-3.359-10.534-8.7v-.1c0-5.669,4.533-8.834,11.244-8.834a22.9,22.9,0,0,1,11.577,2.977l-3.4,6.381a19.054,19.054,0,0,0-8.225-2.41c-1.038,0-1.513.28-1.513.8v.093c0,.519.567.849,3.168,1.513,6.522,1.6,10.441,3.4,10.441,8.693v.1c0,5.621-4.208,8.882-11.2,8.882A23.632,23.632,0,0,1,84.8,46.792" transform="translate(116.031 4.7)" fill="#8b2119"/>
      <path id="Path_10" data-name="Path 10" d="M34.013,44.512h-3V41.622h9.421v2.891h-3v7.32H34.013Z" transform="translate(41.208 29.911)" fill="#4c3f3c"/>
      <path id="Path_11" data-name="Path 11" d="M35.387,41.622H38.8v3.6H41.92v-3.6h3.414V51.829H41.92V48.173H38.8v3.656H35.387Z" transform="translate(47.298 29.911)" fill="#4c3f3c"/>
      <path id="Path_12" data-name="Path 12" d="M40.151,41.622h8.7v2.8H43.5v1.034h4.987v2.465H43.5v1.109h5.424v2.8H40.151Z" transform="translate(53.924 29.911)" fill="#4c3f3c"/>
      <path id="Path_13" data-name="Path 13" d="M45.987,41.622H50.97a4.968,4.968,0,0,1,3.677,1.167,3.191,3.191,0,0,1,.93,2.42v.031a3.3,3.3,0,0,1-2.011,3.12l2.377,3.472H52.048l-1.925-2.917H49.4v2.917H45.987Zm4.88,4.858c.822,0,1.315-.366,1.315-.995v-.029c0-.655-.507-.973-1.3-.973H49.4v2Z" transform="translate(62.041 29.912)" fill="#4c3f3c"/>
      <path id="Path_14" data-name="Path 14" d="M50.028,41.622h3.82l1.985,5.734,1.98-5.734h3.766L57.439,51.9H54.17Z" transform="translate(67.661 29.911)" fill="#4c3f3c"/>
      <path id="Path_15" data-name="Path 15" d="M59.831,41.591h3.385l4.3,10.283h-3.7l-.543-1.37H59.7l-.526,1.37H55.53Zm2.6,6.489-.935-2.475-.935,2.475Z" transform="translate(75.314 29.869)" fill="#4c3f3c"/>
      <path id="Path_16" data-name="Path 16" d="M60.614,47.252v-5.63h3.472v5.587c0,1.267.657,1.805,1.576,1.805s1.576-.493,1.576-1.733V41.622h3.472v5.559c0,3.481-2.027,4.858-5.076,4.858s-5.018-1.406-5.018-4.787" transform="translate(82.385 29.912)" fill="#4c3f3c"/>
      <path id="Path_17" data-name="Path 17" d="M68.241,44.512H65.236V41.622h9.421v2.891h-3v7.32H68.241Z" transform="translate(88.813 29.911)" fill="#4c3f3c"/>
      <path id="Path_18" data-name="Path 18" d="M69.616,41.622h3.411v3.6h3.124v-3.6h3.407V51.829H76.151V48.173H73.027v3.656H69.616Z" transform="translate(94.905 29.911)" fill="#4c3f3c"/>
      <path id="Path_19" data-name="Path 19" d="M74.28,46.883v-.029a5.578,5.578,0,0,1,11.144-.026v.026a5.579,5.579,0,0,1-11.144.029m7.7,0v-.029a2.187,2.187,0,0,0-2.147-2.307,2.158,2.158,0,0,0-2.116,2.281v.026a2.185,2.185,0,0,0,2.147,2.3,2.152,2.152,0,0,0,2.116-2.271" transform="translate(101.393 29.787)" fill="#4c3f3c"/>
      <path id="Path_20" data-name="Path 20" d="M79.446,41.622h4.985a4.972,4.972,0,0,1,3.677,1.167,3.2,3.2,0,0,1,.93,2.42v.031a3.293,3.293,0,0,1-2.013,3.12L89.4,51.831H85.509l-1.922-2.917h-.732v2.917H79.446Zm4.885,4.858c.818,0,1.313-.366,1.313-.995v-.029c0-.655-.509-.973-1.3-.973h-1.49v2Z" transform="translate(108.578 29.912)" fill="#4c3f3c"/>
      <rect id="Rectangle_1" data-name="Rectangle 1" width="3.411" height="10.206" transform="translate(198.752 71.538)" fill="#4c3f3c"/>
      <path id="Path_21" data-name="Path 21" d="M88.816,44.512H85.811V41.622h9.421v2.891h-3v7.32H88.816Z" transform="translate(117.431 29.911)" fill="#4c3f3c"/>
      <path id="Path_22" data-name="Path 22" d="M93.7,48.215l-3.853-6.594h3.82l1.751,3.357,1.765-3.357h3.778L97.11,48.173v3.656H93.7Z" transform="translate(123.046 29.911)" fill="#4c3f3c"/>
    </g>
  </g>
</svg>
