<svg xmlns="http://www.w3.org/2000/svg" width="877.216" height="596.047" viewBox="0 0 877.216 596.047">
    <defs>
        <linearGradient id="mnl3z4xcja" x1=".5" x2=".5" y2="1" gradientUnits="objectBoundingBox">
            <stop offset="0" stop-color="#8be9ff"/>
            <stop offset="1" stop-color="#6060d0"/>
        </linearGradient>
    </defs>
    <g data-name="Group 69392">
        <path data-name="ADOBE XD PAGE B" d="M-372.36-13.56a12.754 12.754 0 0 1 3.3 7.08 12.467 12.467 0 0 1-.66 7.56 4.008 4.008 0 0 1-2.22 2.4q-1.26.36-4.62-.48A94.836 94.836 0 0 0-397.8.84q-6.48 0-8.04.12a9.681 9.681 0 0 0-3 .72 5.787 5.787 0 0 1-2.04.78 8.338 8.338 0 0 1-2.28-.3q-3.48-.6-12.84 1.44a25.387 25.387 0 0 1-2.82.48q-.42 0-1.14-.72a9.4 9.4 0 0 1-2.64-5.04q-1.32-4.8 2.52-6.6l1.2-.48-1.44-3.24a16.04 16.04 0 0 1-1.44-3.96 49.235 49.235 0 0 0-1.08-5.52q-1.8-7.92-1.68-24.96.24-47.04 21.12-56.4a12.816 12.816 0 0 1 5.52-1.08 15.841 15.841 0 0 1 6.48 1.44 23.364 23.364 0 0 1 8.64 6.36 19.689 19.689 0 0 1 4.56 9q2.16 10.44-12.12 28.68-7.56 9.6-12.36 13.8l-2.64 2.28-.12 7.44q-.12 3.96 0 6.36t.42 4.8q.3 2.4 1.02 6.12l.72 3.84 1.8-.24q1.56-.24 7.68-1.08a98.927 98.927 0 0 1 15.18-.96 89.984 89.984 0 0 1 11.94.48 12.681 12.681 0 0 1 2.58.72 6.421 6.421 0 0 1 1.74 1.32zm-41.76-41.76a30.467 30.467 0 0 1-.42 3.48q-.18.72 0 .72a70.851 70.851 0 0 0 4.5-5.64h.12q16.56-21.48 14.4-31.56-.48-2.64-.96-2.82t-2.16 1.38A45.807 45.807 0 0 0-411-69.48a68.514 68.514 0 0 0-3.12 14.16zM-304.68-45a2.485 2.485 0 0 1 .66 2.1 32.472 32.472 0 0 1-1.98 5.34q-10.92 25.68-25.68 32.76a28.11 28.11 0 0 1-17.04 2.4 21.689 21.689 0 0 1-8.7-3.36 24.164 24.164 0 0 1-7.08-7.5 29.435 29.435 0 0 1-4.02-11.76 58.471 58.471 0 0 1 .36-16.14 45.306 45.306 0 0 1 4.02-12.12 35.852 35.852 0 0 1 6.54-9.84 22.021 22.021 0 0 1 8.4-5.28 16.434 16.434 0 0 1 9.12-.72 22 22 0 0 1 8.64 3.96 19.5 19.5 0 0 1 6.12 6.6 13.11 13.11 0 0 1 1.08 6.12q0 5.64-4.08 13.92a44.2 44.2 0 0 1-6.48 9.78q-3.84 4.38-6.6 5.22a9.857 9.857 0 0 1-6.6.12q-.96-.36-1.2.36a17.475 17.475 0 0 1-.24 2.04 30.431 30.431 0 0 0 0 5.4 18.623 18.623 0 0 0 .78 3.9 8.24 8.24 0 0 0 1.44 2.7 5.535 5.535 0 0 0 2.28 1.62 6.946 6.946 0 0 0 3.06.42 13.16 13.16 0 0 0 4.32-.9 31.551 31.551 0 0 0 5.28-3.06 45.771 45.771 0 0 0 12.6-13.92 85.27 85.27 0 0 0 8.04-15.96q.72-2.04 1.08-2.94a10.612 10.612 0 0 1 .72-1.5 1.957 1.957 0 0 1 .6-.72 1.336 1.336 0 0 1 .6-.12 10.669 10.669 0 0 1 2.1.36 4.549 4.549 0 0 1 1.86.72zm-40.8 5.16q-.96 2.88-2.16 7.8t-.96 5.46q.24.54.6.54a5.333 5.333 0 0 0 1.68-.72 15.876 15.876 0 0 0 4.02-3.42 38.684 38.684 0 0 0 4.32-5.94 46.186 46.186 0 0 0 3.54-7.2 31.539 31.539 0 0 0 2.04-6.72 20.077 20.077 0 0 0 .48-5.76l-.24-1.8-1.32.96q-7.92 5.28-12 16.8zm114.72-4.44.96.72-2.64 6.48q-2.64 6.6-2.64 6.84a62.81 62.81 0 0 1-2.28 5.94q-2.28 5.58-3.6 8.34a42.04 42.04 0 0 1-5.58 9.36 14.726 14.726 0 0 1-6.06 4.56 12.882 12.882 0 0 1-7.44.24 22.6 22.6 0 0 1-5.52-1.92 16.645 16.645 0 0 1-4.92-3.66 18.66 18.66 0 0 1-3.6-4.86q-.36-.84-.78-2.1t-.78-2.82q-.36-1.56-.66-3.12t-.48-2.94a19.242 19.242 0 0 1-.18-2.46q0-1.8-.24-1.92-.12-.12-.6.96l-.6 1.44q-.84 2.16-4.08 9-4.8 9.84-8.76 12.96a6 6 0 0 1-2.04 1.02 19.286 19.286 0 0 1-3.72.06 18.36 18.36 0 0 1-6.54-.96 14.9 14.9 0 0 1-4.98-3.48 19.12 19.12 0 0 1-5.16-8.64 43.47 43.47 0 0 1-1.2-12.96 59.58 59.58 0 0 1 3.96-19.44q5.76-13.8 13.02-18.78t15.66-.78a18.768 18.768 0 0 1 8.28 7.32l1.2 2.16.96-2.76q2.16-6.36 4.32-7.56 2.52-1.32 7.62 1.26t6.9 5.94q1.44 2.88 0 11.16-1.2 6.6-2.58 16.38t-1.5 13.26q-.6 7.68 1.2 12.24.24.84.48.96t.72-.24a14.059 14.059 0 0 0 3.18-2.58 30.972 30.972 0 0 0 3.42-4.02q2.88-3.96 6.96-13.2a127.206 127.206 0 0 0 5.88-15.48 9.669 9.669 0 0 1 .42-1.5 4.838 4.838 0 0 1 .42-.78q.24-.36.48-.36h.84a3.693 3.693 0 0 1 2.28.72zm-49.8 12.72q5.28-14.16 4.44-16.32a8.42 8.42 0 0 1-.36-2.64 11.762 11.762 0 0 0-1.8-6.36l-.84-1.44-1.32 1.2a37.905 37.905 0 0 0-6.6 9A78.054 78.054 0 0 0-292.68-36a59.346 59.346 0 0 0-2.88 12.66 46.912 46.912 0 0 0-.24 11.46q.72 4.92 1.32 4.92a13.848 13.848 0 0 0 2.46-2.28q2.22-2.28 5.46-8.52a117.128 117.128 0 0 0 6-13.8zm123.48-14.28a2.8 2.8 0 0 1 2.1.6 3.27 3.27 0 0 1 .54 2.16q0 3.84-3.48 14.82a110.111 110.111 0 0 1-6.48 16.74 19.763 19.763 0 0 1-3.54 4.5 25.632 25.632 0 0 1-4.86 3.9 7.91 7.91 0 0 1-2.34.9 25.884 25.884 0 0 1-3.78.18 20.541 20.541 0 0 1-3.84-.24 14.3 14.3 0 0 1-3-1.2 20.659 20.659 0 0 1-7.02-5.46 30.469 30.469 0 0 1-4.86-9.06 52.915 52.915 0 0 1-1.62-5.58 39.038 39.038 0 0 1-1.02-5.1q0-.12-.36.84t-1.02 2.58q-.66 1.62-1.5 3.66-3.48 8.76-5.52 12.6a20.131 20.131 0 0 1-4.08 5.64 11.829 11.829 0 0 1-4.44 2.58 11.976 11.976 0 0 1-5.4-.18 16.36 16.36 0 0 1-5.58-2.28 20.961 20.961 0 0 1-4.86-4.92q-8.04-10.8-4.92-29.64a47.7 47.7 0 0 1 3.36-11.04 41.738 41.738 0 0 1 5.16-9.24 20.394 20.394 0 0 1 4.38-3.84 25.784 25.784 0 0 1 4.98-2.76 18 18 0 0 1 10.8-.06q6 1.62 8.4 5.1l.96 1.44.24-1.44q.24-1.32.96-8.04 1.8-18.12 3.24-25.56 2.04-10.2 3.6-11.52 2.4-2.04 8.16-.42a20.959 20.959 0 0 1 9.36 5.22 13.856 13.856 0 0 1 2.04 2.34 4.6 4.6 0 0 1 .36 2.1 12.26 12.26 0 0 1-.48 3.6q-.6 2.16-2.28 12.84t-2.4 16.32q-.84 7.68-2.04 15-.72 5.04-.84 7.56t0 8.64a99.1 99.1 0 0 0 .96 13.08 42.847 42.847 0 0 0 .96 4.5q.6 2.22 1.14 3.66t.9 1.56a2.248 2.248 0 0 0 1.5-.54 15.244 15.244 0 0 0 2.16-1.74 19.417 19.417 0 0 0 1.98-2.16 42.587 42.587 0 0 0 3.12-5.4 82.2 82.2 0 0 0 4.2-10.86 107.262 107.262 0 0 0 3.24-11.22 29.4 29.4 0 0 1 1.02-4.56q.3-.6 1.74-.6zm-44.88 3.6a31.987 31.987 0 0 0 .84-4.86 2.122 2.122 0 0 0-.96-1.74 11.183 11.183 0 0 1-2.46-3.42q-1.38-2.58-1.62-2.34a14.226 14.226 0 0 0-2.4 3.06 41.5 41.5 0 0 0-2.64 4.26 68.98 68.98 0 0 0-4.98 13.2A81.647 81.647 0 0 0-219-19.56a31.75 31.75 0 0 0 .96 12.6l.36 1.32 1.32-1.2q1.32-1.2 3.84-6.24 3.12-6.72 6.3-15.24a95.425 95.425 0 0 0 4.26-13.92zM-98.64-45a2.485 2.485 0 0 1 .66 2.1 32.468 32.468 0 0 1-1.98 5.34q-10.92 25.68-25.68 32.76a28.11 28.11 0 0 1-17.04 2.4 21.689 21.689 0 0 1-8.7-3.36 24.165 24.165 0 0 1-7.08-7.5 29.435 29.435 0 0 1-4.02-11.76 58.47 58.47 0 0 1 .36-16.14 45.306 45.306 0 0 1 4.02-12.12 35.851 35.851 0 0 1 6.54-9.84 22.021 22.021 0 0 1 8.4-5.28 16.434 16.434 0 0 1 9.12-.72 22 22 0 0 1 8.64 3.96 19.5 19.5 0 0 1 6.12 6.6 13.11 13.11 0 0 1 1.08 6.12q0 5.64-4.08 13.92a44.2 44.2 0 0 1-6.48 9.78q-3.84 4.38-6.6 5.22a9.857 9.857 0 0 1-6.6.12q-.96-.36-1.2.36a17.476 17.476 0 0 1-.24 2.04 30.431 30.431 0 0 0 0 5.4 18.622 18.622 0 0 0 .78 3.9 8.24 8.24 0 0 0 1.44 2.7 5.535 5.535 0 0 0 2.28 1.62 6.946 6.946 0 0 0 3.06.42 13.16 13.16 0 0 0 4.32-.9 31.551 31.551 0 0 0 5.28-3.06 45.771 45.771 0 0 0 12.6-13.92 85.27 85.27 0 0 0 8.04-15.96q.72-2.04 1.08-2.94a10.609 10.609 0 0 1 .72-1.5 1.956 1.956 0 0 1 .6-.72 1.336 1.336 0 0 1 .6-.12 10.669 10.669 0 0 1 2.1.36 4.549 4.549 0 0 1 1.86.72zm-40.8 5.16q-.96 2.88-2.16 7.8t-.96 5.46q.24.54.6.54a5.334 5.334 0 0 0 1.68-.72 15.876 15.876 0 0 0 4.02-3.42 38.685 38.685 0 0 0 4.32-5.94 46.185 46.185 0 0 0 3.54-7.2 31.539 31.539 0 0 0 2.04-6.72 20.078 20.078 0 0 0 .48-5.76l-.24-1.8-1.32.96q-7.92 5.28-12 16.8zm99.48-6.24a2.584 2.584 0 0 1 1.8 1.08 3.264 3.264 0 0 1-.12 2.28 75.266 75.266 0 0 1-3.12 8.28q-2.04 4.68-4.32 9.18a80.91 80.91 0 0 1-4.32 7.62 48.026 48.026 0 0 1-6.24 7.56 26.519 26.519 0 0 1-6.12 4.92 15.581 15.581 0 0 1-8.4 1.32q-7.08-.84-11.28-4.68-5.64-5.04-4.92-15.96a162.6 162.6 0 0 1 1.92-17.28 33.3 33.3 0 0 0 .72-4.8q-.12-.12-2.04 1.32a33.027 33.027 0 0 1-5.16 2.88 15.856 15.856 0 0 1-3.18 1.2 18.838 18.838 0 0 1-3.54.24 18.707 18.707 0 0 1-3.6-.24 15.986 15.986 0 0 1-3.24-1.32q-8.04-3.84-9.48-11.4a16.1 16.1 0 0 1-.12-5.16 46.592 46.592 0 0 1 1.92-7.08q3-8.88 5.28-9.96 1.92-.96 6.18.48a17.194 17.194 0 0 1 6.78 3.96q.72.72 1.02 1.08a4.331 4.331 0 0 1 .54.84 2.13 2.13 0 0 1 .24.96v1.44q0 4.92-3.6 15.36-.24.96-.54 1.8t-.54 1.56a12.952 12.952 0 0 0-.36 1.26 5.694 5.694 0 0 1-.24.84q-.12.3 0 .3a12.423 12.423 0 0 0 3.3-.78 23.3 23.3 0 0 0 3.66-1.5 19.537 19.537 0 0 0 2.58-1.62 14.226 14.226 0 0 0 1.98-1.86q.96-1.08 2.52-3a27.457 27.457 0 0 0 3.66-6.96 14.833 14.833 0 0 1 2.82-5.28 5.74 5.74 0 0 1 1.62-1.14 8.42 8.42 0 0 1 2.46-.06 13.166 13.166 0 0 1 4.32 1.08 21.927 21.927 0 0 1 4.08 2.22 6.788 6.788 0 0 1 2.4 2.58 5.144 5.144 0 0 1 .54 3.06 61.571 61.571 0 0 1-1.38 6.66q-3 12.24-5.64 28.56-.48 3.36-.72 9.36t.24 6.36q.24.24 2.64-.6 8.16-2.76 17.4-19.56 2.64-4.92 3-5.4a40.353 40.353 0 0 0 2.04-4.86 48.679 48.679 0 0 0 1.92-5.58 1.932 1.932 0 0 1 2.64-1.56zm52.56-2.64a1.912 1.912 0 0 1-.48 2.04 19.146 19.146 0 0 0-1.92 2.28 55.714 55.714 0 0 1-8.88 9.36q-8.4 6.6-12.24 8.52A29.908 29.908 0 0 0-15.48-24l-2.04 1.2 2.52 3.96q4.8 7.8 5.04 14.88.12 5.28-4.32 10.44a21.559 21.559 0 0 1-17.52 7.56 21.893 21.893 0 0 1-14.16-5.52q-4.08-3.36-5.1-6.96a12.645 12.645 0 0 1 .78-8.16 23.591 23.591 0 0 1 4.68-7.32 37.708 37.708 0 0 1 3.9-3.84q1.62-1.32 5.46-3.84l6-3.72-2.64-2.76a51.723 51.723 0 0 1-7.14-8.76 34.065 34.065 0 0 1-3.72-9.06q-1.38-5.22 1.14-11.7 2.4-6.48 5.88-9.72 2.28-2.16 3.84-2.1t4.56 2.46A12.154 12.154 0 0 1-24-61.08a9.436 9.436 0 0 1 .18 4.38 82.977 82.977 0 0 1-2.58 8.94q-1.92 5.88-1.62 9.3a11.577 11.577 0 0 0 3.18 6.66l1.68 2.04 3.48-1.68A119.842 119.842 0 0 0-3.6-41.76q5.64-4.2 7.08-5.16 3.24-1.92 3.12-3.36a1.842 1.842 0 0 1 .72-1.62A2.035 2.035 0 0 1 9-52.56a4.7 4.7 0 0 1 2.1 1.44 6.106 6.106 0 0 1 1.5 2.4zM-28.68-3.84q4.68-4.68 4.2-10.08-.24-2.88-.96-3.12t-3.96 1.56a32.678 32.678 0 0 0-6.96 5.16 28.633 28.633 0 0 0-2.22 2.22 8.977 8.977 0 0 0-1.26 1.86q-.48.96-1.2 2.64-1.56 3.72-1.32 5.4a3.226 3.226 0 0 0 .3 1.38 1.717 1.717 0 0 0 1.02.18 17.425 17.425 0 0 0 3.6-.96q3.96-1.44 8.76-6.24zm166.32-87.72a25.184 25.184 0 0 1 3.72 11.76q.48 6.6-1.56 18.84-1.8 11.28-3.36 24.84t-1.56 18.84q0 3.48 1.68 16.92a11.888 11.888 0 0 1 .12 3.72q-.36 1.08-2.4 1.38a10.738 10.738 0 0 1-4.32-.3 15.966 15.966 0 0 1-4.74-1.92 14.5 14.5 0 0 1-3.78-3q-5.4-6-7.56-19.32a80.412 80.412 0 0 1-.6-12.36 128.956 128.956 0 0 1 .6-14.28q.72-7.44 2.7-18.3t3.3-15.3a38.737 38.737 0 0 0 1.08-4.68l.6-3.36-1.32 1.56q-3.6 4.44-7.38 14.22a169.785 169.785 0 0 0-6.66 21.9 187.628 187.628 0 0 0-4.08 23.28q-.48 5.16-.66 10.86t.18 6.66a1.82 1.82 0 0 1-.48 1.92q-1.56 1.56-5.76.6a19.919 19.919 0 0 1-7.68-3.6 26.036 26.036 0 0 1-3.24-3 48.758 48.758 0 0 1-3.3-3.9 15.13 15.13 0 0 1-1.98-3.18 19.856 19.856 0 0 1-1.5-4.2 32.086 32.086 0 0 1-.6-4.68q-.18-2.76-.18-8.28.12-7.92.66-12.48t2.58-14.64q2.76-12.84 2.4-13.2-.12-.12-.84 1.02t-1.74 3q-1.02 1.86-1.98 3.66-2.16 4.68-5.22 13.5T68.4-42.6A137.341 137.341 0 0 0 64.68-9q0 7.32-.78 9.24t-4.02 2.28a13.03 13.03 0 0 1-4.98-.6 18.488 18.488 0 0 1-4.98-2.16 13.64 13.64 0 0 1-2.94-3.3 15.084 15.084 0 0 1-2.1-4.38q-1.2-3.96-2.64-20.64-.72-8.64-.48-25.86t1.2-28.02q.6-6.84 1.68-13.26a42.652 42.652 0 0 1 1.8-7.98q1.08-2.16 5.76-1.56a18.386 18.386 0 0 1 8.52 3.36 7.676 7.676 0 0 1 3.18 3.42q.54 1.62.06 6.18-.48 5.04-.72 21.96-.24 16.8-.36 18.72v1.32q.36-.48 3.96-12.24Q73.8-84.84 81-92.04a7.159 7.159 0 0 1 .9-.96 3 3 0 0 1 .9-.54 8.838 8.838 0 0 1 .96-.3 5.7 5.7 0 0 1 1.32-.12q4.56-.48 9.84 2.82t7.08 7.62a23.617 23.617 0 0 1 .96 3.24q.48 2.04.78 4.26a28.92 28.92 0 0 1 .3 3.78l.12 2.52 2.16-6.72q5.28-15.84 12.24-21.24a11.032 11.032 0 0 1 2.34-1.5 7.88 7.88 0 0 1 2.58-.3 16.194 16.194 0 0 1 5.46.96 16.568 16.568 0 0 1 4.92 2.76 18.009 18.009 0 0 1 3.78 4.2zm92.52 47.28.96.72-2.64 6.48q-2.64 6.6-2.64 6.84a62.81 62.81 0 0 1-2.28 5.94q-2.28 5.58-3.6 8.34a42.04 42.04 0 0 1-5.58 9.36 14.726 14.726 0 0 1-6.06 4.56 12.882 12.882 0 0 1-7.44.24 22.6 22.6 0 0 1-5.52-1.92 16.645 16.645 0 0 1-4.92-3.66 18.66 18.66 0 0 1-3.6-4.86q-.36-.84-.78-2.1t-.78-2.82q-.36-1.56-.66-3.12t-.48-2.94a19.242 19.242 0 0 1-.18-2.46q0-1.8-.24-1.92-.12-.12-.6.96l-.6 1.44q-.84 2.16-4.08 9-4.8 9.84-8.76 12.96a6 6 0 0 1-2.04 1.02 19.286 19.286 0 0 1-3.72.06 18.36 18.36 0 0 1-6.54-.96 14.9 14.9 0 0 1-4.98-3.48 19.121 19.121 0 0 1-5.16-8.64 43.469 43.469 0 0 1-1.2-12.96A59.58 59.58 0 0 1 150-47.64q5.76-13.8 13.02-18.78t15.66-.78a18.768 18.768 0 0 1 8.28 7.32l1.2 2.16.96-2.76q2.16-6.36 4.32-7.56 2.52-1.32 7.62 1.26t6.9 5.94q1.44 2.88 0 11.16-1.2 6.6-2.58 16.38t-1.5 13.26q-.6 7.68 1.2 12.24.24.84.48.96t.72-.24a14.059 14.059 0 0 0 3.18-2.58 30.972 30.972 0 0 0 3.42-4.02q2.88-3.96 6.96-13.2a127.206 127.206 0 0 0 5.88-15.48 9.669 9.669 0 0 1 .42-1.5 4.838 4.838 0 0 1 .42-.78q.24-.36.48-.36h.84a3.693 3.693 0 0 1 2.28.72zm-49.8 12.72q5.28-14.16 4.44-16.32a8.419 8.419 0 0 1-.36-2.64 11.762 11.762 0 0 0-1.8-6.36l-.84-1.44-1.32 1.2a37.905 37.905 0 0 0-6.6 9A78.055 78.055 0 0 0 168.24-36a59.347 59.347 0 0 0-2.88 12.66 46.911 46.911 0 0 0-.24 11.46q.72 4.92 1.32 4.92a13.848 13.848 0 0 0 2.46-2.28q2.22-2.28 5.46-8.52a117.128 117.128 0 0 0 6-13.8zm94.44-17.28q.6-.96 2.76-.12t2.16 1.92q0 .6-4.32 10.92a129.882 129.882 0 0 1-11.28 20.16q-6.48 9.6-10.68 11.64t-10.56.12a23.2 23.2 0 0 1-8.76-4.86 30.386 30.386 0 0 1-6.36-8.94 46.233 46.233 0 0 1-4.08-11.4 76.3 76.3 0 0 1-.6-14.16q.36-18.24 6-40.92a13.186 13.186 0 0 1-1.56-.24 25.427 25.427 0 0 0-9.96 1.2 5.428 5.428 0 0 1-3.48.24 5.216 5.216 0 0 1-1.86-1.8 4.38 4.38 0 0 1-.9-2.4q0-1.8 2.34-4.26A15.011 15.011 0 0 1 219-95.4a17.307 17.307 0 0 1 6.24-1.2 24.573 24.573 0 0 1 6.84.72q3.72-13.08 5.28-14.4 2.64-2.52 9-.54a22.753 22.753 0 0 1 10.44 6.54 5.238 5.238 0 0 1 1.68 3.48 38.631 38.631 0 0 1-1.56 7.44q-.12.48-.48 1.8a26.966 26.966 0 0 0 4.44-.36 21.25 21.25 0 0 0 5.28-1.26 19.48 19.48 0 0 0 4.2-2.7 18.064 18.064 0 0 1 2.88-2.04q.48 0 1.26.9a4.532 4.532 0 0 1 1.02 1.86q.48 2.04-1.68 4.92a22.248 22.248 0 0 1-4.92 4.44 32.334 32.334 0 0 1-15.24 5.28q-1.8 7.08-3 12.12-1.32 6-2.58 16.56a146.842 146.842 0 0 0-1.26 15.96q0 4.68.72 12.24A82.731 82.731 0 0 0 249-13.2l.48 1.8 2.52-1.92a53.586 53.586 0 0 0 11.22-12.48 90.992 90.992 0 0 0 9.3-17.76 28.083 28.083 0 0 1 2.28-5.28zm64.8 2.76a2.584 2.584 0 0 1 1.8 1.08 3.264 3.264 0 0 1-.12 2.28 75.265 75.265 0 0 1-3.12 8.28q-2.04 4.68-4.32 9.18a80.9 80.9 0 0 1-4.32 7.62 48.027 48.027 0 0 1-6.24 7.56 26.518 26.518 0 0 1-6.12 4.92 15.581 15.581 0 0 1-8.4 1.32q-7.08-.84-11.28-4.68-5.64-5.04-4.92-15.96a162.6 162.6 0 0 1 1.92-17.28 33.3 33.3 0 0 0 .72-4.8q-.12-.12-2.04 1.32a33.026 33.026 0 0 1-5.16 2.88 15.855 15.855 0 0 1-3.18 1.2 18.837 18.837 0 0 1-3.54.24 18.707 18.707 0 0 1-3.6-.24 15.986 15.986 0 0 1-3.24-1.32q-8.04-3.84-9.48-11.4a16.1 16.1 0 0 1-.12-5.16 46.59 46.59 0 0 1 1.92-7.08q3-8.88 5.28-9.96 1.92-.96 6.18.48a17.194 17.194 0 0 1 6.78 3.96q.72.72 1.02 1.08a4.332 4.332 0 0 1 .54.84 2.13 2.13 0 0 1 .24.96v1.44q0 4.92-3.6 15.36-.24.96-.54 1.8t-.54 1.56a12.946 12.946 0 0 0-.36 1.26 5.7 5.7 0 0 1-.24.84q-.12.3 0 .3a12.423 12.423 0 0 0 3.3-.78 23.3 23.3 0 0 0 3.66-1.5 19.539 19.539 0 0 0 2.58-1.62 14.226 14.226 0 0 0 1.98-1.86q.96-1.08 2.52-3a27.457 27.457 0 0 0 3.66-6.96 14.833 14.833 0 0 1 2.82-5.28 5.74 5.74 0 0 1 1.62-1.14 8.42 8.42 0 0 1 2.46-.06 13.165 13.165 0 0 1 4.32 1.08 21.927 21.927 0 0 1 4.08 2.22 6.788 6.788 0 0 1 2.4 2.58 5.144 5.144 0 0 1 .54 3.06 61.58 61.58 0 0 1-1.38 6.66q-3 12.24-5.64 28.56-.48 3.36-.72 9.36t.24 6.36q.24.24 2.64-.6 8.16-2.76 17.4-19.56 2.64-4.92 3-5.4a40.348 40.348 0 0 0 2.04-4.86 48.682 48.682 0 0 0 1.92-5.58 1.932 1.932 0 0 1 2.64-1.56zM350.28-75a16.69 16.69 0 0 1-2.4-1.2 7.276 7.276 0 0 1-1.68-1.44 8.222 8.222 0 0 1-1.2-1.86 9.627 9.627 0 0 1-.72-2.22 23.458 23.458 0 0 1-.36-2.88 15.487 15.487 0 0 1 .48-5.52 27.736 27.736 0 0 1 2.28-5.76 14.7 14.7 0 0 1 2.52-3.84 6.907 6.907 0 0 1 4.68-.6 12.809 12.809 0 0 1 5.28 2.28q2.52 1.8 2.52 3.6a24.1 24.1 0 0 1-1.08 5.16q-.96 3.84-2.16 8.52a33.376 33.376 0 0 1-1.68 5.94q-.48.78-2.4.66a9.538 9.538 0 0 1-4.08-.84zm38.28 28.44q2.88 3.36-13.2 26.16-5.76 8.28-10.02 11.7a15.4 15.4 0 0 1-8.94 3.66 13.054 13.054 0 0 1-5.16-.48q-7.56-2.04-10.56-6.36A31.71 31.71 0 0 1 336.24-24a51.389 51.389 0 0 1-.6-10.08 103.307 103.307 0 0 1 .84-11.64q.72-5.04 1.86-9.78a73.583 73.583 0 0 1 2.28-7.86q1.14-3.12 1.98-3.54a9.313 9.313 0 0 1 3.72-.3 18.38 18.38 0 0 1 5.94 1.68 14.494 14.494 0 0 1 4.98 3.48 4.527 4.527 0 0 1 1.32 2.7 39.94 39.94 0 0 1-1.56 6.66 132.082 132.082 0 0 0-2.94 15.9 125.461 125.461 0 0 0-1.38 15.9 35.645 35.645 0 0 0 .6 6.24 12.409 12.409 0 0 0 1.08 3.96 1.567 1.567 0 0 0 1.02.18 4.854 4.854 0 0 0 1.56-.48q.9-.42 2.04-1.08a19.057 19.057 0 0 0 2.34-1.62 56.1 56.1 0 0 0 7.32-7.56 113.02 113.02 0 0 0 8.04-10.68q5.4-8.04 7.08-13.2.72-2.4 1.44-2.64a2.87 2.87 0 0 1 1.8.12 2.888 2.888 0 0 1 1.56 1.08zm51-1.68q2.88-.96 3.12 1.44.12 1.44-1.38 9.78t-2.58 12.42q-2.52 9.48-6.12 14.58a17.147 17.147 0 0 1-8.88 6.78 25.681 25.681 0 0 1-7.8 1.44 37.2 37.2 0 0 1-9-1.56q-1.32-.48-2.28-.9a8.318 8.318 0 0 1-1.86-1.14q-.9-.72-2.46-2.04a27.02 27.02 0 0 1-5.46-7.02 46.006 46.006 0 0 1-2.22-4.38q-.12-1.68-1.92 1.8-2.88 5.64-5.64 12.36-.72 1.92-1.68 2.04t-2.88-1.44a5.07 5.07 0 0 1-1.86-2.88 9.55 9.55 0 0 1 .54-4.32 40.137 40.137 0 0 1 2.7-6.6q2.1-4.32 3.9-7.32a14.815 14.815 0 0 0 1.8-3.48 40.28 40.28 0 0 0-1.8-5.64 115.674 115.674 0 0 1-5.16-23.52l-.96-8.28 1.08-.84q2.52-2.04 8.22-1.62t8.82 2.82a5.542 5.542 0 0 1 1.98 2.4 61.731 61.731 0 0 1 1.38 6.48 51.846 51.846 0 0 0 1.2 6.24l.36.18q.12.06 1.26-1.08a36.2 36.2 0 0 0 2.58-2.94q1.44-1.8 4.44-5.28 8.4-10.2 9.36-10.32a2.851 2.851 0 0 1 .78.12 4.511 4.511 0 0 1 .78.3 5.915 5.915 0 0 1 .78.48 6.186 6.186 0 0 1 .78.66 4.769 4.769 0 0 1 .6.72 5.868 5.868 0 0 1 .36.6q.36 1.08-1.32 3.54t-9.6 12.9q-7.8 10.32-8.16 11.28-.36 1.2 1.44 6.96a95.449 95.449 0 0 0 4.2 11.04q3.36 7.56 6.24 10.68a4.159 4.159 0 0 1 1.14 1.74q.06.54 1.86 1.26a3.565 3.565 0 0 0 3.06.06 18.266 18.266 0 0 0 4.02-3.9 28.365 28.365 0 0 0 4.92-8.28 74.06 74.06 0 0 0 2.88-7.92q.72-2.76 1.56-8.04a55.821 55.821 0 0 0 .84-8.16 9.514 9.514 0 0 1 .48-3.12 2.387 2.387 0 0 1 1.56-1.08z" transform="translate(434.528 582)" style="fill:#222"/>
        <g data-name="Group 69389">
            <path data-name="Path 127542" d="M271.61-52.15h-33.325L194.313 80.227l-30.548-5.091q-3.24-5.091-4.4-15.506a157.634 157.634 0 0 1-1.154-16.43q0-6.017 3.7-14.349l26.846-81h-67.575L77.211 80.227l-30.548-5.092q-3.24-5.091-4.4-15.506A157.635 157.635 0 0 1 41.108 43.2q0-6.017 3.7-14.349l26.846-81H15.189L10.56-79q14.349-16.2 41.657-16.2h33.788l29.16-88.405H58.7l-4.629-26.846q14.348-16.2 41.657-16.2h33.788L169.319-345.6l30.548 5.091q3.24 5.091 4.4 15.506a157.638 157.638 0 0 1 1.157 16.431q0 6.017-3.7 14.811l-22.68 67.114h67.577L286.422-345.6l30.548 5.091q3.24 5.091 4.4 15.506a157.635 157.635 0 0 1 1.157 16.431q0 6.017-3.7 14.811l-22.68 67.114h56.931L357.7-199.8q-13.886 16.2-41.657 16.2h-34.25l-29.16 88.4h56.005l4.629 26.846Q299.381-52.15 271.61-52.15zM164.691-183.6l-29.16 88.4h67.577l29.16-88.405z" transform="translate(125.968 345.601)" style="fill:url(#mnl3z4xcja)"/>
            <path data-name="Path 127543" d="M554.477-330.142a317.113 317.113 0 0 1 33.8 1.843v.614l.615-.614v352.7q24.579 9.831 33.8 20.277l-6.145 51h-159.77l-6.145-51q11.06-13.518 49.772-23.35V-247.8q-34.41-3.687-55.3-12.9v-46.7a268.344 268.344 0 0 1 109.373-22.742z" transform="translate(53.081 330.143)" style="fill:url(#mnl3z4xcja)"/>
        </g>
    </g>
</svg>
