<svg xmlns="http://www.w3.org/2000/svg" width="48" height="48" viewBox="0 0 48 48">
  <g id="Group_69487" data-name="Group 69487" transform="translate(1754 -20719)">
    <rect id="Rectangle_7964" data-name="Rectangle 7964" width="48" height="48" transform="translate(-1754 20719)" fill="none"/>
    <g id="layer1" transform="translate(-1750.529 20442.402)">
      <path id="path3215" d="M5.131,280.6a.667.667,0,0,0-.409,1.137L9.2,286.2v1.452l-1.609,1.609H6.14L1.666,284.79a.667.667,0,0,0-1.137.473V290.6a.667.667,0,0,0,.2.468L4.058,294.4a.666.666,0,0,0,.473.193H9.585l16.942,16.944V316.6a.666.666,0,0,0,.2.473l3.331,3.332a.667.667,0,0,0,.473.2h5.335a.667.667,0,0,0,.467-1.142l-4.467-4.469v-1.447l1.608-1.615h1.448l4.473,4.474a.667.667,0,0,0,1.137-.473V310.6a.667.667,0,0,0-.2-.473L37,306.787a.667.667,0,0,0-.473-.191H31.474L14.53,289.652v-5.058a.667.667,0,0,0-.2-.467L11,280.789a.666.666,0,0,0-.473-.191H5.194q-.032,0-.064,0Z" transform="translate(0 0.002)" fill="#33658a"/>
      <path id="path3198" d="M29.628,280.6a.684.684,0,0,0-.226.069L22.739,284a.667.667,0,0,0-.369.6v2.392L5.9,303.458l3.607,3.612L25.977,290.6h2.392a.667.667,0,0,0,.6-.369l3.337-6.668a.667.667,0,0,0-.128-.768l-2-2a.667.667,0,0,0-.546-.192Z" transform="translate(8.16)" fill="#dbe9ee"/>
      <path id="path3202" d="M13.187,289.062a.667.667,0,0,0-.463.2L1.947,300.036a4.563,4.563,0,0,0-.167,6.442,4.563,4.563,0,0,0,6.442-.167L19,295.533a.667.667,0,0,0,0-.94l-5.33-5.335a.666.666,0,0,0-.482-.2Z" transform="translate(0 12.866)" fill="#33b9ef"/>
      <path id="path3204" d="M4.575,291.259l6.273,6.273,2-2a.667.667,0,0,0,0-.94l-5.329-5.335a.666.666,0,0,0-.945,0Z" transform="translate(6.149 12.866)" fill="#2fa9da"/>
    </g>
  </g>
</svg>
