<svg xmlns="http://www.w3.org/2000/svg" width="48" height="48" viewBox="0 0 48 48">
  <g id="Group_69486" data-name="Group 69486" transform="translate(1754 -20719)">
    <rect id="Rectangle_7964" data-name="Rectangle 7964" width="48" height="48" transform="translate(-1754 20719)" fill="none"/>
    <g id="file-transfer" transform="translate(-1752 20655.232)">
      <path id="Path_127033" data-name="Path 127033" d="M18.894,407.084H.313L0,407.173v2.3a.443.443,0,0,0,.443.443H18.764a.443.443,0,0,0,.443-.443v-2.3Z" transform="translate(0 -306.333)" fill="#e8edf2"/>
      <path id="Path_127034" data-name="Path 127034" d="M18.908,375.383H.323L0,375.472V378.2H19.207v-2.724Z" transform="translate(0 -277.357)" fill="#b6c4cf"/>
      <path id="Path_127035" data-name="Path 127035" d="M307.376,407.084H288.795l-.3.089v2.3a.443.443,0,0,0,.443.443h18.322a.443.443,0,0,0,.443-.443v-2.3Z" transform="translate(-263.706 -306.333)" fill="#fac600"/>
      <path id="Path_127036" data-name="Path 127036" d="M307.4,375.383H288.819l-.32.089V378.2h19.207v-2.724Z" transform="translate(-263.706 -277.357)" fill="#fedf30"/>
      <g id="Group_69475" data-name="Group 69475" transform="translate(0 71.95)">
        <g id="Group_69471" data-name="Group 69471">
          <g id="Group_69467" data-name="Group 69467" transform="translate(0)">
            <g id="Group_69466" data-name="Group 69466">
              <path id="Path_127037" data-name="Path 127037" d="M292.616,410.416v-2.3H288.5v2.3a.443.443,0,0,0,.443.443h4.117A.443.443,0,0,1,292.616,410.416Z" transform="translate(-263.706 -379.225)" fill="#e8b800"/>
              <path id="Path_127038" data-name="Path 127038" d="M288.5,376.414h4.117v2.724H288.5Z" transform="translate(-263.706 -350.249)" fill="#fed402"/>
              <path id="Path_127039" data-name="Path 127039" d="M4.117,410.416v-2.3H0v2.3a.443.443,0,0,0,.443.443H4.559A.443.443,0,0,1,4.117,410.416Z" transform="translate(0 -379.225)" fill="#d9e7ec"/>
              <path id="Path_127040" data-name="Path 127040" d="M0,376.414H4.117v2.724H0Z" transform="translate(0 -350.249)" fill="#9facba"/>
              <path id="Path_127041" data-name="Path 127041" d="M293.237,72.209l-4.479,4.479a.885.885,0,0,0-.259.626v20.8h19.207V72.393a.443.443,0,0,0-.443-.443h-13.4A.886.886,0,0,0,293.237,72.209Z" transform="translate(-263.706 -71.95)" fill="#fee97d"/>
              <g id="Group_69465" data-name="Group 69465" transform="translate(24.793 0)">
                <path id="Path_127042" data-name="Path 127042" d="M288.58,129.363q.016-.036.036-.07a.885.885,0,0,0-.116.437v20.8h4.113v-20.8a.883.883,0,0,1,.081-.367Z" transform="translate(-288.499 -124.365)" fill="#fedf30"/>
                <path id="Path_127043" data-name="Path 127043" d="M347.022,71.95a.883.883,0,0,0-.367.081v4.032l3.853-3.853a.885.885,0,0,1,.626-.259h-4.113Z" transform="translate(-341.657 -71.95)" fill="#fedf30"/>
              </g>
              <path id="Path_127044" data-name="Path 127044" d="M294.354,77.54V72.888a.882.882,0,0,0-.259.179l-4.479,4.479a.884.884,0,0,0-.179.259h4.652A.266.266,0,0,0,294.354,77.54Z" transform="translate(-264.564 -72.807)" fill="#d7aa02"/>
            </g>
          </g>
          <g id="Group_69470" data-name="Group 69470">
            <g id="Group_69469" data-name="Group 69469">
              <path id="Path_127045" data-name="Path 127045" d="M4.739,72.209.259,76.688A.885.885,0,0,0,0,77.314v20.8H19.207V72.393a.443.443,0,0,0-.443-.443H5.364A.885.885,0,0,0,4.739,72.209Z" transform="translate(0 -71.95)" fill="#e8edf2"/>
              <g id="Group_69468" data-name="Group 69468" transform="translate(0 0)">
                <path id="Path_127046" data-name="Path 127046" d="M.081,129.362q.016-.036.036-.07a.884.884,0,0,0-.116.437v20.8H4.117v-20.8a.883.883,0,0,1,.081-.367Z" transform="translate(0 -124.364)" fill="#d9e7ec"/>
                <path id="Path_127047" data-name="Path 127047" d="M57.779,71.95a.885.885,0,0,0-.437.116c.023-.013.046-.025.07-.035v4.036l3.857-3.857a.885.885,0,0,1,.626-.259H57.779Z" transform="translate(-52.414 -71.95)" fill="#d9e7ec"/>
              </g>
              <path id="Path_127048" data-name="Path 127048" d="M5.854,77.54V72.888a.882.882,0,0,0-.259.179L1.116,77.546a.886.886,0,0,0-.179.259H5.589A.266.266,0,0,0,5.854,77.54Z" transform="translate(-0.856 -72.807)" fill="#b6c4cf"/>
            </g>
          </g>
        </g>
        <g id="Group_69474" data-name="Group 69474" transform="translate(7.87 9.541)">
          <path id="Path_127049" data-name="Path 127049" d="M95.609,264.954l-3.921-3.2a.294.294,0,0,1,0-.455l3.921-3.2a.294.294,0,0,1,.48.228v1.144a.294.294,0,0,0,.294.294h14.233a.294.294,0,0,1,.294.294v2.94a.294.294,0,0,1-.294.294H96.383a.294.294,0,0,0-.294.294v1.144A.294.294,0,0,1,95.609,264.954Z" transform="translate(-91.58 -251.578)" fill="#00c27a"/>
          <g id="Group_69472" data-name="Group 69472" transform="translate(3.22 8.183)">
            <path id="Path_127050" data-name="Path 127050" d="M144.863,281.719H130.63a.294.294,0,0,0-.294.294v1.144a.294.294,0,0,1-.48.228l-.81-.661v-2.263a.443.443,0,0,1,.443-.443h13.936a.443.443,0,0,0,.443-.443v-1.385h1a.294.294,0,0,1,.294.294v2.94A.294.294,0,0,1,144.863,281.719Z" transform="translate(-129.046 -278.191)" fill="#08b865"/>
            <path id="Path_127051" data-name="Path 127051" d="M139.094,339.029a.29.29,0,0,0,.264,0Z" transform="translate(-138.23 -333.801)" fill="#09a755"/>
          </g>
          <path id="Path_127052" data-name="Path 127052" d="M210.787,189.9l3.921-3.2a.294.294,0,0,0,0-.455l-3.921-3.2a.294.294,0,0,0-.48.228v1.144a.294.294,0,0,1-.294.294H195.78a.294.294,0,0,0-.294.294v2.94a.294.294,0,0,0,.294.294h14.233a.294.294,0,0,1,.294.294v1.144A.294.294,0,0,0,210.787,189.9Z" transform="translate(-186.557 -182.975)" fill="#01d0fb"/>
          <g id="Group_69473" data-name="Group 69473" transform="translate(8.929)">
            <path id="Path_127053" data-name="Path 127053" d="M196.968,186.408a.294.294,0,0,1,.294-.294H211.5a.294.294,0,0,0,.294-.294V183.86l-1-.818a.294.294,0,0,0-.48.228v1.144a.294.294,0,0,1-.294.294H195.78a.294.294,0,0,0-.294.294v2.94a.294.294,0,0,0,.294.294h1.188Z" transform="translate(-195.486 -182.974)" fill="#01c0fa"/>
          </g>
        </g>
      </g>
    </g>
  </g>
</svg>
