<svg xmlns="http://www.w3.org/2000/svg" width="48" height="48" viewBox="0 0 48 48">
  <g id="Group_69478" data-name="Group 69478" transform="translate(1754 -20719)">
    <rect id="Rectangle_7964" data-name="Rectangle 7964" width="48" height="48" transform="translate(-1754 20719)" fill="none"/>
    <g id="Layer_3" data-name="Layer 3" transform="translate(-1753 20719.988)">
      <path id="Path_126739" data-name="Path 126739" d="M45,2.956v9.656a1.924,1.924,0,0,1-1.916,1.924H2.916A1.924,1.924,0,0,1,1,12.614V2.959A1.916,1.916,0,0,1,2.916,1.04H43.084A1.916,1.916,0,0,1,45,2.956Z" transform="translate(0 0)" fill="#ec407a"/>
      <path id="Path_126740" data-name="Path 126740" d="M44.29,2.246V11.9a1.924,1.924,0,0,1-1.915,1.923H2.206a1.907,1.907,0,0,1-.951-.255A1.916,1.916,0,0,1,1,12.614V2.959A1.916,1.916,0,0,1,2.916,1.04H43.084a1.916,1.916,0,0,1,.958.255,1.978,1.978,0,0,1,.244.951Z" transform="translate(0)" fill="#f06292"/>
      <g id="Group_69345" data-name="Group 69345" transform="translate(1 16.235)">
        <path id="Path_126741" data-name="Path 126741" d="M22.29,24.366v9.665a1.916,1.916,0,0,1-1.916,1.916H2.916A1.916,1.916,0,0,1,1,34.032V24.366A1.916,1.916,0,0,1,2.916,22.45H20.375a1.916,1.916,0,0,1,1.916,1.916Z" transform="translate(-1 -22.45)" fill="#90caf9"/>
        <path id="Path_126742" data-name="Path 126742" d="M54.267,24.366V49.278a1.916,1.916,0,0,1-1.916,1.916H34.836a1.916,1.916,0,0,1-1.916-1.916V24.366a1.916,1.916,0,0,1,1.916-1.916H52.351a1.916,1.916,0,0,1,1.916,1.916Z" transform="translate(-10.267 -22.45)" fill="#90caf9"/>
        <path id="Path_126743" data-name="Path 126743" d="M22.29,45.864v9.656a1.916,1.916,0,0,1-1.916,1.916H2.916A1.916,1.916,0,0,1,1,55.522V45.866A1.924,1.924,0,0,1,2.916,43.94H20.375a1.907,1.907,0,0,1,.951.255,1.932,1.932,0,0,1,.964,1.668Z" transform="translate(-1 -28.689)" fill="#90caf9"/>
      </g>
      <path id="Path_126744" data-name="Path 126744" d="M21.581,23.656v9.665a1.916,1.916,0,0,1-1.916,1.916H2.206a1.978,1.978,0,0,1-.951-.244A1.916,1.916,0,0,1,1,34.032V24.366A1.916,1.916,0,0,1,2.916,22.45H20.375a1.916,1.916,0,0,1,.958.255,1.936,1.936,0,0,1,.244.951Z" transform="translate(0 -6.215)" fill="#bbdefb"/>
      <path id="Path_126745" data-name="Path 126745" d="M53.557,23.656V48.574a1.916,1.916,0,0,1-1.916,1.916H34.126a1.978,1.978,0,0,1-.951-.244,1.916,1.916,0,0,1-.255-.958V24.366a1.916,1.916,0,0,1,1.916-1.916H52.351a1.916,1.916,0,0,1,.958.255,1.936,1.936,0,0,1,.244.951Z" transform="translate(-9.267 -6.215)" fill="#bbdefb"/>
      <path id="Path_126746" data-name="Path 126746" d="M21.581,45.154v9.656a1.916,1.916,0,0,1-1.916,1.915H2.206a1.977,1.977,0,0,1-.951-.244A1.916,1.916,0,0,1,1,55.522V45.866A1.924,1.924,0,0,1,2.916,43.94H20.375a1.907,1.907,0,0,1,.951.255,1.916,1.916,0,0,1,.255.958Z" transform="translate(0 -12.454)" fill="#bbdefb"/>
    </g>
  </g>
</svg>
