<svg xmlns="http://www.w3.org/2000/svg" xmlns:xlink="http://www.w3.org/1999/xlink" width="48" height="48" viewBox="0 0 48 48">
  <defs>
    <radialGradient id="radial-gradient" cx="0.329" cy="0.224" r="0.781" gradientTransform="translate(-0.01 0.01) scale(0.973 0.968)" gradientUnits="objectBoundingBox">
      <stop offset="0" stop-color="#34364e" stop-opacity="0.98"/>
      <stop offset="1" stop-color="#0c0824"/>
    </radialGradient>
    <clipPath id="clip-photoshop">
      <rect width="48" height="48"/>
    </clipPath>
  </defs>
  <g id="photoshop" clip-path="url(#clip-photoshop)">
    <g id="Group_20200" data-name="Group 20200" transform="translate(4 -126.746)">
      <path id="Path_111640" data-name="Path 111640" d="M24.8,155.549H62.28V192H24.8Z" transform="translate(-23.1 -23.1)" fill="url(#radial-gradient)"/>
      <path id="Path_111641" data-name="Path 111641" d="M1.7,132.449H39.18V168.9H1.7ZM0,170.608H40.884V130.746H0ZM27.563,147.1c-1.346,0-1.806.681-1.806,1.244,0,.613.307,1.039,2.112,1.976,2.674,1.295,3.509,2.538,3.509,4.361,0,2.726-2.078,4.191-4.889,4.191A7.411,7.411,0,0,1,23,158.138c-.119-.051-.136-.136-.136-.273v-2.5c0-.17.085-.221.2-.136a6.323,6.323,0,0,0,3.424,1.005c1.346,0,1.908-.562,1.908-1.329,0-.613-.392-1.158-2.112-2.044-2.419-1.158-3.424-2.334-3.424-4.293,0-2.2,1.721-4.02,4.7-4.02a7.833,7.833,0,0,1,3.049.477.377.377,0,0,1,.17.341V147.7c0,.136-.085.221-.256.17A5.754,5.754,0,0,0,27.563,147.1Zm-14.65,2.027c.392.034.7.034,1.38.034,1.993,0,3.867-.7,3.867-3.407,0-2.163-1.346-3.254-3.611-3.254-.681,0-1.329.034-1.635.051ZM9.88,140.081c0-.119.239-.2.375-.2,1.09-.051,2.709-.085,4.4-.085,4.719,0,6.558,2.589,6.558,5.894,0,4.327-3.134,6.184-6.984,6.184-.647,0-.869-.034-1.329-.034v6.541c0,.136-.051.2-.2.2H10.085c-.136,0-.2-.051-.2-.2v-18.3Z" fill="#31c5f0"/>
    </g>
  </g>
</svg>
