<svg xmlns="http://www.w3.org/2000/svg" width="48" height="48" viewBox="0 0 48 48">
  <g id="Group_69473" data-name="Group 69473" transform="translate(1754 -20719)">
    <rect id="Rectangle_7964" data-name="Rectangle 7964" width="48" height="48" transform="translate(-1754 20719)" fill="none"/>
    <g id="data" transform="translate(-1754 20719.004)">
      <path id="Path_126688" data-name="Path 126688" d="M184.176,417.711h13.412v5.551H184.176Zm0,0" transform="translate(-166.909 -378.55)" fill="#5a5a5a"/>
      <path id="Path_126689" data-name="Path 126689" d="M45.484,39.937H2.461A2.461,2.461,0,0,1,0,37.476V2.461A2.461,2.461,0,0,1,2.461,0H45.484a2.461,2.461,0,0,1,2.461,2.461V37.476A2.461,2.461,0,0,1,45.484,39.937Zm0,0" transform="translate(0 0.001)" fill="#ffd86e"/>
      <path id="Path_126690" data-name="Path 126690" d="M458.558,2.467V37.481a2.461,2.461,0,0,1-2.461,2.461H453.09a2.461,2.461,0,0,0,2.461-2.461V2.467A2.462,2.462,0,0,0,453.09,0H456.1a2.461,2.461,0,0,1,2.461,2.467Zm0,0" transform="translate(-410.613 -0.004)" fill="#ffb509"/>
      <path id="Path_126691" data-name="Path 126691" d="M47.945,362.754H0v3.467a2.461,2.461,0,0,0,2.461,2.461H45.484a2.461,2.461,0,0,0,2.461-2.461Zm0,0" transform="translate(0 -328.745)" fill="#838383"/>
      <path id="Path_126692" data-name="Path 126692" d="M458.558,362.75v3.467a2.461,2.461,0,0,1-2.461,2.461H453.09a2.461,2.461,0,0,0,2.461-2.461V362.75Zm0,0" transform="translate(-410.613 -328.741)" fill="#5a5a5a"/>
      <path id="Path_126693" data-name="Path 126693" d="M48.517,8.4H.57V2.461A2.461,2.461,0,0,1,3.031,0H46.055a2.461,2.461,0,0,1,2.461,2.461Zm0,0" transform="translate(-0.517 0.001)" fill="#acacac"/>
      <path id="Path_126694" data-name="Path 126694" d="M458.609,2.465V8.4h-3.067V2.465A2.461,2.461,0,0,0,453.086,0h3.067A2.461,2.461,0,0,1,458.609,2.465Zm0,0" transform="translate(-410.609 -0.004)" fill="#9c9c9c"/>
      <path id="Path_126695" data-name="Path 126695" d="M155.259,473.092h-22.1a.483.483,0,0,1-.483-.483v-1.564a1.92,1.92,0,0,1,1.92-1.92h19.229a1.92,1.92,0,0,1,1.92,1.92v1.564a.483.483,0,0,1-.483.483Zm0,0" transform="translate(-120.233 -425.148)" fill="#838383"/>
      <path id="Path_126696" data-name="Path 126696" d="M339.06,471.048v1.564a.483.483,0,0,1-.483.483h-1.7v-2.047a1.92,1.92,0,0,0-1.919-1.92h2.185A1.919,1.919,0,0,1,339.06,471.048Zm0,0" transform="translate(-303.553 -425.147)" fill="#5a5a5a"/>
      <g id="Group_69344" data-name="Group 69344" transform="translate(2.507 11.541)">
        <path id="Path_126697" data-name="Path 126697" d="M29.743,129.035a.7.7,0,0,1-.5-.205l-2.267-2.267a.7.7,0,0,1,0-.995l2.267-2.267a.7.7,0,1,1,.995.995l-1.772,1.772,1.772,1.772a.7.7,0,0,1-.5,1.2Zm0,0" transform="translate(-26.772 -123.09)" fill="#838383"/>
        <path id="Path_126698" data-name="Path 126698" d="M109.537,129.036a.7.7,0,0,1-.5-1.2l1.772-1.772-1.772-1.772a.7.7,0,1,1,.995-.995l2.267,2.267a.7.7,0,0,1,0,.995l-2.267,2.267a.7.7,0,0,1-.5.211Zm0,0" transform="translate(-101.137 -123.091)" fill="#838383"/>
        <path id="Path_126699" data-name="Path 126699" d="M71.924,129.031a.7.7,0,0,1-.655-.96l1.783-4.533a.7.7,0,1,1,1.309.515l-1.783,4.533A.7.7,0,0,1,71.924,129.031Zm0,0" transform="translate(-67.049 -123.086)" fill="#838383"/>
        <path id="Path_126700" data-name="Path 126700" d="M36.722,218.188H31.848a.7.7,0,1,1,0-1.407h4.875a.7.7,0,1,1,0,1.407Zm0,0" transform="translate(-30.731 -207.996)" fill="#838383"/>
        <path id="Path_126701" data-name="Path 126701" d="M120.766,218.188H112.2a.7.7,0,0,1,0-1.407h8.571a.7.7,0,1,1,0,1.407Zm0,0" transform="translate(-103.547 -207.996)" fill="#838383"/>
        <path id="Path_126702" data-name="Path 126702" d="M33.924,250.743H31.848a.7.7,0,1,1,0-1.407h2.077a.7.7,0,1,1,0,1.407Zm0,0" transform="translate(-30.731 -237.499)" fill="#838383"/>
        <path id="Path_126703" data-name="Path 126703" d="M176.645,250.743h-1.269a.7.7,0,1,1,0-1.407h1.265a.7.7,0,1,1,0,1.407Zm0,0" transform="translate(-160.808 -237.499)" fill="#838383"/>
        <path id="Path_126704" data-name="Path 126704" d="M87.3,250.743H81.086a.7.7,0,1,1,0-1.407H87.3a.7.7,0,1,1,0,1.407Zm0,0" transform="translate(-75.354 -237.499)" fill="#838383"/>
        <path id="Path_126705" data-name="Path 126705" d="M215.717,250.743h-2.369a.7.7,0,1,1,0-1.407h2.369a.7.7,0,0,1,0,1.407Zm0,0" transform="translate(-195.216 -237.499)" fill="#838383"/>
        <path id="Path_126706" data-name="Path 126706" d="M166.088,147.168h-2.5a.7.7,0,0,1,0-1.407h2.5a.7.7,0,1,1,0,1.407Zm0,0" transform="translate(-150.122 -143.635)" fill="#838383"/>
        <path id="Path_126707" data-name="Path 126707" d="M235.335,147.168H220.09a.7.7,0,0,1,0-1.407h15.245a.7.7,0,0,1,0,1.407Zm0,0" transform="translate(-201.326 -143.635)" fill="#838383"/>
        <path id="Path_126708" data-name="Path 126708" d="M298.311,181.133h-6.175a.7.7,0,0,1,0-1.407h6.175a.7.7,0,0,1,0,1.407Zm0,0" transform="translate(-266.619 -174.416)" fill="#838383"/>
        <path id="Path_126709" data-name="Path 126709" d="M246.911,181.133h-2.123a.7.7,0,0,1,0-1.407h2.123a.7.7,0,1,1,0,1.407Zm0,0" transform="translate(-223.709 -174.416)" fill="#838383"/>
        <path id="Path_126710" data-name="Path 126710" d="M168.787,181.133h-5.2a.7.7,0,1,1,0-1.407h5.2a.7.7,0,1,1,0,1.407Zm0,0" transform="translate(-150.119 -174.416)" fill="#838383"/>
        <path id="Path_126711" data-name="Path 126711" d="M100.316,283.028H95.442a.7.7,0,0,1,0-1.407h4.875a.7.7,0,1,1,0,1.407Zm0,0" transform="translate(-88.364 -266.758)" fill="#838383"/>
        <path id="Path_126712" data-name="Path 126712" d="M35.593,283.028H31.848a.7.7,0,1,1,0-1.407h3.745a.7.7,0,1,1,0,1.407Zm0,0" transform="translate(-30.731 -266.758)" fill="#838383"/>
        <path id="Path_126713" data-name="Path 126713" d="M180.147,283.028h-6.371a.7.7,0,1,1,0-1.407h6.368a.7.7,0,1,1,0,1.407Zm0,0" transform="translate(-159.356 -266.758)" fill="#838383"/>
      </g>
      <path id="Path_126714" data-name="Path 126714" d="M296.664,263.391h15.671V268.7H296.664Zm0,0" transform="translate(-268.852 -238.696)" fill="#64dcfc"/>
      <path id="Path_126715" data-name="Path 126715" d="M296.664,350.871h15.671v4.921H296.664Zm0,0" transform="translate(-268.852 -317.975)" fill="#64dcfc"/>
      <path id="Path_126716" data-name="Path 126716" d="M444.051,263.391H445.9V268.7h-1.853Zm0,0" transform="translate(-402.42 -238.696)" fill="#00d1fc"/>
      <path id="Path_126717" data-name="Path 126717" d="M444.051,350.871H445.9v4.921h-1.853Zm0,0" transform="translate(-402.42 -317.975)" fill="#00d1fc"/>
      <path id="Path_126718" data-name="Path 126718" d="M294.329,228.166H276.062a.7.7,0,0,1-.7-.7v-3.517a.7.7,0,0,1,.7-.7h18.267a.7.7,0,0,1,.7.7v3.517a.7.7,0,0,1-.7.7Zm0,0" transform="translate(-249.549 -202.32)" fill="#0396fd"/>
      <path id="Path_126719" data-name="Path 126719" d="M294.329,312.286H276.062a.7.7,0,0,1-.7-.7v-3.511a.7.7,0,0,1,.7-.7h18.267a.7.7,0,0,1,.7.7v3.517a.7.7,0,0,1-.7.693Zm0,0" transform="translate(-249.549 -278.552)" fill="#0396fd"/>
      <path id="Path_126720" data-name="Path 126720" d="M294.329,396.408H276.062a.7.7,0,0,1-.7-.7v-3.517a.7.7,0,0,1,.7-.7h18.267a.7.7,0,0,1,.7.7v3.517a.7.7,0,0,1-.7.7Zm0,0" transform="translate(-249.549 -354.788)" fill="#0396fd"/>
      <path id="Path_126721" data-name="Path 126721" d="M462.667,223.95v3.517a.7.7,0,0,1-.7.7h-1.623a.7.7,0,0,0,.7-.7V223.95a.7.7,0,0,0-.7-.7h1.623A.7.7,0,0,1,462.667,223.95Zm0,0" transform="translate(-417.187 -202.319)" fill="#0077f0"/>
      <path id="Path_126722" data-name="Path 126722" d="M462.667,308.067v3.517a.7.7,0,0,1-.7.7h-1.623a.7.7,0,0,0,.7-.7v-3.517a.7.7,0,0,0-.7-.7h1.623A.7.7,0,0,1,462.667,308.067Zm0,0" transform="translate(-417.187 -278.55)" fill="#0077f0"/>
      <path id="Path_126723" data-name="Path 126723" d="M462.667,392.2v3.517a.7.7,0,0,1-.7.7h-1.623a.7.7,0,0,0,.7-.7V392.2a.7.7,0,0,0-.7-.7h1.623a.7.7,0,0,1,.7.7Zm0,0" transform="translate(-417.187 -354.792)" fill="#0077f0"/>
      <path id="Path_126724" data-name="Path 126724" d="M299.9,243.375h-3.483a.7.7,0,1,1,0-1.407H299.9a.7.7,0,0,1,0,1.407Zm0,0" transform="translate(-267.995 -219.283)" fill="#e7e7e7"/>
      <path id="Path_126725" data-name="Path 126725" d="M402.94,243.375h-4.916a.7.7,0,1,1,0-1.407h4.916a.7.7,0,1,1,0,1.407Zm0,0" transform="translate(-360.072 -219.283)" fill="#e7e7e7"/>
      <path id="Path_126726" data-name="Path 126726" d="M360.913,243.375h-1.127a.7.7,0,0,1,0-1.407h1.127a.7.7,0,0,1,0,1.407Zm0,0" transform="translate(-325.418 -219.283)" fill="#e7e7e7"/>
      <path id="Path_126727" data-name="Path 126727" d="M299.9,327.5h-3.483a.7.7,0,1,1,0-1.407H299.9a.7.7,0,0,1,0,1.407Zm0,0" transform="translate(-267.995 -295.518)" fill="#e7e7e7"/>
      <path id="Path_126728" data-name="Path 126728" d="M402.94,327.5h-4.916a.7.7,0,1,1,0-1.407h4.916a.7.7,0,1,1,0,1.407Zm0,0" transform="translate(-360.072 -295.518)" fill="#e7e7e7"/>
      <path id="Path_126729" data-name="Path 126729" d="M360.913,327.5h-1.127a.7.7,0,0,1,0-1.407h1.127a.7.7,0,0,1,0,1.407Zm0,0" transform="translate(-325.418 -295.518)" fill="#e7e7e7"/>
      <path id="Path_126730" data-name="Path 126730" d="M299.9,411.618h-3.483a.7.7,0,1,1,0-1.407H299.9a.7.7,0,0,1,0,1.407Zm0,0" transform="translate(-267.995 -371.752)" fill="#e7e7e7"/>
      <path id="Path_126731" data-name="Path 126731" d="M402.94,411.618h-4.916a.7.7,0,1,1,0-1.407h4.916a.7.7,0,1,1,0,1.407Zm0,0" transform="translate(-360.072 -371.752)" fill="#e7e7e7"/>
      <path id="Path_126732" data-name="Path 126732" d="M360.913,411.618h-1.127a.7.7,0,1,1,0-1.407h1.127a.7.7,0,1,1,0,1.407Zm0,0" transform="translate(-325.418 -371.752)" fill="#e7e7e7"/>
      <path id="Path_126733" data-name="Path 126733" d="M37.074,31.029a1.4,1.4,0,1,1-1.4-1.4A1.4,1.4,0,0,1,37.074,31.029Zm0,0" transform="translate(-31.061 -26.85)" fill="#ff5770"/>
      <path id="Path_126734" data-name="Path 126734" d="M94.749,31.029a1.4,1.4,0,1,1-1.4-1.4,1.4,1.4,0,0,1,1.4,1.4Zm0,0" transform="translate(-83.329 -26.85)" fill="#ffd86e"/>
      <path id="Path_126735" data-name="Path 126735" d="M152.425,31.029a1.4,1.4,0,1,1-1.4-1.4A1.4,1.4,0,0,1,152.425,31.029Zm0,0" transform="translate(-135.597 -26.85)" fill="#80e0dc"/>
      <path id="Path_126736" data-name="Path 126736" d="M41.275,31.033a1.4,1.4,0,0,1-2.365,1.012,1.4,1.4,0,0,0,.933-2.411h.033a1.4,1.4,0,0,1,1.4,1.4Zm0,0" transform="translate(-35.262 -26.853)" fill="#ff435f"/>
      <path id="Path_126737" data-name="Path 126737" d="M98.943,31.033a1.4,1.4,0,0,1-2.365,1.012,1.4,1.4,0,0,0,.933-2.411h.029a1.4,1.4,0,0,1,1.4,1.4Zm0,0" transform="translate(-87.523 -26.853)" fill="#ffb509"/>
      <path id="Path_126738" data-name="Path 126738" d="M156.62,31.033a1.4,1.4,0,0,1-2.367,1.012,1.4,1.4,0,0,0,.933-2.411h.033A1.4,1.4,0,0,1,156.62,31.033Zm0,0" transform="translate(-139.793 -26.853)" fill="#00a8b0"/>
    </g>
  </g>
</svg>
