<svg xmlns="http://www.w3.org/2000/svg" width="48" height="48" viewBox="0 0 48 48">
  <g id="Group_69479" data-name="Group 69479" transform="translate(1754 -20719)">
    <rect id="Rectangle_7964" data-name="Rectangle 7964" width="48" height="48" transform="translate(-1754 20719)" fill="none"/>
    <g id="programming" transform="translate(-1755.663 20718.236)">
      <path id="Path_126747" data-name="Path 126747" d="M48.381,8.767H29.3V6.615a.367.367,0,1,0-.733,0V8.766H9.487a1.825,1.825,0,0,0-1.824,1.824V45.484a1.825,1.825,0,0,0,1.824,1.824H28.569v2.149a.367.367,0,0,0,.733,0V47.3H48.381A1.825,1.825,0,0,0,50.2,45.484V10.589A1.825,1.825,0,0,0,48.381,8.767Z" transform="translate(-2.542 -2.542)" fill="#e6e7e8"/>
      <path id="Path_126748" data-name="Path 126748" d="M4.663,26.163H46.475V56.677a1.458,1.458,0,0,1-1.458,1.458H6.121a1.458,1.458,0,0,1-1.458-1.458Z" transform="translate(-0.636 -15.193)" fill="#d4fbff"/>
      <path id="Path_126749" data-name="Path 126749" d="M62,58.135H81.448a1.458,1.458,0,0,0,1.458-1.458V26.163H62Z" transform="translate(-37.067 -15.193)" fill="#ffd7e5"/>
      <path id="Path_126750" data-name="Path 126750" d="M4.663,11.609v4.379H46.475V11.609a1.458,1.458,0,0,0-1.458-1.458H6.121A1.458,1.458,0,0,0,4.663,11.609Z" transform="translate(-0.636 -5.02)" fill="#0089ef"/>
      <path id="Path_126751" data-name="Path 126751" d="M81.448,10.151H62V15.99H82.906v-4.38A1.458,1.458,0,0,0,81.448,10.151Z" transform="translate(-37.067 -5.02)" fill="#fa759e"/>
      <path id="Path_126752" data-name="Path 126752" d="M45.017,10.151H6.121a1.458,1.458,0,0,0-1.458,1.458V12.7a1.458,1.458,0,0,1,1.458-1.458h38.9A1.458,1.458,0,0,1,46.475,12.7V11.609A1.458,1.458,0,0,0,45.017,10.151Z" transform="translate(-0.636 -5.02)" fill="#fff"/>
      <circle id="Ellipse_4479" data-name="Ellipse 4479" cx="1.188" cy="1.188" r="1.188" transform="translate(15.827 7.017)" fill="#fff"/>
      <circle id="Ellipse_4480" data-name="Ellipse 4480" cx="1.188" cy="1.188" r="1.188" transform="translate(11.513 7.017)" fill="#d4fbff"/>
      <circle id="Ellipse_4481" data-name="Ellipse 4481" cx="1.188" cy="1.188" r="1.188" transform="translate(7.199 7.017)" fill="#fa759e"/>
      <path id="Path_126753" data-name="Path 126753" d="M37.86,59.233H35.377a.367.367,0,1,1,0-.733h2.482a.367.367,0,0,1,0,.733Z" transform="translate(-19.919 -35.739)" fill="#fa759e"/>
      <path id="Path_126754" data-name="Path 126754" d="M18.683,59.233H12.544a.367.367,0,1,1,0-.733h6.139a.367.367,0,0,1,0,.733Z" transform="translate(-5.411 -35.739)" fill="#fa759e"/>
      <path id="Path_126755" data-name="Path 126755" d="M35.636,80.233h-3.76a.367.367,0,0,1,0-.733h3.758a.367.367,0,0,1,0,.733Z" transform="translate(-17.695 -49.082)" fill="#fa759e"/>
      <path id="Path_126756" data-name="Path 126756" d="M18.135,80.233H12.544a.367.367,0,1,1,0-.733h5.59a.367.367,0,0,1,0,.733Z" transform="translate(-5.411 -49.082)" fill="#fa759e"/>
      <path id="Path_126757" data-name="Path 126757" d="M35.636,101.233h-3.76a.367.367,0,0,1,0-.733h3.758a.367.367,0,0,1,0,.733Z" transform="translate(-17.695 -62.426)" fill="#fa759e"/>
      <path id="Path_126758" data-name="Path 126758" d="M18.135,101.233H12.544a.367.367,0,0,1,0-.733h5.59a.367.367,0,0,1,0,.733Z" transform="translate(-5.411 -62.426)" fill="#fa759e"/>
      <rect id="Rectangle_7956" data-name="Rectangle 7956" width="7.146" height="15.297" rx="2" transform="translate(42.791 14.326) rotate(90)" fill="#6dc9f7"/>
      <rect id="Rectangle_7957" data-name="Rectangle 7957" width="10.507" height="15.297" rx="2" transform="translate(42.791 23.45) rotate(90)" fill="#d4fbff"/>
      <g id="Group_69346" data-name="Group 69346" transform="translate(3.663 2.248)">
        <path id="Path_126759" data-name="Path 126759" d="M15.8,43.542a.456.456,0,0,0,.337-.136.467.467,0,0,0,.136-.346.4.4,0,0,0-.066-.224.413.413,0,0,0-.188-.153l-2.861-1.146,2.861-1.146a.387.387,0,0,0,.255-.376.462.462,0,0,0-.131-.341.451.451,0,0,0-.332-.131.676.676,0,0,0-.255.053l-3.089,1.26a.716.716,0,0,0-.341.271.726.726,0,0,0-.122.412.719.719,0,0,0,.122.416.783.783,0,0,0,.341.276l3.089,1.26a.662.662,0,0,0,.244.053Z" transform="translate(-8.965 -25.942)" fill="#3a2c60"/>
        <path id="Path_126760" data-name="Path 126760" d="M25.36,40.924a.528.528,0,0,0,.3-.092.477.477,0,0,0,.188-.276l2.013-6.3a.7.7,0,0,0,.026-.182.438.438,0,0,0-.158-.346.546.546,0,0,0-.367-.136.508.508,0,0,0-.489.367l-2.006,6.3a.683.683,0,0,0-.026.182.438.438,0,0,0,.158.346.537.537,0,0,0,.358.137Z" transform="translate(-17.12 -22.163)" fill="#3a2c60"/>
        <path id="Path_126761" data-name="Path 126761" d="M34.413,42.837a.4.4,0,0,0-.066.224.467.467,0,0,0,.136.346.455.455,0,0,0,.336.136.661.661,0,0,0,.244-.053l3.09-1.26a.786.786,0,0,0,.341-.276.717.717,0,0,0,.122-.416.726.726,0,0,0-.122-.412.719.719,0,0,0-.341-.271l-3.09-1.26a.672.672,0,0,0-.255-.053.451.451,0,0,0-.332.131.462.462,0,0,0-.131.341.387.387,0,0,0,.255.376l2.864,1.146L34.6,42.683a.409.409,0,0,0-.189.154Z" transform="translate(-23.158 -25.942)" fill="#3a2c60"/>
        <path id="Path_126762" data-name="Path 126762" d="M118.7,41.979a.367.367,0,0,0-.367.367v3.107a.367.367,0,0,0,.733,0V42.343A.367.367,0,0,0,118.7,41.979Z" transform="translate(-76.525 -27.491)" fill="#3a2c60"/>
        <path id="Path_126763" data-name="Path 126763" d="M44.381,4.767H25.3V2.615a.367.367,0,0,0-.733,0V4.766H5.487A1.825,1.825,0,0,0,3.663,6.589V41.484a1.825,1.825,0,0,0,1.824,1.824H24.569v2.149a.367.367,0,0,0,.733,0V43.3H44.381A1.825,1.825,0,0,0,46.2,41.484V21.728a.367.367,0,1,0-.733,0V41.483a1.1,1.1,0,0,1-1.094,1.094H25.3V11.334H45.475v4.149a.367.367,0,1,0,.733,0V6.589a1.825,1.825,0,0,0-1.827-1.822ZM4.393,6.589A1.1,1.1,0,0,1,5.487,5.5H24.569V10.6H4.393ZM5.487,42.578a1.1,1.1,0,0,1-1.094-1.094V11.334H24.569V25.313h-3.46a.367.367,0,0,0,0,.733h3.46v1.824H9.685a.367.367,0,0,0,0,.733H24.569v4.376H17.463a.367.367,0,1,0,0,.733h7.106v1.824H19.68a.367.367,0,1,0,0,.733h4.889v6.326ZM25.3,10.606V5.5H44.381a1.1,1.1,0,0,1,1.094,1.094v4.016Z" transform="translate(-3.663 -2.248)" fill="#3a2c60"/>
        <path id="Path_126764" data-name="Path 126764" d="M28.72,65.5H19.544a.367.367,0,0,0,0,.733H28.72a.367.367,0,1,0,0-.733Z" transform="translate(-13.522 -42.435)" fill="#3a2c60"/>
        <path id="Path_126765" data-name="Path 126765" d="M19.544,87.233h5.528a.367.367,0,0,0,0-.733H19.544a.367.367,0,0,0,0,.733Z" transform="translate(-13.522 -55.778)" fill="#3a2c60"/>
        <path id="Path_126766" data-name="Path 126766" d="M27.687,93.5H19.544a.367.367,0,0,0,0,.733h8.144a.367.367,0,1,0,0-.733Z" transform="translate(-13.522 -60.226)" fill="#3a2c60"/>
        <path id="Path_126767" data-name="Path 126767" d="M84.05,35.462a1.1,1.1,0,0,0-1.094-1.094H69.118a1.1,1.1,0,0,0-1.094,1.094V41.15a1.1,1.1,0,0,0,1.094,1.094H82.956A1.1,1.1,0,0,0,84.05,41.15Zm-.733,5.688a.367.367,0,0,1-.367.367H69.118a.367.367,0,0,1-.367-.367V35.462a.367.367,0,0,1,.367-.367H82.956a.367.367,0,0,1,.367.367Z" transform="translate(-44.557 -22.654)" fill="#3a2c60"/>
        <path id="Path_126768" data-name="Path 126768" d="M84.05,69.534V60.49A1.1,1.1,0,0,0,82.956,59.4H69.118a1.1,1.1,0,0,0-1.094,1.094v9.044a1.1,1.1,0,0,0,1.094,1.094H82.956a1.1,1.1,0,0,0,1.094-1.094ZM69.118,60.123H82.956a.367.367,0,0,1,.367.367v5.584l-1.969-1.409a.367.367,0,0,0-.442.013l-2.029,1.644-5.121-3.782a.367.367,0,0,0-.438,0l-4.57,3.5V60.486a.367.367,0,0,1,.367-.367ZM82.956,69.9H69.118a.367.367,0,0,1-.367-.367V66.968l4.8-3.674,5.133,3.789a.367.367,0,0,0,.446-.01l2.033-1.648,2.166,1.552v2.567a.367.367,0,0,1-.367.367Z" transform="translate(-44.557 -38.555)" fill="#3a2c60"/>
        <path id="Path_126769" data-name="Path 126769" d="M94.39,66.864a1.64,1.64,0,1,0-1.64-1.64A1.64,1.64,0,0,0,94.39,66.864Zm0-2.552a.912.912,0,1,1-.912.912A.912.912,0,0,1,94.39,64.312Z" transform="translate(-60.267 -41.217)" fill="#3a2c60"/>
        <path id="Path_126770" data-name="Path 126770" d="M84.142,95.2H70.075a.367.367,0,0,0,0,.733H84.142a.367.367,0,1,0,0-.733Z" transform="translate(-45.629 -61.307)" fill="#3a2c60"/>
        <path id="Path_126771" data-name="Path 126771" d="M84.142,103.632H70.075a.367.367,0,0,0,0,.733H84.142a.367.367,0,1,0,0-.733Z" transform="translate(-45.629 -66.663)" fill="#3a2c60"/>
      </g>
    </g>
  </g>
</svg>
