<svg data-name="Group 69184" xmlns="http://www.w3.org/2000/svg" width="60" height="53.383" viewBox="0 0 60 53.383">
    <path data-name="Subtraction 5" d="M42.18 53.383c-2.95 0-6.66-1.8-10.447-5.055-.555-.479-1.1-.977-1.622-1.48-.437.422-.859.81-1.253 1.154-3.895 3.4-7.915 5.357-11.029 5.358a5.657 5.657 0 0 1-2.863-.7c-1.515-.874-2.574-2.611-3.062-5.024A23.092 23.092 0 0 1 12.123 39c.135-.712.294-1.433.471-2.143a35.16 35.16 0 0 1-1.622-.506A23.941 23.941 0 0 1 3 32.042c-1.966-1.724-3-3.591-3-5.4 0-1.749.976-3.534 2.822-5.163a23.1 23.1 0 0 1 7.587-4.123 40.86 40.86 0 0 1 2.22-.7 40.85 40.85 0 0 1-.443-1.987 23.952 23.952 0 0 1-.3-8.8c.471-2.469 1.52-4.233 3.037-5.111a5.554 5.554 0 0 1 2.82-.7 12.109 12.109 0 0 1 5.305 1.472 28.211 28.211 0 0 1 5.985 4.178c.332.295.666.6.994.918.49-.471.993-.933 1.494-1.37C35.416 1.867 39.209 0 42.2 0a5.411 5.411 0 0 1 2.74.679c1.586.915 2.676 2.78 3.152 5.393a25.17 25.17 0 0 1-.393 9.3 35 35 0 0 1-.3 1.317c.652.188 1.3.393 1.932.609a23.953 23.953 0 0 1 7.769 4.155c1.9 1.641 2.9 3.435 2.9 5.188 0 1.831-1.071 3.707-3.1 5.424a25.176 25.176 0 0 1-8.257 4.307c-.345.114-.72.232-1.115.348.139.557.259 1.1.359 1.6a23.936 23.936 0 0 1 .264 9.053c-.507 2.565-1.6 4.4-3.169 5.306a5.521 5.521 0 0 1-2.802.704zm2.871-16.012a59.911 59.911 0 0 1-8.127 1.253A60.2 60.2 0 0 1 31.9 45.01c.5.485 1.013.948 1.509 1.375 3.231 2.78 6.506 4.44 8.761 4.44a3.034 3.034 0 0 0 1.535-.359c.92-.532 1.618-1.854 1.965-3.724a21.673 21.673 0 0 0-.288-7.919 29.87 29.87 0 0 0-.325-1.451zm-29.972.115a36.524 36.524 0 0 0-.438 1.992c-1.027 5.408-.382 9.811 1.606 10.957a3.155 3.155 0 0 0 1.585.36 8.026 8.026 0 0 0 2.623-.518 21.667 21.667 0 0 0 6.717-4.2c.4-.352.785-.706 1.143-1.053a62.4 62.4 0 0 1-5.15-6.364 60.393 60.393 0 0 1-8.086-1.174zm11.41 1.369a58.89 58.89 0 0 0 3.61 4.321 54.633 54.633 0 0 0 3.522-4.333 82.068 82.068 0 0 1-3.622.081 90.89 90.89 0 0 1-3.51-.068zm-4.861-16.989a73.535 73.535 0 0 0-2.552 4.836 72.458 72.458 0 0 0 5.491 9.486c1.757.114 3.585.172 5.432.172s3.706-.065 5.5-.193c1-1.506 1.971-3.069 2.878-4.644s1.776-3.208 2.578-4.857c-.808-1.629-1.678-3.249-2.586-4.814s-1.882-3.125-2.892-4.616c-1.8-.137-3.642-.207-5.473-.207s-3.664.069-5.464.2a73.58 73.58 0 0 0-2.909 4.632zm-3.912 7.85a57.307 57.307 0 0 0-1.945 5.3 54.625 54.625 0 0 0 5.53.889 75.06 75.06 0 0 1-3.584-6.181zm24.618-.092c-.554 1.067-1.14 2.137-1.74 3.179s-1.213 2.056-1.842 3.052a54.378 54.378 0 0 0 5.6-.954 54.261 54.261 0 0 0-2.014-5.278zm-29.015-10.5c-.693.2-1.388.415-2.066.65-5.2 1.812-8.69 4.571-8.69 6.866 0 1.063.8 2.329 2.24 3.566a21.677 21.677 0 0 0 7 3.718c.486.165.984.321 1.481.463a62.424 62.424 0 0 1 2.958-7.687 61.425 61.425 0 0 1-2.924-7.578zm33.4.038a60.03 60.03 0 0 1-2.92 7.491 60.086 60.086 0 0 1 3.039 7.6 37.95 37.95 0 0 0 1.008-.315c5.65-1.873 9.6-4.874 9.6-7.3 0-1.077-.848-2.341-2.387-3.558a22.607 22.607 0 0 0-6.559-3.354 38.293 38.293 0 0 0-1.784-.563zm-7.956-1.6a84.148 84.148 0 0 1 3.551 6.123 54.858 54.858 0 0 0 1.92-5.167 59.1 59.1 0 0 0-5.476-.951zm-17.512 0c-1.9.237-3.73.551-5.44.934a56.577 56.577 0 0 0 1.907 5.192 78.474 78.474 0 0 1 3.528-6.125zM42.185 2.557c-2.292 0-5.649 1.732-8.981 4.632-.462.4-.926.828-1.38 1.265a60.025 60.025 0 0 1 5.072 6.33 61.2 61.2 0 0 1 8.022 1.267c.094-.384.185-.785.269-1.193 1.2-5.83.573-10.748-1.528-11.959a2.926 2.926 0 0 0-1.474-.342zm-24.424.057a3.074 3.074 0 0 0-1.554.362c-.932.539-1.6 1.906-1.882 3.848a22.611 22.611 0 0 0 .377 7.352c.121.617.259 1.239.412 1.848a62.582 62.582 0 0 1 8.006-1.244 61.405 61.405 0 0 1 5.111-6.325c-.3-.285-.6-.565-.9-.832-3.531-3.136-7.111-5.009-9.57-5.009zm12.245 11.852c1.18 0 2.376.028 3.553.084a54.91 54.91 0 0 0-3.531-4.262 55.345 55.345 0 0 0-3.561 4.261 75.41 75.41 0 0 1 3.539-.083z" style="fill:#53c1de"/>
    <path data-name="Path 111218" d="M113.4 94.665a5.358 5.358 0 1 1-5.358 5.358 5.358 5.358 0 0 1 5.358-5.358" transform="translate(-83.402 -73.382)" style="fill:#53c1de"/>
</svg>
