<svg xmlns="http://www.w3.org/2000/svg" xmlns:xlink="http://www.w3.org/1999/xlink" width="48" height="48" viewBox="0 0 48 48">
  <defs>
    <clipPath id="clip-react_native">
      <rect width="48" height="48"/>
    </clipPath>
  </defs>
  <g id="react_native" data-name="react native" clip-path="url(#clip-react_native)">
    <g id="Group_19994" data-name="Group 19994" transform="translate(3 6)">
      <path id="Subtraction_5" data-name="Subtraction 5" d="M29.1,36.833h0c-2.035,0-4.6-1.239-7.209-3.488-.383-.33-.76-.674-1.119-1.021-.3.291-.593.559-.864.8-2.687,2.349-5.461,3.7-7.61,3.7a3.9,3.9,0,0,1-1.975-.486,4.92,4.92,0,0,1-2.113-3.467,15.933,15.933,0,0,1,.151-5.956c.093-.492.2-.989.325-1.478-.382-.109-.758-.227-1.119-.349a16.519,16.519,0,0,1-5.5-2.973A5.169,5.169,0,0,1,0,18.382,4.919,4.919,0,0,1,1.947,14.82a15.937,15.937,0,0,1,5.235-2.845c.476-.166.991-.328,1.532-.482-.116-.463-.218-.925-.305-1.371A16.527,16.527,0,0,1,8.2,4.05,4.92,4.92,0,0,1,10.3.523,3.832,3.832,0,0,1,12.243.041,8.355,8.355,0,0,1,15.9,1.056a19.465,19.465,0,0,1,4.129,2.882c.229.2.46.416.686.633.338-.325.685-.643,1.031-.946C24.437,1.288,27.053,0,29.118,0a3.733,3.733,0,0,1,1.89.469A5.123,5.123,0,0,1,33.183,4.19a17.367,17.367,0,0,1-.271,6.42c-.063.3-.133.61-.206.908.45.129.9.271,1.333.42A16.527,16.527,0,0,1,39.4,14.8a4.922,4.922,0,0,1,2,3.58,5.123,5.123,0,0,1-2.137,3.742,17.371,17.371,0,0,1-5.7,2.972c-.238.079-.5.16-.77.24.1.384.179.757.248,1.107a16.515,16.515,0,0,1,.182,6.246,5.168,5.168,0,0,1-2.186,3.661A3.809,3.809,0,0,1,29.1,36.833Zm1.981-11.048a41.338,41.338,0,0,1-5.607.864,41.537,41.537,0,0,1-3.47,4.406c.348.335.7.654,1.041.949,2.229,1.918,4.489,3.064,6.045,3.064a2.093,2.093,0,0,0,1.059-.248,3.662,3.662,0,0,0,1.356-2.57,14.954,14.954,0,0,0-.2-5.464c-.064-.322-.14-.659-.224-1Zm-20.68.079c-.113.455-.215.917-.3,1.374-.709,3.731-.263,6.77,1.108,7.56a2.177,2.177,0,0,0,1.094.248,5.538,5.538,0,0,0,1.81-.358,14.95,14.95,0,0,0,4.634-2.9c.277-.243.542-.487.789-.726a43.054,43.054,0,0,1-3.554-4.391A41.67,41.67,0,0,1,10.4,25.865Zm7.873.944h0c.814,1.073,1.653,2.076,2.491,2.981A37.7,37.7,0,0,0,23.2,26.8c-.839.037-1.68.056-2.5.056s-1.622-.016-2.422-.047ZM14.923,15.087c-.625,1.084-1.218,2.207-1.761,3.337.543,1.127,1.137,2.25,1.766,3.336s1.312,2.171,2.023,3.21c1.213.078,2.474.118,3.748.118s2.557-.045,3.792-.133c.692-1.039,1.36-2.117,1.986-3.2S27.7,19.537,28.256,18.4c-.558-1.124-1.158-2.242-1.785-3.322s-1.3-2.156-2-3.185c-1.242-.094-2.513-.143-3.776-.143s-2.528.048-3.77.141c-.705,1.034-1.381,2.109-2.007,3.2Zm-2.7,5.417c-.525,1.246-.977,2.475-1.342,3.655a37.691,37.691,0,0,0,3.816.613c-.449-.7-.887-1.412-1.3-2.126s-.8-1.425-1.174-2.142h0Zm16.986-.063h0c-.382.736-.786,1.474-1.2,2.194s-.837,1.419-1.271,2.106a37.52,37.52,0,0,0,3.862-.658,37.439,37.439,0,0,0-1.39-3.642ZM9.189,13.2c-.478.135-.958.286-1.425.449-3.586,1.25-6,3.154-6,4.737a3.666,3.666,0,0,0,1.545,2.461,14.956,14.956,0,0,0,4.828,2.565c.335.114.679.221,1.022.32a43.071,43.071,0,0,1,2.043-5.3A42.382,42.382,0,0,1,9.189,13.2Zm23.043.026h0a41.419,41.419,0,0,1-2.015,5.168,41.459,41.459,0,0,1,2.1,5.245c.252-.075.479-.146.7-.217,3.9-1.292,6.621-3.363,6.621-5.036a3.578,3.578,0,0,0-1.647-2.455,15.6,15.6,0,0,0-4.521-2.317c-.387-.133-.8-.264-1.231-.389Zm-5.489-1.1c.435.683.859,1.379,1.259,2.07.411.711.812,1.436,1.191,2.154a37.851,37.851,0,0,0,1.325-3.565C29.328,12.509,28.057,12.287,26.742,12.121Zm-12.083,0c-1.311.163-2.574.38-3.753.644.359,1.159.8,2.364,1.315,3.582.372-.722.765-1.442,1.168-2.141S14.226,12.794,14.659,12.118ZM29.107,1.764c-1.581,0-3.9,1.195-6.2,3.2-.319.278-.639.572-.952.873a41.416,41.416,0,0,1,3.5,4.368,42.229,42.229,0,0,1,5.535.874c.065-.265.128-.542.186-.823.829-4.023.4-7.416-1.054-8.252A2.019,2.019,0,0,0,29.107,1.764ZM12.255,1.8a2.121,2.121,0,0,0-1.072.25,3.577,3.577,0,0,0-1.3,2.655,15.6,15.6,0,0,0,.26,5.073c.083.426.179.855.284,1.275a43.181,43.181,0,0,1,5.524-.858,42.369,42.369,0,0,1,3.526-4.364c-.205-.2-.414-.39-.621-.574C16.42,3.1,13.951,1.8,12.255,1.8ZM20.7,9.981c.814,0,1.639.019,2.452.058A37.887,37.887,0,0,0,20.719,7.1c-.826.892-1.653,1.881-2.457,2.94C19.08,10,19.9,9.981,20.7,9.981Z" transform="translate(0 0)" fill="#3880ff"/>
      <path id="Path_111218" data-name="Path 111218" d="M111.741,94.665a3.7,3.7,0,1,1-3.7,3.7,3.7,3.7,0,0,1,3.7-3.7" transform="translate(-91.041 -79.98)" fill="#3880ff"/>
    </g>
  </g>
</svg>
