<svg id="aim" xmlns="http://www.w3.org/2000/svg" width="180" height="180" viewBox="0 0 180 180">
  <g id="Group_20184" data-name="Group 20184" transform="translate(15 15)">
    <path id="Path_114380" data-name="Path 114380" d="M77,152a75,75,0,1,1,75-75A75.221,75.221,0,0,1,77,152ZM77,9.5A67.5,67.5,0,1,0,144.5,77,67.219,67.219,0,0,0,77,9.5Z" transform="translate(-2 -2)"/>
  </g>
  <g id="Group_20185" data-name="Group 20185" transform="translate(86.25)">
    <path id="Path_114381" data-name="Path 114381" d="M15.25,37.5a3.543,3.543,0,0,1-3.75-3.75v-30A3.543,3.543,0,0,1,15.25,0,3.543,3.543,0,0,1,19,3.75v30A3.543,3.543,0,0,1,15.25,37.5Z" transform="translate(-11.5)"/>
  </g>
  <g id="Group_20186" data-name="Group 20186" transform="translate(86.25)">
    <path id="Path_114382" data-name="Path 114382" d="M15.25,37.5a3.543,3.543,0,0,1-3.75-3.75v-30A3.543,3.543,0,0,1,15.25,0,3.543,3.543,0,0,1,19,3.75v30A3.543,3.543,0,0,1,15.25,37.5Z" transform="translate(-11.5)"/>
  </g>
  <g id="Group_20187" data-name="Group 20187" transform="translate(142.5 86.25)">
    <path id="Path_114383" data-name="Path 114383" d="M52.75,19h-30A3.543,3.543,0,0,1,19,15.25a3.543,3.543,0,0,1,3.75-3.75h30a3.543,3.543,0,0,1,3.75,3.75A3.543,3.543,0,0,1,52.75,19Z" transform="translate(-19 -11.5)"/>
  </g>
  <g id="Group_20188" data-name="Group 20188" transform="translate(86.25 142.5)">
    <path id="Path_114384" data-name="Path 114384" d="M15.25,56.5a3.543,3.543,0,0,1-3.75-3.75v-30A3.543,3.543,0,0,1,15.25,19,3.543,3.543,0,0,1,19,22.75v30A3.543,3.543,0,0,1,15.25,56.5Z" transform="translate(-11.5 -19)"/>
  </g>
  <g id="Group_20189" data-name="Group 20189" transform="translate(0 86.25)">
    <path id="Path_114385" data-name="Path 114385" d="M33.75,19h-30A3.543,3.543,0,0,1,0,15.25,3.543,3.543,0,0,1,3.75,11.5h30a3.543,3.543,0,0,1,3.75,3.75A3.543,3.543,0,0,1,33.75,19Z" transform="translate(0 -11.5)"/>
  </g>
  <g id="Group_20190" data-name="Group 20190" transform="translate(67.5 67.5)">
    <path id="Path_114386" data-name="Path 114386" d="M31.5,54A22.1,22.1,0,0,1,9,31.5,22.1,22.1,0,0,1,31.5,9,22.1,22.1,0,0,1,54,31.5,22.1,22.1,0,0,1,31.5,54Zm0-37.5a15,15,0,1,0,15,15A15.044,15.044,0,0,0,31.5,16.5Z" transform="translate(-9 -9)"/>
  </g>
</svg>
