<svg xmlns="http://www.w3.org/2000/svg" width="104.346" height="134" viewBox="0 0 104.346 134">
    <g>
        <path d="M103.073 27.131L52.71.3a2.5 2.5 0 0 0-2.384.014L1.356 27.145a2.507 2.507 0 0 0-1.3 2.2V64.4a72.583 72.583 0 0 0 43.5 66.43l6.8 2.962a2.5 2.5 0 0 0 2 0l7.659-3.308A72.441 72.441 0 0 0 104.4 63.7V29.345a2.508 2.508 0 0 0-1.327-2.214zM99.386 63.7a67.438 67.438 0 0 1-41.338 62.169l-.017.008-6.67 2.879-5.8-2.528A67.562 67.562 0 0 1 5.068 64.4V30.829L51.547 5.356l47.839 25.491zm0 0" transform="translate(-0.055) translate(0)"/>
        <path d="M84.257 156.5a2.507 2.507 0 0 0-3.814 3.256l13.245 15.51a2.506 2.506 0 0 0 3.488.318l30.846-25.1a2.507 2.507 0 1 0-3.165-3.89L95.91 170.15zm0 0" transform="translate(-0.055) translate(-51.208 -93.73)"/>
    </g>
</svg>
