<svg id="salesmanago" xmlns="http://www.w3.org/2000/svg" width="260" height="60" viewBox="0 0 260 60">
  <rect id="Rectangle_6839" data-name="Rectangle 6839" width="260" height="60" fill="#fff"/>
  <g id="_556679a9f2a1a7c4b36f_1_" data-name="556679a9f2a1a7c4b36f (1)" transform="translate(8.883 8.93)">
    <path id="Path_140399" data-name="Path 140399" d="M255.264,35.221c-2.2,0-4.289,1.421-5.766,3.7h-.056l.529-3.342h-1.421c-.195,1.532-.529,3.51-.919,5.71l-3.315,17.659h1.476l1.309-7.158h.056a6.922,6.922,0,0,0,3.315.724c5.292,0,9.108-6.295,9.108-11.894,0-2.73-1.2-5.4-4.317-5.4Zm-4.679,15.96a5.212,5.212,0,0,1-3.2-.919l1.058-5.71c.919-5.014,4.011-8.022,6.351-8.022,2.451,0,3.2,2.2,3.2,4.178C258.021,44.969,254.985,51.181,250.584,51.181Zm10.529-3.732c0,2.98,1.532,5.042,4.039,5.042,2.173,0,4.289-1.142,6.184-4.791h.056a33.241,33.241,0,0,0-.418,4.457h1.448a36.73,36.73,0,0,1,.724-7.521l1.755-8.913a11,11,0,0,0-3.342-.474C265.179,35.221,261.113,41.794,261.113,47.448Zm10.919-4.6c-.808,4.289-3.844,8.328-6.518,8.328-2.256,0-2.869-1.922-2.841-4.122.028-5.209,3.76-10.529,8.523-10.529a5.972,5.972,0,0,1,2.005.251Zm8.189-3.649h-.056c.195-1.448.334-2.563.446-3.621h-1.337c-.139,1.448-.39,3.315-.808,5.431l-2.117,11.169h1.476l1.588-8.44c.7-3.621,3.12-6.908,5.292-6.908a3.046,3.046,0,0,1,.557.028l.306-1.588c-.167,0-.418-.028-.613-.028-2.061-.028-3.732,1.727-4.735,3.955Zm9.944,11.949c-1.031,0-1.476-.585-1.476-1.56a16.532,16.532,0,0,1,.334-2.869l1.838-9.888h3.9l.279-1.281h-3.9l.724-3.621-1.671.668-.557,2.98h-2.423l-.251,1.281h2.4l-1.866,9.888a13.68,13.68,0,0,0-.39,3.036,2.5,2.5,0,0,0,2.73,2.7,5.618,5.618,0,0,0,1.616-.251l-.111-1.2a3.977,3.977,0,0,1-1.17.111ZM304.4,35.221c-2.284,0-4.345,1.309-5.794,3.732h-.056l.474-3.4H297.6c-.139,1.281-.334,2.9-.724,4.874l-2.2,11.7h1.476l1.615-8.8c.724-4.011,3.872-6.768,6.072-6.768,2.033,0,2.73,1.253,2.73,2.98a13.208,13.208,0,0,1-.251,2.423L304.4,52.156h1.476l1.894-10.194a13.956,13.956,0,0,0,.306-2.563c.028-3.147-2.033-4.178-3.677-4.178Zm14.205,0c-4.735,0-8.078,6.239-8.078,11.03,0,3.175,1.337,6.211,5.209,6.211a8.232,8.232,0,0,0,4.512-1.253l-.446-1.17a7.237,7.237,0,0,1-3.844,1.114,3.581,3.581,0,0,1-3.621-2.785,11.834,11.834,0,0,1-.139-4.15c5.432.028,10.25-1.142,10.25-5.348C322.475,36.975,321.333,35.221,318.6,35.221Zm2.312,3.7c0,3.287-4.15,4.011-8.468,3.983,1.031-3.593,3.315-6.351,5.877-6.351a2.283,2.283,0,0,1,2.59,2.34v.028Zm11.309-2.089.306-1.588c-.167,0-.418-.028-.613-.028-2.061,0-3.732,1.755-4.735,3.983h-.056c.195-1.448.334-2.563.446-3.621h-1.337c-.139,1.448-.39,3.315-.808,5.431L323.31,52.183h1.476l1.588-8.44c.7-3.621,3.12-6.908,5.292-6.908a1.826,1.826,0,0,1,.557,0Zm6.239-.306a4.657,4.657,0,0,1,2.34.7l.557-1.281a4.854,4.854,0,0,0-2.73-.724,4.8,4.8,0,0,0-5.042,4.707,5,5,0,0,0,2.563,4.122c1.56,1,2.256,2.005,2.256,3.649a3.467,3.467,0,0,1-3.649,3.454,5.1,5.1,0,0,1-2.9-.919l-.585,1.253a5.857,5.857,0,0,0,3.342,1,5,5,0,0,0,5.32-5.181,5.268,5.268,0,0,0-2.563-4.289c-1.337-.919-2.256-1.783-2.256-3.342a3.159,3.159,0,0,1,3.342-3.147ZM150.923,42.1c-1.2-.641-1.81-1.2-1.81-1.95,0-.947.863-1.56,2.2-1.56a7.964,7.964,0,0,1,2.952.641l1.086-3.342s-1-.78-3.955-.78c-4.122,0-6.963,2.368-6.963,5.682,0,1.894,1.337,3.315,3.12,4.345,1.448.808,1.95,1.393,1.95,2.256,0,.891-.724,1.616-2.061,1.616a9.3,9.3,0,0,1-3.872-1.031L142.4,51.32a8.834,8.834,0,0,0,4.652,1.17c4.234,0,7.3-2.089,7.3-5.849-.056-2.061-1.588-3.482-3.426-4.54Zm16.907-7.047a6.36,6.36,0,0,0-4.986,2.507l-.056-.028,1.811-9.47h-4.707l-4.6,24.121H160l1.56-8.245c.613-3.12,2.228-5.042,3.732-5.042,1.058,0,1.476.724,1.476,1.755a10.608,10.608,0,0,1-.195,2.089l-1.783,9.442H169.5l1.838-9.749a18.628,18.628,0,0,0,.334-3.092c0-2.674-1.393-4.289-3.844-4.289Zm14.512,0c-5.682,0-9.442,5.125-9.442,10.835,0,3.649,2.256,6.6,6.49,6.6,5.571,0,9.331-4.986,9.331-10.835.028-3.4-1.95-6.6-6.379-6.6ZM180.03,48.869c-1.616,0-2.284-1.365-2.284-3.092,0-2.7,1.393-7.1,3.955-7.1,1.671,0,2.228,1.448,2.228,2.841C183.93,44.412,182.537,48.869,180.03,48.869Zm20.807-13.815a6.458,6.458,0,0,0-4.986,2.813H195.8l.279-2.535H191.9c-.195,1.7-.585,4.317-.947,6.267l-3.287,17.269h4.707l1.309-6.991h.111a5.521,5.521,0,0,0,2.758.613c5.543,0,9.164-5.682,9.164-11.42-.028-3.175-1.421-6.016-4.874-6.016ZM196.3,48.925a2.969,2.969,0,0,1-1.95-.7l.78-4.4c.557-2.952,2.089-4.9,3.732-4.9,1.448,0,1.894,1.337,1.894,2.59C200.754,44.579,198.943,48.925,196.3,48.925Zm16.127-20.64a2.693,2.693,0,0,0-2.7,2.73,2.188,2.188,0,0,0,2.228,2.368h.056a2.653,2.653,0,0,0,2.758-2.73A2.215,2.215,0,0,0,212.424,28.285Zm-6.6,23.871h4.707l3.231-16.74H209m16.768-.028H222.48l.167-.78c.279-1.616,1.226-3.036,2.813-3.036a4.75,4.75,0,0,1,1.5.251l.919-3.7a6.054,6.054,0,0,0-2.563-.418,7.1,7.1,0,0,0-4.624,1.56,8.8,8.8,0,0,0-2.73,5.348l-.139.78h-2.2l-.7,3.565h2.2l-2.507,13.2h4.707l2.507-13.2H225.1l.668-3.565Zm7.075,11.531h-.084c-.084-1.309-1.17-11.5-1.17-11.5H226.63l2.841,15.347a1.024,1.024,0,0,1-.111.78,8.264,8.264,0,0,1-2.563,2.841,10.876,10.876,0,0,1-2.674,1.337l1.309,4.011a10.85,10.85,0,0,0,4.624-2.563c2.145-2.005,4.15-5.125,6.184-9.359l5.794-12.395H237.1s-2.953,7.437-4.262,11.5Z" transform="translate(-102.651 -19.934)"/>
    <path id="Path_140400" data-name="Path 140400" d="M22.529,38.748,34.18,36.217s-4.2-28.41-4.228-28.6a.375.375,0,0,0-.338-.315c-.141-.012-3.118-.232-3.118-.232S24.427,5.013,24.2,4.786a.506.506,0,0,0-.2-.117L22.529,38.748M18.665,2.57c1.1.139,1.841,1.4,2.315,2.843l-1.869.578v-.4a9.165,9.165,0,0,0-.446-3.019ZM16.671,18.3a6.793,6.793,0,0,0-2.879-.69c-2.324,0-2.441,1.459-2.441,1.826,0,2.005,5.227,2.774,5.227,7.47,0,3.7-2.343,6.075-5.5,6.075a7.657,7.657,0,0,1-5.732-2.36l1.015-3.355s1.993,1.712,3.676,1.712a1.483,1.483,0,0,0,1.546-1.5c0-2.615-4.288-2.732-4.288-7.031,0-3.617,2.6-7.118,7.838-7.118a6.441,6.441,0,0,1,3.017.579L16.671,18.3ZM15.81,1.409a1.129,1.129,0,0,1,.641.215c-1.6.753-3.317,2.651-4.042,6.44L9.357,9.01c.85-2.89,2.865-7.6,6.453-7.6ZM17.8,6.178c0,.076,0,.147,0,.217L13.94,7.591c.743-2.869,2.136-4.254,3.355-4.777A9.288,9.288,0,0,1,17.8,6.179ZM23.475,4.65c-.045.008-.086.017-.117.026L22.2,5.035c-.691-1.988-1.911-3.814-4.055-3.814-.06,0-.12,0-.182.006A2.6,2.6,0,0,0,15.948.07c-5,0-7.383,6.245-8.131,9.419l-3.5,1.084c-1.084.34-1.118.373-1.26,1.393-.108.775-2.943,22.7-2.943,22.7L22,38.767,23.476,4.651Z" transform="translate(0 0)"/>
  </g>
</svg>
