<svg xmlns="http://www.w3.org/2000/svg" width="48" height="48" viewBox="0 0 48 48">
  <g id="Group_69471" data-name="Group 69471" transform="translate(1754 -20719)">
    <rect id="Rectangle_7964" data-name="Rectangle 7964" width="48" height="48" transform="translate(-1754 20719)" fill="none"/>
    <g id="smart-tv" transform="translate(-1754 20659.93)">
      <rect id="Rectangle_7958" data-name="Rectangle 7958" width="2.653" height="4.249" transform="translate(4.639 95.475)" fill="#89b4c9"/>
      <rect id="Rectangle_7959" data-name="Rectangle 7959" width="2.653" height="1.814" transform="translate(4.639 97.911)" fill="#618baa"/>
      <rect id="Rectangle_7960" data-name="Rectangle 7960" width="2.652" height="4.249" transform="translate(41.784 95.475)" fill="#89b4c9"/>
      <rect id="Rectangle_7961" data-name="Rectangle 7961" width="2.652" height="1.814" transform="translate(41.784 97.911)" fill="#618baa"/>
      <path id="Path_126808" data-name="Path 126808" d="M47.42,96.3H.58A.58.58,0,0,1,0,95.717V65.764a.58.58,0,0,1,.58-.58H47.42a.58.58,0,0,1,.58.58V95.716A.58.58,0,0,1,47.42,96.3Z" transform="translate(0 -0.003)" fill="#385f82"/>
      <path id="Path_126809" data-name="Path 126809" d="M48,65.761V92.8H0V65.761a.58.58,0,0,1,.58-.58H47.42a.58.58,0,0,1,.58.58Z" fill="#159bff"/>
      <g id="Group_69367" data-name="Group 69367" transform="translate(0 65.181)">
        <path id="Path_126810" data-name="Path 126810" d="M36.84,65.181,9.216,92.8H0v-.028l27.594-27.6Z" transform="translate(0 -65.181)" fill="#4ad4ff"/>
        <path id="Path_126811" data-name="Path 126811" d="M152.415,65.181,124.793,92.8h-3.217v-.028L149.17,65.182Z" transform="translate(-110.178 -65.181)" fill="#4ad4ff"/>
      </g>
      <path id="Path_126812" data-name="Path 126812" d="M57.5,136.384h-4.18a1.164,1.164,0,0,1-1.164-1.164v-4.178a1.164,1.164,0,0,1,1.164-1.164H57.5a1.164,1.164,0,0,1,1.164,1.164v4.178A1.164,1.164,0,0,1,57.5,136.384Z" transform="translate(-47.269 -58.635)" fill="#ffb229"/>
      <path id="Path_126813" data-name="Path 126813" d="M162.4,131.05v4.178a1.165,1.165,0,0,1-1.165,1.165h-4.178a1.165,1.165,0,0,1-1.165-1.165V131.05a1.164,1.164,0,0,1,1.165-1.164h4.178a1.165,1.165,0,0,1,1.165,1.164Z" transform="translate(-141.282 -58.639)" fill="#4ad4ff"/>
      <path id="Path_126814" data-name="Path 126814" d="M167.74,135.954a1.152,1.152,0,0,1,.164.6v4.178a1.165,1.165,0,0,1-1.165,1.165h-4.178a1.159,1.159,0,0,1-.6-.164Z" transform="translate(-146.781 -64.138)" fill="#9fedff"/>
      <path id="Path_126815" data-name="Path 126815" d="M266.144,131.05v4.178a1.165,1.165,0,0,1-1.165,1.165H260.8a1.164,1.164,0,0,1-1.164-1.165V131.05a1.163,1.163,0,0,1,1.164-1.164h4.178a1.164,1.164,0,0,1,1.165,1.164Z" transform="translate(-235.295 -58.639)" fill="#c8c8c8"/>
      <g id="Group_69368" data-name="Group 69368" transform="translate(24.341 71.247)">
        <path id="Path_126816" data-name="Path 126816" d="M286.216,152.035v3.24l-1.186,1.186h-3.24Z" transform="translate(-279.708 -149.959)" fill="#e3e3e3"/>
        <path id="Path_126817" data-name="Path 126817" d="M265.763,130.19l-5.824,5.824a1.163,1.163,0,0,1-.3-.785V131.05a1.163,1.163,0,0,1,1.164-1.164h4.178A1.16,1.16,0,0,1,265.763,130.19Z" transform="translate(-259.636 -129.886)" fill="#e3e3e3"/>
      </g>
      <path id="Path_126818" data-name="Path 126818" d="M58.667,226.842v4.194A1.164,1.164,0,0,1,57.5,232.2H53.3a1.163,1.163,0,0,1-1.15-1.164v-4.178a1.164,1.164,0,0,1,1.165-1.164H57.5a1.163,1.163,0,0,1,1.169,1.147Z" transform="translate(-47.269 -145.464)" fill="#00d8e0"/>
      <path id="Path_126819" data-name="Path 126819" d="M64.418,243.309l5.358-5.357v4.194a1.164,1.164,0,0,1-1.164,1.165h-4.2Z" transform="translate(-58.378 -156.573)" fill="#7df4f1"/>
      <path id="Path_126820" data-name="Path 126820" d="M162.4,226.857v4.178a1.165,1.165,0,0,1-1.165,1.165h-4.178a1.164,1.164,0,0,1-1.165-1.165v-4.178a1.164,1.164,0,0,1,1.165-1.164h4.178a1.164,1.164,0,0,1,1.165,1.164Z" transform="translate(-141.282 -145.464)" fill="#a6d674"/>
      <g id="Group_69369" data-name="Group 69369" transform="translate(14.615 80.229)">
        <path id="Path_126821" data-name="Path 126821" d="M162.327,226.437l-5.684,5.684a1.164,1.164,0,0,1-.745-1.086v-4.18a1.164,1.164,0,0,1,1.165-1.164h4.178A1.163,1.163,0,0,1,162.327,226.437Z" transform="translate(-155.897 -225.692)" fill="#c4e57e"/>
        <path id="Path_126822" data-name="Path 126822" d="M185.979,259.463l3.688-3.688v2.52a1.165,1.165,0,0,1-1.165,1.165Z" transform="translate(-183.159 -252.955)" fill="#c4e57e"/>
      </g>
      <path id="Path_126823" data-name="Path 126823" d="M266.144,226.857v4.178a1.165,1.165,0,0,1-1.165,1.165H260.8a1.164,1.164,0,0,1-1.164-1.165v-4.178a1.163,1.163,0,0,1,1.164-1.164h4.178a1.164,1.164,0,0,1,1.165,1.164Z" transform="translate(-235.295 -145.464)" fill="#fd6568"/>
      <path id="Path_126824" data-name="Path 126824" d="M260.8,225.693h1.68l-2.848,2.848v-1.68a1.163,1.163,0,0,1,1.168-1.168Z" transform="translate(-235.296 -145.464)" fill="#ff838f"/>
      <g id="Group_69370" data-name="Group 69370" transform="translate(33.959 75.087)">
        <path id="Path_126825" data-name="Path 126825" d="M380.146,203.366a.72.72,0,0,1-.466-.169,4.422,4.422,0,0,0-5.483,0,.724.724,0,1,1-.931-1.109,5.924,5.924,0,0,1,7.346,0,.72.72,0,0,1-.467,1.279Z" transform="translate(-371.997 -198)" fill="#385f82"/>
        <path id="Path_126826" data-name="Path 126826" d="M363.048,173.754a.72.72,0,0,1-.467-1.279,7.5,7.5,0,0,1,9.35,0,.724.724,0,1,1-.932,1.109,6.037,6.037,0,0,0-7.486,0,.72.72,0,0,1-.466.17Z" transform="translate(-362.315 -170.84)" fill="#385f82"/>
        <path id="Path_126827" data-name="Path 126827" d="M388.758,232.632a.72.72,0,0,1-.466-.169,2.856,2.856,0,0,0-3.494,0,.724.724,0,1,1-.932-1.109,4.265,4.265,0,0,1,5.358,0,.72.72,0,0,1-.466,1.279Z" transform="translate(-381.605 -224.822)" fill="#385f82"/>
      </g>
      <path id="Path_126828" data-name="Path 126828" d="M8.306,428.545H53.7a.58.58,0,0,0,.58-.58v-.732a.58.58,0,0,0-.58-.58H8.306a.58.58,0,0,0-.58.58v.732A.58.58,0,0,0,8.306,428.545Z" transform="translate(-7.001 -327.586)" fill="#89b4c9"/>
    </g>
  </g>
</svg>
