<svg xmlns="http://www.w3.org/2000/svg" width="107.789" height="79.868" viewBox="0 0 107.789 79.868">
    <path data-name="Compound Shape" d="m2117.062 1208.558-3.13-5.507q17.9-9.389 23.536-16.15 3.88-4.759 3.88-9.64 0-4.507-6.885-10.764-9.639-8.643-9.64-17.027a20.155 20.155 0 0 1 6.072-14.583 19.412 19.412 0 0 1 14.334-6.2q8.514 0 14.9 6.819a23.554 23.554 0 0 1 6.385 16.714q0 15.523-10.517 28.794-13.268 17.031-38.935 27.544zm55.209 0-3-5.131q17.53-9.266 23.661-16.526 4.007-4.883 4.007-9.264t-6.447-10.392q-6.449-6-8.7-10.388a15.555 15.555 0 0 1-1.627-7.262 19.632 19.632 0 0 1 6.009-14.4 20.235 20.235 0 0 1 14.9-6.013 19.215 19.215 0 0 1 14.71 6.448q5.946 6.451 5.946 16.463a44.672 44.672 0 0 1-9.514 27.917q-12.653 16.28-39.945 28.548z" transform="translate(-2113.933 -1128.69)" style="fill:#fff"/>
</svg>
