<svg xmlns="http://www.w3.org/2000/svg" width="107.789" height="79.868" viewBox="0 0 107.789 79.868">
    <path data-name="Compound Shape" d="m392.758 1128.69 3.13 5.507q-17.9 9.389-23.535 16.15-3.881 4.759-3.88 9.64 0 4.507 6.884 10.764 9.639 8.643 9.64 17.027a20.154 20.154 0 0 1-6.071 14.583 19.413 19.413 0 0 1-14.334 6.2q-8.514 0-14.9-6.819a23.555 23.555 0 0 1-6.385-16.714q0-15.523 10.517-28.794 13.268-17.034 38.934-27.544zm-55.209 0 3 5.131q-17.53 9.266-23.661 16.526-4.007 4.883-4.007 9.264t6.453 10.389q6.448 6 8.7 10.388a15.553 15.553 0 0 1 1.628 7.262 19.631 19.631 0 0 1-6.009 14.4 20.235 20.235 0 0 1-14.9 6.013 19.216 19.216 0 0 1-14.71-6.447q-5.946-6.451-5.946-16.463a44.672 44.672 0 0 1 9.514-27.917q12.647-16.278 39.939-28.546z" transform="translate(-288.099 -1128.69)" style="fill:#fff"/>
</svg>
