<svg xmlns="http://www.w3.org/2000/svg" xmlns:xlink="http://www.w3.org/1999/xlink" width="220" height="60" viewBox="0 0 220 60">
  <defs>
    <clipPath id="clip-_03">
      <rect width="220" height="60"/>
    </clipPath>
  </defs>
  <g id="_03" data-name="03" clip-path="url(#clip-_03)">
    <rect width="220" height="60" fill="#fff"/>
    <path id="Logo" d="M519.585,7934.749h.045a3.236,3.236,0,0,1,3.041-1.724c2.785,0,3.777,1.987,3.777,4.1v6.581H523.86v-5.274c0-1.149-.09-3.064-1.9-3.064-1.707,0-2.376,1.265-2.373,2.65v5.686H517V7927.3h2.59v7.446h0Zm11.869,4.658a2.69,2.69,0,0,0,2.784,2.477,3.393,3.393,0,0,0,2.782-1.412l1.859,1.412a5.553,5.553,0,1,1-4.384-8.856c2.888,0,4.856,2.044,4.856,5.665v.722h-7.9Zm5.306-1.957a2.385,2.385,0,0,0-2.632-2.468,2.582,2.582,0,0,0-2.676,2.468Zm11.481,4.822-.064-.006a3.707,3.707,0,0,1-3.323,1.695c-1.922,0-3.777-1.055-3.777-3.125,0-3.384,3.925-3.619,6.513-3.619h.648v-.285c0-1.281-.993-1.956-2.373-1.949a4.052,4.052,0,0,0-2.762,1.084l-1.361-1.367a6.063,6.063,0,0,1,4.4-1.672c4.422-.007,4.422,3.213,4.422,4.685v5.992h-2.327v-1.429h0Zm-.152-3.237h-.542c-1.423,0-3.881.112-3.881,1.61,0,.952.969,1.369,1.81,1.369,1.769,0,2.611-.936,2.608-2.39v-.589h0Zm5.305-11.739h2.589l.005,16.407H553.4L553.4,7927.3h0Zm4.362,8.2v-2.217l2.135.008v-3.022h2.59v3.014h2.848v2.215H562.48v4.55c0,1.048.3,1.7,1.444,1.7a2.657,2.657,0,0,0,1.4-.329v2.2a5.453,5.453,0,0,1-2.049.345c-2.74,0-3.39-1.239-3.392-3.691v-4.779H557.75Zm12.189-.762h.045a3.237,3.237,0,0,1,3.041-1.717c2.785,0,3.777,1.974,3.777,4.1v6.569h-2.593v-5.271c0-1.151-.09-3.056-1.9-3.056-1.7,0-2.372,1.255-2.37,2.65v5.686l-2.589-.009-.005-16.406h2.59v7.445h0Zm8.394-1.455h2.848l2.889,7.23.045-.009,2.586-7.221h2.7l-4.893,12.649c-.754,1.955-1.662,2.979-3.949,2.979a7.654,7.654,0,0,1-1.985-.257l.321-2.346a3.741,3.741,0,0,0,1.315.257c1.276,0,1.619-.458,2.051-1.541l.5-1.238-4.423-10.5h0Zm59.627,8.241a.155.155,0,0,0-.223.07c-.839,1.836-1.659,2.813-2.364,2.813a.787.787,0,0,1-.66-.952,11.722,11.722,0,0,1,.4-2.328l2.569-10.191a8.258,8.258,0,0,0,.286-1.93c0-1.7-.8-2.747-2.1-2.747-1.94,0-3.069,1.717-4.472,4.894l-4.814,10.988,2.475-10.7a19.863,19.863,0,0,0,.6-4.233c0-2.5-1.109-3.029-2.041-3.029-2.016,0-3.216,1.939-4.5,5.054L618.3,7941.1c.318-1.412.625-2.729.908-3.932.969-4.153,1.674-7.15,1.671-9.271,0-4.707-2.683-6.82-5.337-6.82-3.826,0-6.714,3.938-6.711,9.159a10.922,10.922,0,0,0,5.674,9.958.173.173,0,0,0,.2-.052l.247-.344a.151.151,0,0,0,.026-.127.141.141,0,0,0-.09-.106,10.18,10.18,0,0,1-5.31-9.332c0-4.64,2.423-8.136,5.646-8.136,2.555,0,4.206,2.241,4.206,5.714,0,1.93-1.039,6.917-3.476,16.653a.155.155,0,0,0,.016.112.722.722,0,0,0,.73.338,1.052,1.052,0,0,0,1.09-.606l5.362-13.134c1.631-3.99,2.716-6.025,4.089-6.025.728,0,1.1.649,1.1,1.922a38.685,38.685,0,0,1-1.06,5.712l-2.661,11.68a.167.167,0,0,0,.016.113.74.74,0,0,0,.733.328,1.073,1.073,0,0,0,1.116-.6l5.58-12.715c1.406-3.214,2.216-4.551,3.59-4.551.24,0,.97-.008.973,1.516a10.8,10.8,0,0,1-.414,2.241l-2.277,8.987a17.094,17.094,0,0,0-.6,3.349c0,1.324.7,2.206,1.727,2.206,1.212,0,2.239-1.049,3.34-3.4a.173.173,0,0,0-.063-.211l-.377-.212h0Zm11.564,1.084a.148.148,0,0,0-.121-.034.165.165,0,0,0-.1.068c-1.019,1.471-1.523,1.632-1.689,1.632a.233.233,0,0,1-.188-.251,33.135,33.135,0,0,1,1.527-6.3.157.157,0,0,0-.03-.149.149.149,0,0,0-.14-.051l-1.131.156a.181.181,0,0,0-.12.09c-2.241,4.422-3.839,6.571-4.874,6.571a.542.542,0,0,1-.531-.542,2.529,2.529,0,0,1,.147-.83l1.1-3.316a3.367,3.367,0,0,0,.195-.96,1.023,1.023,0,0,0-.944-1.168c-.674,0-1.444.658-2.665,2.27a.167.167,0,0,0-.032.122.157.157,0,0,0,.064.1l.343.25a.156.156,0,0,0,.116.029.158.158,0,0,0,.1-.061c1.05-1.43,1.444-1.545,1.534-1.545a.175.175,0,0,1,.155.217,1.582,1.582,0,0,1-.115.521l-.944,2.811c-.033.1-.07.208-.1.3a3.692,3.692,0,0,0-.257,1.162,1.413,1.413,0,0,0,1.471,1.513c1.606,0,2.694-1.538,4.438-4.353a16.2,16.2,0,0,0-.578,3.127,1.1,1.1,0,0,0,1.1,1.228c.8,0,1.717-.744,2.641-2.155a.152.152,0,0,0-.04-.208l-.343-.252h0Zm16.31-.007a.149.149,0,0,0-.116-.03.158.158,0,0,0-.1.064c-.983,1.428-1.459,1.643-1.658,1.636a.256.256,0,0,1-.221-.286,3.475,3.475,0,0,1,.159-.882l.806-3.013a4.716,4.716,0,0,0,.227-1.211,1.2,1.2,0,0,0-1.227-1.357c-1.173.007-2.666,1.478-4.784,4.77l.577-2.294a4.231,4.231,0,0,0,.194-1.115,1.2,1.2,0,0,0-1.227-1.354c-1.137.008-2.545,1.463-4.513,4.694a20.9,20.9,0,0,0,.722-3.548c0-.755-.286-1.134-.851-1.134-.668,0-1.524.722-2.7,2.268a.175.175,0,0,0-.029.122.142.142,0,0,0,.061.1l.344.25a.139.139,0,0,0,.118.028.17.17,0,0,0,.1-.063c1.044-1.47,1.459-1.54,1.535-1.54.144-.007.158.19.157.25a33.63,33.63,0,0,1-.78,3.49q-.27,1.115-.632,2.6a.171.171,0,0,0,.039.14.149.149,0,0,0,.141.052l.91-.156a.174.174,0,0,0,.109-.078c2.684-4.855,4.332-6.589,4.979-6.589a.321.321,0,0,1,.224.128.33.33,0,0,1,.06.25,6.029,6.029,0,0,1-.215,1.066l-1.345,5.178a.157.157,0,0,0,.036.148.145.145,0,0,0,.115.053h.025l.944-.164a.158.158,0,0,0,.11-.07c3.262-5.445,4.659-6.59,5.258-6.59a.342.342,0,0,1,.286.416,2.2,2.2,0,0,1-.107.6c-.017.061-.032.123-.045.171l-.782,3.021-.048.173a4.151,4.151,0,0,0-.207,1.2,1.142,1.142,0,0,0,1.125,1.229c.8,0,1.717-.745,2.641-2.156a.158.158,0,0,0,.021-.119.15.15,0,0,0-.068-.1l-.374-.252h0Zm16.348-.008a.162.162,0,0,0-.216.042c-.984,1.418-1.459,1.636-1.659,1.636a.27.27,0,0,1-.221-.285,3.509,3.509,0,0,1,.157-.884l.812-3.021a4.62,4.62,0,0,0,.227-1.211,1.2,1.2,0,0,0-1.223-1.353c-1.178,0-2.67,1.48-4.784,4.771l.573-2.295a4.059,4.059,0,0,0,.195-1.115,1.2,1.2,0,0,0-1.224-1.36c-1.14,0-2.548,1.461-4.514,4.7a20.481,20.481,0,0,0,.722-3.559c0-.752-.285-1.132-.846-1.132-.668,0-1.526.723-2.7,2.278a.136.136,0,0,0-.032.111.171.171,0,0,0,.065.112l.343.251a.138.138,0,0,0,.118.025.182.182,0,0,0,.1-.068c1.039-1.464,1.46-1.545,1.534-1.545.148,0,.159.19.159.251a34.47,34.47,0,0,1-.767,3.446c-.184.753-.4,1.635-.64,2.639a.151.151,0,0,0,.038.147.145.145,0,0,0,.141.043l.91-.158a.153.153,0,0,0,.107-.078c2.683-4.847,4.333-6.58,4.979-6.58a.334.334,0,0,1,.225.128.329.329,0,0,1,.061.252,6.064,6.064,0,0,1-.216,1.067l-1.349,5.175a.158.158,0,0,0,.036.148.184.184,0,0,0,.116.043.034.034,0,0,0,.024,0l.944-.156a.154.154,0,0,0,.11-.075c3.262-5.438,4.659-6.581,5.26-6.581a.332.332,0,0,1,.283.406,2.2,2.2,0,0,1-.107.607c-.014.059-.031.12-.046.172l-.785,3.027-.048.172a4.218,4.218,0,0,0-.207,1.2,1.145,1.145,0,0,0,1.125,1.227c.806,0,1.717-.744,2.64-2.146a.166.166,0,0,0-.043-.225l-.377-.252h0Zm10.789.4-.315-.321a.218.218,0,0,0-.123-.042.172.172,0,0,0-.115.068,7.332,7.332,0,0,1-1.485,1.334l1.731-6.25a.161.161,0,0,0-.032-.146.17.17,0,0,0-.142-.053l-1,.155a.158.158,0,0,0-.125.112c-1.445,4.288-3.28,6.2-4.464,6.2a.6.6,0,0,1-.626-.692,2.844,2.844,0,0,1,.09-.686l.878-3.03a5.059,5.059,0,0,0,.193-1.021.993.993,0,0,0-.944-1.1c-.674,0-1.444.657-2.665,2.269a.156.156,0,0,0-.032.121.149.149,0,0,0,.065.1l.344.253a.167.167,0,0,0,.116.028.171.171,0,0,0,.1-.063c1.047-1.437,1.444-1.544,1.535-1.542a.178.178,0,0,1,.128.071.172.172,0,0,1,.027.144,1.519,1.519,0,0,1-.071.34l-.9,3.185a3.644,3.644,0,0,0-.16.927,1.509,1.509,0,0,0,1.569,1.647c1.178,0,2.489-1.016,3.527-2.668l-.649,2.545c-3.468,1.374-4.823,2.4-4.823,3.619a1.359,1.359,0,0,0,1.506,1.324c1.888,0,3.361-1.534,4.489-4.693a10.467,10.467,0,0,0,2.373-1.923.162.162,0,0,0,0-.216m-3.758,2.78c-.53,2.1-1.65,3.3-3.1,3.3a.645.645,0,0,1-.753-.6c0-.857,1.472-1.679,3.855-2.7m-197.185-9.1H489.76v5.211a1.021,1.021,0,0,0,1.1,1.125,3.063,3.063,0,0,0,1.167-.276l.09.926a4.306,4.306,0,0,1-1.343.285,1.867,1.867,0,0,1-2.05-2.061v-5.208H487v-.937h1.723v-2.3h1.03v2.3h2.271v.937h0Zm1.84-6.027h1.03v6.493h.034a2.966,2.966,0,0,1,2.718-1.609c2.479,0,3.03,1.695,3.03,3.445v4.753h-1.03V7939c0-1.3-.361-2.562-2-2.562-1.535,0-2.751,1.075-2.747,3.272v4h-1.03v-13.089h0Zm16.6,11.571a4.12,4.12,0,0,1-7.468-2.51,3.962,3.962,0,0,1,3.972-4.19,3.627,3.627,0,0,1,3.737,3.74v.728l-6.679.008a2.974,2.974,0,0,0,3.012,3,3.174,3.174,0,0,0,2.667-1.418l.759.64Zm-.791-3.169a2.683,2.683,0,0,0-2.755-2.589,2.942,2.942,0,0,0-2.889,2.6l5.645-.009Zm89.992,4.526c-.09,1.542-.792,4.55-1.076,6.2-.247,1.437-.542,3.069-1.527,3.7a3.431,3.431,0,0,1-2.959.173c-1.257-.487-2.6-.877-3.931-1.283a5.614,5.614,0,0,0-.778-.259,7.884,7.884,0,0,0-1.03-.017,2.527,2.527,0,0,0-1.2.12,4.477,4.477,0,0,0-1.083,1.976c-.1.36-.212.649-.343,1.1-.118.39-.18,1.04-.429,1.09a1.187,1.187,0,0,1-.7-.328,2.716,2.716,0,0,1-.4-1.134,5.151,5.151,0,0,1-.224-1.356,3.515,3.515,0,0,1,.451-.962c.156-.327.328-.676.452-.952.279-.631.42-1.508,1-1.791a3.052,3.052,0,0,1,1.631.088,3.278,3.278,0,0,0,1.452-.276,8.018,8.018,0,0,1,4.434-.3,4.008,4.008,0,0,1,1.229.811,29.7,29.7,0,0,1-.251-5.15c.038-.848.121-1.716.151-2.562.027-.866-.172-1.733-.1-2.6a5.139,5.139,0,0,1,1.126-2.749,10.829,10.829,0,0,1,.876-1.062,3.44,3.44,0,0,0,.977-1.135,8.126,8.126,0,0,0-.226-4.683,15.227,15.227,0,0,0-1.277-2.728,4.15,4.15,0,0,0-.551-.847,8.859,8.859,0,0,1-.9-.935,6.807,6.807,0,0,0-.753-1.057,3.523,3.523,0,0,1-2.979.527c-.645-.233-1.148-.829-1.779-1.134a2.059,2.059,0,0,1-.627-.328,3.148,3.148,0,0,1,1.6-.077,3.233,3.233,0,0,0,1.529-.172,1.1,1.1,0,0,0,.7-.752,3.893,3.893,0,0,0-.826-1.04c-.271-.3-.576-.773-.854-1.056-.154-.157-.387-.321-.576-.529a2.235,2.235,0,0,0-.551-.524c-.086-.044-.271-.055-.377-.1a2.915,2.915,0,0,1-.65-.583c-1.039-.978-2.021-2-3.083-2.97-.188-.172-.422-.361-.626-.581a3.275,3.275,0,0,0-.632-.579,5.03,5.03,0,0,1-1.226-.476,4.615,4.615,0,0,1-.344-1.029,2.519,2.519,0,0,1-.329-1.542,1.947,1.947,0,0,1,.2-.3,1.57,1.57,0,0,1,.1-.329.862.862,0,0,1,.627-.2,1.123,1.123,0,0,1,.551-.356c.22.054.14.258.249.476a1.163,1.163,0,0,0,.325-.052,2.674,2.674,0,0,1,.607.581,3.537,3.537,0,0,1,.075.893c.012.293.03.587.022.874,1.156,1.125,2.477,2.166,3.759,3.23a17.583,17.583,0,0,0,2.308,1.862,9.051,9.051,0,0,1,1.379.829,6.505,6.505,0,0,0,1,.96,3.846,3.846,0,0,1-.327-2.371,4.575,4.575,0,0,1,2.478-2.623c.458-.218,1.336-.65,1.853-.409a1.117,1.117,0,0,1,.4.811c.421.362,1.227.344,1.477.883a.178.178,0,0,0,.2.018c-.011.1.01.163.075.181a5.92,5.92,0,0,1,1.126.25,1.3,1.3,0,0,1-.053.477.649.649,0,0,0,.327.251v.234a.427.427,0,0,1,.249.276,1.131,1.131,0,0,1,.4.452c.114.588-.452.787-.607,1.305a2.089,2.089,0,0,0,0,.885.952.952,0,0,0,.328-.479c.29-.527.506-1.115.826-1.66.3-.511.773-.945,1.076-1.438a13.287,13.287,0,0,0,.826-3.323c.113-.521.21-1.049.324-1.545s.314-.96.452-1.412c.279-.9.546-1.826.828-2.9.18-.687.44-1.374.625-2.166a4.354,4.354,0,0,0,.172-.753c-.014-.429-.474-.753-.529-1.212a2.578,2.578,0,0,1,.1-.528,2.1,2.1,0,0,1,.077-.527,2.3,2.3,0,0,1,.6-.429,2.062,2.062,0,0,1,.7-.424,1.032,1.032,0,0,1,.879.344,2.125,2.125,0,0,1,.1.659c-.056.208-.326.225-.373.429a9.128,9.128,0,0,0,.1,1.307c-.047.64-.57,1.014-.722,1.637a12.762,12.762,0,0,0-.172,1.567c-.11,1.039-.237,2.093-.343,3.124a20.177,20.177,0,0,1-.353,2.417c-.066.285-.229.526-.276.778a9.523,9.523,0,0,0,.024,1.067,8.053,8.053,0,0,1-.271,1.5,13.39,13.39,0,0,1-.4,1.359,10.365,10.365,0,0,0-.778,2.779,5.556,5.556,0,0,0,.18,2.166,6.923,6.923,0,0,1,1.03,2.543,3.934,3.934,0,0,1-.248,1.213,4.175,4.175,0,0,0-.477,1.584,19.029,19.029,0,0,1,.1,2.347c-.09.691-.27,1.353-.429,2.086-.386,1.842-.288,3.739-.524,5.645a6.949,6.949,0,0,0-.149,1.063,2.453,2.453,0,0,0,.343.924,5.736,5.736,0,0,0,.928,1.058c.66.666,1.288,1.342,1.954,2.017.327.329.624.719.9,1.057.294.36.6.744.877,1.107a11.146,11.146,0,0,1,1.477,2.467,5.682,5.682,0,0,1,.5,1.463,1.8,1.8,0,0,1-.429,1.436c-.858,1.136-2.458,1.587-3.881,2.146-.7.27-1.409.581-2.1.909-1.612.754-3.44,1.281-4.535,2.575a3.77,3.77,0,0,0-.5,1c-.283.723-.52,1.428-.8,2.226a3.67,3.67,0,0,0-.277,1.2,1.064,1.064,0,0,1-.049.776c-.279.061-.329-.189-.451-.318a.807.807,0,0,1-.172-.158,4.526,4.526,0,0,1-.15-2.138,1.963,1.963,0,0,0,.075-.633,6.806,6.806,0,0,0-.476-1.383,3.42,3.42,0,0,0-.328-.607,1.26,1.26,0,0,1-.424-.979,1.506,1.506,0,0,1,1.051-.764c.47-.162.976-.27,1.4-.4,1.535-.486,2.215-2.028,3.382-3.1a7.561,7.561,0,0,1,4.206-2.242.659.659,0,0,0-.429-.372c-.461-.3-.952-.641-1.428-.961a23.436,23.436,0,0,1-3.457-2.927,7.844,7.844,0,0,0-1.731-1.454" transform="translate(-473.017 -7901.984)" fill="#f16a99" fill-rule="evenodd"/>
  </g>
</svg>
