<svg xmlns="http://www.w3.org/2000/svg" width="280" height="240" viewBox="0 0 280 240">
  <g id="Group_69151" data-name="Group 69151" transform="translate(-706 -9114)">
    <rect id="Rectangle_7503" data-name="Rectangle 7503" width="280" height="240" transform="translate(706 9114)" fill="none"/>
    <path id="Logo" d="M524.96,7940.153h.052a3.772,3.772,0,0,1,3.543-2.007c3.244,0,4.4,2.313,4.4,4.781v7.665H529.94v-6.143c0-1.341-.105-3.57-2.208-3.57-1.988,0-2.768,1.473-2.764,3.086v6.624H521.95v-19.112h3.017v8.673h0Zm13.827,5.426a3.133,3.133,0,0,0,3.243,2.885,3.952,3.952,0,0,0,3.241-1.643l2.165,1.643a6.469,6.469,0,1,1-5.107-10.317c3.365,0,5.657,2.381,5.657,6.6v.841h-9.2Zm6.181-2.279a2.778,2.778,0,0,0-3.066-2.875,3.008,3.008,0,0,0-3.117,2.875Zm13.374,5.617-.074-.009a4.318,4.318,0,0,1-3.871,1.975c-2.239,0-4.4-1.229-4.4-3.64,0-3.943,4.572-4.216,7.587-4.216h.755v-.331c0-1.492-1.157-2.279-2.764-2.271a4.727,4.727,0,0,0-3.218,1.262l-1.585-1.591a7.057,7.057,0,0,1,5.127-1.949c5.152-.008,5.152,3.743,5.152,5.458v6.979H558.34v-1.664h0Zm-.177-3.772h-.631c-1.658,0-4.521.131-4.521,1.876,0,1.109,1.129,1.594,2.109,1.594,2.061,0,3.042-1.09,3.038-2.783v-.687h0Zm6.18-13.675h3.016l.006,19.112h-3.012l-.006-19.112h0Zm5.081,9.551v-2.583l2.487.01v-3.52h3.017v3.51h3.318v2.581H574.93v5.3c0,1.222.352,1.977,1.682,1.977a3.087,3.087,0,0,0,1.634-.383v2.563a6.379,6.379,0,0,1-2.387.4c-3.192,0-3.949-1.442-3.951-4.3v-5.567h-2.488Zm14.2-.888h.052a3.771,3.771,0,0,1,3.542-2c3.244,0,4.4,2.3,4.4,4.781v7.653H588.6v-6.141c0-1.341-.105-3.559-2.208-3.559-1.985,0-2.764,1.462-2.761,3.086v6.624l-3.016-.01-.006-19.112h3.017v8.674h0Zm9.779-1.694h3.318l3.365,8.422.052-.01,3.013-8.412h3.145l-5.7,14.735c-.878,2.278-1.936,3.47-4.6,3.47a8.854,8.854,0,0,1-2.313-.3l.374-2.733a4.357,4.357,0,0,0,1.532.3c1.487,0,1.886-.533,2.389-1.795l.579-1.443-5.152-12.233h0Zm69.462,9.6a.18.18,0,0,0-.26.081c-.977,2.138-1.933,3.278-2.754,3.278a.919.919,0,0,1-.769-1.109,13.65,13.65,0,0,1,.469-2.713l2.993-11.871a9.61,9.61,0,0,0,.333-2.248c0-1.978-.936-3.2-2.448-3.2-2.26,0-3.575,2-5.21,5.7l-5.608,12.8,2.883-12.465a23.157,23.157,0,0,0,.7-4.932c0-2.913-1.292-3.53-2.378-3.53-2.349,0-3.747,2.26-5.244,5.888l-5.614,13.838c.37-1.644.728-3.178,1.058-4.58,1.129-4.837,1.95-8.33,1.947-10.8,0-5.484-3.126-7.946-6.217-7.946-4.457,0-7.821,4.588-7.818,10.67a12.723,12.723,0,0,0,6.61,11.6.2.2,0,0,0,.231-.06l.288-.4a.178.178,0,0,0,.03-.149.164.164,0,0,0-.105-.124,11.858,11.858,0,0,1-6.186-10.87c0-5.406,2.823-9.479,6.577-9.479,2.976,0,4.9,2.611,4.9,6.657,0,2.248-1.21,8.058-4.049,19.4a.179.179,0,0,0,.019.13.841.841,0,0,0,.85.395,1.224,1.224,0,0,0,1.27-.707l6.246-15.3c1.9-4.648,3.164-7.019,4.764-7.019.848,0,1.28.757,1.278,2.239a45.09,45.09,0,0,1-1.235,6.655l-3.1,13.606a.192.192,0,0,0,.019.131.862.862,0,0,0,.854.382,1.251,1.251,0,0,0,1.3-.7l6.5-14.814c1.638-3.743,2.581-5.3,4.182-5.3.28,0,1.13-.011,1.133,1.765a12.587,12.587,0,0,1-.483,2.612l-2.652,10.469a19.918,19.918,0,0,0-.7,3.9c0,1.543.812,2.57,2.012,2.57,1.412,0,2.608-1.221,3.891-3.963a.2.2,0,0,0-.073-.245l-.439-.249h0Zm13.471,1.262a.179.179,0,0,0-.141-.039.191.191,0,0,0-.119.081c-1.187,1.713-1.774,1.9-1.968,1.9a.273.273,0,0,1-.219-.292,38.592,38.592,0,0,1,1.779-7.341.183.183,0,0,0-.035-.174.17.17,0,0,0-.163-.059l-1.318.181a.207.207,0,0,0-.14.105c-2.611,5.152-4.472,7.655-5.678,7.655a.631.631,0,0,1-.619-.631,2.946,2.946,0,0,1,.171-.967l1.281-3.863a3.9,3.9,0,0,0,.227-1.118,1.191,1.191,0,0,0-1.1-1.36c-.785,0-1.682.766-3.105,2.643a.192.192,0,0,0-.037.141.186.186,0,0,0,.074.121l.4.291a.175.175,0,0,0,.135.033.179.179,0,0,0,.118-.07c1.223-1.665,1.682-1.8,1.787-1.8a.2.2,0,0,1,.15.085.2.2,0,0,1,.031.168,1.848,1.848,0,0,1-.134.607l-1.1,3.275c-.038.122-.081.242-.116.353a4.3,4.3,0,0,0-.3,1.353,1.646,1.646,0,0,0,1.714,1.763c1.871,0,3.138-1.792,5.17-5.071a18.842,18.842,0,0,0-.673,3.641,1.285,1.285,0,0,0,1.279,1.432c.935,0,2-.867,3.076-2.511a.176.176,0,0,0-.046-.242l-.4-.294h0Zm19-.008a.176.176,0,0,0-.135-.034.179.179,0,0,0-.118.074c-1.145,1.664-1.7,1.914-1.931,1.906a.3.3,0,0,1-.257-.334,4.065,4.065,0,0,1,.186-1.028l.939-3.509a5.511,5.511,0,0,0,.264-1.411,1.4,1.4,0,0,0-1.429-1.582c-1.367.009-3.106,1.723-5.573,5.557l.672-2.673a4.928,4.928,0,0,0,.226-1.3,1.4,1.4,0,0,0-1.429-1.577c-1.325.011-2.965,1.706-5.258,5.469a24.333,24.333,0,0,0,.841-4.135c0-.879-.333-1.321-.991-1.321-.778,0-1.775.842-3.142,2.643a.2.2,0,0,0-.034.142.168.168,0,0,0,.071.119l.4.292a.166.166,0,0,0,.138.033.2.2,0,0,0,.119-.075c1.216-1.712,1.7-1.792,1.788-1.792.168-.009.184.221.183.291a39.134,39.134,0,0,1-.908,4.065q-.315,1.3-.736,3.024a.2.2,0,0,0,.046.163.175.175,0,0,0,.164.061l1.06-.183a.209.209,0,0,0,.127-.091c3.127-5.656,5.047-7.676,5.8-7.676a.375.375,0,0,1,.26.15.382.382,0,0,1,.07.292,6.987,6.987,0,0,1-.25,1.241l-1.567,6.032a.182.182,0,0,0,.041.173.172.172,0,0,0,.134.061h.029l1.1-.191a.18.18,0,0,0,.128-.082c3.8-6.343,5.427-7.676,6.125-7.676a.4.4,0,0,1,.333.483,2.552,2.552,0,0,1-.125.7c-.02.071-.037.143-.052.2l-.911,3.519-.056.2a4.848,4.848,0,0,0-.241,1.393,1.329,1.329,0,0,0,1.311,1.432c.936,0,2-.868,3.077-2.512a.18.18,0,0,0,.025-.138.177.177,0,0,0-.079-.112l-.436-.294h0Zm19.044-.01a.191.191,0,0,0-.252.049c-1.146,1.653-1.7,1.907-1.933,1.907a.315.315,0,0,1-.257-.333,4.075,4.075,0,0,1,.183-1.03l.946-3.519a5.385,5.385,0,0,0,.264-1.411,1.4,1.4,0,0,0-1.425-1.576c-1.372,0-3.11,1.725-5.573,5.558l.668-2.674a4.733,4.733,0,0,0,.227-1.3,1.4,1.4,0,0,0-1.426-1.583c-1.328,0-2.968,1.7-5.258,5.469a23.886,23.886,0,0,0,.841-4.146c0-.876-.332-1.319-.986-1.319-.778,0-1.778.841-3.142,2.653a.157.157,0,0,0-.037.131.2.2,0,0,0,.075.131l.4.292a.16.16,0,0,0,.137.029.2.2,0,0,0,.12-.079c1.21-1.706,1.7-1.8,1.787-1.8.172,0,.185.221.185.293a39.972,39.972,0,0,1-.893,4.013c-.215.878-.468,1.906-.746,3.075a.178.178,0,0,0,.045.173.169.169,0,0,0,.164.05l1.06-.183a.177.177,0,0,0,.125-.091c3.126-5.647,5.047-7.665,5.8-7.665a.386.386,0,0,1,.262.151.378.378,0,0,1,.071.292,7.031,7.031,0,0,1-.251,1.241l-1.571,6.03a.184.184,0,0,0,.042.173.218.218,0,0,0,.135.051.04.04,0,0,0,.028,0l1.1-.182a.181.181,0,0,0,.128-.089c3.8-6.334,5.427-7.666,6.127-7.666a.388.388,0,0,1,.33.474,2.572,2.572,0,0,1-.125.707c-.016.069-.036.14-.053.2l-.914,3.528-.056.2a4.912,4.912,0,0,0-.241,1.394,1.334,1.334,0,0,0,1.311,1.431c.939,0,2-.867,3.076-2.5a.194.194,0,0,0-.05-.262l-.439-.293h0Zm12.569.463-.367-.374a.26.26,0,0,0-.143-.049.2.2,0,0,0-.134.08,8.579,8.579,0,0,1-1.73,1.554l2.017-7.281a.188.188,0,0,0-.037-.171.2.2,0,0,0-.165-.061l-1.17.181a.184.184,0,0,0-.146.13c-1.683,4.994-3.821,7.222-5.2,7.222a.7.7,0,0,1-.729-.806,3.312,3.312,0,0,1,.105-.8l1.023-3.53a5.92,5.92,0,0,0,.225-1.189,1.156,1.156,0,0,0-1.1-1.28c-.785,0-1.682.766-3.105,2.642a.184.184,0,0,0-.037.142.175.175,0,0,0,.076.12l.4.294a.184.184,0,0,0,.135.033.191.191,0,0,0,.118-.073c1.22-1.675,1.682-1.8,1.788-1.795a.2.2,0,0,1,.181.25,1.737,1.737,0,0,1-.082.395l-1.045,3.711a4.233,4.233,0,0,0-.187,1.08,1.756,1.756,0,0,0,1.828,1.917c1.372,0,2.9-1.182,4.109-3.108l-.756,2.965c-4.04,1.6-5.618,2.794-5.619,4.216a1.584,1.584,0,0,0,1.754,1.543c2.2,0,3.915-1.788,5.23-5.468a12.19,12.19,0,0,0,2.765-2.24.188.188,0,0,0-.006-.252m-4.378,3.238c-.617,2.451-1.922,3.843-3.613,3.843a.752.752,0,0,1-.877-.7c0-1,1.715-1.956,4.491-3.146m-229.709-10.605h-2.646v6.071a1.189,1.189,0,0,0,1.285,1.311,3.545,3.545,0,0,0,1.36-.323l.105,1.079a5.022,5.022,0,0,1-1.564.332,2.176,2.176,0,0,1-2.388-2.4v-6.069H487v-1.091h2.007v-2.683h1.2v2.683h2.646v1.091h0Zm2.143-7.021h1.2v7.564h.04a3.455,3.455,0,0,1,3.166-1.875c2.888,0,3.53,1.975,3.53,4.013v5.537h-1.2v-5.485c0-1.513-.421-2.986-2.329-2.986-1.788,0-3.205,1.253-3.2,3.813v4.66h-1.2v-15.247h0Zm19.333,13.479a4.8,4.8,0,0,1-8.7-2.924,4.617,4.617,0,0,1,4.627-4.882,4.226,4.226,0,0,1,4.353,4.357v.848l-7.781.009a3.465,3.465,0,0,0,3.509,3.5,3.7,3.7,0,0,0,3.106-1.654l.884.746Zm-.922-3.692a3.125,3.125,0,0,0-3.21-3.014,3.426,3.426,0,0,0-3.365,3.023l6.576-.01Zm104.836,5.274c-.105,1.795-.923,5.3-1.253,7.223-.288,1.675-.631,3.575-1.779,4.312a4,4,0,0,1-3.447.2c-1.464-.566-3.025-1.021-4.579-1.494a6.74,6.74,0,0,0-.907-.3,9.08,9.08,0,0,0-1.2-.02,2.943,2.943,0,0,0-1.4.14,5.222,5.222,0,0,0-1.262,2.3c-.122.421-.247.757-.4,1.28-.137.454-.21,1.211-.5,1.27a1.386,1.386,0,0,1-.818-.382,3.158,3.158,0,0,1-.466-1.32,6,6,0,0,1-.261-1.582,4.1,4.1,0,0,1,.526-1.12c.182-.382.382-.787.526-1.109.325-.736.489-1.756,1.169-2.087a3.552,3.552,0,0,1,1.9.105,3.848,3.848,0,0,0,1.692-.323,9.328,9.328,0,0,1,5.165-.353,4.688,4.688,0,0,1,1.431.946,34.6,34.6,0,0,1-.292-6c.044-.989.141-2,.176-2.985.031-1.009-.2-2.018-.121-3.025a5.977,5.977,0,0,1,1.312-3.2,12.467,12.467,0,0,1,1.02-1.239,4,4,0,0,0,1.138-1.322,9.465,9.465,0,0,0-.263-5.455,17.732,17.732,0,0,0-1.488-3.179,4.837,4.837,0,0,0-.642-.986,10.174,10.174,0,0,1-1.052-1.09,7.933,7.933,0,0,0-.877-1.231,4.1,4.1,0,0,1-3.47.614c-.751-.271-1.337-.966-2.073-1.321a2.4,2.4,0,0,1-.73-.382,3.668,3.668,0,0,1,1.867-.089,3.761,3.761,0,0,0,1.781-.2,1.279,1.279,0,0,0,.817-.878,4.539,4.539,0,0,0-.963-1.211c-.315-.353-.671-.9-.994-1.229-.18-.182-.451-.374-.671-.615a2.623,2.623,0,0,0-.642-.613c-.1-.05-.315-.063-.439-.122a3.385,3.385,0,0,1-.757-.678c-1.21-1.139-2.354-2.328-3.591-3.459-.219-.2-.491-.421-.729-.677a3.761,3.761,0,0,0-.736-.674,5.907,5.907,0,0,1-1.428-.555,5.4,5.4,0,0,1-.4-1.2,2.926,2.926,0,0,1-.383-1.795,2.2,2.2,0,0,1,.234-.353,1.849,1.849,0,0,1,.118-.384,1.006,1.006,0,0,1,.73-.231,1.3,1.3,0,0,1,.642-.414c.256.061.163.3.29.554a1.42,1.42,0,0,0,.378-.061,3.132,3.132,0,0,1,.707.676,4.125,4.125,0,0,1,.088,1.04c.014.342.035.685.026,1.018,1.347,1.31,2.886,2.523,4.379,3.762a20.505,20.505,0,0,0,2.689,2.169,10.4,10.4,0,0,1,1.606.966,7.522,7.522,0,0,0,1.168,1.119,4.478,4.478,0,0,1-.38-2.763,5.334,5.334,0,0,1,2.887-3.055c.533-.253,1.556-.757,2.158-.475a1.3,1.3,0,0,1,.47.945c.491.421,1.429.4,1.721,1.028a.209.209,0,0,0,.232.021c-.013.12.011.19.087.211a6.929,6.929,0,0,1,1.311.293,1.514,1.514,0,0,1-.061.553.747.747,0,0,0,.381.292v.273a.5.5,0,0,1,.29.322,1.315,1.315,0,0,1,.469.525c.133.686-.526.918-.707,1.522a2.43,2.43,0,0,0,0,1.03,1.1,1.1,0,0,0,.382-.557c.338-.614.589-1.3.962-1.935.347-.595.9-1.1,1.253-1.675a15.491,15.491,0,0,0,.962-3.872c.132-.606.245-1.222.378-1.8s.366-1.118.526-1.644c.325-1.051.636-2.128.965-3.379.21-.8.513-1.6.728-2.523a5.034,5.034,0,0,0,.2-.878c-.016-.5-.552-.878-.616-1.412a3,3,0,0,1,.117-.615,2.451,2.451,0,0,1,.089-.614,2.621,2.621,0,0,1,.7-.5,2.4,2.4,0,0,1,.817-.494,1.2,1.2,0,0,1,1.024.4,2.471,2.471,0,0,1,.113.767c-.065.242-.38.262-.434.5a10.616,10.616,0,0,0,.116,1.522c-.055.747-.664,1.181-.841,1.907a14.861,14.861,0,0,0-.2,1.825c-.128,1.21-.276,2.44-.4,3.641a23.473,23.473,0,0,1-.411,2.813c-.077.333-.267.615-.321.907a11.075,11.075,0,0,0,.028,1.242,9.387,9.387,0,0,1-.315,1.754,15.569,15.569,0,0,1-.468,1.582,12.074,12.074,0,0,0-.907,3.238,6.472,6.472,0,0,0,.21,2.523c.341.841,1.173,1.764,1.2,2.963a4.6,4.6,0,0,1-.289,1.412,4.866,4.866,0,0,0-.556,1.846,22.178,22.178,0,0,1,.118,2.733c-.105.806-.315,1.577-.5,2.431-.45,2.146-.335,4.356-.611,6.576a8.094,8.094,0,0,0-.174,1.239,2.863,2.863,0,0,0,.4,1.078,6.742,6.742,0,0,0,1.081,1.232c.769.775,1.5,1.563,2.276,2.35.381.382.727.836,1.052,1.23.342.42.7.867,1.022,1.29a13.018,13.018,0,0,1,1.72,2.874,6.647,6.647,0,0,1,.587,1.705,2.091,2.091,0,0,1-.5,1.673c-1,1.323-2.863,1.848-4.521,2.5-.814.314-1.641.676-2.452,1.059-1.878.878-4.007,1.492-5.283,3a4.377,4.377,0,0,0-.582,1.169c-.33.841-.606,1.664-.932,2.592a4.28,4.28,0,0,0-.323,1.4,1.243,1.243,0,0,1-.057.906c-.325.071-.383-.221-.526-.371a.944.944,0,0,1-.2-.183,5.272,5.272,0,0,1-.175-2.491,2.289,2.289,0,0,0,.087-.736,7.974,7.974,0,0,0-.554-1.614,3.987,3.987,0,0,0-.382-.705,1.472,1.472,0,0,1-.494-1.141,1.756,1.756,0,0,1,1.224-.889c.547-.189,1.137-.314,1.633-.471,1.788-.566,2.58-2.361,3.94-3.611a8.807,8.807,0,0,1,4.9-2.612.769.769,0,0,0-.5-.434c-.537-.344-1.109-.746-1.664-1.119a27.465,27.465,0,0,1-4.027-3.409,9.13,9.13,0,0,0-2.017-1.693" transform="translate(239 1297.06)" fill="#f16a99" fill-rule="evenodd"/>
  </g>
</svg>
