<svg xmlns="http://www.w3.org/2000/svg" width="280" height="240" viewBox="0 0 280 240">
  <g id="Group_69152" data-name="Group 69152" transform="translate(-984 -9114)">
    <rect id="Rectangle_7498" data-name="Rectangle 7498" width="280" height="240" transform="translate(984 9114)" fill="none"/>
    <g id="UofT_Centered" transform="translate(1012.999 9207)">
      <path id="University_of_Toronto_Mark_Stacked" d="M222.875,207.52a14.087,14.087,0,0,1,14.305,14.234,14.872,14.872,0,0,1-14.72,14.516c-8.084,0-13.883-6.567-13.883-14.516a14.646,14.646,0,0,1,14.306-14.234m1.454,26.951c5.184,0,8.427-5.112,8.427-10.023,0-7.807-4.493-15.135-11.195-15.135-5.317,0-8.567,4.7-8.567,10.159-.01,7.187,4.137,15,11.326,15Zm-28.752-26.329h-5.908c-2.556,0-4.493,0-6.082-.069-1.452-.069-1.8-.415-2-.691h-.76c-.139.346-2,5.317-2.068,5.6l.9.552c.9-2.419,1.934-3.593,6.84-3.593a37.44,37.44,0,0,1,3.942.206c.274,3.523.346,6.977.346,10.5,0,2.215-.068,10.484-.346,12.286-.141.832-.555,1.223-2.833,1.639-.97.139-1.591.205-2.143.277l.209,1.117c.738-.068,1.624-.115,2.725-.184s2.456-.115,4.458-.115c.76,0,2.006-.051,3.18.02s2.215.073,3.662.139l.139-1.152a12.478,12.478,0,0,1-1.315-.147,5.136,5.136,0,0,1-2.487-.828c-.9-1.037-.9-8.488-.9-10.484,0-1.728.277-10.433.277-12.442,0-.831.278-.831,2.765-.831l.084.012c1.114-.038,1.425-.012,1.843-.012,4.907,0,5.043,1.182,5.938,3.593l.9-.552c-.069-.278-1.037-5.251-1.173-5.6h-.759c-.21.277-.554.622-2.006.691-1.889.083-4.126.069-6.378.069H195.6Zm-45.524-.069c-1.106.069-1.941.069-3.324.069a20.529,20.529,0,0,1-2.068-.069c-.691-.069-.8-.061-1.464-.137v1.182c4.007.759,4.364,1.382,4.226,9.4l-.015,4.907c0,1.865-.127,7.394-.335,8.986-.206,1.8-.965,1.934-2,2.143-.554.139-1.182.278-1.591.346v1.037c1.037,0,2.068-.068,3.111-.137s2.425-.138,3.456-.138,2.141.068,3.111.138a11.847,11.847,0,0,1,1.933.137V234.75c-5.465-.965-5.465-1.728-5.389-6.351V216.718l.068-2.215c-.015-.017-.014.036,20.329,21.564h1.419c-.137-2.282-.137-8.154-.137-10.714,0-3.662-.025-13.109.13-14.286.236-1.8,2.634-1.949,3.948-1.949v-1.037c-2.971,0-4.6.071-5.908-.068a27.035,27.035,0,0,0-2.9-.205,14.472,14.472,0,0,0-1.728,0l-.205,1.037c4.629.278,4.524.691,4.524,11.118,0,1.243-.044,7.343-.044,8.518Zm-25.026-.553a14.085,14.085,0,0,1,14.3,14.234,14.872,14.872,0,0,1-14.72,14.516c-8.084,0-13.883-6.567-13.883-14.516A14.645,14.645,0,0,1,125.035,207.52Zm1.452,26.951c5.184,0,8.431-5.112,8.431-10.023,0-7.807-4.493-15.135-11.2-15.135-5.317,0-8.567,4.7-8.567,10.159,0,7.187,4.147,15,11.332,15ZM81.163,207.937c.9.068,1.728.137,2.626.137.828.069,1.728.069,2.556.069.622,0,2.215-.139,3.8-.277s2.765-.139,3.73-.139c5.875,0,9.6,3.177,9.6,7.461,0,3.87-3.525,6.221-6.289,6.912,5.734,8.295,6.771,9.537,8.986,11.608a7.212,7.212,0,0,0,4.147,2l-.071,1.037a12.274,12.274,0,0,1-8.359-2.833c-4.217-3.317-8.362-9.881-9.122-11.263-1.182,0-1.659,0-3.661-.139v4.006c0,1.8-.069,5.806.485,6.912.346.622,2.419,1.243,3.8,1.657l.069,1.037a43.075,43.075,0,0,0-6.081-.485c-.969,0-5.252.274-6.15.346l-.206-.828c.415-.069,2.9-.622,3.524-1.8.483-1.037.414-6.843.414-8.7V218.03c0-8.567-.414-8.714-3.87-8.913Zm8.016,12.993a21.3,21.3,0,0,0,2.971.138c1.037,0,6.84,0,6.84-5.53a6.351,6.351,0,0,0-6.772-6.289c-2.9,0-2.9.346-2.971,5.044ZM61.953,207.52a14.086,14.086,0,0,1,14.305,14.234A14.871,14.871,0,0,1,61.54,236.27c-8.085,0-13.883-6.567-13.883-14.516A14.644,14.644,0,0,1,61.951,207.52Zm1.452,26.951c5.184,0,8.43-5.112,8.43-10.023,0-7.807-4.493-15.135-11.195-15.135-5.317,0-8.567,4.7-8.567,10.159-.007,7.187,4.142,15,11.327,15ZM34.014,208.142H28.091c-2.556,0-4.493,0-6.081-.069-1.452-.069-1.8-.415-2-.691h-.759c-.139.346-2,5.317-2.068,5.6l.9.552c.9-2.419,1.934-3.593,6.841-3.593a37.383,37.383,0,0,1,3.939.206c.278,3.523.346,6.977.346,10.5,0,2.215-.068,10.484-.346,12.286-.139.832-.552,1.223-2.833,1.639-.968.139-1.589.205-2.142.277l.206,1.117c.738-.068,1.624-.115,2.727-.184s2.455-.115,4.46-.115c.76,0,2-.051,3.179.02s2.215.073,3.662.139l.139-1.152a12.457,12.457,0,0,1-1.313-.147,5.138,5.138,0,0,1-2.488-.828c-.9-1.037-.9-8.488-.9-10.484,0-1.728.276-10.433.276-12.442,0-.831.276-.831,2.765-.831l.084.012c1.114-.038,1.424-.012,1.843-.012,4.907,0,5.044,1.182,5.942,3.593l.9-.552c-.071-.278-1.037-5.251-1.173-5.6h-.759c-.209.277-.554.622-2,.691-1.887.083-4.123.069-6.38.069H34.013Zm178.525-24.386a30.867,30.867,0,0,1-4.19.182l-2.1-.031-2.164-.061-.717.043-.561.058v.524h.1c.545.028,1.054.081,1.281.409.319.483.353.983.353,5.335a45.224,45.224,0,0,1-.247,4.717c-.115.472-.78.641-1.276.73l-.077.015-.046.654.115-.009c1.22-.093,2.551-.121,2.9-.121l1.074.03,1.994.1v-.717l-.147-.014c-1.419-.135-1.9-.381-2.044-.565a4.192,4.192,0,0,1-.207-1.7c0-.23,0-.461.014-.682,0,0,.048-1.843.061-2.271l1.013-.054a10.039,10.039,0,0,1,2.861.415c.195.063.362.461.444,1.01l.012.09h.616l.009-.1a34.157,34.157,0,0,0,.062-3.494v-.1h-.65l-.015.085c-.147.9-.211,1.278-2.617,1.278a11.267,11.267,0,0,1-1.641-.1h-.053c-.015-.219-.024-.452-.024-.706,0-.278,0-.576.015-.878,0,0,.037-2.56.043-2.954.7-.083,1.3-.115,1.477-.115a5.665,5.665,0,0,1,3,.614,2.074,2.074,0,0,1,.644,1.215l.02.084.685-.043-.01-.1c-.016-.2.025-.873.065-1.47l.067-1.309Zm-18.742-.09a6.351,6.351,0,0,1,6.5,6.351,6.666,6.666,0,0,1-6.682,6.467,6.324,6.324,0,0,1-6.311-6.467,6.592,6.592,0,0,1,6.5-6.35Zm.645,11.815a4.039,4.039,0,0,0,3.666-4.283c0-3.211-1.832-6.533-4.9-6.533a3.964,3.964,0,0,0-3.729,4.351c0,3.177,1.857,6.468,4.971,6.468ZM170.7,183.923v.614h.147c.617.028,1.465.068,1.465.561,0,.147-.262.871-2.592,4.252a30.786,30.786,0,0,1-3.226-4.431c0-.137,0-.295,1.412-.32h.1v-.722l-1.173.025-2.266.038-2.452-.032v.664h.1a2.1,2.1,0,0,1,1.267.287,37.933,37.933,0,0,1,3.49,4.056c0,.012,1.061,1.371,1.166,1.5.063.876.121,1.85.121,3.052,0,1.849,0,2.235-1.728,2.29h-.093l-.046.62h.1c.252.017,1.047-.041,1.812-.1l1.316-.083,1,.048.2.012,1.349.067V195.7l-.094-.012c-1.688-.147-1.706-.363-1.728-.691v-.127c-.04-.762-.059-1.613-.059-2.535,0-.691.014-1.431.033-2.208l2.425-3.7c.773-1.182,1.2-1.833,2.852-1.864h.1v-.712l-.09-.007c-.217-.02-.886.017-1.477.053l-.795.038-.941-.052-.665-.04-.922-.031h-.106Zm-10.93-.346h-.389l-.03.041c-.065.082-.177.23-.82.262l-2.483.03h-3.47l-2.712-.03c-.641-.03-.758-.18-.82-.262l-.031-.041h-.461l-.027.063c-.051.127-.9,2.334-.931,2.467l-.016.075.576.346.041-.115c.388-1.025.806-1.508,2.963-1.508a16.539,16.539,0,0,1,1.664.083c.129,1.674.147,3.287.147,4.509,0,1.174-.037,4.628-.147,5.371-.047.268-.127.444-1.182.632l-.766.1-.295.036.13.691,1.023-.069.287-.017,1.985-.048h.318l1.1.012.838.032.886.031.015-.093.074-.612-.559-.058-.129-.017a2.111,2.111,0,0,1-1.054-.335c-.136-.147-.371-.953-.371-4.524l.061-2.55.062-2.9c0-.247,0-.26,1.136-.26h.863c2,0,2.152.419,2.494,1.329l.106.295.569-.346-.136-.658c-.2-.97-.365-1.781-.409-1.887l-.026-.063Zm-20.641.376v.614h.1c1.613.061,1.88.389,2.01.724a36.231,36.231,0,0,1,.272,5.356v.217a15.294,15.294,0,0,1-.328,4.123c-.108.19-.524.525-2.112.645h-.1v.628l1.958-.065h1.795l2.985.094-.012-.115-.036-.582h-.1c-1.3,0-1.728-.024-1.88-.533a24.956,24.956,0,0,1-.115-3.484c0-4.817.028-6.09.295-6.555.328-.536,1.477-.468,1.817-.433l.115.012v-.738h-1.462l-2.068.061-1.362-.04-.591-.021-1.078-.03h-.1v.1Zm-10.945,3.3c0,2.1,1.795,2.84,3.1,3.378l.115.044c2.248.911,3.274,1.329,3.274,2.88a1.959,1.959,0,0,1-2.189,1.9,4.5,4.5,0,0,1-2.87-1.037,3.168,3.168,0,0,1-.954-1.759l-.016-.081H127.9l.041.132a9.232,9.232,0,0,1,.524,3.514v.1l.6.041.03-.069c.028-.071.132-.295.276-.295a5.19,5.19,0,0,1,.755.157l.084.022.182.053a4.58,4.58,0,0,0,1.512.223c3.017,0,4.645-1.833,4.645-3.556,0-2.425-2.392-3.371-3.971-4-1.5-.576-2.641-1.112-2.641-2.334a2.068,2.068,0,0,1,2.3-2.02,3.372,3.372,0,0,1,2.332.936,2.674,2.674,0,0,1,.738,1.535l.02.08.088.025h.546L135.8,185.5a6.769,6.769,0,0,1,.18-1.46l.026-.115-.552-.083-.4.268a8.626,8.626,0,0,0-2.483-.387c-2.591,0-4.4,1.45-4.4,3.525Zm-8.71-3.5c2.589,0,4.4,1.388,4.4,3.374a3.462,3.462,0,0,1-2.749,3.086,26.344,26.344,0,0,0,3.923,4.96,3.183,3.183,0,0,0,1.789.85h.1l-.044.656h-.1a5.651,5.651,0,0,1-3.8-1.267,20.513,20.513,0,0,1-4.074-4.92l-1.477-.053v2.213a8.466,8.466,0,0,0,.205,2.419,4.59,4.59,0,0,0,1.638.68l.068.021.044.658-.126-.021a19.368,19.368,0,0,0-2.7-.211c-.423,0-2.321.115-2.743.147h-.084l-.147-.556.109-.017c.256-.041,1.262-.295,1.5-.729a18.62,18.62,0,0,0,.174-3.49v-3.192c0-3.708-.147-3.718-1.634-3.8h-.1l.044-.722.183.014,1.094.054,1.136.031c.274,0,1-.062,1.688-.121h0Zm-2,5.8a10.776,10.776,0,0,0,1.226.051c1.1,0,2.954-.295,2.954-2.32a2.7,2.7,0,0,0-2.926-2.659c-1.195,0-1.195.04-1.227,2.111,0,.006-.025,2.65-.028,2.819Zm-7.308-5.738c-1.517.09-3.907.121-5.494.121-.963,0-3.372-.061-4.263-.09h-.1v.617l.085.014c1.047.182,1.114.206,1.182.444a24.286,24.286,0,0,1,.242,5.15,41.627,41.627,0,0,1-.277,4.98c-.079.419-.606.556-1.424.644l-.1.012.089.691.1-.012a48.2,48.2,0,0,1,4.874-.18l4.939.061.046-.074a6.614,6.614,0,0,0,.922-3.015l.016-.109-.591-.044-.028.073c-.419,1.136-1.253,2.3-4.263,2.3a4.931,4.931,0,0,1-2.1-.367,17.075,17.075,0,0,1-.147-2.381s-.024-1.843-.03-2.268a13.877,13.877,0,0,1,1.843-.109c2.419,0,2.6.189,2.929,1.676l.016.079h.591v-.1c-.031-1.624-.03-2.016.061-3.719V188.1h-.65l-.02.077c-.237.908-.434,1.084-.781,1.137a22.4,22.4,0,0,1-3.9.127c0-.159-.059-1.624-.059-1.624a20.865,20.865,0,0,1,.205-2.88,17.891,17.891,0,0,1,2.381-.23c1.367,0,2.172.179,2.529.56a1.7,1.7,0,0,1,.272,1.3v.1l.7.085v-.115c0-.131.082-.624.147-.985l.073-.461a7.316,7.316,0,0,0,.1-1.256v-.109Zm-26.76.147.037.539.083.012c1.664.206,1.728.215,3.074,2.971l2.781,5.666.024.052a27.1,27.1,0,0,1,1.423,3.325l.021.075h.614l.024-.069a26.369,26.369,0,0,1,1.695-4.016l3-5.876c.691-1.382.988-1.735,2.338-2.006l.083-.016v-.674H98.5c-.766.03-1.513.03-2.279,0l-2.352-.063v.09l-.038.639h.108c.62,0,1.445.078,1.445.738a4.421,4.421,0,0,1-.444,1.371l-.047.1c-.613,1.382-1,2.138-1.41,2.942l-1.369,2.806-.321.705a60.2,60.2,0,0,1-3.809-8.327c0-.147.033-.167,1.044-.295l.315-.04v-.681H86.425c-.712,0-2.152-.032-2.9-.09l-.115-.01Zm-8.342-.007v.614h.1c1.613.059,1.879.389,2.009.723a36.337,36.337,0,0,1,.272,5.356v.217a15.246,15.246,0,0,1-.326,4.123c-.108.19-.524.525-2.114.645h-.091v.628l1.959-.065h1.793l2.986.094-.012-.115-.037-.582h-.1c-1.3,0-1.728-.024-1.88-.533a25.02,25.02,0,0,1-.115-3.482c0-4.818.03-6.09.295-6.555.329-.536,1.477-.468,1.818-.433l.115.012v-.738h-1.47l-2.068.061-1.358-.04-.591-.021-1.078-.03h-.106v.1Zm-7.1-.205h-.079v.078l-.115.576h.115c2.387.141,2.012.192,2.074,5.127,0,0,.031,2.984.024,3.321-.167-.176-8.567-8.95-8.567-8.95l-.031-.038-1.376.031-.922-.031-.078-.007-.836-.061.014.115v.591l.078.015c1.717.319,2,.508,1.941,4.016l-.036,2.166c0,.8-.093,3.236-.187,3.924s-.353.763-.806.85l-.8.169v.647l2.88-.126,1.382.061.964.067.009-.109v-.609l-.085-.015c-2.363-.409-2.355-.669-2.324-2.682l.062-5.12s.014-.444.024-.727c.461.48,8.953,9.279,8.9,9.305l.028.037.806-.015-.007-.115c-.061-1-.061-3.571-.061-4.7,0-1.669.074-5.561.159-6.041.108-.833.821-1.037,1.507-1.037h.1v-.661h-.1c-1.329,0-2,.088-2.586.027l-.392-.044-.915-.054Zm-22.45.121-.717.014c-.842,0-2.535.03-2.791.061l-.1.012.043.68h.1c.806,0,1.081,0,1.267.133a7.834,7.834,0,0,1,.42,3.456l-.147,4.032c0,2.782,1.772,4.253,5.138,4.253,5.326,0,5.613-2.847,5.693-8.767l.031-1.789v-.075c.028-.865.038-1.225,1.477-1.308h.09l.046-.691-.274.017-2.152.051-1.657-.041-.738-.024v.725h.1a2.4,2.4,0,0,1,1.5.3,6.167,6.167,0,0,1,.494,2.864v1.091c0,4.1-.276,6.593-4.1,6.593-3.479,0-3.479-2.773-3.479-4.107v-2.3c0-4.283.157-4.3,2.068-4.472l.093-.009v-.707h-.1c-.483-.036-1.548-.012-2.324,0Z" transform="translate(-17.18 -183.577)"/>
    </g>
  </g>
</svg>
