<svg xmlns="http://www.w3.org/2000/svg" width="168.067" height="168" viewBox="0 0 168.067 168">
    <g>
        <path d="M30.825 365.687a30.778 30.778 0 0 0 23.655-50.494l6.325-6.326-3.959-3.959-6.325 6.326a30.8 30.8 0 1 0-19.7 54.454zm0-56a25.2 25.2 0 1 1-25.2 25.2 25.2 25.2 0 0 1 25.2-25.2zm0 0" transform="translate(.008 -.086) translate(0 -197.601)"/>
        <path d="M30.88 61.745a30.668 30.668 0 0 0 19.7-7.145l6.32 6.324 3.959-3.959-6.324-6.325a30.784 30.784 0 1 0-23.655 11.1zm0-56a25.2 25.2 0 1 1-25.2 25.2 25.2 25.2 0 0 1 25.2-25.2zm0 0" transform="translate(.008 -.086) translate(-.055 -.059)"/>
        <path d="M213.685 182.85a30.8 30.8 0 1 0-33.5 30.663c.893.087 1.792.137 2.7.137s1.8-.049 2.7-.137a30.827 30.827 0 0 0 28.1-30.663zm-16.8 20.251a22.335 22.335 0 0 1-11.908 4.844c-.692.059-1.385.105-2.092.105s-1.4-.046-2.09-.105a22.344 22.344 0 0 1-11.91-4.844v-.186a34.887 34.887 0 0 1 8.241-13.146l1.8-1.8a2.8 2.8 0 0 0 0-3.959 5.6 5.6 0 1 1 7.917 0 2.8 2.8 0 0 0 0 3.959l1.8 1.8a34.9 34.9 0 0 1 8.24 13.146zM192.6 185.81l-.067-.07a11.2 11.2 0 1 0-19.3 0l-.067.07a40.458 40.458 0 0 0-8.985 13.869 25.2 25.2 0 1 1 37.408 0 40.478 40.478 0 0 0-8.989-13.869zm0 0" transform="translate(.008 -.086) translate(-98.86 -98.764)"/>
        <path d="M62.086 76.086a14 14 0 1 0-14-14 14 14 0 0 0 14 14zm0-22.4a8.4 8.4 0 1 1-8.4 8.4 8.4 8.4 0 0 1 8.4-8.4zm0 0" transform="translate(.008 -.086) translate(-31.261 -31.2)"/>
        <path d="M50.886 380.086h22.4a2.8 2.8 0 0 0 2.8-2.8v-22.4a2.8 2.8 0 0 0-2.8-2.8h-22.4a2.8 2.8 0 0 0-2.8 2.8v22.4a2.8 2.8 0 0 0 2.8 2.8zm2.8-22.4h16.8v16.8h-16.8zm0 0" transform="translate(.008 -.086) translate(-31.261 -228.8)"/>
        <path d="M368.508 49.659a2.913 2.913 0 0 0-4.86 0l-11.2 19.6a2.8 2.8 0 0 0 2.429 4.2h22.4a2.8 2.8 0 0 0 2.431-4.2zm-8.806 18.2l6.375-11.159 6.377 11.155zm0 0" transform="translate(.008 -.086) translate(-228.853 -31.373)"/>
        <path d="M334.886 365.687a30.8 30.8 0 1 0-19.694-54.454l-6.326-6.326-3.959 3.959 6.326 6.326a30.777 30.777 0 0 0 23.654 50.494zm0-56a25.2 25.2 0 1 1-25.2 25.2 25.2 25.2 0 0 1 25.2-25.2zm0 0" transform="translate(.008 -.086) translate(-197.661 -197.601)"/>
        <path d="M364.407 377.128a2.8 2.8 0 0 0 3.359 0l11.2-8.4a2.8 2.8 0 0 0 1.12-2.241v-11.2a2.8 2.8 0 0 0-1.12-2.239l-11.2-8.4a2.8 2.8 0 0 0-3.359 0l-11.2 8.4a2.8 2.8 0 0 0-1.121 2.239v11.2a2.8 2.8 0 0 0 1.121 2.241zm-6.721-20.441l8.4-6.3 8.4 6.3v8.4l-8.4 6.3-8.4-6.3zm0 0" transform="translate(.008 -.086) translate(-228.861 -223.601)"/>
        <path d="M64.086 200.086h5.6v5.6h-5.6zm0 0" transform="translate(.008 -.086) translate(-41.661 -130)"/>
        <path d="M64.086 232.086h5.6v5.6h-5.6zm0 0" transform="translate(.008 -.086) translate(-41.661 -150.8)"/>
        <path d="M64.086 264.086h5.6v5.6h-5.6zm0 0" transform="translate(.008 -.086) translate(-41.661 -171.6)"/>
        <path d="M424.086 200.086h5.6v5.6h-5.6zm0 0" transform="translate(.008 -.086) translate(-275.661 -130)"/>
        <path d="M424.086 232.086h5.6v5.6h-5.6zm0 0" transform="translate(.008 -.086) translate(-275.661 -150.8)"/>
        <path d="M424.086 264.086h5.6v5.6h-5.6zm0 0" transform="translate(.008 -.086) translate(-275.661 -171.6)"/>
        <path d="M200.086 40.086h5.6v5.6h-5.6zm0 0" transform="translate(.008 -.086) translate(-130.061 -26)"/>
        <path d="M232.086 40.086h5.6v5.6h-5.6zm0 0" transform="translate(.008 -.086) translate(-150.861 -26)"/>
        <path d="M264.086 40.086h5.6v5.6h-5.6zm0 0" transform="translate(.008 -.086) translate(-171.661 -26)"/>
        <path d="M200.086 424.086h5.6v5.6h-5.6zm0 0" transform="translate(.008 -.086) translate(-130.061 -275.6)"/>
        <path d="M232.086 424.086h5.6v5.6h-5.6zm0 0" transform="translate(.008 -.086) translate(-150.861 -275.6)"/>
        <path d="M264.086 424.086h5.6v5.6h-5.6zm0 0" transform="translate(.008 -.086) translate(-171.661 -275.6)"/>
        <path d="M334.892.086a30.8 30.8 0 0 0-26.2 46.985l-1.764 11.387a2.8 2.8 0 0 0 2.766 3.228 2.625 2.625 0 0 0 .585-.062l12.145-2.6a30.412 30.412 0 0 0 12.47 2.665 30.8 30.8 0 1 0 0-61.6zm0 56a24.962 24.962 0 0 1-10.92-2.52 2.781 2.781 0 0 0-1.218-.28 3.016 3.016 0 0 0-.585.062l-9.079 1.961 1.3-8.416a2.8 2.8 0 0 0-.443-1.988 25.2 25.2 0 1 1 20.941 11.182zm0 0" transform="translate(.008 -.086) translate(-197.667)"/>
    </g>
</svg>
