<svg xmlns="http://www.w3.org/2000/svg" width="280" height="240" viewBox="0 0 280 240">
  <g id="Group_69148" data-name="Group 69148" transform="translate(-150 -8876)">
    <rect id="Rectangle_7493" data-name="Rectangle 7493" width="280" height="240" transform="translate(150 8876)" fill="none"/>
    <path id="Path_116254" data-name="Path 116254" d="M20.847,5.947h2.89c-.062.719-2.675,8.791-3,9.845L18.412,23.1c-.245.719-.611,1.835-.78,2.584l-.5-1.1c-.15-.4-.321-.8-.5-1.269L9.763,6.085c.6,0,1.178,0,1.774.015,1.725.031,1.269.489,1.269-5.947H-1v5.5c.107.5.413.459,1.116.459C.651,6.116,1.2,6.1,1.737,6.1c.306.566.551,1.3.81,1.926.275.688.535,1.346.825,2.064l8.149,20.593c.627,1.575,2.951,7.109,3.241,8.332h5.625a40.469,40.469,0,0,0,1.425-4.036c2.764-8.316,5.9-16.817,8.636-25.088l1.04-3.134c.321-1.025-.046-.81,2.874-.81V0H20.877V5.947Zm81.88,5.458h-5.3c-.367,0-.489.107-.489.489v5.947h5.779V33.1c0,5.075,1.9,6.911,6.589,6.911a28.628,28.628,0,0,0,5.3-.642v-6.1c-2.966.245-4.342.81-4.342-1.774V17.843h4.816V11.895c0-.367-.107-.489-.489-.489H110.25V2.095H102.7V11.4Zm51.537,8.837c0,7.445,7.568,8.042,13.194,8.974,1.835.306,4.632.764,4.632,2.752,0,2.92-6.712,2.966-9.2.688a7.63,7.63,0,0,1-1.131-1.59c-1.223-2.2.9-1.65-7.17-1.65V39.536h6.589V38.083a13.42,13.42,0,0,0,2.874,1.3c5.565,1.725,14.952.6,14.952-8.531,0-4.526-2.951-7.033-6.525-8.087-3.914-1.147-11.3-1.116-11.3-3.47,0-3.654,7.721-3.44,9.127.184.81,2.064-1.055,1.59,6.437,1.59.367,0,.489-.107.489-.489V11.91c0-.367-.107-.489-.489-.489-6.131,0-5.779-.428-5.779,1.131-1.605-.367-1.621-1.605-6.911-1.605-5.489,0-9.8,3.608-9.8,9.311Zm-34.842-8.348v5.947h2.737v12.2c0,6.788,2.263,9.953,9.158,9.953a13.32,13.32,0,0,0,4.923-1.178,33.149,33.149,0,0,0,3.9-2.354c0,1.529-.29,3.058.489,3.058h9.312c.367,0,.489-.107.489-.489V33.084h-2.889V11.895c0-.367-.107-.489-.489-.489H137.1c-.367,0-.489.107-.489.489v5.947h3.211v9.309a6.226,6.226,0,0,1-6.589,6.421c-3.731,0-3.532-2.55-3.532-7.063V11.421h-9.8c-.367,0-.489.107-.489.489ZM46.363,17.352a8.91,8.91,0,0,1,4.754,1.514c2.294,1.529,2,2.325,2.63,3.638H39.453a11.925,11.925,0,0,1,.963-1.926,7.022,7.022,0,0,1,5.947-3.211ZM31.594,24.736c0,4.021.474,6.146,2.568,9.311a14.787,14.787,0,0,0,11.726,5.947c3.837,0,7.35-.675,10.044-2.63a12.933,12.933,0,0,0,2.89-2.737,8.2,8.2,0,0,0,1.085-1.8,14.078,14.078,0,0,0,.75-2.141h-6.1c-2.843-.031-.764.627-3.959,2.141-3.164,1.514-8.179.856-10.3-2.492a5.6,5.6,0,0,1-.825-2.538H61.3c0-6.849-2.339-12.766-7.965-15.472-5.963-2.859-14.692-1.5-19.125,4.433a14.7,14.7,0,0,0-2.615,7.982ZM75.105,14.616V11.4H65.3c-.367,0-.489.107-.489.489v5.947H67.7V33.1H64.648v5.947c0,.367.107.489.489.489H78.621v-6.42H75.246V21.235c0-.6,2.141-2.263,2.691-2.6,3.257-2.048,7.9-1.774,7.9,2.446V33.13H82.777v5.946c0,.367.107.489.489.489h12.69c.367,0,.489-.107.489-.489V33.13H93.39V19.324c0-3.669-1.9-6.023-5.03-7.491-3.761-1.758-8.149-.642-11.421,1.483-.719.474-1.223.917-1.865,1.346Z" transform="translate(201 8978.305)" fill="#091d43" fill-rule="evenodd"/>
  </g>
</svg>
