<svg xmlns="http://www.w3.org/2000/svg" width="170.629" height="168" viewBox="0 0 170.629 168">
    <path fill-rule="evenodd" d="M465.663 1088.338l23.625 42a2.625 2.625 0 0 1-2.288 3.912h-47.25a2.625 2.625 0 0 1-2.288-3.912l23.625-42a2.625 2.625 0 0 1 4.576 0zm-2.288 6.641L444.238 1129h38.273zm-126 160.021a18.375 18.375 0 1 1 18.375-18.375A18.375 18.375 0 0 1 337.375 1255zm0-63a18.375 18.375 0 1 1 18.375-18.375A18.375 18.375 0 0 1 337.375 1192zm0-63a18.375 18.375 0 1 1 18.375-18.375A18.375 18.375 0 0 1 337.375 1129zm126 126a18.375 18.375 0 1 1 18.375-18.375A18.375 18.375 0 0 1 463.375 1255zm0-63a18.375 18.375 0 1 1 18.375-18.375A18.375 18.375 0 0 1 463.375 1192zm-63 63a18.375 18.375 0 1 1 18.375-18.375A18.375 18.375 0 0 1 400.375 1255zm0-63a18.375 18.375 0 1 1 18.375-18.375A18.375 18.375 0 0 1 400.375 1192zm0-63a18.375 18.375 0 1 1 18.375-18.375A18.375 18.375 0 0 1 400.375 1129z" transform="translate(-319 -1087)"/>
</svg>
