<svg xmlns="http://www.w3.org/2000/svg" xmlns:xlink="http://www.w3.org/1999/xlink" width="48" height="48" viewBox="0 0 48 48">
  <defs>
    <clipPath id="clip-xd">
      <rect width="48" height="48"/>
    </clipPath>
  </defs>
  <g id="xd" clip-path="url(#clip-xd)">
    <g id="Group_20202" data-name="Group 20202" transform="translate(2.91 -9.364)">
      <path id="Path_111642" data-name="Path 111642" d="M7.733,12.8H34.447a7.744,7.744,0,0,1,7.733,7.733v25.66a7.744,7.744,0,0,1-7.733,7.733H7.733A7.744,7.744,0,0,1,0,46.194V20.534A7.744,7.744,0,0,1,7.733,12.8" fill="#ff26be"/>
      <path id="Path_111643" data-name="Path 111643" d="M27.66,34.134H53.671A6.3,6.3,0,0,1,60,40.461V65.418a6.3,6.3,0,0,1-6.327,6.327H27.66a6.3,6.3,0,0,1-6.327-6.327V40.461a6.3,6.3,0,0,1,6.327-6.327" transform="translate(-19.576 -19.576)" fill="#2e001f"/>
      <g id="Group_20201" data-name="Group 20201" transform="translate(8.045 23.705)">
        <path id="Path_111644" data-name="Path 111644" d="M106.516,154.4l4.946,9.592c.088.141.035.283-.106.283h-3.092a.344.344,0,0,1-.371-.23q-1.7-3.5-3.462-7.261h-.018c-1.06,2.367-2.208,4.946-3.356,7.278a.34.34,0,0,1-.318.194H97.807c-.177,0-.194-.141-.106-.247l4.858-9.31-4.681-9.274a.155.155,0,0,1,.124-.265h3.038c.177,0,.265.035.318.194,1.113,2.367,2.226,4.681,3.286,7.049h.035c1.025-2.332,2.155-4.681,3.233-7,.088-.141.141-.23.318-.23h2.844c.141,0,.194.106.106.265Zm6.024,2.862c0-4.116,2.65-7.331,7-7.331a7.843,7.843,0,0,1,.919.035v-4.593a.177.177,0,0,1,.177-.177h2.844c.141,0,.177.053.177.141v16.146a12.584,12.584,0,0,0,.088,1.731c0,.124,0,.141-.106.194a10.525,10.525,0,0,1-4.522,1.025C115.278,164.434,112.54,162.067,112.54,157.262Zm7.914-4.522a2.424,2.424,0,0,0-1.025-.177c-2.208,0-3.71,1.714-3.71,4.558,0,3.25,1.519,4.558,3.5,4.558a3.335,3.335,0,0,0,1.219-.194V152.74Z" transform="translate(-97.649 -145.16)" fill="#fff"/>
        <path id="Path_111645" data-name="Path 111645" d="M106.516,154.4l4.946,9.592c.088.141.035.283-.106.283h-3.092a.344.344,0,0,1-.371-.23q-1.7-3.5-3.462-7.261h-.018c-1.06,2.367-2.208,4.946-3.356,7.278a.34.34,0,0,1-.318.194H97.807c-.177,0-.194-.141-.106-.247l4.858-9.31-4.681-9.274a.155.155,0,0,1,.124-.265h3.038c.177,0,.265.035.318.194,1.113,2.367,2.226,4.681,3.286,7.049h.035c1.025-2.332,2.155-4.681,3.233-7,.088-.141.141-.23.318-.23h2.844c.141,0,.194.106.106.265Zm6.024,2.862c0-4.116,2.65-7.331,7-7.331a7.843,7.843,0,0,1,.919.035v-4.593a.177.177,0,0,1,.177-.177h2.844c.141,0,.177.053.177.141v16.146a12.584,12.584,0,0,0,.088,1.731c0,.124,0,.141-.106.194a10.525,10.525,0,0,1-4.522,1.025C115.278,164.434,112.54,162.067,112.54,157.262Zm7.914-4.522a2.424,2.424,0,0,0-1.025-.177c-2.208,0-3.71,1.714-3.71,4.558,0,3.25,1.519,4.558,3.5,4.558a3.335,3.335,0,0,0,1.219-.194V152.74Z" transform="translate(-97.649 -145.16)" fill="#ff26be" opacity="0.15"/>
      </g>
    </g>
  </g>
</svg>
